<?xml version="1.0" encoding="UTF-8" standalone="no"?>
<svg
   xmlns:dc="http://purl.org/dc/elements/1.1/"
   xmlns:cc="http://creativecommons.org/ns#"
   xmlns:rdf="http://www.w3.org/1999/02/22-rdf-syntax-ns#"
   xmlns:svg="http://www.w3.org/2000/svg"
   xmlns="http://www.w3.org/2000/svg"
   xmlns:sodipodi="http://sodipodi.sourceforge.net/DTD/sodipodi-0.dtd"
   xmlns:inkscape="http://www.inkscape.org/namespaces/inkscape"
   inkscape:version="1.0 (4035a4f, 2020-05-01)"
   height="600"
   width="391.9501"
   sodipodi:docname="UEFA_Europa_Conference_League.svg"
   id="svg853"
   xml:space="preserve"
   viewBox="0 0 391.9501 600"
   version="1.1"
   stroke-miterlimit="2"
   stroke-linejoin="round"
   fill-rule="evenodd"
   clip-rule="evenodd"><metadata
   id="metadata859"><rdf:RDF><cc:Work
       rdf:about=""><dc:format>image/svg+xml</dc:format><dc:type
         rdf:resource="http://purl.org/dc/dcmitype/StillImage" /></cc:Work></rdf:RDF></metadata><defs
   id="defs857" /><sodipodi:namedview
   inkscape:current-layer="svg853"
   inkscape:window-maximized="0"
   inkscape:window-y="0"
   inkscape:window-x="0"
   inkscape:cy="436.418"
   inkscape:cx="286.759"
   inkscape:zoom="0.55050973"
   showgrid="false"
   id="namedview855"
   inkscape:window-height="900"
   inkscape:window-width="1440"
   inkscape:pageshadow="2"
   inkscape:pageopacity="0"
   guidetolerance="10"
   gridtolerance="10"
   objecttolerance="10"
   borderopacity="1"
   bordercolor="#666666"
   pagecolor="#ffffff" />
    
        
        <g
   transform="matrix(0.68789905,0,0,0.68789905,-68.955689,-70.91001)"
   id="g1059"><g
     id="g885"><path
       id="path880"
       d="m 328.511,473.363 -12.835,35.066 h 141.73 l -12.811,-35.066 h -116.09 z" /><path
       id="path878"
       d="m 363.712,357.703 c -6.346,-39.679 -19.149,-86.097 -19.149,-86.097 16.817,102.85 -10.887,184.75 -10.887,184.75 h 105.72 c -49.037,-180.1 -11.64,-342.54 -10.201,-349.42 -8.145,-1.828 -24.931,-3.641 -35.929,-3.794 -1.145,153.51 26.669,254.56 26.669,254.56 h -11.312 c -24.617,-100.05 -27.07,-225.95 -26.307,-254.62 -19.959,0.147 -35.8,3.367 -35.8,3.367 l 50.819,251.26 h -11.23 c 0,0 -47.777,-236.21 -50.367,-249.02 -18.975,4.503 -31.101,10.258 -37.069,13.196 54.129,98.632 76.247,235.83 76.247,235.83 h -11.202 z" /><path
       id="path833"
       d="m 424.35,306.734 c 7.908,-93.806 46.981,-177.69 50.065,-184.86 -14.447,-7.414 -30.261,-11.449 -35.703,-12.865 -20.314,93.934 -14.977,182.9 -14.362,197.73" /></g><g
     id="g874"><path
       style="fill:#00be14;fill-opacity:1"
       id="path870"
       d="m 233.47,321.132 c 0,-50.692 24.788,-95.684 62.86,-123.56 L 286.226,163.19 c -52.163,33.2 -86.772,91.526 -86.772,157.94 0,70.304 38.786,131.54 96.119,163.5 l 11.665,-32.62 C 263.047,425.135 233.47,376.519 233.47,321.12" /><path
       style="fill:#00be14;fill-opacity:1"
       id="path837"
       d="m 486.86,163.18 -10.104,34.382 c 38.072,27.872 62.86,72.865 62.86,123.56 0,55.395 -29.577,104.01 -73.768,130.89 l 11.664,32.62 c 57.334,-31.967 96.119,-93.202 96.119,-163.5 0,-66.413 -34.608,-124.74 -86.771,-157.94" /></g></g>
        <g
   transform="matrix(0.68789905,0,0,0.68789905,-68.955689,-70.91001)"
   id="g951"><path
     d="m 386.555,643.761 c 33.036,0 63.484,15.315 81.385,37.59 l 6.251,-7.72 c -19.71,-23.566 -52.021,-39.501 -87.636,-39.501 -35.616,0 -67.927,15.935 -87.637,39.501 l 6.252,7.72 c 17.899,-22.275 48.348,-37.59 81.385,-37.59"
     id="path895" /><path
     d="m 303.248,639.135 c -2.342,1.904 -5.065,2.833 -7.472,2.549 -3.045,-0.349 -4.897,-1.596 -7.928,-5.34 l -17.466,-21.476 -9.419,7.656 19.022,23.403 c 4.043,4.957 8.651,7.609 14.085,8.108 0.641,0.06 1.276,0.092 1.906,0.098 5.265,0.046 10.154,-1.811 14.893,-5.645 5.281,-4.312 8.177,-9.32 8.856,-15.307 0.621,-5.425 -1.037,-10.478 -5.066,-15.448 l -19.019,-23.396 -9.417,7.654 17.459,21.485 c 3.043,3.733 3.884,5.802 3.602,8.86 -0.212,2.408 -1.683,4.886 -4.036,6.799"
     id="path897" /><path
     d="m 261.501,605.317 c 34.264,-29.576 78.676,-45.864 125.06,-45.864 46.378,0 90.79,16.288 125.05,45.864 3.56,3.075 6.967,6.27 10.225,9.571 l 6.454,-7.97 c -3.205,-3.206 -6.541,-6.317 -10.017,-9.317 -36.113,-31.176 -82.892,-48.344 -131.72,-48.344 -48.825,0 -95.603,17.168 -131.72,48.344 -3.475,2.999 -6.812,6.11 -10.016,9.316 l 6.454,7.97 c 3.258,-3.3 6.664,-6.496 10.224,-9.57"
     id="path893" /><path
     d="m 496.921,613.935 c 0.572,-1.746 0.99,-4.325 -1.938,-6.579 l -1.855,-1.429 c -2.897,-2.231 -5.188,-1.274 -6.86,-0.189 l -43.421,28.099 11.349,6.421 27.679,-17.902 -4.77,16.088 -4.2,-3.156 -7.253,5.196 9.007,6.73 -2.093,7.224 9.943,9.099 z"
     id="path891" /><path
     d="m 367.651,571.485 -30.506,6.193 c -1.393,0.282 -2.494,0.981 -3.183,2.019 -0.689,1.039 -0.904,2.324 -0.62,3.717 l 6.08,29.956 c 0.988,4.872 3.173,8.381 6.493,10.429 2.195,1.354 4.827,2.032 7.862,2.029 1.545,-0.002 3.194,-0.18 4.943,-0.534 l 19.067,-3.87 -2.295,-11.307 -18.548,3.765 c -3.796,0.771 -5.029,0.35 -5.895,-3.912 l -0.653,-3.216 21.456,-4.355 -2.269,-11.179 -21.456,4.355 -1.628,-8.023 23.447,-4.759 z"
     id="path889" /><path
     d="m 426.97,587.83 18.282,4.738 2.889,-11.148 -18.798,-4.871 c -10.304,-2.67 -17.359,1.186 -19.865,10.859 l -7.676,29.625 c -0.356,1.374 -0.211,2.667 0.419,3.738 0.63,1.073 1.689,1.827 3.062,2.182 l 6.98,1.81 4.946,-19.161 21.157,5.483 2.856,-11.023 -21.16,-5.482 0.821,-3.167 c 1.088,-4.2 2.342,-4.553 6.087,-3.583"
     id="path841" /></g>
        
        <g
   transform="matrix(0.68789905,0,0,0.68789905,-68.955689,-70.91001)"
   id="g1050"><g
     id="g1020"><path
       id="path919"
       d="m 234.548,913.976 h -13.773 v 60.252 h 42.349 v -12.396 h -28.576 z" /><path
       id="path917"
       d="m 519.318,950.044 h 25.648 v -12.396 h -25.648 v -11.275 h 27.887 v -12.397 h -41.661 v 60.252 h 42.35 v -12.394 h -28.576 z" /><path
       id="path915"
       d="m 483.99,949.79 c 0,8.092 -4.136,13.085 -11.708,13.085 -7.576,0 -11.706,-4.993 -11.706,-13.085 v -35.807 h -13.773 v 36.58 c 0,16.787 11.618,24.704 25.479,24.704 13.859,0 25.48,-8.004 25.48,-24.704 v -36.58 H 483.99 Z" /><path
       id="path913"
       d="m 408.967,952.649 h 18.607 v 4.307 c -3.015,3.359 -7.838,5.943 -13.784,5.943 -10.421,0 -18.26,-6.114 -18.26,-18.776 0,-12.661 8.529,-18.779 16.712,-18.779 7.494,0 12.317,3.618 14.298,10.337 l 13.18,-3.876 c -3.101,-11.284 -11.888,-18.864 -27.307,-18.864 -16.537,0 -30.665,11.888 -30.665,31.182 0,19.294 13.954,31.18 30.836,31.18 13.095,0 21.191,-5.166 27.824,-13.263 v -20.156 h -31.441 z" /><path
       d="m 342.77734,913.97852 -24.44726,60.25195 h 15.58008 l 4.39062,-11.44727 h 23.58594 l 4.38672,11.44727 h 15.58203 l -24.44531,-60.25195 z m 7.31836,17.9082 7.0586,18.50195 h -14.11914 z"
       id="path907" /><path
       id="path903"
       d="m 283.38,950.047 h 25.651 V 937.649 H 283.38 v -11.274 h 27.888 v -12.396 h -41.661 v 60.252 h 42.352 V 961.835 H 283.38 Z" /></g><g
     id="g965"><path
       id="path931"
       d="m 126.645,764.117 h 43.88 v -21.206 h -43.88 v -19.29 h 47.71 v -21.205 h -71.269 v 103.08 h 72.448 V 784.29 h -48.889 v -20.174 z" /><path
       d="m 430.26562,700.06055 c -30.31499,0 -49.88476,20.45337 -49.88476,53.85937 0,33.403 19.56977,53.85547 49.88476,53.85547 30.313,0 49.88477,-20.45247 49.88477,-53.85547 0,-33.406 -19.57177,-53.85937 -49.88477,-53.85937 z m 0,21.1914 c 14.71601,0 26.33985,10.59497 26.33985,32.66797 0,22.073 -11.62385,32.66797 -26.33985,32.66797 -14.71699,0 -26.33984,-10.59497 -26.33984,-32.66797 0,-22.073 11.62284,-32.66797 26.33984,-32.66797 z"
       id="path929" /><path
       d="m 494.15234,702.41602 v 103.08007 h 23.5625 v -34.75195 h 16.78321 c 20.326,0 36.96679,-11.78002 36.96679,-34.16602 0,-22.384 -16.64079,-34.1621 -36.96679,-34.1621 z m 23.5625,21.20507 h 15.60938 c 10.454,0 14.58008,5.44803 14.58008,12.95703 0,7.511 -4.12608,12.95899 -14.58008,12.95899 h -15.60938 z"
       id="path925" /><path
       id="path921"
       d="m 276.195,702.416 h -23.56 v 61.258 c 0,13.843 -7.069,22.385 -20.027,22.385 -12.958,0 -20.028,-8.542 -20.028,-22.385 v -61.258 h -23.56 v 62.586 c 0,28.715 19.878,42.262 43.588,42.262 23.708,0 43.587,-13.696 43.587,-42.262 z" /><path
       d="m 603.16406,702.41992 -41.82031,103.07813 h 26.65234 l 7.51172,-19.58594 h 40.34961 l 7.50977,19.58594 h 26.65234 L 628.19727,702.41992 Z m 12.51758,30.62891 12.07617,31.66015 h -24.15039 z"
       id="path911" /><path
       d="m 291.09375,702.41602 v 103.08007 h 23.56055 v -37.10937 h 12.66797 l 20.61328,37.10937 h 26.50781 l -22.97461,-41.3789 c 10.456,-5.891 17.81836,-15.1698 17.81836,-28.7168 0,-20.175 -16.34786,-32.98437 -37.25586,-32.98437 z m 23.56055,21.20507 h 17.67187 c 9.721,0 13.40235,5.0073 13.40235,11.7793 0,6.774 -3.68135,11.78125 -13.40235,11.78125 H 314.6543 Z"
       id="path901" /></g><g
     id="g973"><path
       id="path969"
       d="m 561.79,916.825 h 5.527 v 15.125 h 3.118 v -15.125 h 5.528 V 913.99 H 561.79 Z" /><path
       id="path845"
       d="m 592.44,913.978 -5.479,14.363 -5.478,-14.363 h -3.365 v 17.972 h 3.162 v -10.778 l 4.121,10.778 h 3.121 l 4.121,-10.778 v 10.778 h 3.162 v -17.972 z" /></g><g
     id="g1012"><path
       id="path998"
       d="m 541.144,867.563 -23.317,-38.032 h -14.886 v 60.231 h 13.423 v -38.031 l 23.316,38.031 h 14.885 v -60.231 h -13.421 z" /><path
       id="path996"
       d="m 641.434,865.583 h 25.639 V 853.192 H 641.434 V 841.92 H 669.31 V 829.531 H 627.668 V 889.76 H 670 v -12.39 h -28.566 z" /><path
       id="path994"
       d="m 330.184,841.92 v -12.389 h -41.643 v 60.229 h 13.766 v -24.177 h 25.639 V 853.192 H 302.307 V 841.92 Z" /><path
       id="path992"
       d="m 592.974,840.708 c 6.448,0 10.748,3.611 12.381,10.405 l 13.928,-2.753 c -2.491,-12.897 -12.38,-20.206 -26.224,-20.206 -16.938,0 -29.493,11.953 -29.493,31.47 0,19.517 12.382,31.469 29.15,31.469 13.842,0 23.73,-8.082 26.567,-21.495 l -13.585,-2.665 c -1.374,6.448 -5.587,11.607 -12.982,11.607 -8.685,0 -15.22,-6.792 -15.22,-18.916 0,-12.124 6.879,-18.916 15.478,-18.916" /><path
       id="path990"
       d="m 383.404,877.37 h -28.565 v -11.787 h 25.639 V 853.192 H 354.839 V 841.92 h 27.877 v -12.389 h -41.643 v 60.229 h 42.331 z" /><path
       d="m 189.70312,828.1543 c -17.71399,0 -29.14648,11.94875 -29.14648,31.46875 0,19.517 11.43248,31.4707 29.14648,31.4707 17.71101,0 29.14844,-11.9537 29.14844,-31.4707 0,-19.52 -11.43744,-31.46875 -29.14844,-31.46875 z m 0,12.38086 c 8.59801,0 15.39063,6.18989 15.39063,19.08789 0,12.897 -6.79263,19.08984 -15.39063,19.08984 -8.59999,0 -15.39062,-6.19284 -15.39062,-19.08984 0,-12.898 6.79063,-19.08789 15.39062,-19.08789 z"
       id="path988" /><path
       id="path984"
       d="m 278.828,829.531 h -13.421 v 38.032 L 242.09,829.531 h -14.886 v 60.231 h 13.423 v -38.031 l 23.316,38.031 h 14.885 z" /><path
       id="path982"
       d="m 493.848,877.37 h -28.567 v -11.787 h 25.64 v -12.391 h -25.64 V 841.92 h 27.877 v -12.389 h -41.642 v 60.229 h 42.332 z" /><path
       id="path980"
       d="m 129.648,840.708 c 6.449,0 10.748,3.611 12.382,10.405 l 13.928,-2.753 c -2.492,-12.897 -12.38,-20.206 -26.224,-20.206 -16.938,0 -29.493,11.953 -29.493,31.47 0,19.517 12.382,31.469 29.15,31.469 13.842,0 23.731,-8.082 26.567,-21.495 l -13.585,-2.665 c -1.374,6.448 -5.587,11.607 -12.982,11.607 -8.684,0 -15.221,-6.792 -15.221,-18.916 0,-12.124 6.88,-18.916 15.478,-18.916" /><path
       d="m 394.82812,829.5293 v 60.23047 h 13.76758 v -21.68165 h 7.40039 l 12.04493,21.68165 h 15.48828 l -13.42383,-24.17774 c 6.109,-3.443 10.41211,-8.86234 10.41211,-16.77734 0,-11.789 -9.55253,-19.27539 -21.76953,-19.27539 z m 13.76758,12.39062 h 10.32422 c 5.681,0 7.83203,2.92677 7.83203,6.88477 0,3.957 -2.15103,6.88281 -7.83203,6.88281 H 408.5957 Z"
       id="path978" /></g></g>
    
</svg>
