<?xml version="1.0" encoding="UTF-8" standalone="no"?>
<!-- Created with Inkscape (http://www.inkscape.org/) -->

<svg
   xmlns:dc="http://purl.org/dc/elements/1.1/"
   xmlns:cc="http://creativecommons.org/ns#"
   xmlns:rdf="http://www.w3.org/1999/02/22-rdf-syntax-ns#"
   xmlns:svg="http://www.w3.org/2000/svg"
   xmlns="http://www.w3.org/2000/svg"
   xmlns:sodipodi="http://sodipodi.sourceforge.net/DTD/sodipodi-0.dtd"
   xmlns:inkscape="http://www.inkscape.org/namespaces/inkscape"
   width="59.21846mm"
   height="79.375mm"
   viewBox="0 0 59.21846 79.375"
   version="1.1"
   id="svg180186"
   inkscape:version="0.92.4 (5da689c313, 2019-01-14)"
   sodipodi:docname="FC Sochaux-Montbeliard logo.svg">
  <defs
     id="defs180180" />
  <sodipodi:namedview
     id="base"
     pagecolor="#ffffff"
     bordercolor="#666666"
     borderopacity="1.0"
     inkscape:pageopacity="0.0"
     inkscape:pageshadow="2"
     inkscape:zoom="1.4"
     inkscape:cx="164.76604"
     inkscape:cy="84.285723"
     inkscape:document-units="mm"
     inkscape:current-layer="layer1"
     showgrid="false"
     inkscape:window-width="1366"
     inkscape:window-height="705"
     inkscape:window-x="-8"
     inkscape:window-y="-8"
     inkscape:window-maximized="1" />
  <metadata
     id="metadata180183">
    <rdf:RDF>
      <cc:Work
         rdf:about="">
        <dc:format>image/svg+xml</dc:format>
        <dc:type
           rdf:resource="http://purl.org/dc/dcmitype/StillImage" />
        <dc:title></dc:title>
      </cc:Work>
    </rdf:RDF>
  </metadata>
  <g
     inkscape:label="Layer 1"
     inkscape:groupmode="layer"
     id="layer1"
     transform="translate(-55.057437,-97.806548)">
    <path
       inkscape:connector-curvature="0"
       style="fill:#283b80;stroke-width:1.14116895"
       d="m 111.12394,104.73445 c 0,0 -13.139418,-7.102651 -26.456858,-6.924607 -13.317444,-0.17813 -26.459147,6.924607 -26.459147,6.924607 0,0 -5.324695,17.4998 -2.129419,34.40738 3.196415,16.90986 17.04564,33.42257 28.588566,38.03972 11.541779,-4.61715 25.392148,-21.13103 28.587428,-38.03972 3.19641,-16.90758 -2.13057,-34.40738 -2.13057,-34.40738 z"
       id="path179930" />
    <path
       inkscape:connector-curvature="0"
       style="fill:#ffffff;stroke-width:1.14116895"
       d="m 110.11857,105.56295 c 0,0 -13.22044,-6.274152 -25.451488,-6.274152 -12.231052,0 -25.451495,6.274152 -25.451495,6.274152 0,0 -6.747731,22.13408 0,40.0105 6.746592,17.87642 14.087734,22.84849 25.451495,30.42243 11.363757,-7.57622 18.702618,-12.54601 25.451488,-30.42243 6.74773,-17.87414 0,-40.0105 0,-40.0105 z"
       id="path179932" />
    <path
       inkscape:connector-curvature="0"
       style="fill:#243778;stroke-width:1.14116895"
       d="m 107.63197,107.81106 c 0,0 -11.482448,-5.79946 -22.964888,-5.79946 -11.483587,0 -22.966027,5.79946 -22.966027,5.79946 0,0 -5.433104,16.82881 0.125511,35.07724 5.249376,17.22363 12.89521,23.52176 22.840495,29.6761 9.943007,-6.1555 17.588839,-12.45247 22.839359,-29.6761 5.5632,-18.24843 0.12555,-35.07724 0.12555,-35.07724 z"
       id="path179934" />
    <path
       style="fill:#ffe61c;stroke-width:1.14116895"
       inkscape:connector-curvature="0"
       id="path179936"
       d="m 65.433818,112.25931 v 2.50145 h 5.606564 v 2.34964 h -5.606564 v 4.54987 h -2.584746 v -11.75064 h 8.946763 v 2.34968 z" />
    <path
       style="fill:#ffe61c;stroke-width:1.14116895"
       inkscape:connector-curvature="0"
       id="path179938"
       d="m 78.578942,121.86113 c -3.45774,0 -6.027654,-2.67036 -6.027654,-6.04366 v -0.0345 c 0,-3.33905 2.518563,-6.07669 6.129218,-6.07669 2.216151,0 3.541047,0.73719 4.632006,1.8133 l -1.643283,1.89547 c -0.906088,-0.82281 -1.829294,-1.32606 -3.004698,-1.32606 -1.981067,0 -3.40867,1.64557 -3.40867,3.65974 v 0.0345 c 0,2.01305 1.394509,3.69282 3.40867,3.69282 1.343157,0 2.165938,-0.53633 3.090287,-1.37738 l 1.644422,1.66269 c -1.21192,1.29405 -2.555077,2.09861 -4.820298,2.09861 z" />
    <path
       style="fill:#ffe61c;stroke-width:1.14116895"
       inkscape:connector-curvature="0"
       id="path179940"
       d="m 88.852887,121.828 c -1.780224,0 -3.576423,-0.62194 -4.985765,-1.87951 l 1.531446,-1.83043 c 1.057864,0.87414 2.163656,1.42763 3.504532,1.42763 1.059003,0 1.696916,-0.4188 1.696916,-1.10695 v -0.0345 c 0,-0.65391 -0.405127,-0.99054 -2.367923,-1.49379 -2.365643,-0.60483 -3.89481,-1.25873 -3.89481,-3.59241 v -0.0302 c 0,-2.1317 1.711753,-3.54221 4.111632,-3.54221 1.712892,0 3.172447,0.53638 4.367252,1.49267 l -1.343153,1.94796 c -1.041889,-0.72006 -2.067798,-1.15711 -3.058336,-1.15711 -0.989394,0 -1.509767,0.45305 -1.509767,1.02362 v 0.0302 c 0,0.77255 0.504397,1.02474 2.534538,1.54511 2.383903,0.62195 3.725918,1.47784 3.725918,3.52508 v 0.0345 c 0.0034,2.33368 -1.774517,3.64261 -4.31248,3.64261 z" />
    <path
       style="fill:#ffe61c;stroke-width:1.14116895"
       inkscape:connector-curvature="0"
       id="path179942"
       d="m 103.81361,121.66027 v -7.67211 l -3.30711,5.01887 h -0.0696 l -3.271728,-4.96862 v 7.62186 H 94.62606 v -11.75064 h 2.787876 l 3.091434,4.96866 3.08686,-4.96866 h 2.78445 v 11.75064 z" />
    <path
       style="fill:#ffffff;stroke-width:1.14116895"
       inkscape:connector-curvature="0"
       id="path179946"
       d="m 63.740322,124.10695 v 0.45529 h 1.020207 v 0.42785 h -1.020207 v 0.82962 h -0.471303 v -2.13967 h 1.629589 v 0.42786 h -1.158286 z" />
    <path
       style="fill:#ffffff;stroke-width:1.14116895"
       inkscape:connector-curvature="0"
       id="path179948"
       d="m 67.700182,125.85633 c -0.659599,0 -1.133184,-0.49298 -1.133184,-1.10121 v -0.009 c 0,-0.60823 0.480434,-1.10579 1.140029,-1.10579 0.661877,0 1.134323,0.49299 1.134323,1.10122 v 0.004 c 0,0.6094 -0.480434,1.10808 -1.141168,1.10808 z m 0.648183,-1.10691 c 0,-0.36618 -0.268188,-0.67215 -0.648183,-0.67215 -0.378861,0 -0.641338,0.30019 -0.641338,0.66642 v 0.004 c 0,0.36618 0.269309,0.67103 0.64704,0.67103 0.380025,0 0.642481,-0.30019 0.642481,-0.66529 z" />
    <path
       style="fill:#ffffff;stroke-width:1.14116895"
       inkscape:connector-curvature="0"
       id="path179950"
       d="m 71.685144,125.85633 c -0.659599,0 -1.133184,-0.49298 -1.133184,-1.10121 v -0.009 c 0,-0.60823 0.478152,-1.10579 1.138886,-1.10579 0.661881,0 1.134323,0.49299 1.134323,1.10122 v 0.004 c 0.0011,0.6094 -0.479291,1.10808 -1.140025,1.10808 z m 0.645901,-1.10691 c 0,-0.36618 -0.268187,-0.67215 -0.647044,-0.67215 -0.377739,0 -0.641338,0.30019 -0.641338,0.66642 v 0.004 c 0,0.36618 0.269309,0.67103 0.647044,0.67103 0.378861,0 0.642477,-0.30019 0.642477,-0.66529 v -0.009 h -0.0011 z" />
    <path
       style="fill:#ffffff;stroke-width:1.14116895"
       inkscape:connector-curvature="0"
       id="path179952"
       d="m 75.509198,124.11376 v 1.70604 h -0.471303 v -1.70604 H 74.387431 V 123.679 h 1.772236 v 0.43476 z" />
    <path
       style="fill:#ffffff;stroke-width:1.14116895"
       inkscape:connector-curvature="0"
       id="path179954"
       d="M 78.926999,125.8198 H 77.91022 v -2.13967 h 0.991677 c 0.439347,0 0.706383,0.21781 0.706383,0.55345 v 0.004 c 0,0.24326 -0.127797,0.37653 -0.280739,0.46219 0.247614,0.0949 0.400556,0.23722 0.400556,0.52495 v 0.009 c 0,0.39034 -0.318391,0.58654 -0.801107,0.58654 z m 0.214532,-1.50746 c 0,-0.14018 -0.110716,-0.21911 -0.308126,-0.21911 h -0.465597 v 0.45193 h 0.433646 c 0.207674,0 0.340086,-0.0686 0.340086,-0.2273 z m 0.118696,0.85588 c 0,-0.14276 -0.108431,-0.2329 -0.349187,-0.2329 h -0.544336 v 0.47133 h 0.559173 c 0.207675,0 0.333229,-0.0729 0.333229,-0.23161 v -0.009 z" />
    <path
       style="fill:#ffffff;stroke-width:1.14116895"
       inkscape:connector-curvature="0"
       id="path179956"
       d="m 83.096832,125.8198 -0.195123,-0.48039 h -0.907231 l -0.192838,0.48039 h -0.480434 l 0.916362,-2.15563 h 0.434784 l 0.916357,2.15563 z m -0.648182,-1.58851 -0.284146,0.69273 h 0.569443 z" />
    <path
       style="fill:#ffffff;stroke-width:1.14116895"
       inkscape:connector-curvature="0"
       id="path179958"
       d="m 85.306134,125.8198 v -2.13967 h 0.471303 v 1.71177 h 1.066996 v 0.42786 z" />
    <path
       style="fill:#ffffff;stroke-width:1.14116895"
       inkscape:connector-curvature="0"
       id="path179960"
       d="m 88.585856,125.8198 v -2.13967 h 0.471303 v 1.71177 h 1.065848 v 0.42786 z" />
    <path
       style="fill:#ffffff;stroke-width:1.14116895"
       inkscape:connector-curvature="0"
       id="path179962"
       d="m 95.176103,125.85633 c -0.632207,0 -1.097804,-0.48612 -1.097804,-1.10121 v -0.009 c 0,-0.60823 0.456471,-1.10579 1.114923,-1.10579 0.405127,0 0.64248,0.13457 0.845605,0.33082 l -0.301269,0.34591 c -0.165449,-0.14837 -0.333228,-0.24197 -0.547761,-0.24197 -0.359452,0 -0.620794,0.30019 -0.620794,0.66646 v 0.004 c 0,0.36618 0.255636,0.67099 0.620794,0.67099 0.246493,0 0.395984,-0.097 0.562598,-0.24887 l 0.302433,0.30235 c -0.223676,0.23636 -0.467878,0.38343 -0.878703,0.38343 z" />
    <path
       style="fill:#ffffff;stroke-width:1.14116895"
       inkscape:connector-curvature="0"
       id="path179964"
       d="m 97.81563,125.8198 v -2.13967 h 0.47016 v 1.71177 h 1.068134 v 0.42786 z" />
    <path
       style="fill:#ffffff;stroke-width:1.14116895"
       inkscape:connector-curvature="0"
       id="path179966"
       d="m 101.9284,125.85176 c -0.57857,0 -0.92777,-0.32046 -0.92777,-0.94944 V 123.679 h 0.47016 v 1.21077 c 0,0.34936 0.1746,0.52835 0.46217,0.52835 0.2876,0 0.46104,-0.17468 0.46104,-0.51468 v -1.2256 h 0.4713 v 1.20852 c 10e-4,0.6493 -0.36402,0.9654 -0.9369,0.9654 z" />
    <path
       style="fill:#ffffff;stroke-width:1.14116895"
       inkscape:connector-curvature="0"
       id="path179968"
       d="m 105.75132,125.8198 h -1.01907 v -2.13967 h 0.99396 c 0.43821,0 0.70638,0.21781 0.70638,0.55345 v 0.004 c 0,0.24326 -0.13008,0.37653 -0.28073,0.46219 0.24765,0.0949 0.39939,0.23722 0.39939,0.52495 v 0.009 c 0,0.39034 -0.31723,0.58654 -0.79996,0.58654 z m 0.21453,-1.50746 c 0,-0.14018 -0.10843,-0.21911 -0.30813,-0.21911 h -0.46331 v 0.45193 h 0.43136 c 0.20768,0 0.34009,-0.0686 0.34009,-0.2273 z m 0.1187,0.85588 c 0,-0.14276 -0.10727,-0.2329 -0.34919,-0.2329 h -0.54434 v 0.47133 h 0.55918 c 0.20655,0 0.33322,-0.0729 0.33322,-0.23161 v -0.009 z" />
    <path
       style="fill:#ffffff;stroke-width:1.14116895"
       inkscape:connector-curvature="0"
       id="path179972"
       d="m 64.027897,129.40082 c -0.325249,0 -0.650464,-0.113 -0.908369,-0.34246 l 0.278452,-0.3321 c 0.192881,0.15872 0.394863,0.25921 0.639056,0.25921 0.191717,0 0.309248,-0.0776 0.309248,-0.20099 v -0.004 c 0,-0.11861 -0.07302,-0.18029 -0.431364,-0.27172 -0.43136,-0.11085 -0.709803,-0.23032 -0.709803,-0.65503 v -0.004 c 0,-0.38904 0.311533,-0.64477 0.748604,-0.64477 0.311533,0 0.577435,0.097 0.794253,0.27173 l -0.244206,0.35583 c -0.190552,-0.13242 -0.376575,-0.21091 -0.555749,-0.21091 -0.179166,0 -0.273881,0.0832 -0.273881,0.18718 v 0.004 c 0,0.14017 0.09014,0.18589 0.461034,0.28164 0.434784,0.1143 0.678995,0.26827 0.678995,0.64023 v 0.009 c 0.0011,0.42009 -0.322963,0.6596 -0.786266,0.6596 z" />
    <path
       style="fill:#ffffff;stroke-width:1.14116895"
       inkscape:connector-curvature="0"
       id="path179974"
       d="m 66.418645,129.4088 c -0.660733,0 -1.132036,-0.49186 -1.132036,-1.10009 v -0.009 c 0,-0.60711 0.479291,-1.10467 1.138886,-1.10467 0.663019,0 1.134322,0.49187 1.134322,1.09898 v 0.004 c -0.0011,0.60823 -0.481572,1.10807 -1.141172,1.10807 z m 0.647044,-1.10924 c 0,-0.36531 -0.268187,-0.67098 -0.648182,-0.67098 -0.378861,0 -0.641338,0.30019 -0.641338,0.66529 v 0.004 c 0,0.36748 0.269309,0.67444 0.647044,0.67444 0.380025,0 0.642476,-0.30149 0.642476,-0.66646 z" />
    <path
       style="fill:#ffffff;stroke-width:1.14116895"
       inkscape:connector-curvature="0"
       id="path179976"
       d="m 69.133487,129.4088 c -0.628782,0 -1.09666,-0.48613 -1.09666,-1.10009 v -0.009 c 0,-0.60711 0.456466,-1.10467 1.114922,-1.10467 0.402842,0 0.644758,0.13457 0.843324,0.32996 l -0.300148,0.34677 c -0.165449,-0.15182 -0.332064,-0.24326 -0.547761,-0.24326 -0.360616,0 -0.620799,0.30019 -0.620799,0.66529 v 0.004 c 0,0.36748 0.254472,0.67444 0.620799,0.67444 0.245371,0 0.393698,-0.097 0.561455,-0.24886 l 0.301269,0.30234 c -0.220226,0.23162 -0.463315,0.37999 -0.876418,0.37999 z" />
    <path
       style="fill:#ffffff;stroke-width:1.14116895"
       inkscape:connector-curvature="0"
       id="path179978"
       d="m 71.880281,129.36998 v -0.85929 h -0.867287 v 0.85929 h -0.471303 v -2.13967 h 0.471303 v 0.84674 h 0.867287 v -0.84674 h 0.471303 v 2.13967 z" />
    <path
       style="fill:#ffffff;stroke-width:1.14116895"
       inkscape:connector-curvature="0"
       id="path179980"
       d="m 74.612241,129.36998 -0.195123,-0.47927 h -0.904966 l -0.195124,0.47927 h -0.479287 l 0.916357,-2.15451 h 0.433646 l 0.9175,2.15451 z m -0.647043,-1.58963 -0.285311,0.69385 h 0.568305 z" />
    <path
       style="fill:#ffffff;stroke-width:1.14116895"
       inkscape:connector-curvature="0"
       id="path179982"
       d="m 76.405016,129.40311 c -0.575149,0 -0.926626,-0.3196 -0.926626,-0.95061 v -1.22219 h 0.47016 v 1.21193 c 0,0.34807 0.173472,0.52607 0.461034,0.52607 0.287553,0 0.462172,-0.17468 0.462172,-0.5124 v -1.22672 h 0.47016 v 1.20848 c 0.0011,0.64933 -0.362902,0.96544 -0.9369,0.96544 z" />
    <path
       style="fill:#ffffff;stroke-width:1.14116895"
       inkscape:connector-curvature="0"
       id="path179984"
       d="m 79.285329,129.36998 -0.480434,-0.73374 -0.483854,0.73374 h -0.53521 l 0.745184,-1.0875 -0.715514,-1.05217 h 0.551186 l 0.449621,0.69268 0.451903,-0.69268 h 0.534067 l -0.714371,1.04532 0.745183,1.09323 h -0.547761 z" />
    <path
       style="fill:#ffffff;stroke-width:1.14116895"
       inkscape:connector-curvature="0"
       id="path179986"
       d="m 80.084146,128.64651 v -0.44736 h 0.941464 v 0.44736 z" />
    <path
       style="fill:#ffffff;stroke-width:1.14116895"
       inkscape:connector-curvature="0"
       id="path179988"
       d="m 83.264585,129.36998 v -1.39679 l -0.60368,0.91183 h -0.01035 l -0.597979,-0.90497 v 1.38765 h -0.462172 v -2.13968 h 0.508961 l 0.560312,0.90497 0.564879,-0.90497 h 0.505541 v 2.13968 z" />
    <path
       style="fill:#ffffff;stroke-width:1.14116895"
       inkscape:connector-curvature="0"
       id="path179990"
       d="m 85.438511,129.4088 c -0.660738,0 -1.13318,-0.49186 -1.13318,-1.10009 v -0.009 c 0,-0.60711 0.478148,-1.10467 1.140025,-1.10467 0.658456,0 1.134322,0.49187 1.134322,1.09898 v 0.004 c 0,0.60823 -0.481572,1.10807 -1.141167,1.10807 z m 0.647044,-1.10924 c 0,-0.36531 -0.267023,-0.67098 -0.647044,-0.67098 -0.380025,0 -0.641338,0.30019 -0.641338,0.66529 v 0.004 c 0,0.36748 0.268188,0.67444 0.648183,0.67444 0.378861,0 0.641337,-0.30149 0.641337,-0.66646 v -0.009 z" />
    <path
       style="fill:#ffffff;stroke-width:1.14116895"
       inkscape:connector-curvature="0"
       id="path179992"
       d="m 88.653183,129.36998 -1.033897,-1.35913 v 1.35913 h -0.467883 v -2.13967 h 0.434789 l 1.004227,1.31691 v -1.31691 h 0.464454 v 2.13967 z" />
    <path
       style="fill:#ffffff;stroke-width:1.14116895"
       inkscape:connector-curvature="0"
       id="path179994"
       d="m 90.68903,127.66394 v 1.70604 h -0.469022 v -1.70604 h -0.650464 v -0.43363 h 1.771093 v 0.43363 z" />
    <path
       style="fill:#ffffff;stroke-width:1.14116895"
       inkscape:connector-curvature="0"
       id="path179996"
       d="m 92.874368,129.36998 h -1.020207 v -2.13967 h 0.996243 c 0.434785,0 0.704102,0.21695 0.704102,0.55345 v 0.009 c 0,0.24196 -0.127797,0.37567 -0.280738,0.46219 0.247657,0.0949 0.399391,0.23722 0.399391,0.52494 v 0.004 c 0.0034,0.39162 -0.317227,0.58653 -0.798817,0.58653 z M 93.0889,127.8648 c 0,-0.1406 -0.109552,-0.22039 -0.309247,-0.22039 h -0.463316 v 0.45192 h 0.432503 c 0.206553,0 0.340086,-0.0664 0.340086,-0.22471 z m 0.117532,0.85473 c 0,-0.14277 -0.10498,-0.23291 -0.349187,-0.23291 h -0.542051 v 0.47129 h 0.558031 c 0.207675,0 0.332064,-0.0742 0.332064,-0.2329 v -0.004 z" />
    <path
       style="fill:#ffffff;stroke-width:1.14116895"
       inkscape:connector-curvature="0"
       id="path179998"
       d="m 94.218664,129.36998 v -2.13967 h 1.614752 v 0.4175 h -1.14573 v 0.43364 h 1.00879 v 0.4188 h -1.00879 v 0.44847 h 1.162849 v 0.4188 z m 0.552325,-2.30629 0.343493,-0.54319 0.402842,0.17555 -0.392577,0.36747 z" />
    <path
       style="fill:#ffffff;stroke-width:1.14116895"
       inkscape:connector-curvature="0"
       id="path180000"
       d="m 96.423403,129.36998 v -2.13967 h 0.469021 v 1.71173 h 1.066991 v 0.42699 h -1.536012 z" />
    <path
       style="fill:#ffffff;stroke-width:1.14116895"
       inkscape:connector-curvature="0"
       id="path180002"
       d="m 98.491201,129.36998 v -2.13967 h 0.47016 v 2.13967 z" />
    <path
       style="fill:#ffffff;stroke-width:1.14116895"
       inkscape:connector-curvature="0"
       id="path180004"
       d="m 101.24598,129.36998 -0.19512,-0.47927 h -0.90496 l -0.195127,0.47927 h -0.48043 l 0.916357,-2.15451 h 0.43365 l 0.9175,2.15451 z m -0.64932,-1.58963 -0.28415,0.69385 h 0.56944 z" />
    <path
       style="fill:#ffffff;stroke-width:1.14116895"
       inkscape:connector-curvature="0"
       id="path180006"
       d="m 103.52262,129.36998 -0.45876,-0.6847 h -0.37088 v 0.6847 h -0.46673 v -2.13967 h 0.97455 c 0.5044,0 0.80681,0.26568 0.80681,0.70639 v 0.009 c 0,0.34591 -0.18486,0.5626 -0.45646,0.66301 l 0.52265,0.76345 z m 0.008,-1.40817 c 0,-0.20186 -0.14151,-0.3058 -0.36976,-0.3058 h -0.46806 v 0.61621 h 0.47929 c 0.22824,0 0.35716,-0.12206 0.35716,-0.30364 z" />
    <path
       style="fill:#ffffff;stroke-width:1.14116895"
       inkscape:connector-curvature="0"
       id="path180008"
       d="m 105.42038,129.36998 h -0.83306 v -2.13967 h 0.83306 c 0.67329,0 1.1366,0.46219 1.1366,1.06356 v 0.004 c 0.001,0.6037 -0.46445,1.07042 -1.1366,1.07042 z m 0.6459,-1.07042 c 0,-0.37782 -0.25792,-0.64359 -0.64362,-0.64359 h -0.3629 v 1.28952 h 0.36174 c 0.38684,0 0.64362,-0.25922 0.64362,-0.6379 v -0.009 z" />
    <path
       style="fill:#ffffff;stroke-width:1.14116895"
       inkscape:connector-curvature="0"
       id="path180012"
       d="m 80.257605,162.86902 h 0.451903 v 3.04236 h -0.655031 v -2.36908 l -0.527223,0.12896 -0.13694,-0.54548 z" />
    <path
       style="fill:#ffffff;stroke-width:1.14116895"
       inkscape:connector-curvature="0"
       id="path180014"
       d="m 82.768176,165.96159 c -0.439352,0 -0.738339,-0.14621 -0.991677,-0.35842 l 0.349187,-0.50441 c 0.221391,0.17683 0.406249,0.25921 0.661877,0.25921 0.368596,0 0.567161,-0.28078 0.612811,-0.68582 -0.147206,0.12681 -0.351473,0.20875 -0.612811,0.20875 -0.657313,0 -1.079547,-0.36402 -1.079547,-0.97915 0,-0.61393 0.471303,-1.06356 1.152585,-1.06356 0.406249,0 0.642476,0.10179 0.869568,0.3265 0.21794,0.21781 0.359452,0.54664 0.359452,1.14572 0,0.98369 -0.463315,1.65131 -1.321471,1.65131 z m 0.111838,-2.55395 c -0.326371,0 -0.511247,0.18935 -0.511247,0.46103 0,0.27043 0.196288,0.45874 0.523798,0.45874 0.327535,0 0.519234,-0.1928 0.519234,-0.45305 -0.0011,-0.27517 -0.199695,-0.46672 -0.531785,-0.46672 z" />
    <path
       style="fill:#ffffff;stroke-width:1.14116895"
       inkscape:connector-curvature="0"
       id="path180016"
       d="m 85.354065,163.84697 -0.467878,-0.37567 c 0.298982,-0.40413 0.586557,-0.62419 1.12633,-0.62419 0.642481,0 1.039608,0.36877 1.039608,0.93461 0,0.50553 -0.259044,0.75888 -0.794254,1.1754 l -0.490703,0.37868 h 1.314626 v 0.57515 h -2.234408 v -0.52723 l 1.001946,-0.82388 c 0.377739,-0.30925 0.524936,-0.47362 0.524936,-0.72581 0,-0.25231 -0.167736,-0.39249 -0.405127,-0.39249 -0.231656,0 -0.392577,0.13112 -0.615089,0.405 z" />
    <path
       style="fill:#ffffff;stroke-width:1.14116895"
       inkscape:connector-curvature="0"
       id="path180018"
       d="m 89.04004,165.95245 c -0.668726,0 -1.165135,-0.34591 -1.165135,-0.87754 0,-0.36877 0.1689,-0.5843 0.489565,-0.73379 -0.235063,-0.14147 -0.384555,-0.33556 -0.384555,-0.66417 0,-0.46672 0.422251,-0.83191 1.061285,-0.83191 0.636775,0 1.06129,0.36403 1.06129,0.83191 0,0.32866 -0.150656,0.52266 -0.385719,0.66417 0.306962,0.16088 0.488417,0.35713 0.488417,0.7155 -0.0011,0.56945 -0.496409,0.89583 -1.165131,0.89583 z m 0,-1.30092 c -0.303554,0 -0.522654,0.13587 -0.522654,0.37309 0,0.21436 0.195123,0.37998 0.522654,0.37998 0.328657,0 0.522655,-0.16562 0.522655,-0.37998 -0.0011,-0.23636 -0.220226,-0.37309 -0.522655,-0.37309 z m 0,-1.25872 c -0.272716,0 -0.433645,0.16432 -0.433645,0.35582 0,0.21566 0.1689,0.37438 0.433645,0.37438 0.262451,0 0.43136,-0.15527 0.43136,-0.36963 0,-0.1928 -0.159757,-0.36057 -0.43136,-0.36057 z" />
    <path
       inkscape:connector-curvature="0"
       style="fill:#ffe61c;stroke-width:1.14116895"
       d="m 85.554908,154.74961 c 0,0 -3.315093,3.01838 -4.202923,4.20292 0,0 -5.742361,1.18679 -6.807075,2.84034 0,0 6.21595,-6.33234 11.009998,-7.04326 z"
       id="path180022" />
    <path
       inkscape:connector-curvature="0"
       style="fill:#ffe61c;stroke-width:1.14116895"
       d="m 97.603371,139.35981 c 0,0 3.577569,5.62253 -0.56488,10.83195 -4.143584,5.20831 -6.747731,6.62908 -10.243133,8.07836 0,0 2.37021,1.21417 7.343424,-0.85705 4.96865,-2.07119 6.451028,-5.92035 6.510368,-9.175 0.0582,-3.25461 0.0662,-6.45103 -3.045779,-8.87826 z"
       id="path180024" />
    <path
       inkscape:connector-curvature="0"
       style="fill:#ffe61c;stroke-width:1.14116895"
       d="m 98.696611,136.47151 0.353759,-0.96087 c 0,0 2.13056,1.65584 4.26112,3.848 2.13057,2.19105 2.84152,4.20293 2.84152,4.61832 0,0.4119 -2.54481,7.45524 -3.72935,8.63979 0.001,0.003 2.902,-9.50366 -3.727049,-16.14524 z"
       id="path180026" />
    <path
       style="fill:#ffe61c;stroke-width:1.14116895"
       inkscape:connector-curvature="0"
       id="path180028"
       d="m 95.982912,133.55807 c -1.946833,-1.59761 -6.339196,-0.82846 -6.339196,-0.82846 2.903134,0.179 6.149761,1.71631 6.330065,3.13591 0.178001,1.4219 -2.727393,1.77566 -2.727393,1.77566 3.43492,4.20521 0.119818,7.63445 0.119818,7.63445 0,0 2.250383,-2.72173 -1.360272,-6.98283 -3.61066,-4.26228 -8.700271,-3.96441 -8.700271,-3.96441 0.649325,-0.65046 3.787539,-2.66462 3.787539,-2.66462 -6.800225,-1.03846 -13.14056,5.97741 -14.915077,7.33883 -1.775661,1.36371 -6.21595,2.25151 -7.813588,3.55359 -1.598777,1.30207 0,3.60953 0,3.60953 0.947174,-2.3668 1.953683,-2.18764 1.953683,-2.18764 -0.650464,0.58999 -1.478955,2.83926 -1.241594,4.31821 0.236228,1.48124 1.539438,2.36793 2.72283,1.71747 l 1.540581,1.30208 -0.414229,-2.07123 c 0,0 1.895482,-1.95141 3.493116,-1.89206 1.597638,0.0582 4.617169,1.41961 4.320468,4.08194 -0.295575,2.66462 -4.143584,2.89973 -4.143584,2.89973 l -1.716321,-1.65584 0.176879,1.71518 c 0,0 -0.828486,0.0604 -1.184531,0.41406 -0.33435,0.33556 2.924816,4.53387 3.279717,4.98575 0.02415,-0.16304 0.46674,-0.89466 3.408675,-4.09795 4.024901,-4.38208 1.894339,-8.34537 1.894339,-8.34537 0,0 2.131705,1.12519 6.629052,-1.54171 4.499629,-2.66462 2.072361,-7.57623 2.072361,-7.57623 1.597638,0.76915 2.782169,1.657 2.60529,5.0303 -0.178001,3.37443 -4.205209,6.39397 -6.452169,7.8147 -2.251526,1.41965 -3.552459,4.3205 -3.552459,4.3205 2.131701,-2.36793 8.879436,-4.43687 8.879436,-4.43687 -0.118696,0.8844 -1.182254,2.36676 -1.182254,2.36676 0,0 1.065853,0 5.79828,-4.1447 4.73357,-4.14586 2.733099,-10.7133 2.733099,-10.7133 2.37021,-1.18226 1.939989,-3.31395 -0.0023,-4.9116 z m -18.418467,6.09956 c -0.532928,0.41448 -1.894339,-0.29804 -1.007652,-1.4219 0.888969,-1.12403 3.019531,-0.59227 3.019531,-0.59227 -0.295575,0.35367 -1.477812,1.59765 -2.011879,2.01417 z" />
    <path
       style="fill:#ffe61c;stroke-width:1.14116895"
       inkscape:connector-curvature="0"
       id="path180030"
       d="m 73.184638,159.83805 c 0,0 -0.01596,-0.0216 -0.03666,-0.0457 -0.0091,0.0595 0.03666,0.0457 0.03666,0.0457 z" />
  </g>
</svg>
