<?xml version="1.0" encoding="UTF-8"?>
<svg id="Calque_2" data-name="Calque 2" xmlns="http://www.w3.org/2000/svg" viewBox="0 0 773.12 773.12">
  <defs>
    <style>
      .cls-1, .cls-2 {
        fill: #fbf8f8;
      }

      .cls-3 {
        fill: #e30c1b;
      }

      .cls-4 {
        fill: #fff;
      }

      .cls-2 {
        fill-rule: evenodd;
      }
    </style>
  </defs>
  <g id="Calque_7" data-name="Calque 7">
    <g>
      <path class="cls-3" d="M386.56,773.12c-88.95,0-175.79-30.95-244.53-87.16-67.77-55.41-115.15-132.8-133.42-217.93-5.71-26.6-8.6-54.01-8.6-81.47C0,173.41,173.41,0,386.56,0s386.56,173.41,386.56,386.56c0,78.25-23.27,153.63-67.31,217.99-18.79,27.49-41.07,52.47-66.2,74.24-7.54,6.52-15.39,12.81-23.35,18.7-66.88,49.48-146.31,75.63-229.71,75.63Z"/>
      <path class="cls-1" d="M386.56,763.12c-86.64,0-171.24-30.15-238.21-84.91-66.02-53.98-112.17-129.37-129.97-212.29-5.56-25.91-8.38-52.61-8.38-79.36C10,178.92,178.92,10,386.56,10s376.56,168.92,376.56,376.56c0,76.23-22.67,149.66-65.56,212.35-18.31,26.78-40.01,51.11-64.49,72.32-7.34,6.35-14.99,12.48-22.74,18.22-65.15,48.2-142.53,73.67-223.77,73.67Z"/>
      <path class="cls-3" d="M386.56,753.12c-84.34,0-166.7-29.35-231.88-82.65-64.26-52.54-109.19-125.93-126.52-206.65-5.41-25.22-8.16-51.21-8.16-77.26C20,184.44,184.44,20,386.56,20s366.56,164.44,366.56,366.56c0,74.2-22.07,145.68-63.82,206.71-17.82,26.07-38.94,49.75-62.77,70.4-7.15,6.19-14.59,12.15-22.14,17.73-63.42,46.92-138.74,71.72-217.82,71.72Z"/>
      <path class="cls-4" d="M386.56,601.1c-49.36,0-97.56-17.18-135.72-48.37-37.61-30.75-63.91-73.71-74.05-120.95-3.17-14.76-4.78-29.97-4.78-45.22,0-118.3,96.24-214.54,214.54-214.54s214.54,96.24,214.54,214.54c0,43.43-12.92,85.27-37.35,120.98-10.43,15.26-22.79,29.12-36.74,41.2-4.18,3.62-8.54,7.11-12.96,10.38-37.12,27.46-81.2,41.97-127.49,41.97Z"/>
      <path class="cls-3" d="M386.56,591.1c-47.06,0-93.02-16.38-129.39-46.12-35.86-29.32-60.94-70.27-70.6-115.31-3.02-14.07-4.55-28.58-4.55-43.12,0-112.78,91.76-204.54,204.54-204.54s204.54,91.76,204.54,204.54c0,41.41-12.31,81.29-35.61,115.34-9.95,14.55-21.74,27.77-35.04,39.29-3.99,3.46-8.15,6.79-12.36,9.9-35.38,26.18-77.41,40.01-121.54,40.01Z"/>
      <path class="cls-4" d="M581.1,386.56c0,40.69-12.5,78.47-33.86,109.69-9.47,13.85-20.68,26.42-33.33,37.38-3.79,3.28-7.72,6.43-11.76,9.42-32.32,23.91-72.3,38.05-115.59,38.05-93.37,0-171.38-65.78-190.21-153.52-2.84-13.23-4.33-26.95-4.33-41.02,0-107.44,87.1-194.54,194.54-194.54s194.54,87.1,194.54,194.54Z"/>
      <path class="cls-3" d="M508.96,292.09c-7.65-22.88-23.1-25.8-32.64-28.37-9.55-2.58-25.27-19.86-34.25-27.53-8.97-7.66-25.42-7.4-55.51-7.14-30.09.25-52.39,18.82-70.77,37.64-19.51,17.76-73,133.35-73,133.35,81.38,6.96,75.98,75.68,75.98,75.68-31.96-78.34-102.9-56.06-122.42-48.14,18.83,87.74,96.84,153.52,190.21,153.52,43.29,0,83.27-14.14,115.59-38.05-4.92-51.63-23.36-79.79-30.39-89.39-8.09-11.85-20.38-16.91-23.98-29.46-16-80.19,31.62-102.54,42.22-105.74,10.6-3.19,16.79,9.85,18.04,12.23,1.26,2.38,2.18,1.13,2.18,1.13,0,0,6.38-16.86-1.26-39.73ZM386.56,249.7c10.87.82,18.63.99,49.62,12.4,1.81.65,1.13.91.57.95-.56.05-90.96-5.01-90.96-5.01,0,0,22.24-9.73,40.77-8.34ZM415.99,270.03c0,3.25-2.64,5.89-5.89,5.89s-5.9-2.64-5.9-5.89,2.64-5.9,5.9-5.9,5.89,2.64,5.89,5.9ZM369.31,267.35c-.02-.37-.03-.69-.05-.97-.04-.92.65-1.72,1.57-1.8l9.07-.86s1.74,1,.65,6.31c-1.09,5.3-.53,14.49,6.13,20.77,0,0-16.1-1.34-17.37-23.45ZM397.89,295.63l1.75-.73c.36-.15.75-.21,1.14-.18,3.34.21,20.12.17,21.49-21.82.26-3.87.15-4.71,1.18-5.42l3.22-.93c.85-.25,1.7.35,1.75,1.23.41,7.12-.02,33.87-30.53,27.85ZM466.31,320.83l-19.47-8.17s16.04-8.33,38.9-9.12l-19.43,17.29ZM430.29,306.93s17.5-37.45,34.5-35.02c10.27,1.61,23.54,6.77,34.5,29,0,0-30.1-12.95-69,6.02Z"/>
      <ellipse class="cls-3" cx="462.98" cy="280.56" rx="4.31" ry="5.09"/>
      <path class="cls-3" d="M547.24,496.25c-9.47,13.85-20.68,26.42-33.33,37.38-10.12-82.6-47.62-103.99-47.62-103.99,59.34-21.96,70.84,27.55,70.84,27.55l10.11,39.06Z"/>
      <g>
        <path class="cls-4" d="M97.98,490.15l-5.61-17.41-10.77-.14-3.33-10.33,52.7,1.63,3.6,11.16-41.87,31.97-3.45-10.71,8.73-6.18ZM105.24,484.77l16.7-11.89-20.56-.1,3.87,11.99Z"/>
        <path class="cls-4" d="M140.33,491.12l4.59,9.31-36.53,18.01,10.88,22.06-8.01,3.95-15.46-31.37,44.54-21.96Z"/>
        <path class="cls-4" d="M133.04,533.81l10.22,16.42-7.72,4.81-10.22-16.42,7.72-4.81Z"/>
        <path class="cls-4" d="M152.5,585.09l-11.34-14.35-10.14,3.63-6.73-8.51,49.95-16.88,7.27,9.2-28.06,44.59-6.98-8.83,6.03-8.84ZM157.41,577.51l11.49-16.98-19.3,7.09,7.81,9.89Z"/>
        <path class="cls-4" d="M187.22,607.72l-7.88-7.26-13.2,14.32-7.46-6.87,33.66-36.52,17.91,16.51c2.51,2.41,4.19,4.54,5.04,6.39.85,1.85,1.23,3.78,1.15,5.78-.06,1.66-.38,3.26-.95,4.81-.57,1.55-1.52,3.04-2.85,4.48-1.6,1.73-3.61,3.04-6.03,3.91-2.42.87-4.96.72-7.61-.44,1.06,2.23,1.37,4.29.92,6.19-.45,1.89-1.85,4.12-4.21,6.68l-2.26,2.45c-1.54,1.67-2.51,2.86-2.93,3.58-.67,1.12-.85,2.24-.53,3.36l-.85.92-8.4-7.74c.51-1.02.95-1.83,1.31-2.41.75-1.21,1.6-2.35,2.58-3.44l3.08-3.44c2.11-2.36,3.12-4.3,3.02-5.83-.1-1.53-1.28-3.33-3.52-5.4ZM197.97,605.35c2.16.71,4.18.04,6.07-2.01,2.04-2.21,2.67-4.38,1.91-6.49-.43-1.19-1.47-2.55-3.12-4.07l-8.87-8.17-9.04,9.81,8.65,7.97c1.72,1.58,3.19,2.57,4.41,2.97Z"/>
        <path class="cls-4" d="M226.2,648.99l-15.23-10.13-8.51,6.6-9.03-6.01,42.26-31.54,9.76,6.49-12.86,51.09-9.37-6.23,2.99-10.27ZM228.52,640.26l5.66-19.7-16.15,12.73,10.49,6.98Z"/>
        <path class="cls-4" d="M259.61,678.1l-20.47-9.34,20.62-45.18,21.95,10.02c5.5,2.61,8.69,6,9.57,10.18.51,2.56.16,5.17-1.06,7.85-1.26,2.76-2.97,4.66-5.12,5.7-1.21.59-2.74.92-4.61,1.01,1.93,1.89,3.06,4.01,3.41,6.37.34,2.36-.08,4.83-1.26,7.42-1.22,2.68-2.99,4.77-5.31,6.28-1.5,1.02-3.12,1.71-4.84,2.09-1.96.44-4.01.42-6.17-.07-2.16-.49-4.39-1.26-6.7-2.32ZM268.47,658.11l-11.25-5.13-5.5,12.05,11.09,5.06c1.98.9,3.65,1.34,4.99,1.32,2.45-.07,4.31-1.49,5.58-4.27,1.07-2.35.84-4.41-.7-6.17-.86-.99-2.26-1.93-4.22-2.85ZM277.09,651.63c1.56-.18,2.78-1.21,3.64-3.11.96-2.1.78-3.87-.55-5.29-1.2-1.11-2.89-2.17-5.07-3.17l-9.93-4.53-4.55,9.96,11.1,5.06c1.98.9,3.77,1.26,5.36,1.08Z"/>
        <path class="cls-4" d="M299.02,640.44l9.78,3.26-15.71,47.11-9.78-3.26,15.71-47.11Z"/>
        <path class="cls-4" d="M336.5,693.89c2.41.41,4.42.48,6.01.21,3.03-.53,4.78-2.18,5.26-4.95.28-1.62-.22-2.99-1.48-4.12-1.27-1.11-3.36-2.25-6.28-3.43l-4.98-2.05c-4.9-2.02-8.2-3.88-9.92-5.56-2.91-2.82-3.96-6.64-3.13-11.44.75-4.38,2.97-7.75,6.65-10.11,3.68-2.35,8.61-3,14.79-1.95,5.16.88,9.32,3,12.5,6.36,3.17,3.36,4.4,7.65,3.69,12.89l-9.83-1.68c.33-2.97-.6-5.29-2.78-6.94-1.45-1.09-3.37-1.84-5.73-2.25-2.63-.45-4.83-.28-6.58.51-1.75.79-2.79,2.14-3.12,4.05-.3,1.75.25,3.19,1.65,4.32.9.75,2.91,1.79,6.03,3.12l8.09,3.47c3.54,1.52,6.13,3.18,7.76,4.99,2.53,2.8,3.42,6.38,2.67,10.75-.77,4.47-3.11,7.89-7.04,10.26-3.93,2.37-9.01,3.02-15.25,1.95-6.38-1.09-11.14-3.4-14.3-6.94-3.16-3.54-4.3-7.85-3.43-12.94l9.76,1.67c-.07,2.29.25,4.07.97,5.33,1.32,2.3,3.99,3.79,8.02,4.48Z"/>
        <path class="cls-4" d="M384.89,687.64l-10.54-.26-.45,17.85-10.31-.26,1.24-49.65,21.62.54c4.98.12,8.93,1.5,11.83,4.14,2.9,2.63,4.28,6.63,4.15,12-.15,5.86-1.73,9.97-4.76,12.32s-7.29,3.46-12.79,3.32ZM390,677.42c1.38-1.16,2.1-3.03,2.16-5.61s-.57-4.44-1.9-5.58c-1.33-1.13-3.22-1.73-5.67-1.79l-9.67-.24-.37,14.62,9.67.24c2.45.06,4.37-.49,5.77-1.64Z"/>
        <path class="cls-4" d="M432.1,704.05c-7.04.93-12.67-.27-16.89-3.61-5.61-4.04-9-10.48-10.17-19.32-1.19-9.02.4-16.12,4.79-21.3,3.21-4.32,8.34-6.95,15.37-7.88,7.04-.93,12.67.27,16.89,3.61,5.56,3.86,8.94,10.3,10.14,19.32,1.17,8.84-.42,15.94-4.76,21.29-3.21,4.32-8.34,6.95-15.37,7.88ZM440.07,689.54c1.98-3.32,2.61-7.75,1.88-13.3-.73-5.52-2.49-9.63-5.29-12.33-2.79-2.7-6.23-3.78-10.3-3.24-4.08.54-7.13,2.47-9.16,5.8-2.03,3.33-2.68,7.76-1.94,13.31.73,5.54,2.51,9.66,5.34,12.34,2.82,2.68,6.27,3.76,10.35,3.22,4.08-.54,7.12-2.47,9.12-5.79Z"/>
        <path class="cls-4" d="M478.66,672.48l-10.24,3.14,5.71,18.62-9.7,2.97-14.57-47.48,23.29-7.14c3.35-.96,6.03-1.33,8.06-1.13,2.02.2,3.88.84,5.58,1.92,1.4.89,2.62,1.97,3.67,3.24,1.05,1.28,1.86,2.85,2.43,4.72.69,2.25.8,4.65.33,7.17-.47,2.53-1.88,4.65-4.22,6.35,2.46.21,4.39.98,5.81,2.32,1.41,1.34,2.62,3.68,3.65,7l.98,3.19c.67,2.17,1.2,3.61,1.61,4.33.63,1.15,1.51,1.86,2.63,2.15l.37,1.19-10.92,3.35c-.62-.96-1.1-1.74-1.42-2.35-.67-1.25-1.22-2.57-1.67-3.96l-1.42-4.39c-.97-3.01-2.14-4.86-3.52-5.55-1.37-.68-3.52-.58-6.44.32ZM482.04,662c1.7-1.51,2.14-3.59,1.32-6.26-.88-2.88-2.43-4.52-4.64-4.92-1.25-.23-2.94-.01-5.09.64l-11.53,3.54,3.91,12.75,11.24-3.45c2.23-.69,3.83-1.46,4.79-2.31Z"/>
        <path class="cls-4" d="M523.14,621.18l3.78,7.94-13.42,6.38,17.55,36.91-9.43,4.49-17.55-36.91-13.48,6.41-3.78-7.94,36.33-17.28Z"/>
        <path class="cls-4" d="M560.98,646.87c2.04-1.35,3.56-2.67,4.53-3.96,1.85-2.46,2-4.86.46-7.2-.9-1.37-2.2-2.03-3.9-1.99-1.68.06-3.99.66-6.93,1.79l-5.04,1.91c-4.96,1.87-8.64,2.77-11.04,2.72-4.06-.07-7.42-2.14-10.11-6.21-2.45-3.71-3.13-7.69-2.05-11.92,1.08-4.24,4.24-8.08,9.47-11.53,4.37-2.88,8.86-4.18,13.47-3.9,4.61.28,8.44,2.58,11.5,6.89l-8.33,5.49c-1.79-2.39-4.05-3.45-6.77-3.17-1.81.2-3.71.96-5.72,2.28-2.23,1.47-3.72,3.1-4.46,4.87-.74,1.78-.58,3.47.49,5.09.98,1.48,2.36,2.16,4.16,2.02,1.17-.07,3.34-.68,6.53-1.84l8.28-2.99c3.63-1.31,6.65-1.87,9.07-1.66,3.76.32,6.86,2.33,9.29,6.02,2.5,3.79,3.12,7.89,1.88,12.3-1.25,4.41-4.51,8.36-9.8,11.85-5.4,3.56-10.46,5.13-15.18,4.7-4.72-.43-8.5-2.8-11.34-7.11l8.27-5.45c1.51,1.72,2.96,2.8,4.35,3.23,2.53.78,5.5.04,8.92-2.21Z"/>
        <path class="cls-4" d="M626.42,594.94c-.15,5.02-2.23,9.6-6.25,13.75-4.97,5.13-10.53,7.56-16.66,7.3-6.15-.27-12.1-3.2-17.86-8.79-6.22-6.04-9.4-12.36-9.53-18.96-.12-5.75,2-10.86,6.34-15.34,5.82-6,12.04-8.47,18.66-7.43,3.69.61,6.71,1.94,9.04,3.99l-7.23,7.45c-2.18-1.17-4.07-1.8-5.67-1.89-2.86-.15-5.58,1.11-8.16,3.77-2.63,2.71-3.61,5.9-2.94,9.59.67,3.68,3,7.46,7,11.34,4,3.88,7.79,5.96,11.39,6.24,3.59.28,6.63-.85,9.1-3.4,2.53-2.61,3.61-5.43,3.23-8.46-.18-1.65-.95-3.62-2.3-5.9l7.16-7.38c3.26,4.42,4.82,9.12,4.69,14.13Z"/>
        <path class="cls-4" d="M598.6,556.83l6.08-8.41,33.01,23.86,14.41-19.93,7.24,5.23-20.49,28.34-40.25-29.09Z"/>
        <path class="cls-4" d="M659.99,516.24l-27.06-14.12,4.88-9.35,27.06,14.12c4.68,2.44,7.95,5.07,9.8,7.88,3.37,5.2,3.06,11.62-.92,19.24-3.98,7.63-9.07,11.56-15.27,11.79-3.37.09-7.39-1.08-12.07-3.52l-27.06-14.12,4.88-9.35,27.06,14.12c3.03,1.58,5.42,2.37,7.19,2.38,3.05.17,5.55-1.61,7.51-5.36,1.94-3.72,1.97-6.79.08-9.19-1.02-1.44-3.04-2.96-6.07-4.53Z"/>
        <path class="cls-4" d="M693.15,484.31l-7.11,21.35-47.12-15.68,7.62-22.89c2.01-5.75,5.04-9.28,9.1-10.6,2.49-.78,5.12-.71,7.92.22,2.88.96,4.95,2.45,6.21,4.48.71,1.14,1.21,2.63,1.49,4.47,1.67-2.12,3.67-3.47,5.97-4.07,2.3-.59,4.81-.44,7.52.46,2.79.93,5.06,2.47,6.81,4.61,1.17,1.38,2.04,2.92,2.59,4.59.65,1.9.84,3.94.58,6.14-.26,2.2-.79,4.5-1.59,6.91ZM664.97,469.75c-.34-1.53-1.5-2.63-3.49-3.29-2.2-.73-3.93-.36-5.2,1.11-.98,1.31-1.85,3.1-2.61,5.38l-3.45,10.36,10.39,3.46,3.85-11.57c.69-2.07.85-3.88.5-5.44ZM672.33,477.63l-3.9,11.73,12.56,4.18,3.85-11.57c.69-2.07.95-3.77.78-5.1-.33-2.43-1.94-4.13-4.84-5.09-2.45-.82-4.47-.36-6.06,1.36-.89.96-1.68,2.46-2.38,4.5Z"/>
      </g>
      <path class="cls-2" d="M469.01,70.64c-2.33,2.19-3,3.44-2.3,4.29.85,1.02-2.03,16.98-4.47,24.79-.48,1.53-1.13,1.47-7.37-.65-3.76-1.28-10.04-2.92-13.96-3.64-3.91-.72-7.12-1.81-7.12-2.41s1.32-2.36,2.93-3.9c9.25-8.86,4.51-16.57-10.2-16.57h-6.34l-3.32,4.71c-2.44,3.47-2.96,4.83-1.95,5.16,2.23.74,6.89,5.85,6.89,7.55,0,1.87-.55,1.9-10.68.49-4.3-.6-8.95-1.24-10.32-1.43-1.38-.19-3.97-.37-5.76-.41-2.85-.06-3.54-.64-5.45-4.57-1.2-2.47-2.51-4.5-2.92-4.5s-1.83,1.41-3.17,3.12l-2.44,3.12,2.36,4.13c2.91,5.09,2.96,7,.3,10.74-2.8,3.94-6.9,5.89-12.37,5.89-2.5,0-4.55.44-4.55.98s1.93,3,4.29,5.46c3.3,3.45,4.8,4.35,6.49,3.91,3-.78,9.03-7.66,11.38-12.98,2.29-5.17,2.05-5.14,19.22-2.72,9.06,1.28,12.31,1.4,13.71.53,1.46-.91,2.01-.82,2.71.44.56,1,4.28,2.28,10.12,3.47,5.08,1.04,13.1,3.07,17.82,4.51l8.59,2.62,1.83-2.36c5.44-7.02,7.03-10.25,8.96-18.15,1.7-6.95,2.82-9.43,5.62-12.39l3.5-3.71-3.62-2.9c-1.99-1.6-3.62-3.53-3.62-4.31,0-2.12-1.17-1.71-4.8,1.69M361.69,76.85c-2.56,4.24-2.57,4.35-.74,6.61,2.66,3.28,2.35,5.07-.89,5.14-1.51.04-4.33.26-6.25.5s-9.12,1.14-16,1.99c-6.88.86-13.25,1.77-14.17,2.04-1.75.51-5.19,9.01-4.25,10.53.3.48,2.05.88,3.9.88,7.49,0,8.57,2.62,2.69,6.51-11.12,7.36-20.08,3.38-20.33-9.03-.13-6.61-1.49-5.44-2.82,2.4-1.85,10.96,1.29,18.03,9.37,21.08,3.85,1.46,11.4-.75,18.07-5.28,4.48-3.04,5.22-4.1,7.5-10.77l2.54-7.4,5-.67c2.75-.37,8.51-.98,12.81-1.35,8.91-.78,8.99-.87,10.97-12.08.97-5.52.86-6.5-1.19-10.75-1.24-2.57-2.56-4.67-2.93-4.67s-1.84,1.94-3.27,4.31M258.4,79.22c-.88,2.57-1.59,5.48-1.59,6.47s2.64,7.77,5.86,15.07c3.22,7.31,6.45,15.08,7.17,17.28l1.31,4,1.44-3.5c2.16-5.25,1.04-13.24-3.26-23.26-2.04-4.74-3.42-9.08-3.08-9.63.64-1.04-4.41-11.07-5.59-11.09-.36,0-1.37,2.09-2.25,4.66M492.15,79.64l-5.15,2.99-6.12,18.1c-3.36,9.96-5.95,18.26-5.75,18.46.2.2,2.12-.91,4.27-2.47,4.32-3.13,8-9.29,11.46-19.18,1.25-3.57,2.93-7.27,3.73-8.21,1.56-1.84,4.47-12.82,3.37-12.73-.36.03-2.98,1.4-5.82,3.04M235.44,85.33c-.24.39-.59,2.2-.78,4.02-.26,2.47.21,3.74,1.81,5,2.92,2.29,13.82,22.12,12.72,23.13-.48.44-5.11,2.97-10.29,5.61l-9.41,4.81-3.95-2.27c-4.32-2.49-5.2-2.13-6.17,2.5-.61,2.9-.36,3.24,4.14,5.55,4.7,2.41,4.8,2.57,5.1,7.61.38,6.42-1.67,10.64-6.55,13.52l-3.62,2.14,3.93,1.77c5.24,2.36,8.72,2.26,11.03-.29,1.58-1.75,1.92-3.73,1.97-11.75l.06-9.64,10.78-5.5,10.78-5.5-.51-7.24c-.43-6.15-1.16-8.4-4.84-15-3.49-6.26-4.33-8.73-4.33-12.76v-5l-4.1-.08c-2.26-.05-4.83-.36-5.72-.71-.89-.34-1.81-.3-2.05.09M350.51,109.08c-1.77,2.44-1.76,2.51,1,4.94,1.54,1.35,3.29,2.48,3.89,2.49,1.28.04,4.41-3.2,4.4-4.55,0-.85-6.05-5.46-7.06-5.39-.24.02-1.25,1.14-2.24,2.5M508.69,126.81c-4.14,3.95-5.82,6.42-6.84,10.07-1.25,4.47-1.19,5.18.77,9.21,2.75,5.67,8.22,8.57,17.39,9.23,6.59.47,6.84.4,14.23-4.21,4.14-2.58,7.79-5.13,8.13-5.67.34-.54-1.23-3.93-3.49-7.52-2.25-3.59-3.84-6.95-3.53-7.46,1.16-1.88,7.27-.95,10.27,1.58,3.77,3.17,4.2,3.14,7.7-.52l2.89-3.02-2.73-2.73c-2.48-2.48-3.4-2.73-9.96-2.69-5.55.03-8.27.58-11.72,2.36-4.8,2.48-9,5.89-9,7.31,0,.48,1.58,3.2,3.5,6.06,1.92,2.86,3.5,5.54,3.5,5.96s-2.83.76-6.28.76c-6.26,0-9.58-1.32-12.44-4.95-2.06-2.61-1.47-9.17,1.25-13.94,1.38-2.42,2.36-4.55,2.17-4.73-.19-.19-2.81,2.02-5.82,4.89M198.64,134.21c-.35,4.38-.17,4.79,2.9,6.6,1.8,1.06,3.27,2.29,3.27,2.74s-3.04,3.19-6.75,6.11c-16.71,13.12-37.1,32.51-42.92,40.82-.79,1.13-2.08,2.06-2.86,2.06s-4.65-2.81-8.6-6.25c-10.57-9.21-17.29-14.75-17.88-14.75-.28,0-.29,2.49,0,5.54l.51,5.54,12.5,10.96c6.88,6.03,13.58,11.25,14.9,11.61,2.03.55,3.1-.19,6.9-4.75,8.59-10.32,33.75-34.53,43.47-41.83,6.82-5.12,9.63-7.83,9.31-8.95-.25-.89-.93-3.41-1.51-5.61-1.47-5.62-4.5-10.18-8.31-12.51-1.79-1.09-3.55-1.99-3.91-1.99s-.82,2.1-1.02,4.67M321.64,132.14c-1.31,1.31-2,1.38-3.84.4-1.9-1.02-2.56-.88-4.35.92-2.46,2.46-1.76,4.25,2.67,6.9,2.66,1.59,2.89,1.58,4.13-.1,1.11-1.51,1.72-1.6,3.9-.6,2.28,1.04,2.83.89,4.6-1.22l2.01-2.4-3.19-2.75c-3.74-3.22-3.85-3.24-5.94-1.15M566.54,143.62c-3.21,1.69-3.62,2.27-2.75,3.89,1.38,2.57,1.31,10.03-.09,10.03-.61,0-3.33-1.86-6.05-4.13l-4.94-4.13-3.7,2.99c-2.04,1.65-3.7,3.45-3.7,4,0,1.28,11.91,11.28,13.44,11.28,2.42,0,12.03-7.05,13.51-9.91,1.83-3.54,2.01-9.97.39-13.55-1.37-3.01-1.3-3.01-6.11-.47M581.14,161.29c-7.39,7.68-12.28,13.57-12.3,14.8-.02,1.13,1.82,3.83,4.08,6,10.86,10.45,32.52,37.9,39,49.43,1.23,2.2,3.06,4.25,4.05,4.57.99.32,1.7,1.33,1.57,2.26-.13.93,2.7,7.43,6.27,14.44,6.47,12.68,6.52,12.74,10,12.73,6.17-.04,11.8-1.87,18.71-6.1,5.38-3.29,7.76-4.15,11.77-4.25l5.02-.12.51-5.73c.55-6.24.16-6.77-5.06-6.77-1.78,0-3.26.71-3.87,1.85-1.26,2.35-19.81,13.48-21.39,12.83-.65-.27-3.38-4.84-6.06-10.17l-4.87-9.68,3.79-3.88,3.79-3.88-2.73-1.04c-3.62-1.38-5.92-1.31-7.49.21-1.48,1.44-.31,2.83-12.81-15.25-7.97-11.52-25.76-33.65-29.65-36.87-2.51-2.08-2.07-3.31,2.93-8.17,2.52-2.45,7.74-7.95,11.61-12.21l7.02-7.75h-11.61l-12.27,12.75M498.31,158.25c-3.16.76-3.53,1.6-2.43,5.57.88,3.18,1.44,3.72,3.86,3.72,2,0,2.99.59,3.36,2,.36,1.36,1.36,2,3.15,2,3.19,0,3.96-1.68,2.8-6.13-.74-2.85-1.27-3.32-3.44-3.07-2.03.24-2.69-.22-3.2-2.25-.35-1.41-.97-2.5-1.37-2.44-.4.06-1.63.33-2.73.6M208.82,165c-.67,1.75-1.71,2.54-3.38,2.54-1.78,0-2.59.7-3.08,2.65-.82,3.27-.01,4.1,4.45,4.52,2.83.27,3.69-.09,4.47-1.87.56-1.27,2.04-2.33,3.5-2.5,2.05-.24,2.59-.91,2.85-3.54.21-2.15-.13-3.28-1-3.33-.72-.04-2.56-.29-4.07-.54-2.24-.37-2.94.02-3.72,2.08M124.14,204.48c-6.4,2.9-6.8,4.3-6.59,22.71l.18,16.15-5.08-1.34-5.08-1.34.59,3.69c.32,2.03,1.55,4.48,2.72,5.43l2.13,1.74-2.84,4.76c-2.28,3.82-14.36,29.88-14.36,30.97,0,.16,1.62,2.08,3.61,4.28l3.61,4,2.94-4.06c3.31-4.57,4.85-4.66,6.03-.36,1.33,4.85-.16,11.55-3.27,14.66-3.14,3.14-6.29,3.46-12.43,1.25q-5.15-1.86-2.9.68c3.64,4.11,10.62,7.85,14.65,7.85,8.2,0,12.9-5.33,14.26-16.16.98-7.84.01-11.08-5.08-17.05-2.43-2.85-4.42-5.75-4.42-6.46s2.02-5.16,4.5-9.89c2.48-4.73,4.5-9.47,4.5-10.52s.62-1.92,1.38-1.92,6.21-8.1,12.12-18c12.26-20.53,12.15-19.8,4.07-28.49-4.85-5.21-8.2-5.77-15.23-2.58M125.73,215.46c-2.68,2.68-2.92,3.5-2.92,10.06,0,4.08.39,6.89.92,6.57.7-.43,8.07-12.2,11.78-18.8.23-.41-1.22-.75-3.22-.75-2.68,0-4.4.76-6.56,2.92M101.49,214.72c-1.87.68-2.63,1.52-2.25,2.5.31.81.57,2.17.57,3.01,0,1.22.75,1.39,3.75.84,4.78-.88,5.66-1.78,4.86-4.96-.7-2.77-2.26-3.09-6.93-1.39M643.46,215.3c-.26.42-.78,2.43-1.17,4.48-.64,3.43-.48,3.81,2.07,4.78,3.33,1.27,4.08.63,4.98-4.25.63-3.41.45-3.82-1.99-4.75-3.2-1.22-3.3-1.22-3.89-.26M659.81,268.51c-4.12,2.13-11.44,5.58-16.25,7.65-10.18,4.4-10.17,5.91.05,5.81,5.71-.06,8.02-.69,15.65-4.28,4.92-2.32,9.54-3.98,10.27-3.71.73.28,3.64-.92,6.47-2.66l5.15-3.17-4.92-1.73c-6.88-2.42-7.96-2.28-16.42,2.09M130.81,303.36c-2.69,1.33-3.43,2.25-3.18,3.99.2,1.4-.52,2.94-1.88,4.04-1.94,1.57-2.05,2.07-.93,4.22.7,1.34,1.36,2.55,1.48,2.7.12.14,1.9-.44,3.97-1.31,3.2-1.34,3.69-1.95,3.28-4.07-.35-1.83.13-2.9,1.82-4.01,2.01-1.32,2.17-1.88,1.27-4.44-1.18-3.39-1.2-3.39-5.83-1.11"/>
      <g>
        <g>
          <path class="cls-4" d="M55.85,358.55h27.59v4.66h-22.57v11.54h20.86v4.4h-20.86v12.89h22.96v4.53h-27.97v-38.02Z"/>
          <path class="cls-4" d="M93.39,387.87c.14,1.55.54,2.74,1.19,3.57,1.2,1.5,3.28,2.25,6.23,2.25,1.76,0,3.31-.38,4.65-1.13,1.34-.75,2.01-1.91,2.01-3.48,0-1.19-.54-2.1-1.61-2.72-.68-.38-2.03-.82-4.05-1.32l-3.76-.93c-2.4-.59-4.17-1.24-5.31-1.97-2.03-1.26-3.05-3-3.05-5.23,0-2.62.96-4.74,2.87-6.37,1.91-1.62,4.49-2.43,7.72-2.43,4.23,0,7.28,1.23,9.15,3.67,1.17,1.55,1.74,3.23,1.71,5.02h-4.4c-.09-1.05-.47-2-1.14-2.86-1.09-1.22-2.99-1.83-5.7-1.83-1.8,0-3.17.34-4.09,1.01-.93.67-1.39,1.56-1.39,2.66,0,1.2.61,2.17,1.83,2.89.7.43,1.74.81,3.11,1.14l3.14.75c3.41.81,5.7,1.6,6.86,2.35,1.81,1.19,2.72,3.06,2.72,5.62s-.95,4.6-2.84,6.39c-1.89,1.79-4.78,2.69-8.66,2.69-4.17,0-7.13-.94-8.87-2.81-1.74-1.87-2.67-4.19-2.79-6.95h4.48Z"/>
          <path class="cls-4" d="M118.58,361.11h4.71v7.74h4.42v3.8h-4.42v18.09c0,.97.33,1.61.98,1.94.36.19.97.29,1.81.29.22,0,.47,0,.72-.02s.56-.04.91-.09v3.7c-.53.16-1.09.27-1.67.34-.58.07-1.2.1-1.88.1-2.17,0-3.65-.56-4.43-1.67-.78-1.11-1.16-2.56-1.16-4.33v-18.35h-3.75v-3.8h3.75v-7.74Z"/>
          <path class="cls-4" d="M134.02,390.93h5.41v5.64h-5.41v-5.64Z"/>
        </g>
        <g>
          <path class="cls-4" d="M621.04,370.33v-3.57c3.36-.33,5.71-.88,7.04-1.64,1.33-.77,2.32-2.58,2.98-5.45h3.67v36.9h-4.97v-26.24h-8.72Z"/>
          <path class="cls-4" d="M653.02,387.59c.14,2.57,1.13,4.35,2.98,5.33.95.52,2.02.78,3.21.78,2.22,0,4.12-.93,5.69-2.78,1.57-1.85,2.68-5.62,3.34-11.3-1.04,1.64-2.32,2.79-3.84,3.45-1.53.66-3.17,1-4.93,1-3.57,0-6.4-1.11-8.47-3.33-2.08-2.22-3.12-5.08-3.12-8.58s1.03-6.32,3.08-8.87c2.05-2.55,5.08-3.83,9.08-3.83,5.4,0,9.13,2.43,11.18,7.29,1.14,2.67,1.71,6.02,1.71,10.03,0,4.53-.68,8.55-2.04,12.05-2.26,5.83-6.09,8.74-11.49,8.74-3.62,0-6.38-.95-8.25-2.85-1.88-1.9-2.82-4.28-2.82-7.14h4.71ZM665.14,378.16c1.53-1.21,2.29-3.34,2.29-6.37,0-2.72-.69-4.75-2.06-6.08-1.37-1.33-3.12-2-5.24-2-2.28,0-4.08.76-5.42,2.29-1.34,1.52-2.01,3.56-2.01,6.11,0,2.41.59,4.33,1.76,5.75,1.17,1.42,3.04,2.13,5.62,2.13,1.85,0,3.53-.61,5.06-1.82Z"/>
          <path class="cls-4" d="M682.53,387.12c.31,2.66,1.54,4.5,3.7,5.51,1.1.52,2.38.78,3.83.78,2.76,0,4.8-.88,6.13-2.64,1.33-1.76,1.99-3.71,1.99-5.85,0-2.59-.79-4.59-2.37-6-1.58-1.41-3.47-2.12-5.68-2.12-1.61,0-2.98.31-4.13.93-1.15.62-2.13,1.48-2.94,2.59l-4.04-.23,2.82-19.95h19.25v4.5h-15.76l-1.58,10.3c.86-.66,1.68-1.15,2.46-1.48,1.38-.57,2.98-.85,4.79-.85,3.4,0,6.28,1.1,8.64,3.29,2.36,2.19,3.54,4.97,3.54,8.33s-1.08,6.59-3.25,9.27-5.62,4.01-10.36,4.01c-3.02,0-5.69-.85-8.01-2.55-2.32-1.7-3.62-4.31-3.89-7.83h4.84Z"/>
          <path class="cls-4" d="M709.63,388.23c1.15-2.36,3.39-4.51,6.72-6.44l4.97-2.87c2.23-1.29,3.79-2.4,4.68-3.32,1.42-1.43,2.12-3.08,2.12-4.93,0-2.16-.65-3.88-1.94-5.15s-3.02-1.91-5.18-1.91c-3.19,0-5.4,1.21-6.62,3.63-.66,1.3-1.02,3.1-1.09,5.4h-4.74c.05-3.23.65-5.86,1.79-7.89,2.02-3.59,5.58-5.38,10.69-5.38,4.24,0,7.35,1.15,9.3,3.44,1.96,2.29,2.94,4.85,2.94,7.66,0,2.97-1.04,5.5-3.13,7.61-1.21,1.23-3.37,2.71-6.5,4.45l-3.55,1.97c-1.69.93-3.02,1.82-3.98,2.67-1.73,1.5-2.81,3.17-3.26,4.99h20.24v4.4h-25.44c.17-3.19.83-5.97,1.98-8.33Z"/>
        </g>
      </g>
    </g>
  </g>
</svg>