<?xml version="1.0" encoding="UTF-8"?>
<svg id="Calque_2" data-name="Calque 2" xmlns="http://www.w3.org/2000/svg" viewBox="0 0 498.1 655.74">
  <defs>
    <style>
      .cls-1 {
        fill: none;
      }

      .cls-2 {
        fill: #a98c67;
      }

      .cls-3 {
        fill: #fff;
      }

      .cls-4 {
        fill: #e20b00;
      }
    </style>
  </defs>
  <g id="Layer_1" data-name="Layer 1">
    <g>
      <path class="cls-2" d="M301.92,18.83c-.16,2.57-.31,5.15-.47,7.72-12.11-1.23-24.85-2.05-37.94-2.39.15-2.56.31-5.11.47-7.66,2.53.04,5.07.1,7.61.19.16-2.57.32-5.15.47-7.72.03-.43.4-.77.83-.76,1.55.06,3.1.13,4.65.2.13-2.19.27-4.38.4-6.57.07-1.07.98-1.9,2.06-1.84,2.65.14,5.32.31,7.98.51,1.06.08,1.89,1.01,1.82,2.08-.13,2.19-.27,4.38-.4,6.57,1.54.12,3.08.24,4.62.38.43.04.75.42.73.85-.16,2.56-.32,5.13-.47,7.69,2.54.23,5.1.48,7.64.76Z"/>
      <path class="cls-2" d="M375.2,33.45c-.71,2.84-1.41,5.69-2.13,8.53-10.06-4.05-22.49-7.52-36.59-10.3.61-2.49,1.22-4.98,1.83-7.47,2.47.51,4.94,1.04,7.41,1.59.62-2.52,1.23-5.02,1.86-7.54.1-.42.52-.69.93-.59,1.51.35,3.02.71,4.52,1.06.53-2.13,1.05-4.26,1.58-6.39.26-1.04,1.31-1.68,2.36-1.42,2.58.66,5.18,1.32,7.76,2.02,1.04.29,1.68,1.35,1.42,2.39-.53,2.12-1.06,4.24-1.59,6.35,1.5.41,3,.82,4.49,1.23.42.12.68.55.57.96-.62,2.48-1.23,4.96-1.86,7.44,2.49.69,4.96,1.39,7.44,2.13Z"/>
      <path class="cls-2" d="M234.59,24.17c-13.09.34-25.84,1.15-37.94,2.39-.16-2.57-.31-5.15-.47-7.72,2.55-.28,5.1-.53,7.64-.76-.15-2.56-.31-5.13-.47-7.69-.02-.43.3-.81.74-.85,1.53-.14,3.07-.26,4.61-.38-.13-2.19-.27-4.38-.4-6.57-.06-1.06.76-2,1.82-2.08,2.66-.2,5.33-.37,7.98-.51,1.07-.06,2,.77,2.06,1.84.13,2.19.27,4.38.4,6.57,1.55-.07,3.1-.14,4.65-.2.43,0,.8.33.83.76.15,2.57.31,5.15.47,7.72,2.54-.09,5.07-.15,7.62-.19.15,2.55.31,5.1.46,7.66Z"/>
      <path class="cls-2" d="M161.63,31.69c-14.11,2.77-26.53,6.24-36.59,10.29-.72-2.84-1.42-5.69-2.13-8.53,2.48-.74,4.95-1.44,7.44-2.13-.63-2.48-1.24-4.96-1.86-7.44-.1-.42.15-.84.57-.96,1.49-.42,2.99-.83,4.49-1.23-.53-2.12-1.05-4.24-1.59-6.35-.26-1.03.38-2.1,1.42-2.39,2.58-.7,5.18-1.36,7.76-2.02,1.04-.26,2.1.38,2.36,1.42.53,2.13,1.05,4.26,1.58,6.39,1.5-.36,3.01-.72,4.52-1.06.42-.1.83.17.93.59.63,2.52,1.24,5.02,1.86,7.54,2.48-.55,4.94-1.08,7.41-1.59.62,2.49,1.22,4.98,1.83,7.48Z"/>
      <path class="cls-2" d="M249.05,42.23c50.91,0,95.41,7.13,119.55,17.75l-5.6,22.71c-36.59,12.24-74.83,18.44-113.93,18.44h-.02c-39.1,0-77.34-6.2-113.93-18.44l-5.6-22.71c24.14-10.62,68.64-17.75,119.55-17.75Z"/>
      <path class="cls-2" d="M372.61,43.89l-2.82,11.43c-26.24-11.13-71.19-17.76-120.73-17.76s-94.5,6.63-120.73,17.76l-2.82-11.43c27.83-11.28,73.6-17.97,123.55-17.97s95.72,6.69,123.55,17.98Z"/>
      <path class="cls-2" d="M368.6,59.98l-5.6,22.71c-36.59,12.24-74.83,18.44-113.93,18.44h-.02c-39.1,0-77.34-6.2-113.93-18.44l-5.6-22.71c24.14-10.62,68.64-17.75,119.55-17.75s95.41,7.13,119.55,17.75Z"/>
      <path class="cls-3" d="M87.83,565.18c-51.95-35.82-73.67-81.63-81.06-123.85-3.99-22.81-3.85-46.13-.12-68.99,2.92-17.93,8.27-36.98,18.97-72.4,0,0,11.75-33.75,11.75-73.32l16.8,7.64c2.6,15.83,1.26,33.85-4.39,53.58l-21.79,80.69c-20.59,76.3,7.46,155.05,59.84,196.65Z"/>
      <path class="cls-3" d="M491.33,441.33c-7.39,42.22-29.11,88.03-81.06,123.85,52.38-41.6,80.43-120.36,59.85-196.65l-21.79-80.69c-5.65-19.73-6.98-37.75-4.39-53.58l16.8-7.64c0,39.57,11.76,73.32,11.76,73.32,10.7,35.42,16.05,54.47,18.97,72.4,3.72,22.86,3.87,46.18-.12,68.99Z"/>
      <path class="cls-3" d="M422.78,174.47s-76.91,43.62-173.73,43.63c-96.82,0-173.73-43.63-173.73-43.63v4.55c13.91,7.96,27.67,14.76,41.2,20.5v373.08c24.96,10.15,44.82,17.94,64.46,26.79V219.84c12.24,2.56,24.2,4.34,35.84,5.48v391.45c17.33,9.27,30.28,18.09,32.23,24.42,1.95-6.33,14.9-15.14,32.23-24.42V225.31c11.64-1.13,23.6-2.92,35.84-5.48v379.54c19.64-8.84,39.49-16.64,64.46-26.79V199.51c13.53-5.74,27.29-12.54,41.2-20.5v-4.55Z"/>
      <path class="cls-3" d="M472.48,299.93s-11.76-33.75-11.76-73.32l-16.8,7.64c-2.6,15.83-1.26,33.84,4.39,53.58l21.79,80.69c20.58,76.3-7.46,155.05-59.85,196.65,51.95-35.82,73.68-81.63,81.06-123.85,3.99-22.81,3.84-46.13.12-68.99-2.92-17.93-8.27-36.98-18.97-72.4Z"/>
      <path class="cls-3" d="M28,368.52l21.79-80.69c5.65-19.73,6.99-37.75,4.39-53.58l-16.8-7.64c0,39.57-11.75,73.32-11.75,73.32-10.7,35.42-16.05,54.47-18.97,72.4-3.72,22.86-3.87,46.18.12,68.99,7.39,42.22,29.1,88.03,81.06,123.85-52.38-41.6-80.43-120.36-59.84-196.65Z"/>
      <path d="M497.79,397.93c0-34.55-21.7-98.7-21.7-98.7-13.96-42.9-11.91-77.6-11.91-77.6,0,0-11.6,5.55-19.64,9.26,7.4-37.89,32.14-61.98,32.14-61.98l-59.52-100.78-1.86.95c-4.74,2.41-9.53,4.72-14.39,6.93-.01.01-.02.01-.03.02-5.78,2.76-11.72,5.26-17.76,7.52-41.53,16.31-86.76,25.27-134.08,25.27s-92.91-9.03-134.58-25.46c-.01,0-.02,0-.03,0-5.67-2.15-11.25-4.5-16.69-7.08-4.76-2.15-9.47-4.41-14.11-6.76-.9-.45-1.8-.91-2.7-1.37l-59.51,100.77s24.74,24.09,32.14,61.98c-8.05-3.71-19.64-9.26-19.64-9.26,0,0,2.05,34.7-11.91,77.6,0,0-21.7,64.15-21.7,98.7,0,0-5.58,64.18,30.58,115.51,0,0,29.92,47.02,85.63,71.42,55.93,24.5,105.62,39.75,132.53,70.88,26.91-31.13,76.6-46.38,132.53-70.88,55.71-24.4,85.63-71.42,85.63-71.42,36.16-51.33,30.58-115.51,30.58-115.51ZM6.78,441.33c-3.99-22.81-3.85-46.13-.12-68.99,2.92-17.94,8.26-36.98,18.96-72.4,0,0,11.75-33.75,11.75-73.32l16.8,7.64c2.6,15.83,1.26,33.85-4.39,53.58l-21.78,80.69c-20.59,76.3,7.45,155.05,59.84,196.65-51.96-35.82-73.67-81.63-81.06-123.85ZM491.32,441.33c-7.38,42.22-29.1,88.03-81.06,123.85,52.39-41.6,80.43-120.35,59.85-196.65l-21.79-80.69c-5.65-19.73-6.99-37.75-4.39-53.58l16.79-7.64c0,39.57,11.76,73.32,11.76,73.32,10.7,35.42,16.05,54.46,18.97,72.4,3.72,22.86,3.87,46.18-.13,68.99Z"/>
      <path class="cls-1" d="M281.28,225.31v.03c12-1.17,23.96-3,35.84-5.48v-.03c-12.24,2.56-24.2,4.34-35.84,5.48Z"/>
      <path class="cls-1" d="M180.97,219.84v.03h0c11.88,2.48,23.84,4.31,35.84,5.48v-.03c-11.64-1.13-23.6-2.92-35.84-5.48Z"/>
      <path class="cls-4" d="M249.05,226.92c-10.75,0-21.51-.52-32.23-1.57v391.42c17.33,9.27,30.28,18.09,32.23,24.42,1.95-6.33,14.9-15.15,32.23-24.42V225.35c-10.72,1.04-21.47,1.57-32.23,1.57Z"/>
      <path class="cls-4" d="M381.58,199.51v373.08c-24.96,10.15-44.82,17.94-64.46,26.79V219.86c21.86-4.57,43.44-11.35,64.46-20.35Z"/>
      <path class="cls-4" d="M180.98,219.86v379.52c-19.64-8.84-39.49-16.64-64.46-26.79V199.51c21.01,9,42.59,15.78,64.46,20.35Z"/>
      <path class="cls-2" d="M422.78,174.47v4.55c-13.91,7.96-27.67,14.76-41.2,20.5-21.01,9-42.59,15.78-64.46,20.35v-.03c-12.24,2.56-24.2,4.34-35.84,5.48v.03c-10.72,1.04-21.47,1.57-32.23,1.57s-21.51-.53-32.23-1.57v-.03c-11.64-1.13-23.6-2.92-35.84-5.48v.03c-21.86-4.57-43.44-11.35-64.46-20.35-13.53-5.74-27.29-12.54-41.2-20.5v-4.55s76.91,43.62,173.73,43.63c96.82,0,173.73-43.63,173.73-43.63Z"/>
      <path class="cls-2" d="M368.6,59.98l-5.6,22.71c-36.59,12.24-74.83,18.44-113.93,18.44h-.02c-39.1,0-77.34-6.2-113.93-18.44l-5.6-22.71c24.14-10.62,68.64-17.75,119.55-17.75s95.41,7.13,119.55,17.75Z"/>
      <g>
        <g>
          <circle class="cls-3" cx="258.74" cy="54.61" r="3.69"/>
          <circle class="cls-3" cx="249.04" cy="67.66" r="3.69"/>
          <circle class="cls-3" cx="239.34" cy="54.61" r="3.69"/>
        </g>
        <g>
          <circle class="cls-3" cx="199.23" cy="71.25" r="3.69"/>
          <circle class="cls-3" cx="207.37" cy="57.17" r="3.69"/>
          <circle class="cls-3" cx="218.5" cy="69.02" r="3.69"/>
        </g>
        <g>
          <circle class="cls-3" cx="176.7" cy="62.03" r="3.69"/>
          <circle class="cls-3" cx="170.37" cy="77.01" r="3.69"/>
          <circle class="cls-3" cx="157.85" cy="66.63" r="3.69"/>
        </g>
        <g>
          <circle class="cls-3" cx="298.85" cy="71.25" r="3.69"/>
          <circle class="cls-3" cx="290.71" cy="57.17" r="3.69"/>
          <circle class="cls-3" cx="279.57" cy="69.02" r="3.69"/>
        </g>
        <g>
          <circle class="cls-3" cx="321.38" cy="62.03" r="3.69"/>
          <circle class="cls-3" cx="327.7" cy="77.01" r="3.69"/>
          <circle class="cls-3" cx="340.22" cy="66.63" r="3.69"/>
        </g>
      </g>
      <g>
        <path class="cls-3" d="M329.6,420.04c-1.5-2.4-2.2-5.2-2.2-8.5s.7-6,2.1-8.6c1.4-2.5,4-3.8,7.7-3.8s6.4,1.3,7.8,3.8c1.4,2.5,2.1,5.4,2.1,8.6s-.7,6.1-2.3,8.5c-1.5,2.4-4.1,3.6-7.6,3.6s-6.1-1.2-7.6-3.6ZM341.2,416.94c.7-1.5,1.1-3.3,1.1-5.4s-.3-3.8-1.1-5.4c-.7-1.6-2-2.4-3.9-2.4s-3.2.8-3.9,2.4c-.7,1.6-1.1,3.5-1.1,5.4s.4,3.9,1.1,5.4c.7,1.5,2,2.3,3.8,2.3s3.2-.7,4-2.3Z"/>
        <path class="cls-3" d="M352.8,399.34h5v4.6c0,1,.1,1.8.4,2.3.3.6.6.8.9.8s.6-.3.8-.8.4-1.3.4-2.3v-4.7h3.7v4.7c0,1,.1,1.8.2,2.3.1.5.5.8,1.1.8.5,0,1-.3,1.2-.8s.3-1.3.3-2.3v-4.7h4.5v4.7c0,2.4-.5,4.2-1.6,5.5-1,1.3-2.5,2-4.4,2-.8,0-1.5-.1-1.9-.4-.5-.2-.9-.7-1.4-1.3-.4.6-.9,1-1.3,1.3-.4.3-.9.4-1.5.4-.3,0-.6,0-.9-.1-.2-.1-.5-.2-.7-.4v12.6h-4.9l.1-24.2h0Z"/>
        <path class="cls-3" d="M151.22,414.14c-1.2.2-2.4.3-3.6.3-2.7,0-5-.6-6.7-1.8s-2.5-3-2.5-5.5.8-4.3,2.5-5.7,4.2-2.1,7.7-2.1c1.2,0,2.5.1,3.9.3s2.6.4,3.6.6v23.3h-4.9v-9.4h0ZM151.22,409.44v-5.2c-.9-.2-1.8-.3-3-.3-2,0-3.4.3-4,.8s-.9,1.2-.9,1.9c0,.9.3,1.6.9,2.2.6.6,1.8.9,3.5.9,1,.1,2.2-.1,3.5-.3"/>
        <path class="cls-3" d="M262.92,415.09v7.85h-4.5c-.5,0-.9-.1-1.4-.31-.4-.2-.8-.41-1.1-.72-.6.72-1.3,1.03-2.2,1.03h-8.3s-6.8-.01-6.8-.01c-.5,0-.9-.1-1.4-.3-.4-.2-.8-.4-1.1-.7-.6.7-1.3,1-2.2,1h-2v1.1c0,.9-.2,1.8-.7,2.7-.4.9-1.2,1.6-2.1,2.2-1,.6-2.1.9-3.6.9-1.6,0-2.9-.3-3.7-1-.9-.7-1.6-1.5-1.9-2.5-.3-1-.5-1.9-.5-2.9,0-1.3.3-3.9,1-8l2.8.2c-.6,3.9-.9,6.4-.9,7.3,0,.5.1,1.1.3,1.7.2.5.6,1,1.1,1.4.5.4,1.2.6,1.9.6s1.3-.1,1.8-.5c.5-.3.9-.7,1.2-1.3.2-.5.4-1.1.4-1.7v-12.4h2.9v8.8h1c.5,0,1-.1,1.3-.6s.4-1.3.4-2.1v-6h2.9v6c0,.9,0,1.6-.2,2.3.1.1.3.2.5.3s.4.1.6.1h1.7v-7.05c0-.9-.1-2-.2-3.5l2.6-.1c.1,1.2.3,2.3.4,3.6.1,1.2.2,2,.2,2.5v4.55h5.7v-9.3h2.9v9.3h1c.6,0,1-.31,1.3-.82.3-.52.4-1.35.4-2.17v-6.2h2.9v6.2c0,.93,0,1.86-.2,2.58.1.1.3.21.5.31.2.1.4.1.6.1h1.7v-6.92c0-.83-.1-2.07-.2-3.62l2.6-.1c.2,1.14.3,2.38.4,3.62s.2,2.06.2,2.58Z"/>
        <path class="cls-3" d="M269.72,402.04l-2.4.8c-.3-.3-.5-.7-.5-1.2,0-.4.1-.7.3-1,.2-.3.5-.4.8-.4.2,0,.4,0,.5.1.2,0,.4.2.4.2l.3-1.7c-.6-.5-1.1-.7-1.7-.7-.7,0-1.3.3-1.7.8-.4.5-.6,1.2-.6,1.9,0,.8.2,1.6.8,2.2l-1,.3.2,1.3,4.8-1.2-.2-1.4Z"/>
        <polygon class="cls-3" points="277.17 409.24 277.17 422.94 265.92 422.94 265.92 406.14 268.82 406.14 268.82 419.54 274.27 419.54 274.27 409.14 277.17 409.24"/>
        <rect class="cls-3" x="272.87" y="403.24" width="2.2" height="3.4"/>
        <rect class="cls-3" x="276.17" y="403.24" width="2.2" height="3.4"/>
        <g>
          <path class="cls-3" d="M377.42,116.34l-6.3,2.4,2.3,6,6.3-2.4-2.3-6Z"/>
          <g>
            <path class="cls-3" d="M160.72,140.04c-2.2-.7-4.3-.9-6.3-.7-1.9.2-3.7.6-5.3,1.4-1.6.7-3.5,1.8-5.5,3.1l2.2-7.6-7.1-2.1-7,23.8c-.3,1-.9,1.9-1.8,2.6s-2,1.2-3.5,1.4c-1.4.2-2.9,0-4.7-.5-1.9-.5-3.4-1.4-4.4-2.3-1-1-1.7-2-1.9-3.2-.2-1.1-.2-2.1,0-3.1.4-1.4,2.4-5.4,5.9-12l-6.7-2.3c-1.4,2.5-2.7,5.1-4,7.7s-2.1,4.6-2.5,5.7c-.4,1.6-.5,3.3-.1,5.2.3,1.9,1.5,3.7,3.4,5.6,1.9,1.8,4.7,3.4,8.6,4.5,3.5,1,6.4,1.4,9,1,2.6-.3,4.6-1.1,6.1-2.3,1.5-1.2,2.5-2.6,3-4.1l.5-1.9,26.9,7.9,3.5-11.9c1-3.3.9-6.4-.2-9.4-1-3.1-3.7-5.3-8.1-6.5M161.72,154.94l-1.5,4.9-19.8-5.8.6-2.2c2.3-2.3,5-4.2,8-5.5,3-1.4,5.7-1.8,8.2-1,2.1.6,3.6,1.8,4.3,3.7.8,1.7.9,3.7.2,5.9"/>
            <path class="cls-3" d="M156.62,127.94l-1.8,6.2,6.5,1.9,1.8-6.2-6.5-1.9Z"/>
            <path class="cls-3" d="M192.42,176.64l-.8,6.1,5.6.8.8-6.1-5.6-.8Z"/>
            <path class="cls-3" d="M197.02,167.14s-9.1-1.3-9.9-1.5c-1.4-.2-2.8-.5-4.2-.8l5.3-28.1-7.2-1.4-6.4,34c2.1.4,4.3.8,6.4,1.2,3.7.7,7.5,1.4,11.3,1.9,3.3.5,6.6.9,9.9,1.4.4,0,.8.1,1.2.2l3.3-24.5-7.3-1-2.4,18.6h0Z"/>
            <path class="cls-3" d="M200.72,177.74l-.8,6.1,5.6.8.8-6.1-5.6-.8Z"/>
            <path class="cls-3" d="M243.12,170.74h-4.9c-3.3,0-6.5-.2-9.8-.5-.6,0-1.2-.1-1.8-.1h-.1l1.3-18.6-7.3-.5-1.8,25.5c-.1,1.7-.5,3-1.3,3.9-.7.9-1.8,1.3-3.1,1.2l-1.8-.2-.4,5.9c2.2.3,3.5.4,4,.5,3,.2,5.4-.7,7.1-2.7s2.6-5,3-8.9c1.6.1,3.3.2,4.9.3,2.9.2,5.8.3,8.8.3h10.7l.4-34.6-7.3-.1-.6,28.6h0Z"/>
            <path class="cls-3" d="M265.32,142.04l-7.3.2,1.1,34.6,7.3-.2-1.1-34.6Z"/>
            <path class="cls-3" d="M324.72,164.74c-.8-1.1-1.9-1.9-3.4-2.4-1.5-.6-3.6-1-6.1-1.4-2.4-.3-4.1-.5-5.2-.7-1-.2-1.9-.5-2.6-.9-.7-.4-1.2-1-1.3-1.8-.3-2.3,1.5-3.8,5.4-4.4,2.2-.3,5.9-.6,10.9-.8l-.2-5.4h-7.5c-1.7,0-3.3.2-4.9.4-4,.6-7,1.9-8.9,3.9s-2.7,4.6-2.2,7.9c.3,1.8.9,3.2,1.8,4.3.9,1.1,2.3,1.9,4,2.6,1.8.6,4.1,1.1,7.1,1.4,2.5.2,4.3.6,5.4,1,1.1.4,1.8,1.2,1.9,2.4.3,2.4.1,4.1-.6,5.2-.8,1.1-2.2,1.8-4.2,2l-15,2.2c-1.7.2-3.2.2-4.5-.2-1.4-.4-2.4-1-3.3-1.9-.9-.9-1.4-2-1.6-3.2-.1-.7-.2-1.8-.2-3.5v-4.5h-6.9c-.1,1.7-.2,3.5-.2,5.4s0,3.5.2,4.6c.4,2.5,1.5,4.6,3.4,6.1,1.8,1.5,4.1,2.5,6.7,3,2.6.5,5.1.5,7.6.1l15.1-2.3c4-.6,7-2.1,8.9-4.5s2.6-5.8,1.9-10.2c-.1-1.8-.6-3.2-1.5-4.4"/>
            <path class="cls-3" d="M306.02,188.74l-5.6.8.9,6.1,5.6-.8-.9-6.1Z"/>
            <path class="cls-3" d="M314.32,187.54l-5.6.8.9,6.1,5.6-.8-.9-6.1Z"/>
            <path class="cls-3" d="M350.62,144.54c-1.8-2.2-4-3.6-6.5-4.3-2.5-.7-5.1-.7-8,.1-1.2.3-2.4.7-3.7,1.3-1.4.5-2.5,1.1-3.6,1.6l1.8,4.9,5.4-1.4c2.4-.6,4.7-.3,6.9,1s3.8,4,4.9,8.2l.4,1.7-17,4.5,1.6,5.8,24.1-6.4-2.1-8.2c-1-3.6-2.4-6.6-4.2-8.8"/>
            <path class="cls-3" d="M381.52,126.64l-6.9,2.7,6.7,17.4s-7.7,2.9-8.3,3.1c-.7.2-5.1,1.8-5.1,1.8l-8.9-27.1-7,2.3,10.8,32.8c4.9-1.6,9.9-3.2,14.7-5,4.3-1.6,8.6-3.3,12.8-4.9l-8.8-23.1Z"/>
          </g>
        </g>
      </g>
    </g>
  </g>
</svg>