<?xml version="1.0" encoding="UTF-8" standalone="no"?>
<!-- Generator: Adobe Illustrator 19.2.0, SVG Export Plug-In . SVG Version: 6.00 Build 0)  -->

<svg
   xmlns:dc="http://purl.org/dc/elements/1.1/"
   xmlns:cc="http://creativecommons.org/ns#"
   xmlns:rdf="http://www.w3.org/1999/02/22-rdf-syntax-ns#"
   xmlns:svg="http://www.w3.org/2000/svg"
   xmlns="http://www.w3.org/2000/svg"
   xmlns:sodipodi="http://sodipodi.sourceforge.net/DTD/sodipodi-0.dtd"
   xmlns:inkscape="http://www.inkscape.org/namespaces/inkscape"
   version="1.1"
   id="Layer_1"
   x="0px"
   y="0px"
   viewBox="0 0 692 700"
   xml:space="preserve"
   inkscape:version="0.91 r13725"
   sodipodi:docname="Logo AS Beauvais Oise.svg"
   width="692"
   height="700"><metadata
     id="metadata147"><rdf:RDF><cc:Work
         rdf:about=""><dc:format>image/svg+xml</dc:format><dc:type
           rdf:resource="http://purl.org/dc/dcmitype/StillImage" /><dc:title></dc:title></cc:Work></rdf:RDF></metadata><defs
     id="defs145" /><sodipodi:namedview
     pagecolor="#ffffff"
     bordercolor="#666666"
     borderopacity="1"
     objecttolerance="10"
     gridtolerance="10"
     guidetolerance="10"
     inkscape:pageopacity="0"
     inkscape:pageshadow="2"
     inkscape:window-width="1440"
     inkscape:window-height="788"
     id="namedview143"
     showgrid="false"
     inkscape:zoom="0.34059897"
     inkscape:cx="671.36431"
     inkscape:cy="605.76174"
     inkscape:window-x="0"
     inkscape:window-y="1"
     inkscape:window-maximized="1"
     inkscape:current-layer="Layer_1" /><style
     type="text/css"
     id="style3">
	.st0{fill:#FC1921;}
	.st1{fill:#FFFFFF;}
	.st2{fill:#B07C19;}
	.st3{fill:#C58313;}
</style><g
     id="g4691"
     transform="matrix(0.99958796,0,0,1,-247.29806,245.8)"><path
       class="st0"
       d="M 593.65608,454.2 C 744.54749,427.65219 939.68525,252.0282 939.68525,2.4333874 c 0,-88.7196114 -36.3047,-171.7666174 -36.3047,-171.7666174 0,0 -104.37601,-76.46677 -309.72447,-76.46677 -205.34846,0 -309.72448,76.46677 -309.72448,76.46677 0,0 -36.3047,82.820102 -36.3047,171.7666174 C 247.6269,252.25511 442.76467,427.87909 593.65608,454.2 Z"
       id="path7"
       inkscape:connector-curvature="0"
       style="fill:#e30613;fill-opacity:1" /><path
       d="m 302.99157,4.9293355 c 0,-26.5478115 2.72285,-52.1880065 6.58023,-75.3322525 l -47.42302,-33.354943 c -4.08427,15.883306 -7.94165,33.808751 -10.6645,52.868719 l 52.18801,29.04376 L 247.4,9.467423 c 0.2269,16.790924 1.36143,33.354943 3.40357,49.465154 L 303.21848,34.2 c 0,-9.303079 -0.22691,-19.059968 -0.22691,-29.2706645 z"
       id="path9"
       inkscape:connector-curvature="0" /><path
       d="m 883.41297,-21.618476 52.188,-29.043761 c -2.72285,-19.059967 -6.58022,-36.985413 -10.6645,-52.868723 l -47.19611,33.128043 c 3.85737,23.144246 6.58022,48.784441 6.58022,75.3322525 0,10.2106965 -0.2269,19.9675855 -0.45381,29.2706645 l 52.41492,24.732577 c 2.04213,-16.110211 3.17666,-32.67423 3.40356,-49.465154 l -56.27228,-31.085899 z"
       id="path13"
       inkscape:connector-curvature="0" /><path
       class="st1"
       d="m 939.68525,9.6943274 c 0,-2.4959481 0,-4.7649919 0,-7.26094 0,-18.1523504 -1.58833,-36.0777954 -3.85737,-53.3225284 l -52.18801,29.04376 56.04538,31.5397084 z"
       id="path15"
       inkscape:connector-curvature="0"
       style="fill:#ffffff" /><path
       class="st1"
       d="m 850.28493,-172.9637 c 0,0 -83.95462,-66.25607 -256.62885,-66.25607 -172.67423,0 -256.62885,66.25607 -256.62885,66.25607 0,0 -34.03566,83.047006 -34.03566,177.8930355 0,106.8719645 20.19449,168.5899545 53.09563,231.8962745 55.13776,106.19125 160.19449,182.20421 237.56888,212.8363 77.60129,-30.63209 182.65802,-106.64505 237.56888,-212.8363 32.90113,-63.30632 53.09562,-124.79741 53.09562,-231.8962745 0,-94.8460295 -34.03565,-177.8930355 -34.03565,-177.8930355 z"
       id="path17"
       inkscape:connector-curvature="0"
       style="fill:#ffffff" /><path
       id="path4688"
       d="m 251.71094,-50.662109 c -0.0377,0.25697 -0.12236,0.457624 -0.22852,0.632812 -2.36092,16.822823 -3.85547,34.510318 -3.85547,52.4628908 0,2.416554 0.0242,4.8239616 0.0606,7.2265624 l 56.21094,-31.2792972 -52.1875,-29.042968 z"
       style="fill:#ffffff;fill-opacity:1"
       inkscape:connector-curvature="0" /></g><g
     id="g4889"
     transform="translate(-247.4,245.8)"><path
       class="st3"
       d="m 622.24603,43.503079 c -12.47974,0 -24.27877,13.160454 -23.37115,33.354944 l -1.81524,0 c -1.36142,-13.841167 9.75689,-32.447326 9.75689,-45.834684 0,-14.068072 -12.93355,-25.6401948 -12.93355,-25.6401948 0,0 -12.93355,11.3452188 -12.93355,25.6401948 0,13.387358 11.11832,31.993517 9.75689,45.834684 l -1.81523,0 c 0.90761,-20.19449 -10.89141,-33.354944 -23.37115,-33.354944 -6.35333,0 -11.34522,5.899514 -11.34522,12.93355 0,10.89141 12.47974,20.875202 19.51377,18.606159 0,0 -2.72285,-4.311183 -2.72285,-9.529984 0,-0.907618 0.68071,-1.588331 1.58833,-1.588331 5.44571,0 9.98379,8.395462 12.02593,12.93355 l -4.76499,0 c -2.04214,0 -3.63047,1.58833 -3.63047,3.63047 0,2.042139 1.58833,3.63047 3.63047,3.63047 l 7.48785,0 c -5.44571,7.487844 -13.61427,13.387358 -13.61427,13.387358 7.26094,0 12.47974,-2.495948 15.4295,-4.311183 -0.90762,11.345222 2.94976,18.833062 5.2188,18.833062 2.49595,0 6.35332,-7.71475 5.2188,-18.833062 2.94976,1.815235 8.16856,4.311183 15.4295,4.311183 0,0 -8.16856,-5.899514 -13.61426,-13.387358 l 7.48784,0 c 2.04214,0 3.63047,-1.588331 3.63047,-3.63047 0,-2.04214 -1.58833,-3.63047 -3.63047,-3.63047 l -4.76499,0 c 2.04214,-4.538088 6.35332,-12.93355 12.02593,-12.93355 0.90762,0 1.58833,0.680713 1.58833,1.588331 0,5.218801 -2.72285,9.529984 -2.72285,9.529984 7.03403,2.269043 19.51378,-7.714749 19.51378,-18.606159 -0.90762,-7.034036 -6.12642,-12.93355 -12.25284,-12.93355 z"
       id="path53"
       inkscape:connector-curvature="0"
       style="fill:#c58313" /><g
       id="g4682"><path
         style="fill:#c58313"
         inkscape:connector-curvature="0"
         id="path55"
         d="m 564.15851,402.91961 c 1.36143,-0.2269 2.49595,-0.45381 3.40356,-0.45381 0.90762,0 1.36143,-0.2269 1.58834,-0.2269 0.4538,0 0.4538,0.2269 0.4538,0.68071 l 0,16.11021 c 0,0.22691 -0.2269,0.45381 -0.4538,0.45381 -0.22691,0 -0.45381,0 -0.68072,0 -0.2269,0 -0.45381,0 -0.68071,0 -0.22691,0 -0.45381,0 -0.68071,0 -0.22691,0 -0.22691,0 -0.45381,0 -0.22691,0 -0.45381,-0.2269 -0.45381,-0.45381 l 0,-13.84117 c 0,-0.4538 0,-0.68071 0,-0.90761 0,-0.22691 0,-0.45381 -0.22691,-0.68072 0,-0.2269 -0.2269,-0.2269 -0.4538,-0.2269 -0.22691,0 -0.45381,0 -0.68072,0 -0.2269,0 -0.2269,0 -0.45381,0 -0.2269,0 -0.45381,0 -0.68071,0 l 0.45381,-0.45381 z"
         class="st3" /><path
         style="fill:#c58313"
         inkscape:connector-curvature="0"
         id="path57"
         d="m 579.81491,415.62626 c -0.90762,0 -1.81523,-0.22691 -2.49595,-0.45381 -0.68071,-0.22691 -1.36142,-0.68072 -1.81523,-1.36143 -0.45381,-0.45381 -0.90762,-1.13452 -1.13452,-2.04214 -0.22691,-0.68071 -0.45381,-1.58833 -0.45381,-2.49595 0,-1.13452 0.2269,-2.04214 0.68071,-2.94975 0.45381,-0.90762 0.90762,-1.58833 1.58833,-2.26905 0.68071,-0.68071 1.36143,-1.13452 2.49595,-1.58833 0.90762,-0.45381 1.81523,-0.45381 2.94976,-0.45381 1.13452,0 2.26904,0.22691 3.17666,0.68072 0.90761,0.45381 1.81523,1.13452 2.26904,2.04214 0.68071,0.90761 1.13452,1.81523 1.36143,2.94975 0.2269,1.13452 0.45381,2.26905 0.45381,3.63047 0,1.58833 -0.22691,3.17666 -0.68072,4.53809 -0.45381,1.36143 -1.13452,2.72285 -2.04214,3.85737 -0.90761,1.13453 -2.04214,2.04214 -3.17666,2.72286 -1.36142,0.68071 -2.72285,0.90761 -4.53809,0.90761 -1.13452,0 -2.04213,-0.2269 -3.17666,-0.4538 l 0.22691,-1.13453 c 0.68071,0.22691 1.36142,0.22691 2.04214,0.22691 1.36142,0 2.26904,-0.22691 3.40356,-0.68071 0.90762,-0.45381 1.58833,-1.13453 2.26905,-1.81524 0.68071,-0.68071 1.13452,-1.58833 1.36142,-2.72285 0.22691,-0.90762 0.45381,-2.04214 0.68072,-3.40357 -1.36143,0.45381 -2.49595,0.90762 -3.40357,1.36143 -0.90762,0.68071 -1.58833,0.90762 -2.04214,0.90762 z m 5.44571,-3.40357 c 0,-0.45381 0,-1.13452 0,-1.81523 0,-0.68072 -0.22691,-1.36143 -0.22691,-1.81524 -0.2269,-0.68071 -0.2269,-1.13452 -0.45381,-1.81523 -0.2269,-0.68072 -0.45381,-1.13453 -0.90761,-1.58834 -0.22691,-0.4538 -0.68072,-0.90761 -1.13453,-1.13452 -0.45381,-0.2269 -0.90761,-0.45381 -1.58833,-0.45381 -0.68071,0 -1.13452,0.22691 -1.58833,0.45381 -0.45381,0.22691 -0.90762,0.68072 -1.13452,1.13452 -0.2269,0.45381 -0.45381,0.90762 -0.68071,1.58834 -0.22691,0.68071 -0.22691,1.13452 -0.22691,1.81523 0,1.58833 0.45381,2.72285 1.13452,3.63047 0.68072,0.90762 2.04214,1.36143 3.40357,1.36143 0.45381,0 1.13452,0 1.81524,-0.22691 0.68071,-0.2269 1.36142,-0.2269 2.04213,-0.45381 l 0,-0.68071 z"
         class="st3" /><path
         style="fill:#c58313"
         inkscape:connector-curvature="0"
         id="path59"
         d="m 603.41297,422.43339 c 0,0.2269 -0.22691,0.45381 -0.45381,0.45381 -0.22691,0 -0.45381,0 -0.68072,0 -0.2269,0 -0.4538,0 -0.68071,0 -0.2269,0 -0.45381,0 -0.68071,0 -0.22691,0 -0.22691,0 -0.45381,0 -0.22691,0 -0.45381,-0.22691 -0.45381,-0.45381 l 0,-5.67261 -9.07617,0 -0.22691,-1.81524 c 0.45381,-0.90761 1.13452,-1.58833 1.58833,-2.26904 0.45381,-0.68071 0.90762,-1.36143 1.36143,-2.04214 0.45381,-0.68071 0.90762,-1.36143 1.36142,-2.04214 0.45381,-0.68071 0.90762,-1.36143 1.58833,-2.04214 0.45381,-0.68071 1.13453,-1.36143 1.58834,-2.04214 0.68071,-0.68071 1.13452,-1.36142 2.04213,-2.26904 0,0 0.22691,-0.22691 0.22691,-0.22691 0.45381,0 0.68071,-0.2269 1.13452,-0.2269 0.45381,0 0.68071,0 0.90762,0 0.2269,0 0.45381,0.2269 0.45381,0.45381 l 0,12.47974 c 0.68071,0 1.58833,0 2.26904,0 0.68071,0 1.13452,0 1.58833,0 0,0 0.22691,0 0.22691,0 0,0 0.2269,0.2269 0.2269,0.2269 0,0 0,0 0,0.22691 0,0 0,0.2269 0,0.2269 l 0,1.36143 -4.08428,0 0,5.67261 z m -10.66451,-7.03404 c 0.45381,0 1.13452,0 1.81524,0 0.68071,0 1.36142,0 2.04213,0 0.68072,0 1.36143,0 2.04214,0 0.68072,0 1.36143,0 1.81524,0 l 0,-10.2107 c -0.68071,0.90762 -1.36143,1.58834 -2.04214,2.49595 -0.68071,0.90762 -1.13452,1.58833 -1.81524,2.49595 -0.68071,0.90762 -1.13452,1.58833 -1.81523,2.49595 -0.68071,0.90762 -1.36143,1.81523 -2.04214,2.72285 z"
         class="st3" /><path
         style="fill:#c58313"
         inkscape:connector-curvature="0"
         id="path61"
         d="m 610.67391,412.22269 0.4538,-9.52998 c 0,-0.22691 0,-0.22691 0.22691,-0.22691 0.2269,0 0.2269,0 0.45381,0 0.68071,0.22691 1.58833,0.22691 2.49595,0.45381 0.90761,0.22691 1.58833,0.22691 2.49594,0.22691 0.90762,0 1.58833,0 2.49595,-0.22691 0.90762,-0.2269 1.58833,-0.45381 2.26905,-0.90762 l 0.4538,0.45381 c -0.68071,1.13452 -1.58833,2.26905 -2.72285,2.94976 -1.13452,0.68071 -2.49595,0.90762 -4.08428,0.90762 -0.90761,0 -1.81523,-0.22691 -2.72285,-0.45381 l -0.2269,4.53809 c 0.68071,-0.22691 1.13452,-0.45381 1.58833,-0.68072 0.45381,-0.2269 0.68071,-0.2269 1.13452,-0.45381 0.2269,0 0.45381,-0.2269 0.68071,-0.2269 0.22691,0 0.45381,0 0.68072,0 1.13452,0 2.04213,0.2269 2.94975,0.45381 0.90762,0.45381 1.58833,0.90762 2.04214,1.58833 0.45381,0.68071 0.90762,1.36142 1.36143,2.04214 0.2269,0.90762 0.45381,1.58833 0.45381,2.49595 0,0.90761 -0.22691,1.81523 -0.45381,2.72285 -0.22691,0.90762 -0.90762,1.58833 -1.58833,2.49595 -0.68072,0.68071 -1.58833,1.36142 -2.49595,1.81523 -0.90762,0.45381 -2.26904,0.68071 -3.63047,0.68071 -0.68071,0 -1.58833,0 -2.26904,-0.2269 -0.68072,-0.2269 -1.36143,-0.45381 -2.04214,-0.68071 -0.45381,-0.22691 -0.90762,-0.68072 -1.36143,-1.13452 -0.2269,-0.45381 -0.45381,-0.90762 -0.45381,-1.58834 0,-0.2269 0,-0.68071 0.22691,-0.90761 0.2269,-0.22691 0.2269,-0.45381 0.4538,-0.68072 0.22691,-0.2269 0.45381,-0.2269 0.68072,-0.4538 0.2269,0 0.45381,-0.22691 0.90761,-0.22691 0.22691,0 0.22691,0 0.45381,0 0.22691,0 0.22691,0 0.45381,0 0,0 0,0.22691 0,0.22691 0,0 0,0.2269 0,0.2269 0,1.13452 0.22691,1.81523 0.90762,2.49595 0.68071,0.68071 1.36143,0.90762 2.26904,0.90762 0.68072,0 1.36143,-0.22691 1.81524,-0.45381 0.45381,-0.22691 1.13452,-0.68072 1.36142,-1.13453 0.45381,-0.4538 0.68072,-1.13452 0.90762,-1.58833 0.22691,-0.68071 0.22691,-1.36142 0.22691,-2.04214 0,-0.68071 -0.22691,-1.58833 -0.45381,-2.04213 -0.22691,-0.68072 -0.68072,-1.13453 -1.13452,-1.58834 -0.45381,-0.4538 -0.90762,-0.68071 -1.58833,-0.90761 -0.68072,-0.22691 -1.36143,-0.45381 -2.04214,-0.45381 -0.68072,0.45381 -2.04214,0.68071 -3.63047,1.13452 l 0,0 z"
         class="st3" /></g><g
       id="g4343"><path
         style="fill:#c58313"
         inkscape:connector-curvature="0"
         id="path63"
         d="m 374.23955,-85.605511 -1.58833,50.145868 c 0,0.907617 -0.45381,1.58833 -1.36143,2.042139 -1.13452,0.680713 -2.72285,1.134522 -4.31118,1.815235 -1.58833,0.680713 -3.40357,1.361426 -5.44571,2.042139 -1.13452,0.453809 -1.81523,0.226905 -2.04214,-0.453808 0,-0.226905 0,-0.453809 0,-0.680714 l 9.52999,-134.554298 -4.31119,-5.4457 c -0.2269,-0.45381 -0.45381,-0.90762 -0.68071,-1.13452 -0.45381,-1.13453 0,-2.04214 1.36143,-2.72286 1.13452,-0.68071 2.26904,-1.36142 3.85737,-2.04214 1.58833,-0.68071 2.94976,-1.36142 4.31118,-2.04213 1.36143,-0.68072 2.72286,-1.13453 3.85738,-1.58834 1.13452,-0.4538 2.04214,-0.90761 2.72285,-0.90761 1.36143,-0.45381 2.72285,0 3.85737,1.36142 l 89.40033,107.325773 c 0.45381,0.453809 0.68071,0.907618 0.68071,1.134522 0.45381,1.134522 0,2.269044 -1.36142,2.949757 -1.13453,0.680713 -2.49595,1.361426 -4.08428,2.042139 -1.58833,0.680714 -3.17666,1.361427 -4.53809,2.04214 -1.58833,0.680713 -2.94976,1.134522 -4.08428,1.58833 -1.36143,0.453809 -2.26904,0.907618 -2.72285,0.907618 -1.13452,0.453809 -2.26905,0.226904 -2.94976,-0.680713 l -33.35494,-39.708266 -46.7423,16.564019 z m 0.4538,-10.437601 40.38898,-13.614258 -38.34684,-46.5154 -2.04214,60.129658 z"
         class="st3" /><path
         style="fill:#c58313"
         inkscape:connector-curvature="0"
         id="path65"
         d="m 546.00616,-176.82107 c -1.13452,-4.08428 -2.72285,-7.48784 -4.76499,-10.2107 -2.04214,-2.72285 -4.31119,-4.99189 -7.03404,-6.80713 -2.72285,-1.58833 -5.67261,-2.72285 -8.84927,-3.40356 -3.17666,-0.68072 -6.58023,-0.68072 -10.2107,-0.22691 -3.63047,0.45381 -6.80713,1.13452 -9.98379,2.26905 -3.17666,1.13452 -5.89951,2.94975 -8.16856,4.99189 -2.26904,2.04214 -4.08428,4.76499 -5.2188,7.94166 -1.13452,3.17666 -1.58833,6.58022 -1.13452,10.6645 0.45381,3.63047 1.58833,6.58023 3.63047,9.07618 2.04214,2.49594 4.53809,4.31118 7.71475,6.12641 3.17666,1.58833 6.58023,2.94976 10.4376,4.08428 3.85738,1.13452 7.94165,2.26905 12.25284,3.17666 4.76499,1.36143 9.30308,2.72286 14.06807,4.08428 4.76499,1.58833 9.07617,3.40357 12.93355,5.89952 3.85737,2.49594 7.03403,5.67261 9.75689,9.52998 2.72285,3.85737 4.31118,8.62237 4.99189,14.74878 0.45381,5.21881 0.22691,9.75689 -0.68071,14.06808 -1.13452,4.084275 -2.72285,7.941649 -4.9919,11.118311 -2.26904,3.176661 -4.99189,6.126418 -8.16855,8.395462 -3.17667,2.495948 -6.80714,4.538087 -10.66451,6.126418 -3.85737,1.58833 -7.94165,2.949757 -12.25284,4.084279 -4.31118,0.907617 -8.39546,1.815235 -12.70664,2.269043 -4.9919,0.453809 -9.98379,0.680713 -15.20259,0.680713 -4.9919,0 -10.2107,-0.453808 -15.2026,-0.907617 -0.68071,0 -1.36142,-0.226904 -1.81523,-0.680713 -0.45381,-0.453809 -0.68072,-0.907618 -0.90762,-1.361426 -0.2269,-1.588331 -0.68071,-3.857375 -1.13452,-6.807132 -0.45381,-2.949757 -0.90762,-6.126418 -1.36143,-9.303079 -0.45381,-3.176661 -0.90762,-5.899514 -1.13452,-8.622366 -0.45381,-2.495949 -0.45381,-4.084279 -0.68071,-4.538083 l 5.67261,-1.13453 c 0.90761,4.538091 2.72285,8.168561 4.76499,11.345222 2.26904,3.176661 4.76499,5.672609 7.94165,7.487844 2.94976,1.815235 6.35332,3.176662 10.2107,3.63047 3.85737,0.680713 7.71475,0.680713 12.02593,0.226905 3.85737,-0.453809 7.26094,-1.134522 10.89141,-2.495948 3.40357,-1.134522 6.35332,-2.949757 9.07618,-5.218801 2.49594,-2.269044 4.53808,-4.991896 5.89951,-8.168558 1.36143,-3.176661 1.81523,-6.807134 1.36143,-11.118314 -0.45381,-3.63047 -1.58834,-6.35332 -3.63047,-8.84927 -2.04214,-2.26904 -4.53809,-4.31118 -7.71475,-5.89951 -3.17666,-1.58834 -6.58023,-2.94976 -10.43761,-4.08428 -3.85737,-1.13453 -7.94165,-2.26905 -12.02593,-3.40357 -4.76499,-1.36143 -9.52998,-2.72285 -14.06807,-4.31118 -4.76499,-1.58833 -9.07617,-3.63047 -12.93355,-6.12642 -3.85737,-2.49595 -7.26094,-5.89951 -9.75689,-9.75689 -2.72285,-3.85737 -4.31118,-8.84927 -4.99189,-14.97569 -0.68072,-7.26094 0,-13.61426 2.26904,-19.05996 2.26905,-5.21881 5.67261,-9.75689 10.2107,-13.16046 4.31118,-3.40356 9.52998,-6.12642 15.4295,-8.16856 5.89951,-1.81523 11.79902,-3.17666 18.15235,-3.85737 4.08427,-0.45381 8.62236,-0.68071 13.61426,-0.45381 4.9919,0.22691 9.52998,0.45381 14.06807,1.13452 0.68071,0 1.36143,0.22691 1.81524,0.68072 0.4538,0.4538 0.68071,0.90761 0.90761,1.36142 0.22691,1.58833 0.68072,3.85738 1.13452,6.58023 0.45381,2.72285 0.90762,5.67261 1.36143,8.62237 0.45381,2.94975 0.90762,5.4457 1.13452,7.71474 0.22691,2.26905 0.45381,3.63047 0.45381,4.08428 l -6.35332,0.90762 z"
         class="st3" /><path
         style="fill:#c58313"
         inkscape:connector-curvature="0"
         id="path67"
         d="m 583.89919,-209.2684 c 6.80713,-0.68071 14.06807,-1.36142 21.78282,-1.81523 7.94165,-0.45381 16.56402,-0.45381 26.32091,0 3.63047,0.2269 7.48784,0.68071 11.34522,1.13452 3.85737,0.45381 7.71474,1.36143 11.57212,2.26905 3.85737,0.90761 7.48784,2.26904 10.89141,4.08427 3.40357,1.58833 6.35332,3.85738 8.84927,6.35333 2.49595,2.49594 4.53809,5.4457 5.89951,8.84927 1.36143,3.40356 1.81524,7.48784 1.58833,12.02593 -0.2269,3.40356 -0.90761,6.58023 -2.26904,9.75689 -1.36143,3.17666 -3.17666,6.12642 -5.67261,9.07617 -2.49595,2.72285 -5.2188,5.2188 -8.62237,7.48785 -3.40356,2.04214 -7.26094,3.85737 -11.79902,4.99189 l 0,0.45381 c 1.36142,0.22691 2.94975,0.68071 4.99189,1.58833 2.04214,0.68072 4.31119,1.58833 6.58023,2.94976 2.26904,1.13452 4.53809,2.72285 7.03404,4.53809 2.26904,1.81523 4.31118,3.85737 6.12641,6.35332 1.81524,2.49595 3.17667,5.2188 4.31119,8.39546 1.13452,3.17666 1.36142,6.80713 1.13452,10.89141 0,1.58833 -0.45381,3.63047 -0.90762,6.12642 -0.45381,2.49595 -1.58833,5.2188 -2.94975,7.941653 -1.36143,2.722852 -3.40357,5.672609 -5.89952,8.395461 -2.49595,2.722853 -5.67261,5.218801 -9.75689,7.26094 -4.08428,2.04214 -8.84927,3.857375 -14.52188,4.991897 -5.67261,1.134522 -12.47974,1.58833 -20.42139,1.134522 -3.63047,-0.226905 -6.80713,-0.453809 -9.52998,-0.680713 -2.72286,-0.226905 -5.44571,-0.680714 -8.16856,-1.134522 -2.72285,-0.453809 -5.44571,-0.680713 -8.39546,-1.134522 -2.94976,-0.226905 -6.35333,-0.680713 -10.2107,-0.907618 -1.81524,0 -2.72285,-1.134522 -2.49595,-2.949757 l 6.35332,-112.090761 c 0.22691,-3.85737 -0.45381,-6.35332 -2.04214,-7.71475 -1.58833,-1.36143 -3.63047,-2.04214 -6.35332,-2.26904 -1.58833,0 -3.17666,0 -4.99189,0 l 0.2269,-6.35333 z m 28.81686,122.528368 c 0.90761,0.226904 2.04213,0.453808 3.40356,0.907617 1.36143,0.226904 2.94976,0.453809 4.53809,0.680713 1.58833,0.226905 3.17666,0.453809 4.99189,0.680713 1.58834,0.226905 3.40357,0.226905 4.765,0.453809 5.4457,0.226904 10.21069,-0.226904 13.84116,-1.588331 3.85738,-1.361426 6.80713,-3.403565 9.07618,-5.672609 2.26904,-2.269044 4.08428,-4.991896 4.99189,-7.941653 1.13453,-2.949757 1.58834,-5.445707 1.81524,-7.941657 0.45381,-6.12641 -0.2269,-11.11831 -2.04214,-15.20259 -1.81523,-4.08428 -4.31118,-7.26094 -7.71475,-9.75689 -3.40356,-2.49595 -7.48784,-4.31118 -12.47974,-5.4457 -4.9919,-1.13452 -10.4376,-1.81524 -16.33711,-2.26905 l -3.17667,-0.2269 c -0.4538,0 -1.13452,0 -1.58833,0 -0.4538,0 -0.90761,0 -1.58833,0 l -2.49594,53.322528 z m 3.63047,-62.852508 c 0.68071,0 1.58833,0 2.26904,0.2269 0.68071,0 1.36143,0.2269 2.04214,0.2269 6.35332,0.45381 11.79903,0.22691 16.56402,-0.4538 4.76499,-0.68072 8.62236,-2.04214 11.79903,-4.08428 3.17666,-2.04214 5.6726,-4.53809 7.26094,-7.71475 1.58833,-3.17666 2.72285,-7.26094 2.94975,-12.25284 0.22691,-4.76499 -0.2269,-8.84927 -1.58833,-12.25283 -1.36142,-3.40357 -3.40356,-6.35333 -6.12642,-8.62237 -2.72285,-2.26904 -6.12641,-4.08428 -9.98379,-5.2188 -3.85737,-1.13452 -8.16856,-2.04214 -12.93355,-2.26905 -3.17666,-0.2269 -5.67261,0 -7.03403,0.22691 -1.36143,0.45381 -2.26905,1.58833 -2.26905,3.85737 l -2.94975,48.33064 z"
         class="st3" /><path
         style="fill:#c58313"
         inkscape:connector-curvature="0"
         id="path69"
         d="m 796.28169,-183.17439 c 9.30307,2.72285 17.24473,6.80713 24.05186,12.02593 6.58023,5.2188 11.79903,11.34522 15.4295,18.37925 3.63047,7.03404 5.67261,14.97569 6.35332,23.82496 0.45381,8.84927 -0.68071,18.37926 -3.85737,28.36305 -3.40357,11.118315 -7.71475,20.19449 -13.61427,27.682335 -5.67261,7.487844 -12.47974,13.160453 -20.19449,17.244732 -7.71475,4.084279 -16.11021,6.126418 -25.41329,6.807131 -9.30308,0.453809 -19.05996,-0.680713 -29.27066,-3.857374 -9.30308,-2.722853 -17.24473,-6.807131 -24.05187,-12.025932 -6.58022,-5.218801 -11.79902,-11.572123 -15.42949,-18.606159 -3.63047,-7.26094 -5.67261,-15.202593 -6.12642,-24.051863 -0.45381,-8.84927 0.90762,-18.37926 3.85737,-28.58995 3.17666,-10.89141 7.71475,-20.19449 13.61427,-27.45543 5.67261,-7.48785 12.47974,-13.16046 19.96758,-17.01783 7.71475,-3.85737 16.11021,-5.89951 25.18639,-6.35332 9.52998,-0.90762 19.28687,0.45381 29.49757,3.63047 z m -8.16856,7.48784 c -7.03404,-2.04214 -13.61426,-2.49595 -19.51378,-1.13452 -5.89951,1.36143 -11.34522,4.08428 -15.8833,7.94165 -4.765,3.85738 -8.62237,8.84927 -12.02594,14.52188 -3.40356,5.89952 -6.12641,12.25284 -8.16855,19.05997 -2.26905,7.71475 -3.63047,15.4295 -4.31119,23.14425 -0.68071,7.94165 0,15.202591 1.81524,22.009722 1.81523,6.807131 4.99189,12.933549 9.52998,18.15235 4.53809,5.218801 10.89141,9.076175 18.83306,11.572123 7.03404,2.04214 13.61427,2.495948 19.51378,0.907618 5.89951,-1.588331 11.34522,-4.311183 16.11021,-8.168558 4.76499,-4.084279 8.84927,-9.076175 12.25284,-14.975689 3.40356,-5.899513 6.12642,-12.252836 8.16856,-19.059966 2.26904,-7.71475 3.63047,-15.20259 4.31118,-23.14425 0.45381,-7.71475 0,-14.97569 -2.04214,-21.78282 -1.81524,-6.80713 -4.9919,-12.70664 -9.75689,-17.92544 -4.53809,-4.9919 -10.89141,-8.62237 -18.83306,-11.11832 z"
         class="st3" /></g><g
       id="g4349"><path
         style="fill:#c58313"
         inkscape:connector-curvature="0"
         id="path71"
         d="m 312.52156,5.6100486 c -0.22691,-0.4538087 -0.22691,-0.9076175 0.2269,-1.1345219 0.68071,-0.4538087 2.49595,-1.5883306 5.44571,-2.9497568 5.4457,-2.7228526 9.07617,-2.04213943 10.89141,1.815235 0.90761,1.815235 0.90761,3.63047 0,5.445705 -0.90762,1.5883311 -2.26905,2.7228521 -4.08428,3.8573741 -0.45381,0.226905 -0.90762,0 -1.13453,-0.453808 -0.2269,-0.453809 -0.2269,-0.680714 0.22691,-0.907618 l 0,0 c 1.13452,-0.907617 1.81523,-1.815235 2.04214,-2.7228525 0.2269,-0.9076175 0.2269,-2.0421394 -0.45381,-3.1766613 -1.36143,-2.4959481 -3.40357,-3.1766612 -6.12642,-1.815235 -0.2269,0.2269044 -0.45381,0.2269044 -0.68071,0.4538088 0,0 0,0 0.2269,0.4538087 l 8.16856,16.3371153 c 0.2269,0.453809 0,0.680713 -0.2269,0.907617 l -2.26905,1.134522 c -0.45381,0.226905 -0.68071,0 -0.90762,-0.226904 L 316.83274,8.3329011 c -0.68071,-1.1345218 -0.90762,-1.815235 -1.13452,-2.0421393 -0.22691,-0.2269044 -0.68072,0 -1.36143,0.2269043 -1.13452,-0.2269043 -1.58833,-0.2269043 -1.81523,-0.9076175 z"
         class="st3" /><path
         style="fill:#c58313"
         inkscape:connector-curvature="0"
         id="path73"
         d="m 345.64959,11.963371 c -0.68071,0.907618 -1.58833,1.588331 -2.72285,2.04214 -1.81523,0.907617 -3.40356,0.907617 -5.2188,0.226904 -1.58833,-0.680713 -2.94976,-1.815235 -3.63047,-3.63047 -0.90762,-2.0421395 -0.90762,-4.0842789 0,-5.8995139 0.90762,-1.815235 2.26905,-3.1766612 4.31118,-4.08427875 1.36143,-0.68071313 2.49595,-0.9076175 3.17667,-0.68071313 0,0 0.4538,0 0.90761,0 0.90762,0 1.36143,0.22690438 1.58833,0.45380875 l 4.53809,9.98379303 c 0.22691,0.453808 0,0.680713 -0.2269,0.907617 l -2.04214,0.907618 c -0.22691,0 -0.45381,0 -0.68072,-0.226905 z m -4.08427,-8.8492705 c -1.13453,-0.6807131 -2.04214,-0.6807131 -2.94976,-0.2269044 -1.13452,0.4538088 -1.58833,1.3614263 -1.81524,2.2690438 -0.2269,0.9076175 0,2.0421394 0.45381,3.1766612 0.45381,1.1345219 1.36143,2.0421399 2.49595,2.4959479 1.13452,0.453809 2.26904,0.453809 3.40357,0 0.68071,-0.226904 1.13452,-0.680713 1.36142,-1.1345216 l 0.45381,0.9076176 c -0.2269,-1.134522 -0.68071,-2.0421395 -0.68071,-2.2690439 l -2.72285,-5.2188006 z"
         class="st3" /><path
         style="fill:#c58313"
         inkscape:connector-curvature="0"
         id="path75"
         d="m 345.64959,-8.2311183 c -0.2269,-0.4538088 -0.4538,-0.6807131 -1.13452,-0.6807131 -0.45381,0 -0.90761,-0.2269044 -1.13452,-0.6807132 -0.2269,-0.4538084 -0.2269,-0.6807134 0,-0.9076174 0.22691,-0.226904 1.13452,-1.134522 2.72285,-2.722853 0.22691,0 0.45381,0 0.68072,0 0.2269,0 0.45381,0.226905 0.45381,0.453809 0.2269,0.453809 0.4538,0.907618 0.68071,1.815235 0.2269,0.680713 0.45381,1.3614264 0.68071,1.8152352 l 7.03404,16.5640194 c 0.2269,0.4538088 0,0.6807132 -0.22691,0.9076175 l -2.04214,0.9076175 c -0.45381,0.2269044 -0.68071,0 -0.90761,-0.2269043 l -6.80714,-17.2447326 z"
         class="st3" /><path
         style="fill:#c58313"
         inkscape:connector-curvature="0"
         id="path77"
         d="m 367.65932,2.206483 c -1.13452,1.3614262 -2.04214,2.2690437 -3.17666,2.7228525 -2.72285,1.1345219 -4.53809,0.2269044 -5.67261,-2.4959481 l -1.81524,-4.7649919 c 0,0 0,-0.2269044 -0.2269,-0.4538088 0,-0.2269044 -0.22691,-0.2269044 -0.22691,-0.4538087 -0.2269,-0.4538088 -0.4538,-0.6807132 -1.13452,-0.6807132 -0.45381,0 -0.90761,-0.2269043 -1.13452,-0.6807131 -0.2269,-0.6807131 0,-0.9076175 0.45381,-1.1345219 0.68071,-0.2269044 1.58833,-0.9076175 2.72285,-1.5883306 0,0 0.22691,0 0.22691,-0.2269044 0.2269,0 0.45381,0 0.68071,0 0.2269,0 0.45381,0.2269044 0.45381,0.4538088 0,0.2269043 0.2269,0.4538087 0.2269,0.9076175 0.22691,0.4538087 0.22691,0.6807131 0.22691,0.9076175 l 2.04214,5.445705 c 0.45381,0.9076175 0.68071,1.5883306 1.13452,1.815235 0.45381,0.4538088 1.13452,0.4538088 2.04214,0 1.58833,-0.6807131 2.04214,-1.58833063 1.58833,-2.94975688 l -3.17666,-8.16855752 c -0.22691,-0.4538088 0.2269,-0.9076172 1.13452,-1.3614262 0.45381,-0.226904 0.90762,-0.226904 1.13452,-0.226904 0.45381,0 0.90762,0.226904 0.90762,0.453808 l 0,0 c 0.45381,1.1345222 0.68071,1.8152353 0.90762,2.4959484 l 3.63047,9.0761751 c 0.2269,0.4538087 0,0.6807131 -0.45381,0.9076175 l -2.04214,0.6807131 c 0.2269,0 0,0 -0.45381,-0.6807131 z"
         class="st3" /><path
         style="fill:#c58313"
         inkscape:connector-curvature="0"
         id="path79"
         d="m 379.00454,-11.634684 c 0.2269,0.453809 0,0.907618 -0.68072,1.134522 -0.4538,0.226904 -0.68071,0 -0.90761,-0.226904 -0.90762,-0.907618 -1.81524,-1.361427 -2.72286,-1.134522 -0.90761,0.226904 -1.13452,0.907617 -0.90761,1.58833 0.2269,0.4538091 0.90761,0.9076178 1.81523,1.1345222 1.58833,0.2269044 2.72285,0.6807131 3.17666,0.6807131 1.13453,0.4538088 2.04214,1.3614263 2.49595,2.7228525 0.45381,1.1345219 0.22691,2.4959482 -0.45381,3.4035657 -0.68071,0.9076175 -1.58833,1.58833059 -2.94975,2.04213935 -0.68072,0.22690437 -1.36143,0.45380875 -2.04214,0.45380875 -0.90762,0 -1.58833,0 -2.04214,-0.45380875 -0.45381,-0.45380876 -0.90762,-1.36142625 -1.36143,-2.49594815 -0.2269,-0.9076175 0,-1.3614262 0.68071,-1.5883306 0.45381,-0.2269044 0.68072,0 0.90762,0.2269044 0.22691,0.2269043 0.22691,0.4538087 0.68071,0.6807131 0.90762,0.9076175 1.81524,1.3614262 2.94976,0.9076175 0.90762,-0.2269044 1.13452,-0.9076175 0.90762,-1.815235 -0.22691,-0.6807132 -0.90762,-1.1345219 -2.04214,-1.3614263 -2.04214,-0.4538087 -2.94976,-0.6807131 -2.94976,-0.6807131 -1.13452,-0.4538088 -2.04214,-1.1345219 -2.26904,-2.2690438 -0.45381,-1.1345218 -0.22691,-2.2690439 0.2269,-3.4035659 0.68072,-0.907617 1.58833,-1.58833 2.72286,-2.042139 1.58833,-0.453809 2.49594,-0.680713 3.17666,-0.453809 0.2269,0.226905 0.68071,0.453809 0.90761,1.134522 0.45381,0.907618 0.68072,1.361426 0.68072,1.815235 z"
         class="st3" /><path
         style="fill:#c58313"
         inkscape:connector-curvature="0"
         id="path81"
         d="m 401.92188,-9.3656402 c -1.13452,1.3614263 -2.26904,2.0421394 -3.40357,2.4959481 -2.72285,0.9076175 -4.53808,-0.2269043 -5.4457,-2.9497568 l -1.58833,-4.9918961 c 0,0 0,-0.226905 0,-0.453809 0,-0.226904 0,-0.453809 -0.22691,-0.453809 -0.2269,-0.453808 -0.4538,-0.680713 -1.13452,-0.907617 -0.45381,0 -0.90761,-0.226905 -0.90761,-0.680713 -0.22691,-0.680713 0,-0.907618 0.4538,-1.134522 0.68072,-0.226905 1.58833,-0.680713 2.72286,-1.361426 0,0 0.2269,0 0.2269,0 0.22691,0 0.45381,0 0.68071,0 0.22691,0 0.45381,0.226904 0.45381,0.453808 0,0.226905 0.22691,0.453809 0.22691,0.907618 0,0.453809 0.2269,0.680713 0.2269,0.907617 l 1.81524,5.67261 c 0.2269,0.907617 0.68071,1.58833 0.90761,1.815235 0.45381,0.4538084 1.13453,0.4538084 2.04214,0.2269041 1.58833,-0.4538091 2.26905,-1.3614261 1.81524,-2.7228521 l -2.72285,-8.395462 c -0.22691,-0.453809 0.2269,-0.907618 1.36142,-1.134522 0.45381,-0.226905 0.90762,-0.226905 1.13452,-0.226905 0.45381,0 0.90762,0.226905 0.90762,0.453809 l 0,0 c 0.22691,1.134522 0.45381,1.815235 0.68071,2.495948 l 2.94976,9.30308 c 0.22691,0.4538084 0,0.6807128 -0.45381,0.6807128 l -2.04214,0.6807131 c -0.2269,0 -0.45381,-0.2269043 -0.68071,-0.6807131 z"
         class="st3" /><path
         style="fill:#c58313"
         inkscape:connector-curvature="0"
         id="path83"
         d="m 409.40972,-24.795138 3.17667,-0.907617 c 0.4538,-0.226905 0.90761,0.226904 1.13452,0.907617 0.2269,0.680713 0,1.361426 -0.45381,1.361426 l -3.17666,0.907618 1.58833,5.899514 c 0.45381,1.58833 1.13452,2.269044 2.26904,2.042139 0.22691,0 0.45381,-0.226904 0.90762,-0.453809 0.2269,-0.226904 0.45381,-0.453808 0.68071,-0.453808 0.22691,0 0.45381,0 0.68072,0.226904 0.2269,0.226904 0.4538,0.453809 0.4538,0.680713 0,0.226905 0,0.453809 0,0.453809 -0.4538,1.361426 -1.58833,2.042139 -3.17666,2.495948 -1.58833,0.453809 -2.94975,0.226904 -3.85737,-0.907617 -0.68071,-0.907618 -1.36143,-2.269044 -1.81524,-4.084279 -1.13452,-3.857375 -1.36142,-5.445705 -1.13452,-4.538088 -0.68071,0.226905 -0.90762,0.226905 -1.13452,0.226905 -0.45381,0 -0.68071,-0.226905 -0.68071,-0.680713 -0.22691,-0.453809 0,-0.680714 0.2269,-0.907618 0.90762,-0.680713 1.58833,-1.361426 1.81524,-2.042139 0,-0.453809 0.2269,-0.907618 0.68071,-1.588331 0,0 0.2269,-0.226904 0.45381,-0.226904 0.68071,-0.226905 0.90762,0 1.13452,0.453808 -0.2269,0 0,0.453809 0.2269,1.134522 z"
         class="st3" /><path
         style="fill:#c58313"
         inkscape:connector-curvature="0"
         id="path85"
         d="m 431.87326,-28.425608 c -0.45381,0.226905 -0.90762,0.453809 -1.36143,0.680713 -0.45381,0.453809 -0.68071,0.907618 -0.68071,1.134522 0,0 0,0.226905 0.2269,0.453809 l 2.04214,8.395462 c 0,0.453809 0,0.680713 -0.45381,0.680713 l -2.26904,0.453809 c -0.45381,0 -0.68071,0 -0.68071,-0.453809 l -4.31119,-17.698541 c -0.2269,-0.453809 -0.45381,-0.907618 -0.90761,-0.907618 -0.45381,-0.226904 -0.90762,-0.453809 -0.90762,-0.907617 0,-0.453809 0,-0.907618 0.45381,-1.134522 0.2269,0 0.45381,-0.226905 0.90761,-0.453809 0,0 0.45381,-0.453809 1.13453,-0.907617 0.68071,-0.453809 0.90761,-0.680714 1.13452,-0.680714 0.68071,-0.226904 0.90762,0 1.13452,0.680714 0,0.453808 0.2269,0.907617 0.45381,1.58833 0.2269,0.680713 0.2269,1.361426 0.45381,1.588331 l 1.58833,6.126418 c 0.90762,-1.134522 2.04214,-1.588331 3.17666,-2.042139 1.36143,-0.226905 2.49595,-0.226905 3.63047,0.453808 0.90762,0.680713 1.58833,1.588331 2.04214,2.949757 l 2.04214,8.395462 c 0,0.453809 -0.22691,0.680713 -0.90762,0.907618 0,0 -0.45381,0 -1.81523,0.453808 0,0 -0.22691,0 -0.22691,0 -0.2269,0 -0.45381,0 -0.45381,-0.453808 l -1.81523,-7.714749 c -1.13452,-1.134522 -2.26905,-1.815235 -3.63047,-1.588331 z"
         class="st3" /><path
         style="fill:#c58313"
         inkscape:connector-curvature="0"
         id="path87"
         d="m 444.12609,-39.770827 c 0.22691,0.680714 0,1.134522 -0.2269,1.588331 -0.2269,0.453809 -0.68071,0.680713 -1.36143,0.907618 -0.68071,0.226904 -1.13452,0 -1.58833,-0.226905 -0.45381,-0.226904 -0.90761,-0.680713 -0.90761,-1.361426 -0.22691,-0.680713 0,-1.134522 0.2269,-1.815235 0.2269,-0.453809 0.90762,-0.907618 1.36143,-0.907618 0.68071,-0.226904 1.13452,0 1.58833,0.226905 0.45381,0.680713 0.90761,1.134522 0.90761,1.58833 z m -1.58833,10.210697 c 0,-0.453808 -0.45381,-0.680713 -0.68071,-0.680713 -0.45381,-0.226904 -0.68071,-0.453809 -0.90762,-0.907617 0,-0.226905 0,-0.680713 0.22691,-0.907618 0.2269,-0.226904 0.68071,-0.453809 1.58833,-1.361426 0.90762,-0.680713 1.36142,-1.134522 1.36142,-1.134522 0.68072,-0.226904 0.90762,0 1.13453,0.680713 0,0.453809 0.2269,1.134522 0.4538,1.815235 0.22691,0.907618 0.22691,1.361426 0.45381,1.815235 l 1.81524,8.849271 c 0,0.453809 0,0.680713 -0.45381,0.680713 l -2.26904,0.453809 c -0.45381,0 -0.68072,0 -0.68072,-0.453809 l -2.04214,-8.849271 z"
         class="st3" /><path
         style="fill:#c58313"
         inkscape:connector-curvature="0"
         id="path89"
         d="m 460.46321,-34.77893 c 0,0.453808 0,0.907617 0,1.134522 -0.22691,0.453808 -0.45381,0.680713 -0.90762,0.680713 -0.2269,0 -0.90762,-0.226905 -1.58833,-0.680713 -0.68071,-0.453809 -1.58833,-0.680714 -2.26904,-0.453809 -1.13452,0.226904 -1.81524,0.907617 -2.49595,1.815235 -0.45381,0.907617 -0.45381,2.042139 -0.22691,3.176661 0.22691,1.134522 0.90762,2.269044 1.81524,2.949757 0.90762,0.680713 2.04214,0.907617 3.40357,0.680713 0.68071,-0.226904 1.36142,-0.453809 1.81523,-0.907617 0.2269,-0.226905 0.45381,-0.453809 0.68071,-1.134522 0.22691,-0.453809 0.45381,-0.453809 0.68072,-0.680713 0.2269,0 0.45381,0 0.90761,0.226904 0.22691,0.226904 0.45381,0.453809 0.45381,0.680713 0,0 0,0.226904 0,0.226904 -0.2269,1.134522 -0.90761,2.269044 -1.81523,2.949757 -0.90762,0.907618 -1.81524,1.361427 -3.17666,1.588331 -1.81524,0.453809 -3.63047,0 -4.9919,-0.907618 -1.36143,-0.907617 -2.26904,-2.495948 -2.72285,-4.311183 -0.45381,-2.269043 0,-4.084278 1.13452,-5.899513 1.13452,-1.588331 2.94976,-2.722853 5.2188,-3.176662 1.13452,-0.226904 2.26904,-0.226904 2.94976,0 0.45381,0.453809 0.90761,1.134522 1.13452,2.04214 z"
         class="st3" /><path
         style="fill:#c58313"
         inkscape:connector-curvature="0"
         id="path91"
         d="m 474.75818,-26.610373 c -0.2269,-1.134522 -0.4538,-2.722852 -0.90761,-4.991896 -0.45381,-2.269044 -0.68072,-4.084279 -0.90762,-4.991896 -0.68071,0.226904 -1.13452,0.226904 -1.13452,0.226904 -0.45381,0 -0.68072,-0.226904 -0.68072,-0.907617 0,-0.453809 0,-0.680714 0.45381,-1.134522 0.68072,-0.453809 0.90762,-0.680713 0.90762,-0.680713 -0.45381,-2.495949 -0.2269,-4.764992 0.45381,-6.807132 0.90762,-2.269043 2.49595,-3.63047 4.9919,-4.084279 0.90761,-0.226904 1.58833,0 2.49594,0.226905 0.90762,0.226904 1.36143,0.907617 1.58833,1.588331 0,0.453808 0,0.907617 -0.2269,1.361426 -0.2269,0.453809 -0.68071,0.680713 -1.13452,0.680713 -0.45381,0 -0.90762,-0.226904 -1.58833,-0.680713 -0.68072,-0.453809 -1.36143,-0.680713 -1.81524,-0.680713 -1.58833,0.226904 -1.81523,2.495948 -1.13452,6.580227 0,-0.226905 0,0.226904 0.22691,1.134521 l 3.40356,-0.453808 c 0.45381,0 0.90762,0.226904 0.90762,0.907617 0,0.226905 0,0.680713 -0.22691,0.907618 -0.2269,0.226904 -0.4538,0.453808 -0.68071,0.680713 l -3.17666,0.453809 c 0,0.226904 0,0.226904 0,0.226904 l 1.58833,9.756888 c 0,0.453809 0,0.680713 -0.45381,0.680713 l -2.26904,0.453809 c -0.22691,0.226904 -0.68072,0 -0.68072,-0.453809 z"
         class="st3" /><path
         style="fill:#c58313"
         inkscape:connector-curvature="0"
         id="path93"
         d="m 487.91864,-47.71248 c 0,0.680713 0,1.134522 -0.45381,1.588331 -0.45381,0.453809 -0.90762,0.680713 -1.58833,0.907617 -0.68071,0 -1.13452,0 -1.58833,-0.453808 -0.45381,-0.226905 -0.68071,-0.907618 -0.90762,-1.361427 0,-0.680713 0,-1.134521 0.45381,-1.58833 0.45381,-0.453809 0.90762,-0.680713 1.58833,-0.907618 0.68071,0 1.13452,0 1.58833,0.453809 0.45381,0.453809 0.68071,0.907618 0.90762,1.361426 z m -2.26905,9.983793 c 0,-0.453809 -0.2269,-0.680713 -0.68071,-0.907618 -0.45381,-0.226904 -0.68071,-0.453808 -0.68071,-0.907617 0,-0.453809 0,-0.680713 0.2269,-0.907618 0.22691,-0.226904 0.68072,-0.453808 1.58833,-1.134522 0.90762,-0.680713 1.36143,-0.907617 1.58833,-0.907617 0.68072,0 0.90762,0.226904 1.13453,0.680713 0,0.453809 0.2269,1.134522 0.2269,1.815235 0,0.907618 0.2269,1.361426 0.2269,1.815235 l 1.36143,8.849271 c 0,0.453808 0,0.680713 -0.45381,0.680713 l -2.26904,0.226904 c -0.45381,0 -0.68071,0 -0.68071,-0.453809 l -1.58834,-8.84927 z"
         class="st3" /><path
         style="fill:#c58313"
         inkscape:connector-curvature="0"
         id="path95"
         d="m 496.99481,-35.913452 c -2.04214,-2.722853 -3.63047,-4.311183 -4.76499,-4.311183 -0.45381,0 -0.68071,0 -0.90762,-0.226905 -0.2269,-0.226904 -0.4538,-0.453808 -0.4538,-0.680713 0,-0.680713 0.2269,-1.134522 0.68071,-1.134522 0.2269,0 0.90762,0 1.36142,-0.226904 0.68072,0 1.13453,0 1.36143,-0.226904 l 0.45381,0 c 0.2269,0 0.45381,0 0.45381,0.226904 0,0 0.45381,0.453809 1.13452,1.134522 0.45381,0.680713 1.13452,1.361426 2.26904,2.495948 0.45381,-0.907618 0.90762,-1.588331 1.36143,-2.495948 0.68071,-1.361426 1.13452,-2.04214 1.36143,-2.04214 1.58833,-0.453808 2.26904,-0.453808 1.81523,-0.453808 0.90762,-0.226905 1.36143,0.226904 1.58833,0.907617 0,0.453809 -0.2269,0.907618 -0.68071,1.134522 -0.90762,0.226904 -1.36143,0.453809 -1.36143,0.680713 -0.2269,0.226905 -0.68071,0.907618 -1.36142,1.815235 -0.68072,0.907618 -0.90762,1.588331 -1.13453,2.04214 0.68072,0.907617 1.81524,2.269043 3.63047,3.857374 0.45381,0.453809 0.90762,0.907617 1.81524,1.815235 0.2269,0.226904 0.2269,0.226904 0.2269,0.453809 0,0.453808 -0.2269,0.453808 -0.68071,0.680713 l -2.49595,0.226904 c -0.2269,0 -0.45381,0 -0.45381,-0.226904 l -3.40356,-3.857375 -2.26905,4.538088 c 0,0.226904 -0.2269,0.226904 -0.4538,0.226904 l -1.36143,0.226905 c -0.45381,0 -0.68071,0 -0.68071,-0.453809 0,-0.226904 0,-0.226904 0.2269,-0.453809 0,0 0.45381,-0.680713 1.13452,-2.269044 0,-0.453808 0.68072,-1.58833 1.58833,-3.403565 l 0,0 z"
         class="st3" /><path
         style="fill:#c58313"
         inkscape:connector-curvature="0"
         id="path97"
         d="m 517.64311,-32.736791 c -1.36142,0.907618 -2.49595,1.588331 -3.85737,1.815235 -2.94976,0.226904 -4.53809,-0.907617 -4.76499,-3.857374 l -0.45381,-5.218801 c 0,0 0,-0.226904 0,-0.453809 0,-0.226904 0,-0.453808 0,-0.453808 0,-0.453809 -0.22691,-0.907618 -0.90762,-1.134522 -0.45381,-0.226905 -0.68071,-0.453809 -0.90762,-0.907618 0,-0.680713 0.22691,-0.907617 0.68071,-1.134522 0.68072,-0.226904 1.58834,-0.453808 2.94976,-0.907617 0,0 0.22691,0 0.22691,0 0.2269,0 0.4538,0 0.68071,0.226904 0.2269,0.226905 0.2269,0.226905 0.45381,0.453809 0,0.226904 0,0.453809 0,0.907617 0,0.453809 0,0.680714 0,0.907618 l 0.68071,5.899514 c 0,0.907617 0.22691,1.58833 0.45381,2.042139 0.45381,0.453809 1.13452,0.680713 2.04214,0.680713 1.58833,-0.226904 2.49595,-0.907617 2.26904,-2.269044 l -0.90761,-8.84927 c 0,-0.453809 0.4538,-0.907618 1.58833,-0.907618 0.4538,0 0.90761,0 1.13452,0 0.45381,0.226905 0.90762,0.453809 0.90762,0.680713 l 0,0 c 0,1.134522 0.2269,2.04214 0.2269,2.495949 l 1.13452,9.756888 c 0,0.453808 -0.2269,0.680713 -0.45381,0.680713 l -2.26904,0.226904 c -0.45381,0.226905 -0.68071,-0.226904 -0.90762,-0.680713 z"
         class="st3" /><path
         style="fill:#c58313"
         inkscape:connector-curvature="0"
         id="path99"
         d="m 532.3919,-43.401297 c 0,0.453809 -0.22691,0.907618 -0.90762,0.907618 -0.45381,0 -0.68071,0 -0.90762,-0.453809 -0.68071,-1.134522 -1.36142,-1.815235 -2.26904,-1.58833 -0.90762,0 -1.36143,0.453808 -1.13452,1.361426 0,0.453809 0.4538,1.134522 1.58833,1.58833 1.58833,0.680714 2.49594,1.134522 2.72285,1.588331 0.90762,0.907618 1.58833,1.815235 1.58833,3.176661 0.2269,1.361427 -0.2269,2.495948 -1.36143,3.176662 -0.90761,0.680713 -2.04214,1.134521 -3.40356,1.361426 -0.68072,0 -1.36143,0 -2.04214,0 -0.90762,-0.226905 -1.58833,-0.453809 -1.81524,-0.907618 -0.45381,-0.680713 -0.68071,-1.58833 -0.68071,-2.722852 0,-0.907618 0.2269,-1.361426 0.90762,-1.361426 0.45381,0 0.68071,0.226904 0.90761,0.453808 0,0.226905 0.22691,0.453809 0.45381,0.907618 0.68072,1.134522 1.58833,1.815235 2.49595,1.58833 0.90762,0 1.36143,-0.680713 1.36143,-1.361426 0,-0.680713 -0.68071,-1.134522 -1.58833,-1.815235 -1.81524,-0.907617 -2.72286,-1.58833 -2.72286,-1.58833 -0.90761,-0.680714 -1.58833,-1.588331 -1.58833,-2.722853 0,-1.361426 0.22691,-2.269044 1.13453,-3.176661 0.90761,-0.680713 1.81523,-1.134522 3.17666,-1.361426 1.58833,-0.226905 2.72285,0 3.17666,0.453808 0.2269,0.226905 0.45381,0.680713 0.68071,1.361427 0,0.226904 0,0.680713 0.22691,1.134521 z"
         class="st3" /><path
         style="fill:#c58313"
         inkscape:connector-curvature="0"
         id="path101"
         d="m 555.08233,-46.351053 c 0,0.453808 0,0.907617 -0.2269,1.134521 -0.2269,0.453809 -0.45381,0.680714 -0.90762,0.680714 -0.2269,0 -0.68071,-0.226905 -1.58833,-0.907618 -0.68071,-0.680713 -1.36142,-0.907617 -2.04214,-0.907617 -1.13452,0 -2.04214,0.680713 -2.72285,1.58833 -0.45381,0.907618 -0.90762,1.815235 -0.68071,2.949757 0,1.361426 0.45381,2.269044 1.36142,3.176661 0.90762,0.907618 2.04214,1.361427 3.17666,1.134522 0.68072,0 1.36143,-0.226904 1.81524,-0.680713 0.2269,-0.226904 0.45381,-0.453809 0.68071,-0.907617 0.22691,-0.226905 0.45381,-0.453809 0.68072,-0.453809 0.2269,0 0.4538,0 0.68071,0.226904 0.2269,0.226905 0.45381,0.453809 0.45381,0.680713 0,0 0,0.226905 0,0.226905 -0.45381,1.134522 -1.13452,2.042139 -2.04214,2.722852 -0.90762,0.680713 -2.04214,1.134522 -3.40357,1.134522 -2.04214,0.226904 -3.63047,-0.453809 -4.99189,-1.588331 -1.36143,-1.134521 -2.04214,-2.722852 -2.04214,-4.764991 -0.22691,-2.269044 0.45381,-4.084279 2.04214,-5.67261 1.36142,-1.361426 3.17666,-2.269044 5.67261,-2.269044 1.13452,0 2.26904,0 2.94975,0.453809 0.90762,0.680713 1.13452,1.134522 1.13452,2.04214 z"
         class="st3" /><path
         style="fill:#c58313"
         inkscape:connector-curvature="0"
         id="path103"
         d="m 571.87326,-42.266775 c 0,2.04214 -0.45381,3.857375 -1.81524,5.218801 -1.36142,1.361426 -2.94975,2.269044 -4.99189,2.269044 -2.04214,0 -3.63047,-0.453809 -4.9919,-1.815235 -1.36143,-1.361427 -2.04214,-2.949757 -2.04214,-4.991897 0,-2.042139 0.45381,-3.857374 1.81524,-5.2188 1.36142,-1.361426 2.94975,-2.269044 4.99189,-2.269044 2.04214,0 3.63047,0.453809 4.9919,1.815235 1.36142,1.361426 2.04214,2.949757 2.04214,4.991896 z m -7.26094,-4.538087 c -1.13452,0 -1.81524,0.680713 -2.26905,1.815235 -0.4538,0.907617 -0.4538,1.815235 -0.4538,2.949757 0,1.361426 0.2269,2.269043 0.90761,3.403565 0.68072,1.134522 1.58833,1.815235 2.72286,1.815235 1.13452,0 1.81523,-0.680713 2.26904,-1.58833 0.45381,-0.907618 0.45381,-1.815235 0.45381,-2.949757 0,-1.361426 -0.22691,-2.495948 -0.90762,-3.403566 -0.68071,-1.58833 -1.58833,-2.042139 -2.72285,-2.042139 z"
         class="st3" /><path
         style="fill:#c58313"
         inkscape:connector-curvature="0"
         id="path105"
         d="m 579.3611,-48.166288 c 1.58833,-0.907618 2.72285,-1.361427 4.08428,-1.361427 1.36143,0 2.26904,0.453809 3.17666,1.134522 0.68072,0.907618 1.13452,1.815235 1.13452,3.176661 l 0.22691,8.622367 c 0,0.453808 -0.22691,0.680713 -0.68071,0.680713 l -2.26905,0 c -0.45381,0 -0.68071,-0.226905 -0.68071,-0.680713 l 0,-7.941653 c 0,-1.588331 -0.68071,-2.495949 -2.26905,-2.495949 -1.58833,0 -2.49594,0.907618 -2.49594,2.269044 l 0.2269,8.168558 c 0,0.453808 -0.2269,0.680713 -0.68071,0.680713 l -2.26905,0 c -0.4538,0 -0.68071,-0.226905 -0.68071,-0.680713 0,-0.680713 0,-1.815235 0,-3.403566 0,-1.588331 0,-2.495948 0,-3.403566 0,-1.361426 0,-2.269043 0,-2.722852 0,-0.226904 -0.2269,-0.453809 -0.68071,-0.680713 -0.45381,-0.226905 -0.68072,-0.453809 -0.68072,-0.907618 0,-0.453808 0.22691,-0.680713 0.45381,-0.680713 0.45381,-0.226904 1.58833,-0.680713 3.40357,-1.588331 0.68071,0 0.90762,0.226905 0.90762,0.907618 0,0 0,0.226904 -0.22691,0.907618 z"
         class="st3" /><path
         style="fill:#c58313"
         inkscape:connector-curvature="0"
         id="path107"
         d="m 599.7825,-45.897245 c 0,0.453809 -0.45381,0.907618 -1.13453,0.680713 -0.4538,0 -0.68071,-0.226904 -0.90761,-0.453808 -0.68072,-1.134522 -1.36143,-1.815235 -2.04214,-1.815235 -0.90762,0 -1.36143,0.453808 -1.36143,1.361426 0,0.453809 0.45381,1.134522 1.36143,1.588331 1.36142,0.907617 2.26904,1.361426 2.72285,1.815235 0.90762,0.907617 1.36143,2.042139 1.36143,3.403565 0,1.361426 -0.45381,2.269044 -1.58833,3.176661 -0.90762,0.680714 -2.04214,0.907618 -3.40357,0.907618 -0.68071,0 -1.36143,0 -2.04214,-0.226904 -0.90762,-0.226905 -1.58833,-0.680714 -1.81523,-1.134522 -0.22691,-0.680713 -0.45381,-1.588331 -0.45381,-2.722853 0,-0.907617 0.45381,-1.361426 1.13452,-1.361426 0.45381,0 0.68071,0.226904 0.90762,0.453809 0,0.226904 0.2269,0.453808 0.2269,0.907617 0.45381,1.361426 1.36143,1.815235 2.26904,1.815235 0.90762,0 1.36143,-0.453809 1.36143,-1.361426 0,-0.680713 -0.45381,-1.361426 -1.36143,-1.815235 -1.58833,-1.134522 -2.49594,-1.815235 -2.49594,-1.815235 -0.90762,-0.907618 -1.36143,-1.815235 -1.36143,-2.949757 0,-1.361426 0.45381,-2.269044 1.36143,-2.949757 0.90761,-0.680713 2.04214,-1.134522 3.40356,-0.907617 1.58833,0 2.49595,0.226904 3.17666,0.680713 0.22691,0.226904 0.45381,0.680713 0.45381,1.361426 0.22691,0.453809 0.22691,0.907618 0.22691,1.361426 z"
         class="st3" /><path
         style="fill:#c58313"
         inkscape:connector-curvature="0"
         id="path109"
         d="m 607.72415,-49.073906 3.40356,0 c 0.68072,0 0.90762,0.453809 0.90762,1.361426 0,0.907618 -0.2269,1.134522 -0.90762,1.134522 l -3.40356,0 0,6.126418 c 0,1.588331 0.45381,2.495948 1.58833,2.495948 0.2269,0 0.68071,0 0.90762,-0.226904 0.2269,-0.226904 0.45381,-0.226904 0.68071,-0.226904 0.2269,0 0.45381,0.226904 0.68071,0.226904 0.22691,0.226904 0.22691,0.453809 0.22691,0.680713 0,0.226905 0,0.453809 -0.22691,0.453809 -0.90761,1.134522 -2.04214,1.588331 -3.63047,1.588331 -1.58833,0 -2.72285,-0.680714 -3.40356,-2.04214 -0.45381,-0.907617 -0.68072,-2.495948 -0.45381,-4.538087 0.2269,-4.084279 0.2269,-5.67261 0.2269,-4.764992 -0.68071,0 -1.13452,0 -1.13452,-0.226905 -0.2269,-0.226904 -0.45381,-0.453808 -0.45381,-0.907617 0,-0.453809 0.22691,-0.680713 0.45381,-0.907618 1.13452,-0.453808 1.81524,-0.907617 2.26905,-1.361426 0.2269,-0.453809 0.4538,-0.907617 0.90761,-1.361426 0.22691,0 0.22691,0 0.45381,0 0.68071,0 0.90762,0.226904 1.13452,0.680713 -0.2269,0.453809 -0.2269,0.907617 -0.2269,1.815235 z"
         class="st3" /><path
         style="fill:#c58313"
         inkscape:connector-curvature="0"
         id="path111"
         d="m 623.60746,-35.686548 c -1.13453,0.453809 -2.04214,0.680713 -3.17667,0.680713 -2.04214,0 -3.63047,-0.680713 -4.76499,-2.042139 -1.13452,-1.361426 -1.81523,-2.949757 -1.58833,-4.991896 0,-2.269044 0.90762,-4.084279 2.49595,-5.445705 1.58833,-1.361427 3.40357,-1.815235 5.67261,-1.815235 1.58833,0 2.49595,0.226904 3.17666,0.680713 0,0 0.45381,0.226904 0.90762,0.453809 0.68071,0.453808 1.13452,0.680713 1.13452,1.134521 l -0.45381,10.89141 c 0,0.453809 -0.2269,0.680714 -0.68071,0.680714 l -2.26905,0 c 0,0.226904 -0.2269,0 -0.4538,-0.226905 z m 0.2269,-9.529984 c -0.68071,-0.907617 -1.58833,-1.58833 -2.72285,-1.58833 -1.13452,0 -2.04214,0.453809 -2.72286,1.361426 -0.68071,0.680713 -0.90761,1.815235 -1.13452,2.949757 0,1.361426 0.22691,2.269044 1.13452,3.403566 0.68072,0.907617 1.81524,1.361426 2.94976,1.58833 0.68071,0 1.36143,0 1.81524,-0.226904 l 0,1.134522 c 0.2269,-1.134522 0.45381,-2.04214 0.45381,-2.495948 l 0.2269,-6.126419 z"
         class="st3" /><path
         style="fill:#c58313"
         inkscape:connector-curvature="0"
         id="path113"
         d="m 636.0872,-47.031767 c 1.58833,-0.680713 2.94975,-1.134521 4.08427,-1.134521 1.36143,0 2.26905,0.453808 2.94976,1.361426 0.68071,0.907617 0.90762,2.042139 0.90762,3.176661 l -0.45381,8.622366 c 0,0.453809 -0.2269,0.680713 -0.68071,0.680713 l -2.26905,-0.226904 c -0.45381,0 -0.68071,-0.226904 -0.68071,-0.680713 l 0.45381,-7.941653 c 0.2269,-1.588331 -0.68071,-2.495948 -2.04214,-2.495948 -1.58833,0 -2.49595,0.680713 -2.49595,2.042139 l -0.45381,8.168558 c 0,0.453808 -0.2269,0.680713 -0.68071,0.680713 l -2.26904,-0.226905 c -0.45381,0 -0.68072,-0.226904 -0.68072,-0.680713 0,-0.680713 0.22691,-1.815235 0.22691,-3.403565 0.2269,-1.588331 0.2269,-2.495949 0.2269,-3.403566 0,-1.361426 0.22691,-2.269044 0,-2.722853 0,-0.226904 -0.2269,-0.453808 -0.68071,-0.907617 -0.45381,-0.226904 -0.45381,-0.680713 -0.45381,-0.907618 0,-0.453808 0.2269,-0.680713 0.45381,-0.680713 0.45381,-0.226904 1.58833,-0.680713 3.40356,-1.361426 0.68072,0 0.90762,0.453809 0.90762,1.134522 0.22691,0 0.22691,0.226904 0.22691,0.907617 z"
         class="st3" /><path
         style="fill:#c58313"
         inkscape:connector-curvature="0"
         id="path115"
         d="m 656.05478,-43.401297 c 0,0.453809 -0.45381,0.680714 -1.13452,0.680714 -0.45381,0 -0.68071,-0.226905 -0.90762,-0.453809 -0.45381,-1.361426 -1.13452,-2.04214 -2.04214,-2.04214 -0.90762,0 -1.36142,0.226905 -1.36142,1.134522 0,0.453809 0.4538,1.134522 1.36142,1.815235 1.36143,0.907618 2.26905,1.588331 2.49595,2.04214 0.90762,0.907617 1.36143,2.042139 1.13452,3.403565 0,1.361427 -0.68071,2.269044 -1.81523,2.949757 -0.90762,0.680713 -2.26905,0.907618 -3.40357,0.680713 -0.68071,0 -1.36142,-0.226904 -2.04214,-0.453808 -0.90762,-0.226905 -1.36142,-0.680714 -1.58833,-1.134522 -0.2269,-0.680713 -0.2269,-1.588331 -0.2269,-2.949757 0,-0.907618 0.45381,-1.361426 1.13452,-1.134522 0.45381,0 0.68071,0.226904 0.90762,0.680713 0,0.226904 0.2269,0.453809 0.2269,0.907618 0.45381,1.361426 1.13452,2.042139 2.26904,2.042139 0.90762,0 1.58834,-0.226904 1.58834,-1.134522 0,-0.680713 -0.45381,-1.361426 -1.36143,-2.042139 -1.58833,-1.361427 -2.49595,-1.815235 -2.49595,-2.04214 -0.90762,-0.907617 -1.36143,-1.815235 -1.13452,-2.949757 0,-1.361426 0.68071,-2.269043 1.58833,-2.949756 0.90762,-0.680714 2.04214,-0.907618 3.40357,-0.680714 1.58833,0.226905 2.49594,0.453809 2.94975,0.907618 0.22691,0.226904 0.22691,0.680713 0.45381,1.361426 0,0.453809 0,0.907618 0,1.361426 z"
         class="st3" /><path
         style="fill:#c58313"
         inkscape:connector-curvature="0"
         id="path117"
         d="m 670.34976,-39.770827 0,0 c -0.22691,1.588331 0,2.949757 0.68071,3.857375 0.68071,1.134522 1.81524,1.815235 3.17666,1.815235 0.68071,0 1.36143,0 1.81524,-0.680713 0.45381,-0.453809 0.90761,-0.680713 1.36142,-0.680713 0.22691,0 0.45381,0.226904 0.68072,0.453808 0.2269,0.226905 0.2269,0.453809 0.2269,0.680713 0,0 0,0.226905 -0.2269,0.226905 -0.68072,0.907617 -1.36143,1.58833 -2.49595,2.042139 -1.13452,0.453809 -2.04214,0.680713 -3.17666,0.453809 -1.81524,-0.226904 -3.40357,-0.907618 -4.31119,-2.495948 -1.13452,-1.361426 -1.36142,-2.949757 -1.13452,-4.991896 0.22691,-2.04214 0.90762,-3.63047 2.26905,-4.991897 1.36142,-1.361426 3.17666,-2.042139 5.2188,-1.815235 1.36142,0.226905 2.26904,0.680713 3.17666,1.588331 0.90761,0.907617 1.36142,2.042139 1.13452,3.176661 0,0.907618 -0.45381,1.361426 -0.90762,1.361426 -0.2269,0 -0.90762,0 -1.81523,0 l -5.67261,0 z m 0.68071,-2.042139 1.58833,0.226904 c 1.36143,0.226905 2.49595,0.226905 2.72285,0.226905 l 0,-0.226905 c 0.22691,-0.907617 -0.45381,-1.361426 -1.58833,-1.58833 -0.45381,0 -1.13452,0 -1.58833,0.226904 -0.45381,0.453809 -0.90762,0.680713 -1.13452,1.134522 z"
         class="st3" /><path
         style="fill:#c58313"
         inkscape:connector-curvature="0"
         id="path119"
         d="m 686.68687,-43.174392 3.40357,0.453809 c 0.68071,0 0.90762,0.453808 0.68071,1.361426 0,0.907617 -0.45381,1.134522 -0.90762,1.134522 l -3.40356,-0.453809 -0.68072,6.126418 c -0.2269,1.588331 0.22691,2.495948 1.36143,2.722853 0.22691,0 0.68071,0 0.90762,-0.226905 0.2269,-0.226904 0.45381,-0.226904 0.68071,-0.226904 0.22691,0 0.45381,0.226904 0.68071,0.453809 0.22691,0.226904 0.22691,0.453808 0.22691,0.680713 0,0.226904 0,0.226904 -0.22691,0.453808 -0.90761,0.907618 -2.26904,1.361427 -3.85737,1.134522 -1.58833,-0.226904 -2.72285,-0.907617 -3.17666,-2.495948 -0.22691,-1.134522 -0.22691,-2.495948 0,-4.538087 0.68071,-4.084279 0.90762,-5.445705 0.68071,-4.764992 -0.68071,0 -0.90762,-0.226905 -1.13452,-0.226905 -0.2269,-0.226904 -0.45381,-0.453808 -0.45381,-0.907617 0,-0.453809 0.22691,-0.680713 0.68071,-0.680713 1.13453,-0.226905 1.81524,-0.680713 2.49595,-1.134522 0.22691,-0.453809 0.68072,-0.680713 1.13452,-1.134522 0.22691,0 0.22691,0 0.45381,0 0.68072,0 0.90762,0.453809 0.90762,0.907618 -0.2269,-0.226905 -0.2269,0.453808 -0.45381,1.361426 z"
         class="st3" /><path
         style="fill:#c58313"
         inkscape:connector-curvature="0"
         id="path121"
         d="m 701.43566,-28.425608 c 0.2269,-1.134522 0.45381,-2.722852 0.90761,-4.991896 0.45381,-2.269044 0.68072,-4.084279 0.90762,-4.991896 -0.68071,0 -1.13452,-0.226905 -1.13452,-0.226905 -0.45381,-0.226904 -0.45381,-0.453808 -0.45381,-0.907617 0,-0.453809 0.45381,-0.680713 0.90762,-0.907618 0.68071,-0.226904 1.13452,-0.226904 1.13452,-0.453808 0.45381,-2.495949 1.36143,-4.764992 2.49595,-6.353323 1.58833,-2.042139 3.63047,-2.722853 5.89951,-2.269044 0.90762,0.226905 1.58833,0.453809 2.26905,0.907618 0.68071,0.680713 1.13452,1.361426 0.90761,2.042139 0,0.453809 -0.2269,0.907618 -0.68071,1.134522 -0.45381,0.226904 -0.90762,0.453809 -1.36143,0.226904 -0.4538,0 -0.90761,-0.453808 -1.36142,-1.134521 -0.45381,-0.680714 -1.13452,-1.134522 -1.58833,-1.134522 -1.58833,-0.226905 -2.49595,1.58833 -3.17666,5.672609 0,-0.226904 0,0.226904 -0.22691,1.134522 l 3.40357,0.453809 c 0.45381,0 0.68071,0.453808 0.68071,1.134522 0,0.226904 -0.2269,0.680713 -0.45381,0.907617 -0.2269,0.226904 -0.45381,0.453809 -0.90762,0.226904 l -3.17666,-0.453808 c 0,0.226904 0,0.226904 0,0.226904 l -1.58833,9.756888 c 0,0.453809 -0.2269,0.680713 -0.68071,0.453809 l -2.26904,-0.453809 c -0.45381,0.680713 -0.68072,0.453809 -0.45381,0 z"
         class="st3" /><path
         style="fill:#c58313"
         inkscape:connector-curvature="0"
         id="path123"
         d="m 715.04992,-35.459643 c 0,-0.453809 0,-0.680714 -0.45381,-0.907618 -0.45381,-0.226904 -0.45381,-0.680713 -0.45381,-1.134522 0,-0.453809 0.22691,-0.680713 0.45381,-0.680713 0.2269,0 0.90762,-0.226904 2.04214,-0.453809 1.13452,-0.226904 1.81523,-0.453808 1.81523,-0.453808 0.68072,0 0.90762,0.453808 0.68072,0.907617 0,0.453809 -0.22691,1.134522 -0.45381,1.815235 -0.22691,0.907618 -0.22691,1.361426 -0.45381,1.815235 l -1.58833,8.849271 c 0,0.453808 -0.2269,0.680713 -0.68071,0.453808 l -2.26905,-0.453808 c -0.45381,0 -0.68071,-0.226905 -0.45381,-0.680713 l 1.81524,-9.076175 z m 5.4457,-8.622367 c -0.2269,0.680713 -0.4538,1.134522 -0.90761,1.361427 -0.45381,0.226904 -1.13453,0.453808 -1.58833,0.226904 -0.68072,0 -1.13453,-0.453809 -1.36143,-0.907618 -0.45381,-0.453808 -0.45381,-0.907617 -0.45381,-1.58833 0.22691,-0.680713 0.45381,-1.134522 0.90762,-1.588331 0.45381,-0.226904 1.13452,-0.453809 1.81523,-0.226904 0.68072,0 1.13453,0.453809 1.36143,0.907617 0.2269,0.453809 0.2269,1.134522 0.2269,1.815235 z"
         class="st3" /><path
         style="fill:#c58313"
         inkscape:connector-curvature="0"
         id="path125"
         d="m 727.52966,-35.913452 c 1.13452,-0.680713 2.26904,-0.907618 2.94976,-0.680713 0.45381,0 0.90761,0.453808 1.36142,0.680713 0.22691,0.453809 0.45381,0.907617 0.22691,1.361426 0,0.453809 -0.45381,0.907618 -0.90762,1.361426 -0.45381,0.226905 -0.90762,0.453809 -1.36143,0.226905 -0.2269,0 -0.68071,-0.226905 -0.90761,-0.453809 -0.45381,-0.226904 -0.68072,-0.453809 -0.90762,-0.453809 -0.68071,-0.226904 -1.13452,0.680713 -1.36143,2.04214 l -1.36142,7.487844 c 0,0.453809 -0.22691,0.453809 -0.68072,0.453809 l -2.26904,-0.453809 c -0.45381,0 -0.45381,-0.226904 -0.45381,-0.680713 l 1.81524,-9.076175 c 0,-0.453809 0,-0.680713 -0.45381,-0.907618 -0.45381,-0.226904 -0.45381,-0.680713 -0.45381,-1.134522 0,-0.453808 0.2269,-0.680713 0.68071,-0.680713 0.68071,-0.226904 1.36143,-0.453808 1.81524,-0.453808 0.90761,-0.226905 1.58833,-0.453809 1.58833,-0.226905 l 0,0 c 0.45381,0.226905 0.45381,0.453809 0.68071,0.680713 0,0 0,0.453809 0,0.907618 z"
         class="st3" /><path
         style="fill:#c58313"
         inkscape:connector-curvature="0"
         id="path127"
         d="m 746.81653,-31.375365 c 0.90762,-0.226904 1.58833,-0.453808 2.49595,-0.680713 0.90762,-0.226904 1.58833,-0.226904 2.49595,0 1.36142,0.226905 2.26904,0.907618 2.72285,1.815235 0.68071,0.907618 0.68071,2.04214 0.45381,3.403566 l -2.04214,8.395462 c 0,0.453809 -0.2269,0.453809 -0.68071,0.453809 l -2.04214,-0.453809 c -0.45381,0 -0.45381,-0.226905 -0.45381,-0.680713 l 1.81523,-7.714749 c 0.45381,-1.588331 -0.2269,-2.722853 -1.58833,-2.949757 -1.58833,-0.453809 -2.49595,0.226904 -2.94975,1.815235 l -1.81524,7.941653 c 0,0.453809 -0.2269,0.453809 -0.68071,0.453809 l -2.26905,-0.453809 c -0.4538,0 -0.4538,-0.226904 -0.4538,-0.680713 l 1.81523,-7.714749 c 0.45381,-1.58833 -0.2269,-2.722852 -1.58833,-2.949757 -1.58833,-0.453808 -2.49595,0.226905 -2.94976,1.588331 l -1.81523,7.941653 c 0,0.453809 -0.22691,0.453809 -0.68072,0.453809 l -2.26904,-0.453809 c -0.45381,0 -0.45381,-0.226904 -0.45381,-0.680713 l 2.04214,-9.076175 c 0,-0.453809 0,-0.680713 -0.45381,-1.134522 -0.2269,-0.226904 -0.45381,-0.680713 -0.45381,-1.134522 0,-0.226904 0.22691,-0.453809 0.68072,-0.680713 0.45381,-0.226904 1.58833,-0.453809 3.63047,-0.907617 0.68071,0.226904 0.90761,0.453808 0.68071,1.134521 0,0 0,0.226905 -0.2269,0.680714 1.58833,-0.453809 2.72285,-0.680714 4.08427,-0.453809 1.36143,0.680713 2.26905,1.58833 2.94976,2.722852 z"
         class="st3" /><path
         style="fill:#c58313"
         inkscape:connector-curvature="0"
         id="path129"
         d="m 765.19579,-14.811345 c -1.13453,0.226904 -2.26905,0.226904 -3.40357,0 -1.81523,-0.453809 -3.17666,-1.588331 -4.08428,-2.949757 -0.90762,-1.588331 -1.13452,-3.176661 -0.45381,-5.218801 0.68072,-2.269044 1.81524,-3.63047 3.63047,-4.764992 1.81524,-0.907617 3.85738,-1.134522 5.89952,-0.453808 1.58833,0.453808 2.49594,0.907617 2.94975,1.361426 0,0 0.45381,0.226904 0.68072,0.680713 0.68071,0.453809 0.90761,0.907617 0.90761,1.361426 l -2.72285,10.664506 c 0,0.453809 -0.45381,0.453809 -0.68071,0.453809 l -2.04214,-0.453809 c -0.45381,-0.226904 -0.68071,-0.453809 -0.68071,-0.680713 z m 2.26904,-9.30308 c -0.45381,-1.134522 -1.13452,-1.815235 -2.26904,-2.042139 -1.13453,-0.226904 -2.04214,0 -2.94976,0.680713 -0.90762,0.680713 -1.36143,1.588331 -1.58833,2.722853 -0.22691,1.134522 -0.22691,2.495948 0.45381,3.403565 0.45381,1.134522 1.36142,1.815235 2.72285,2.04214 0.68071,0.226904 1.13452,0.226904 1.81523,0 l -0.2269,1.134522 c 0.45381,-1.134522 0.68071,-1.815235 0.90762,-2.269044 l 1.13452,-5.67261 z"
         class="st3" /><path
         style="fill:#c58313"
         inkscape:connector-curvature="0"
         id="path131"
         d="m 794.92026,-18.214911 c 0.90762,-0.226904 1.58833,-0.226904 2.49595,-0.453809 0.90761,-0.226904 1.58833,0 2.49595,0.226905 1.13452,0.453809 2.04213,1.134522 2.72285,2.042139 0.45381,0.907618 0.45381,2.04214 0.2269,3.403566 l -2.72285,8.3954617 c -0.2269,0.4538088 -0.45381,0.4538088 -0.68071,0.4538088 l -2.04214,-0.6807132 c -0.45381,-0.2269044 -0.45381,-0.4538087 -0.45381,-0.6807131 l 2.49595,-7.4878442 c 0.45381,-1.588331 0,-2.722853 -1.36143,-3.176661 -1.58833,-0.453809 -2.49595,0 -2.94976,1.361426 l -2.49594,7.7147486 c -0.22691,0.4538087 -0.45381,0.4538087 -0.68072,0.4538087 l -2.26904,-0.6807131 c -0.45381,-0.2269044 -0.45381,-0.4538088 -0.45381,-0.6807131 l 2.49595,-7.4878441 c 0.45381,-1.588331 0,-2.722853 -1.36143,-3.176662 -1.58833,-0.453808 -2.49595,0 -2.94976,1.361427 l -2.49594,7.7147484 c -0.22691,0.4538088 -0.45381,0.4538088 -0.68072,0.4538088 l -2.26904,-0.6807131 c -0.45381,-0.2269041 -0.45381,-0.4538091 -0.45381,-0.6807131 l 2.72285,-8.849271 c 0,-0.453808 0,-0.680713 -0.2269,-1.134522 -0.22691,-0.453808 -0.45381,-0.680713 -0.22691,-1.134521 0,-0.226905 0.22691,-0.453809 0.68072,-0.680714 0.45381,0 1.58833,-0.226904 3.63047,-0.453808 0.68071,0.226904 0.68071,0.680713 0.68071,1.134522 0,0 0,0.226904 -0.2269,0.680713 1.58833,-0.453809 2.94975,-0.453809 4.08428,0 0.68071,0.453808 1.81523,1.361426 2.26904,2.722852 z"
         class="st3" /><path
         style="fill:#c58313"
         inkscape:connector-curvature="0"
         id="path133"
         d="m 811.71118,-0.06256078 c -1.13452,0.22690438 -2.26904,0 -3.40356,-0.22690437 -1.81524,-0.68071313 -3.17666,-1.81523505 -3.85738,-3.40356565 -0.68071,-1.5883306 -0.68071,-3.4035656 0,-5.2188006 0.68072,-2.0421396 2.04214,-3.6304696 4.08428,-4.3111836 1.81524,-0.680713 3.85738,-0.680713 6.12642,0 1.36143,0.453809 2.26904,1.134522 2.72285,1.588331 0,0 0.22691,0.226904 0.68072,0.680713 0.68071,0.680713 0.90761,1.1345221 0.68071,1.3614264 L 815.11475,0.84505673 C 814.88784,1.2988655 814.66094,1.2988655 814.43404,1.2988655 L 812.3919,0.61815235 c -0.45381,-0.22690438 -0.68072,-0.45380875 -0.68072,-0.68071313 z m 3.17666,-9.07617502 c -0.4538,-1.1345222 -1.13452,-2.0421392 -2.04213,-2.2690442 -1.13453,-0.453808 -2.04214,-0.226904 -2.94976,0.453809 -0.90762,0.453809 -1.58833,1.3614264 -1.81524,2.4959483 -0.45381,1.1345219 -0.45381,2.2690438 0,3.4035656 0.45381,1.1345219 1.36143,1.8152351 2.49595,2.2690438 0.68071,0.2269044 1.13452,0.2269044 1.81524,0.2269044 l -0.45381,0.9076175 c 0.68071,-1.1345219 0.90762,-1.815235 1.13452,-2.2690438 l 1.81523,-5.2188006 z"
         class="st3" /><path
         style="fill:#c58313"
         inkscape:connector-curvature="0"
         id="path135"
         d="m 827.14068,-7.3235008 c 1.81524,-0.2269044 3.17666,-0.2269044 4.31118,0.2269044 1.13453,0.4538087 2.04214,1.3614262 2.49595,2.2690437 0.45381,1.1345219 0.22691,2.2690438 -0.2269,3.4035657 l -3.17666,8.1685575 c -0.22691,0.4538088 -0.45381,0.4538088 -0.90762,0.4538088 L 827.36759,6.2907618 C 826.91378,6.0638574 826.91378,5.836953 826.91378,5.3831442 l 2.94975,-7.4878444 c 0.68072,-1.5883306 0.22691,-2.4959481 -1.13452,-3.1766612 -1.58833,-0.6807132 -2.49595,-0.2269044 -3.17666,1.1345219 l -2.94976,7.4878444 c -0.2269,0.4538087 -0.45381,0.4538087 -0.90761,0.4538087 l -2.26905,-0.9076175 c -0.45381,-0.2269044 -0.45381,-0.4538087 -0.45381,-0.9076175 0.22691,-0.6807131 0.68072,-1.815235 1.36143,-3.1766613 0.68071,-1.3614262 0.90762,-2.4959481 1.36143,-3.1766612 0.4538,-1.3614263 0.90761,-2.2690438 0.90761,-2.7228525 0,-0.2269044 0,-0.6807132 -0.2269,-0.9076175 -0.22691,-0.4538088 -0.22691,-0.6807132 -0.22691,-1.1345219 0.22691,-0.2269044 0.45381,-0.4538088 0.68072,-0.4538088 0.45381,0 1.58833,-0.2269043 3.63047,-0.2269043 0.68071,0.2269043 0.68071,0.6807131 0.45381,1.3614262 0.45381,0.4538088 0.45381,0.6807131 0.2269,1.1345219 z"
         class="st3" /><path
         style="fill:#c58313"
         inkscape:connector-curvature="0"
         id="path137"
         d="m 838.93971,2.6602917 0,0 c -0.68071,1.5883307 -0.90762,2.7228525 -0.45381,3.8573744 0.45381,1.3614263 1.13452,2.2690438 2.49595,2.7228525 0.68071,0.2269044 1.36142,0.2269044 1.81523,0 0.68072,-0.2269043 1.13452,-0.4538087 1.36143,-0.2269043 0.2269,0 0.45381,0.2269043 0.45381,0.4538087 0.2269,0.2269044 0.2269,0.4538088 0,0.680713 0,0 0,0.226905 -0.22691,0.226905 -0.90761,0.680713 -1.81523,1.134521 -2.94975,1.361426 -1.13453,0.226904 -2.26905,0 -3.17666,-0.453809 -1.81524,-0.680713 -2.94976,-2.0421394 -3.40357,-3.63047 -0.68071,-1.5883306 -0.45381,-3.4035656 0.2269,-4.9918963 0.90762,-1.81523497 2.04214,-3.17666123 3.85738,-4.0842787 1.81523,-0.9076175 3.63047,-0.9076175 5.4457,-0.2269044 1.13453,0.4538087 2.04214,1.36142625 2.72286,2.49594813 0.68071,1.13452187 0.68071,2.26904377 0.2269,3.40356567 -0.2269,0.6807131 -0.68071,1.1345218 -1.36143,1.1345218 -0.2269,0 -0.68071,-0.2269043 -1.81523,-0.6807131 l -5.2188,-2.0421394 z m 1.36142,-1.81523497 1.58834,0.68071317 c 1.36142,0.6807131 2.26904,0.9076175 2.49594,0.9076175 l 0,-0.2269044 c 0.45381,-0.6807131 0,-1.36142627 -1.13452,-1.81523503 -0.45381,-0.22690437 -0.90762,-0.22690437 -1.58833,-0.22690437 -0.45381,0.22690437 -1.13452,0.22690437 -1.36143,0.68071313 z"
         class="st3" /><path
         style="fill:#c58313"
         inkscape:connector-curvature="0"
         id="path139"
         d="m 855.27682,4.2486224 c 1.13453,0 2.26905,0.2269043 3.17666,0.6807131 1.81524,0.9076175 2.72286,2.0421394 3.40357,3.63047 0.45381,1.5883305 0.45381,3.4035655 -0.45381,4.9918965 -0.90762,2.042139 -2.26904,3.403565 -4.31118,4.084279 -1.81524,0.680713 -3.85738,0.453808 -5.89952,-0.453809 -0.4538,-0.226905 -1.58833,-1.134522 -3.17666,-2.269044 -0.2269,0 -0.2269,0 -0.45381,0.226904 -0.2269,0 -0.2269,0 -0.4538,0 -0.45381,-0.226904 -0.68072,-0.680713 -0.45381,-1.134521 0.2269,-0.226905 0.2269,-0.680714 0.68071,-1.134522 0.2269,-0.453809 0.45381,-0.907618 0.68071,-1.134522 l 6.80713,-14.0680715 c 0.22691,-0.4538088 0.22691,-0.9076175 -0.2269,-1.3614263 -0.2269,-0.4538087 -0.45381,-0.9076175 -0.2269,-1.1345219 0.2269,-0.2269044 0.4538,-0.4538087 0.68071,-0.4538087 0.2269,0 1.58833,0 3.85737,0.2269043 0.45381,0.2269044 0.68072,0.6807132 0.45381,1.1345219 -0.2269,0.4538088 -0.45381,0.9076175 -0.90762,1.5883307 -0.4538,0.6807131 -0.68071,1.1345218 -0.90761,1.58833059 l -2.26905,4.99189631 z m -2.49594,11.3452186 c 1.13452,0.453809 2.04213,0.453809 2.94975,-0.226904 0.68072,-0.453809 1.36143,-1.361426 2.04214,-2.495948 0.68071,-1.361427 0.90762,-2.495948 0.68071,-3.6304704 -0.2269,-1.1345218 -0.90761,-2.0421393 -2.04213,-2.7228525 -0.68072,-0.2269043 -1.36143,-0.4538087 -1.81524,-0.4538087 -0.2269,0.2269044 -0.2269,0.4538087 -0.45381,0.6807131 l -2.26904,4.5380875 c -0.90762,2.269044 -0.68072,3.63047 0.90762,4.311183 z"
         class="st3" /><path
         style="fill:#c58313"
         inkscape:connector-curvature="0"
         id="path141"
         d="m 875.47131,21.493355 c -0.90761,1.815235 -2.26904,3.176661 -4.08428,3.63047 -1.81523,0.680713 -3.63047,0.453809 -5.4457,-0.453809 -1.81524,-0.907617 -2.94976,-2.269044 -3.40357,-4.084279 -0.45381,-1.815235 -0.45381,-3.63047 0.68072,-5.2188 0.90761,-1.815235 2.26904,-2.949757 4.31118,-3.63047 1.81523,-0.680713 3.63047,-0.453809 5.4457,0.453809 1.81524,0.907617 2.94976,2.269043 3.40357,4.084278 0.2269,1.588331 0,3.403566 -0.90762,5.218801 z m -4.08428,-7.714749 c -0.90761,-0.453809 -1.81523,-0.453809 -2.94975,0.453809 -0.68072,0.453809 -1.36143,1.361426 -1.81524,2.495948 -0.68071,1.134522 -0.90762,2.269044 -0.90762,3.403566 0,1.361426 0.45381,2.269043 1.36143,2.949757 0.90762,0.453808 1.81524,0.453808 2.72285,-0.226905 0.68072,-0.453809 1.36143,-1.361426 1.81524,-2.269044 0.68071,-1.134521 0.90762,-2.269043 0.90762,-3.403565 0.4538,-1.815235 0,-2.949757 -1.13453,-3.403566 z"
         class="st3" /></g><g
       transform="translate(709.71522,254.16126)"
       id="g4648"><path
         inkscape:connector-curvature="0"
         style="fill:#c68510;fill-opacity:1"
         d="m -121.95459,128.21248 c -18.03995,-2.16065 -46.06325,-12.58854 -60.47371,-22.50321 -4.76253,-3.2767 -6.55612,-3.88936 -7.96447,-2.72055 -1.42889,1.18588 -2.01801,0.85358 -2.75426,-1.55351 -0.51511,-1.684142 -4.95599,-7.250948 -9.86862,-12.370688 -29.37715,-30.615617 -45.51602,-69.963955 -42.43646,-103.464698 3.0074,-32.715695 19.25797,-64.696115 43.8425,-86.280124 27.07423,-23.76986 56.7019,-33.82582 90.29344,-30.64659 16.585483,1.56971 30.657333,5.44192 47.242045,12.99983 37.007499,16.86485 64.27218746,48.271245 73.8338664,85.049752 3.6082466,13.878896 5.4835066,45.615298 3.1430546,53.1921 -0.903707,2.925566 -2.9206718,10.065993 -4.4821524,15.867616 -10.7338201,39.880883 -36.1218646,70.342002 -70.4124576,84.482302 -17.65491,7.28029 -40.383216,10.29283 -59.962776,7.94777 z"
         id="path4601" /><path
         inkscape:connector-curvature="0"
         style="fill:#ffffff;fill-opacity:1"
         d="m -94.028737,114.86105 7.313913,-1.80974 -16.622526,-0.86031 c -16.66661,-0.86259 -30.78239,-4.13275 -36.36969,-8.42564 -1.86973,-1.43658 -3.2038,-1.55087 -5.56178,-0.4765 -2.9124,1.32698 -7.03436,8.39753 -5.68323,9.74866 0.33889,0.3389 4.45871,1.4907 9.15516,2.55955 10.32857,2.35068 36.95139,1.94047 47.768153,-0.73602 z"
         id="path4599" /><path
         inkscape:connector-curvature="0"
         style="fill:#ffffff;fill-opacity:1"
         d="m -157.85925,97.377849 c 2.55987,-1.278791 6.47899,-2.326011 8.70915,-2.327154 l 4.05483,-0.0027 -0.51009,-4.369199 c -0.28053,-2.40306 0.70131,-7.938363 2.18189,-12.300673 l 2.69196,-7.930876 -4.50953,-4.654309 c -4.56083,-4.707248 -8.6288,-12.639187 -8.6288,-16.824874 0,-6.359182 5.96216,-14.222743 18.12578,-23.906298 6.85282,-5.455595 12.45968,-10.231274 12.45968,-10.612622 0,-0.381334 -0.59496,-1.805034 -1.32212,-3.163746 -0.72716,-1.358726 -2.28502,-8.6499134 -3.46191,-16.2026597 -2.79933,-17.9648203 -4.59917,-21.7141983 -11.62737,-24.2219933 -3.04168,-1.085332 -7.62478,-2.304348 -10.18465,-2.708928 l -4.65431,-0.735593 -4.86547,8.556893 c -22.78593,40.073559 -33.64769,82.763743 -26.92407,105.820098 1.16624,3.999195 2.26361,8.813146 2.43863,10.697676 0.46696,5.028037 1.36557,5.984869 10.40477,11.078889 l 8.22005,4.63238 1.37363,-4.24962 c 0.90617,-2.80341 2.9576,-5.04091 6.02795,-6.574731 z"
         id="path4595" /><path
         inkscape:connector-curvature="0"
         style="fill:#ffffff;fill-opacity:1"
         d="m -86.478587,96.29043 c 19.076043,-2.60003 46.139652,-13.178982 59.92989,-23.426107 4.018437,-2.985992 16.045104,-19.039567 14.263647,-19.039567 -0.441747,0 -2.708089,1.430748 -5.036307,3.179451 -10.969661,8.239177 -39.080662,19.060671 -62.744444,24.153855 -15.580099,3.353323 -36.626099,3.185302 -45.545739,-0.363595 -5.38435,-2.142298 -6.98146,-2.36633 -6.98146,-0.97932 0,0.989134 -1.49603,3.412672 -3.32451,5.385634 -1.82847,1.972961 -3.3245,4.412245 -3.3245,5.420634 0,5.594147 29.8122,8.797242 52.763423,5.669015 z"
         id="path4593" /><path
         inkscape:connector-curvature="0"
         style="fill:#ffffff;fill-opacity:1"
         d="m -198.32461,78.586849 c -1.17747,-7.851912 1.23104,-26.119835 5.32025,-40.352777 4.30703,-14.991077 16.7918,-40.8973981 27.82282,-57.73327 4.75865,-7.262809 8.6521,-13.418757 8.6521,-13.679891 0,-0.261146 -1.34756,-0.813014 -2.99457,-1.226383 -1.64702,-0.413383 -6.52561,-3.898742 -10.8413,-7.745262 l -7.84672,-6.993684 -7.77751,8.598463 c -16.03064,17.722743 -27.83228,36.5566163 -33.71941,53.811735 -3.05381,8.950701 -4.08535,27.714507 -2.01909,36.727509 0.90229,3.93579 3.58794,10.148029 5.96811,13.804986 4.27875,6.573971 16.27626,20.611938 17.61592,20.611938 0.38097,0 0.2997,-2.620508 -0.1806,-5.823364 z"
         id="path4591" /><path
         inkscape:connector-curvature="0"
         style="fill:#ffffff;fill-opacity:1"
         d="m -89.309218,69.771242 c 17.040182,-2.913172 38.505495,-9.572543 50.704172,-15.73042 25.314945,-12.77895 41.0666551,-33.565119 42.4880278,-56.0677712 0.4443003,-7.0341765 0.2786069,-8.0247858 -0.889864,-5.3198882 -0.7897032,1.8281061 -2.70101501,4.670559 -4.2473492,6.3165619 -3.5967967,3.8286078 -13.0048566,4.0525332 -20.0190866,0.47648155 l -4.935482,-2.51625225 0,3.1811535 c 0,1.7496344 -1.249801,4.4309551 -2.777332,5.958486 -3.155755,3.1557543 -12.701077,7.7881077 -16.138204,7.8318847 -1.261158,0.01609 -3.149132,1.674833 -4.195514,3.68616 -7.923508,15.230441 -30.032539,18.774577 -55.53783,8.902855 l -6.17465,-2.389868 -10.86258,7.821113 c -14.25704,10.265158 -21.33651,17.955034 -21.33651,23.176197 0,5.043024 3.87636,14.911275 5.47036,13.926144 0.65947,-0.407584 2.13482,0.19471 3.27854,1.33842 3.03589,3.035886 25.69127,2.739366 45.173302,-0.591257 z"
         id="path4589" /><path
         inkscape:connector-curvature="0"
         style="fill:#ffffff;fill-opacity:1"
         d="m -224.80786,32.876537 c 0.38871,-29.4194072 10.48868,-54.673221 33.1054,-82.776376 l 6.95626,-8.643716 -1.00577,-5.984112 c -1.94831,-11.591901 -3.12903,-12.219302 -16.94918,-9.006233 -5.92607,1.377755 -7.02039,2.10146 -7.02039,4.642792 0,1.655844 -2.17374,5.858259 -4.83051,9.338698 -6.96608,9.12569 -17.9568,33.199809 -20.49502,44.892337 -2.85123,13.134486 -0.14182,36.67848 6.18527,53.748011 1.91992,5.179687 3.57103,9.415879 3.66915,9.413778 0.0981,-0.0027 0.27126,-7.033445 0.38479,-15.625179 z"
         id="path4587" /><path
         inkscape:connector-curvature="0"
         style="fill:#ffffff;fill-opacity:1"
         d="m -69.149838,25.566453 c 3.31448,-3.624856 7.036371,-10.764831 7.036371,-13.49836 0,-1.09706 0.975689,-2.5406808 2.168189,-3.2080422 1.892482,-1.0590813 1.499964,-2.208895 -3.086844,-9.04224474 C -65.922394,-4.4880678 -74.204284,-17.585638 -81.436335,-29.2879 c -9.953506,-16.105877 -15.747801,-23.892987 -23.841655,-32.041445 -19.40467,-19.53557 -43.21983,-34.683032 -62.15568,-39.533675 l -7.57971,-1.94163 -5.71831,4.110208 c -10.74016,7.719823 -20.6981,16.868837 -21.4374,19.695958 l -0.73845,2.823809 4.90427,-0.863946 c 2.69734,-0.475165 8.85406,-1.225134 13.6816,-1.666602 l 8.77735,-0.802682 2.19353,3.131698 c 1.39155,1.986738 2.19352,5.801064 2.19352,10.432886 l 0,7.301187 7.5695,7.158021 c 12.23732,11.572101 15.39564,13.516339 24.52242,15.095825 10.02308,1.734595 17.6286,5.289822 20.41562,9.543354 1.10766,1.690525 3.22879,9.820366 4.71361,18.0663116 3.05466,16.9641974 5.94283,23.6872134 11.59125,26.9818394 3.934497,2.29492 26.369861,10.277032 29.028734,10.327911 0.786738,0.01503 2.661587,-1.319045 4.166298,-2.964675 z"
         id="path4585" /><path
         inkscape:connector-curvature="0"
         style="fill:#ffffff;fill-opacity:1"
         d="m -33.074344,-6.5692885 c 2.313271,-1.1962372 4.205939,-2.6457618 4.205939,-3.2211673 0,-3.2195182 -8.449884,-25.1664722 -13.650702,-35.4550742 -8.003882,-15.833812 -17.982839,-29.767536 -29.736046,-41.52073 -11.417804,-11.417804 -26.201365,-21.58909 -26.846106,-18.47048 -0.46825,2.26492 -15.276681,10.123616 -19.076311,10.123616 -3.26582,0 -3.36792,-6.162586 -0.12008,-7.246276 1.27994,-0.42707 3.82318,-1.96443 5.65166,-3.41637 l 3.32451,-2.63989 -5.96235,2.04759 c -3.27929,1.12617 -7.28721,2.91566 -8.90648,3.97666 -3.14344,2.05966 -7.47733,1.29041 -6.74282,-1.19682 0.24338,-0.82412 4.2512,-3.44325 8.90625,-5.82027 10.60652,-5.41602 8.27715,-5.61186 -4.10039,-0.34474 -7.20977,3.06803 -9.92881,3.66527 -11.89534,2.61282 -3.92691,-2.10162 -3.04477,-4.935 2.43753,-7.8292 l 4.98676,-2.63261 -4.18178,-0.0588 c -2.29999,-0.0323 -8.12556,1.15933 -12.94573,2.64813 l -8.76395,2.7069 9.93133,5.13924 c 33.58959,17.381845 65.336824,52.361582 85.393331,94.088045 3.401914,7.0775014 6.816555,12.42737663 8.114296,12.71304481 2.504922,0.55137601 13.541511,-2.87601711 19.976452,-6.20366161 z"
         id="path4583" /><path
         inkscape:connector-curvature="0"
         style="fill:#ffffff;fill-opacity:1"
         d="m -16.447597,-5.9356376 c 5.2401,-1.9922836 9.2719545,-14.2951774 8.5244991,-26.0118674 -0.8374564,-13.127438 -5.0273321,-21.851156 -16.4555211,-34.262003 -5.246417,-5.697525 -9.940633,-11.988395 -10.431609,-13.979721 -0.490977,-1.991313 -2.422422,-7.047475 -4.292124,-11.235914 -3.725827,-8.346519 -8.85574,-12.482887 -23.529233,-18.972197 -7.018644,-3.10399 -28.71013,-9.1229 -29.615406,-8.21764 -0.198513,0.19852 3.25525,2.99431 7.675034,6.21287 26.644602,19.403093 50.908311,60.423603 57.152718,96.623075 1.927136,11.1718169 3.579203,12.6540014 10.971642,9.8433974 z"
         id="path4577" /><path
         inkscape:connector-curvature="0"
         style="fill:#ffffff;fill-opacity:1"
         d="m -10.090609,-62.865414 c -3.027682,-5.913724 -13.678562,-20.502775 -14.424009,-19.757327 -1.283831,1.283831 4.0626,10.800629 9.803144,17.449881 3.463551,4.011814 6.4945961,7.294206 6.7356627,7.294206 0.2410666,0 -0.7105932,-2.244042 -2.1147977,-4.98676 z"
         id="path4575" /><path
         inkscape:connector-curvature="0"
         style="fill:#c68510;fill-opacity:1"
         d="m -88.001953,-94.751953 c -5.880294,-0.113192 -19.883017,7.337118 -17.792967,9.855469 1.95853,2.359881 2.16028,2.322687 12.150389,-2.207032 10.25174,-4.648365 11.695151,-6.268571 6.703125,-7.521484 -0.312648,-0.07847 -0.668528,-0.119407 -1.060547,-0.126953 z"
         id="path4630" /><path
         inkscape:connector-curvature="0"
         style="fill:#c68510;fill-opacity:1"
         d="m -81.869141,-89.792969 c -5.194368,0 -16.68757,7.757128 -17.238281,11.634766 -0.346082,2.436836 0.209257,2.992187 2.992188,2.992187 2.21456,0 3.416015,0.732602 3.416015,2.082032 0,1.145173 0.602576,3.206126 1.337891,4.580078 l 1.335937,2.498047 7.56836,-2.603516 c 12.983966,-4.467139 16.980709,-8.692751 11.166015,-11.804687 -1.793119,-0.959639 -4.399822,-0.799449 -8.974609,0.552734 l -6.449219,1.90625 3.205078,-2.648438 c 1.762653,-1.456294 4.098349,-3.148042 5.191407,-3.759765 3.206712,-1.794555 0.829215,-5.429688 -3.550782,-5.429688 z"
         id="path4581" /></g></g></svg>