<?xml version="1.0" encoding="UTF-8"?>
<svg id="Calque_2" data-name="Calque 2" xmlns="http://www.w3.org/2000/svg" xmlns:xlink="http://www.w3.org/1999/xlink" viewBox="0 0 7400.9 10209.48">
  <defs>
    <style>
      .cls-1 {
        clip-path: url(#clippath);
      }

      .cls-2 {
        fill: none;
      }

      .cls-2, .cls-3, .cls-4, .cls-5 {
        stroke-width: 0px;
      }

      .cls-3 {
        fill: #005791;
      }

      .cls-4 {
        fill: #af9862;
      }

      .cls-5 {
        fill: #fff;
      }
    </style>
    <clipPath id="clippath">
      <rect class="cls-2" width="7400.9" height="10209.48"/>
    </clipPath>
  </defs>
  <g id="Calque_1-2" data-name="Calque 1">
    <path class="cls-4" d="M1258.1,0l-45.18,965.14-.54,51.46-1003.72,262.78,914.81,349.85,47.17,18.84-4.02,49.43-75.54,967.49,622.52-753.1,30.14-36.6,44.19,17.08,911.73,351.16-537.62-806.73-28.01-40.98,32.31-39.81,625.28-753.64-966.4,253.02-25.03-41.79L1258.1,0ZM6162.18,0l-542.19,813.78-25.08,41.79-966.4-253.02,625.32,753.55,32.31,39.81-28.01,40.98-537.67,806.68,911.69-351.16,44.19-17.08,30.14,36.6,622.57,753.1-75.5-967.53-3.93-49.43,47.08-18.84,914.9-349.85-1003.5-262.78-.59-51.28L6162.18,0Z"/>
    <g class="cls-1">
      <g>
        <path class="cls-5" d="M7253.97,5324.32c97.68,304.17,132.7,628.58,143.82,965.68,15.23,461.54-23.36,1005.03-164.06,1442.22-493.89,1532.22-1927.29,2477.25-3502.66,2477.25C1679.42,10209.52,0,8578.17,0,6526.58c1.36-2044.01,1659.46-3699.91,3703.47-3698.56,3.82,0,7.64.01,11.46.03,1759.94,0,3084.68,1080.17,3539.04,2496.27"/>
        <path class="cls-3" d="M3725.01,8253.85c-961.05,7.41-1746.15-765.68-1753.55-1726.73-7.41-961.05,765.68-1746.15,1726.73-1753.55,11.53-.09,23.06-.06,34.59.08,621.31,8.39,1195.3,333.51,1521.96,862.08l558.32-469.9c-761.89-1151.22-2312.77-1466.83-3463.99-704.94-134.96,89.32-260.94,191.54-376.14,305.22-965.28,946.08-980.84,2495.55-34.76,3460.83,8.87,9.04,17.8,18.02,26.81,26.93,466.67,465.73,1099.09,727.23,1758.4,727.07,952.54,10.6,1823.55-535.95,2228.34-1398.26l-628.53-341.44c-289.26,620.79-913.55,1016.29-1598.41,1012.63"/>
        <path class="cls-3" d="M2673.12,5390.65l-1.4,600.92s864.34-.95,1127.61-.41c-8.77,8.77-19.34,18.07-31.09,28.83-263.86,241.59-1128.79,977.47-1128.79,977.47l-2.21,605.44h2179.64l-.81-615.34q-875.99-.45-1148.67-.86c222.43-206.53,1141.17-994.96,1141.17-994.96v-599.7l-2135.45-1.4Z"/>
        <path class="cls-3" d="M3763.32,6025.55c19.93-16.72,26.21-22.05,42.34-34.79l-13.55.59-97.86,93.75s46-40.66,69.04-59.55M3703.32,6952.15c-20.65,17.03-26.43,22.18-41.61,34.38l12.79-.59,97.37-93.35s-45.5,40.89-68.5,59.55"/>
        <path class="cls-3" d="M7140.42,6360.58l-.5-17.17.63-239.87-1746.48-.32.72,678.82h992.56c-18.07,405.15-65.15,587.37-194.92,875.81-433.75,970.65-1380.59,1572.34-2470.66,1570.63-1510.26-3.21-2736.33-1223.58-2733.12-2720.33,3.21-1496.75,1234.42-2712.43,2744.82-2709.08,483.05.26,957.47,127.95,1375.39,370.18,354.02,212.34,658.3,498.24,892.26,838.36l568.26-478.62c-290.12-401.7-660.61-738.66-1087.94-989.49-1362.06-788.45-3083.02-569.78-4204.62,534.24-1347.53,1321.43-1368.68,3485.05-47.25,4832.58,11.94,12.18,23.97,24.26,36.09,36.26,650.79,651.16,1534,1016.49,2454.62,1015.34,1388.13,3.21,2596.81-765.3,3153.72-2004.6,146.21-303.81,232.37-696.89,258.58-1171.8h.9c1.99-29.87,3.75-74.91,5.6-124.39v-38.18c2.21-84.27,2.58-169.93,1.31-258.31"/>
      </g>
    </g>
  </g>
</svg>