<?xml version="1.0" encoding="UTF-8" standalone="no"?>
<svg
   viewBox="0 0 500.00381 625.34082"
   height="625.34082"
   width="500.00381"
   xml:space="preserve"
   version="1.1"
   id="svg2"
   sodipodi:docname="Logo_US_OrleÌans_2011.svg"
   inkscape:version="1.2 (dc2aeda, 2022-05-15)"
   xmlns:inkscape="http://www.inkscape.org/namespaces/inkscape"
   xmlns:sodipodi="http://sodipodi.sourceforge.net/DTD/sodipodi-0.dtd"
   xmlns:xlink="http://www.w3.org/1999/xlink"
   xmlns="http://www.w3.org/2000/svg"
   xmlns:svg="http://www.w3.org/2000/svg"
   xmlns:rdf="http://www.w3.org/1999/02/22-rdf-syntax-ns#"
   xmlns:cc="http://creativecommons.org/ns#"
   xmlns:dc="http://purl.org/dc/elements/1.1/"><sodipodi:namedview
     id="namedview196"
     pagecolor="#ffffff"
     bordercolor="#000000"
     borderopacity="0.25"
     inkscape:showpageshadow="2"
     inkscape:pageopacity="0.0"
     inkscape:pagecheckerboard="0"
     inkscape:deskcolor="#d1d1d1"
     showgrid="false"
     inkscape:zoom="0.53372183"
     inkscape:cx="221.08895"
     inkscape:cy="466.53516"
     inkscape:window-width="1440"
     inkscape:window-height="900"
     inkscape:window-x="0"
     inkscape:window-y="0"
     inkscape:window-maximized="0"
     inkscape:current-layer="svg2" /><metadata
     id="metadata8"><rdf:RDF><cc:Work
         rdf:about=""><dc:format>image/svg+xml</dc:format><dc:type
           rdf:resource="http://purl.org/dc/dcmitype/StillImage" /><dc:title /></cc:Work></rdf:RDF></metadata><defs
     id="defs6"><linearGradient
       inkscape:collect="always"
       id="linearGradient26592"><stop
         style="stop-color:#f5ee31;stop-opacity:1"
         offset="0"
         id="stop26588" /><stop
         style="stop-color:#f0dd2e;stop-opacity:1"
         offset="0.38092709"
         id="stop28191" /><stop
         style="stop-color:#eedb2e;stop-opacity:1;"
         offset="0.63806421"
         id="stop29582" /><stop
         style="stop-color:#ecd42d;stop-opacity:1"
         offset="1"
         id="stop26590" /></linearGradient><linearGradient
       inkscape:collect="always"
       id="linearGradient18083"><stop
         style="stop-color:#f5ee31;stop-opacity:1"
         offset="0"
         id="stop18079" /><stop
         style="stop-color:#f5ee31;stop-opacity:1"
         offset="0.29715875"
         id="stop18093" /><stop
         style="stop-color:#f5ee31;stop-opacity:1"
         offset="0.57910657"
         id="stop18091" /><stop
         style="stop-color:#f5ee31;stop-opacity:1"
         offset="0.73312169"
         id="stop18089" /><stop
         style="stop-color:#f4ea31;stop-opacity:1"
         offset="0.81559366"
         id="stop24374" /><stop
         style="stop-color:#ecd22c;stop-opacity:1"
         offset="0.89803743"
         id="stop18087" /><stop
         style="stop-color:#ebd02c;stop-opacity:1"
         offset="1"
         id="stop18081" /></linearGradient><linearGradient
       inkscape:collect="always"
       id="linearGradient10532"><stop
         style="stop-color:#ed2e24;stop-opacity:1"
         offset="0"
         id="stop10528" /><stop
         style="stop-color:#e52c24;stop-opacity:1"
         offset="0.52899748"
         id="stop10536" /><stop
         style="stop-color:#c12226;stop-opacity:1"
         offset="1"
         id="stop10530" /></linearGradient><linearGradient
       inkscape:collect="always"
       id="linearGradient7304"><stop
         style="stop-color:#d72404;stop-opacity:1"
         offset="0"
         id="stop7300" /><stop
         style="stop-color:#bd1f04;stop-opacity:1"
         offset="0.51401019"
         id="stop9856" /><stop
         style="stop-color:#a71a04;stop-opacity:1"
         offset="1"
         id="stop7302" /></linearGradient><clipPath
       clipPathUnits="userSpaceOnUse"
       id="clipPath3142"><path
         id="path3144"
         d="m 50.905,554.026 c -1.416,-0.601 -2.687,-1.462 -3.779,-2.559 v 0 c -1.093,-1.098 -1.95,-2.378 -2.55,-3.803 v 0 c -0.62,-1.477 -0.935,-3.046 -0.935,-4.667 v 0 c 0,-2.055 2.604,-3.646 6.418,-4.417 v 0 c 0.112,0.592 0.658,1.043 1.313,1.043 v 0 c 0.689,0 1.552,-0.498 2.625,-1.517 v 0 c 0.502,-0.024 1.015,-0.037 1.534,-0.037 v 0 c 6.572,0 11.89,1.991 11.89,4.928 v 0 c 0,1.621 -0.314,3.19 -0.935,4.667 v 0 c -0.599,1.425 -1.457,2.705 -2.55,3.803 v 0 c -1.092,1.097 -2.363,1.958 -3.779,2.559 v 0 c -1.464,0.622 -3.02,0.937 -4.626,0.937 v 0 c -1.606,0 -3.162,-0.315 -4.626,-0.937"
         style="stroke-width:1" /></clipPath><clipPath
       clipPathUnits="userSpaceOnUse"
       id="clipPath3148"><path
         id="path3150"
         d="m 50.516,554.943 c -1.534,-0.652 -2.912,-1.585 -4.096,-2.774 v 0 c -1.183,-1.19 -2.112,-2.576 -2.762,-4.119 v 0 c -0.671,-1.6 -1.012,-3.299 -1.012,-5.053 v 0 c 0,-2.036 0.479,-4.379 1.386,-6.78 v 0 c 0.852,-2.255 2.071,-4.546 3.524,-6.623 v 0 c 1.259,-1.799 2.62,-3.295 3.935,-4.325 v 0 c 1.438,-1.128 2.798,-1.699 4.04,-1.699 v 0 c 1.243,0 2.602,0.571 4.041,1.699 v 0 c 1.315,1.03 2.676,2.526 3.935,4.325 v 0 c 1.452,2.077 2.672,4.368 3.524,6.623 v 0 c 0.906,2.401 1.385,4.744 1.385,6.78 v 0 c 0,1.754 -0.34,3.453 -1.012,5.053 v 0 c -0.649,1.543 -1.579,2.929 -2.762,4.119 v 0 c -1.183,1.189 -2.561,2.122 -4.095,2.774 v 0 c -1.589,0.674 -3.276,1.016 -5.016,1.016 v 0 c -1.74,0 -3.427,-0.342 -5.015,-1.016"
         style="stroke-width:1" /></clipPath><linearGradient
       inkscape:collect="always"
       xlink:href="#linearGradient7304"
       id="linearGradient7306"
       x1="56.041882"
       y1="554.8764"
       x2="66.606247"
       y2="538.6449"
       gradientUnits="userSpaceOnUse" /><linearGradient
       inkscape:collect="always"
       xlink:href="#linearGradient10532"
       id="linearGradient10534"
       x1="254.37315"
       y1="22.522623"
       x2="282.19522"
       y2="323.26587"
       gradientUnits="userSpaceOnUse" /><linearGradient
       inkscape:collect="always"
       xlink:href="#linearGradient18083"
       id="linearGradient18085"
       x1="55.69207"
       y1="556.13574"
       x2="55.272293"
       y2="523.88269"
       gradientUnits="userSpaceOnUse" /><linearGradient
       inkscape:collect="always"
       xlink:href="#linearGradient26592"
       id="linearGradient26594"
       x1="87.440765"
       y1="464.36346"
       x2="246.42398"
       y2="612.7478"
       gradientUnits="userSpaceOnUse" /></defs><g
     id="g30845"
     style="stroke-width:1.00001"
     transform="translate(-3.94348e-5,-7.499856e-4)"><path
       d="m 250.00194,7.499856e-4 c 138.06726,0 250.00191,112.2746500144 250.00191,251.4581000144 0,82.75261 -39.65339,179.48038 -94.05844,257.21481 -46.41377,66.33464 -103.5457,116.66792 -155.94347,116.66792 -52.39776,0 -109.52969,-50.33328 -155.943466,-116.66792 C 39.653424,430.93923 3.94348e-5,334.21146 3.94348e-5,251.45885 3.94348e-5,112.2754 111.93469,7.499856e-4 250.00194,7.499856e-4"
       style="fill:#ed1c24;fill-opacity:1;fill-rule:nonzero;stroke:none;stroke-width:18.9367"
       id="path342" /><path
       d="M 0,0 H 596 V 596 H 0 Z"
       style="fill:url(#linearGradient18085);fill-opacity:1;stroke:none;stroke-width:1.00001"
       id="path352"
       transform="matrix(18.936669,0,0,-18.936524,-801.57401,10533.927)"
       clip-path="url(#clipPath3148)" /><path
       id="path10410"
       d="M 90.825987,91.068386 C 70.137674,111.85122 53.908949,136.08997 42.357581,163.56687 c -11.551368,27.4769 -17.516419,57.1883 -17.516419,87.88441 v 0 c 0,38.91455 49.311086,69.04256 121.535538,83.64262 v 0 c 2.12091,-11.21042 12.46033,-19.75079 24.86385,-19.75079 v 0 c 13.04736,0 29.38971,9.43039 49.70876,28.72671 v 0 c 9.5062,0.45447 19.22072,0.70065 29.04885,0.70065 v 0 c 124.45178,0 225.15699,-37.70262 225.15699,-93.31919 v 0 c 0,-30.69611 -5.94611,-60.40751 -17.49748,-87.88441 C 446.1063,136.08997 429.85864,111.85122 409.17033,91.068386 388.48202,70.285552 364.41351,53.981205 337.1447,42.401521 309.8759,30.821836 280.41045,24.856831 249.99816,24.856831 v 0 c -30.41229,0 -59.87775,5.965005 -87.60103,17.743523 C 135.5828,53.981205 111.5143,70.285552 90.825987,91.068386 Z"
       style="fill:url(#linearGradient10534);fill-opacity:1;stroke-width:1.00001"
       sodipodi:nodetypes="ccssssssssssssccssscc" /><path
       id="path2262"
       style="fill:#de4627;fill-opacity:1;stroke:none;stroke-width:0.200002;stroke-dasharray:none"
       d="m 182.38672,35.238281 c -6.75147,2.135543 -13.42368,4.571461 -19.99024,7.361328 -26.8143,11.38084 -50.88202,27.685937 -71.570308,48.46875 -20.688292,20.782811 -36.917394,45.021171 -48.46875,72.498051 -11.551357,27.47687 -17.515625,57.18868 -17.515625,87.88476 0,23.56168 18.161793,43.8691 48.457031,59.49219 C 61.696411,153.71154 118.14478,90.651711 182.38672,35.238281 Z" /><path
       style="fill:url(#linearGradient26594);fill-opacity:1;stroke:none;stroke-width:0.200002;stroke-dasharray:none"
       d="m 102.64346,458.91298 c 10.11896,33.51788 31.23748,58.08861 50.82268,84.15014 21.96956,29.23435 61.22373,53.7397 95.93449,67.6974 -50.62507,0.3342 -115.09737,-53.16112 -168.940498,-143.50224 z"
       id="path2289"
       sodipodi:nodetypes="csccc" /><path
       id="path3903"
       clip-path="url(#clipPath3142)"
       style="fill:url(#linearGradient7306);fill-opacity:1;stroke:none;stroke-width:1.00002"
       d="m 57.257246,554.87571 c 7.674179,-3.53244 8.123922,-9.51094 7.264242,-14.98066 -0.701147,-4.46103 -2.783026,-11.80146 -8.98709,-15.87241 3.049793,-0.0201 7.051315,3.65915 10.085426,9.70635 1.594423,3.1778 2.62725,6.82033 2.238238,10.37121 -0.195108,1.78091 -0.674912,3.48189 -1.794221,5.26656 -1.454885,2.31973 -3.996614,4.76188 -8.806595,5.50895 z"
       transform="matrix(18.936669,0,0,-18.936524,-801.57401,10533.927)" /><path
       id="path2264"
       style="opacity:1;fill:#e0be05;fill-opacity:1;stroke:none;stroke-width:1.00001;stroke-dasharray:none"
       d="m 282.6875,27.210938 c 0.0181,0.0083 0.0346,0.01706 0.0527,0.02539 0.0934,0.0136 0.18792,0.02144 0.28125,0.03516 -0.11451,-0.01791 -0.21933,-0.04274 -0.33398,-0.06055 z m 14.22266,2.583984 c 13.89683,2.955766 27.49602,7.199325 40.68945,12.804687 26.81429,11.38084 50.88173,27.685639 71.56055,48.458985 20.69776,20.792276 36.946,45.031106 48.28906,72.015626 11.75966,27.96922 17.70508,57.68087 17.70508,88.37695 0,25.37884 -21.0141,47.00862 -55.64063,63.04688 -13.9154,84.81863 -53.88923,220.4334 -169.45117,296.26172 57.75292,0.38125 133.52841,-69.29174 190.98438,-183.80469 30.19306,-60.17644 49.75135,-129.15323 42.38476,-196.39453 -3.6947,-33.72422 -12.78058,-65.93497 -33.97656,-99.73047 C 423.38133,89.257391 378.8147,46.279673 296.91016,29.794922 Z" /><path
       style="fill:#ef4b26;fill-opacity:1;stroke:none;stroke-width:0.200002;stroke-dasharray:none"
       d="m 35.601602,237.64679 c -0.86744,16.83092 4.59618,42.67477 29.14691,34.11514 31.70097,-11.05255 62.551858,-32.01024 87.689068,-53.77622 29.36204,-25.42421 55.01322,-49.44496 75.17889,-75.49861 19.11938,-24.70186 34.96877,-45.104316 43.97584,-74.588018 9.67438,-31.668087 -15.2451,-35.965648 -42.89235,-33.452718 -58.63445,5.329438 -100.18235,26.30235 -142.004988,72.642476 -25.93735,28.73898 -48.3954,78.20898 -51.09337,130.55795 z"
       id="path667"
       sodipodi:nodetypes="ssssssss" /><path
       id="path15817"
       style="fill:#ec6228;fill-opacity:1;stroke:none;stroke-width:0.200002;stroke-dasharray:none"
       d="m 168.05078,47.958984 c -29.7434,11.555793 -55.50284,30.483803 -81.355468,59.128906 -25.937324,28.73895 -48.395782,78.20968 -51.09375,130.55859 -0.867439,16.83091 4.595779,42.67486 29.146485,34.11524 2.350098,-0.81936 4.69443,-1.70829 7.033203,-2.63281 0.522371,-116.60302 44.15086,-173.761511 96.26953,-221.169926 z" /></g><g
     id="g18013"
     style="stroke-width:1.00001"
     transform="translate(-3.94348e-5,-7.499856e-4)"><g
       id="g3155"
       style="fill:#ed1c24;fill-opacity:1;stroke-width:1.00001"><path
         id="path368"
         style="fill:#ed1c24;fill-opacity:1;fill-rule:nonzero;stroke:none;stroke-width:18.9367"
         d="m 304.33314,374.11261 c 0.0757,1.70429 -0.0947,3.23815 -0.53023,4.60158 -0.43554,1.36343 -1.07939,2.53749 -1.96941,3.52219 -0.87109,0.96576 -1.96941,1.72322 -3.27604,2.27238 -1.32557,0.53023 -2.82157,0.85215 -4.50693,0.92789 -1.55281,0.0758 -2.97306,-0.0757 -4.27969,-0.45447 -1.28769,-0.39767 -2.42389,-1.00364 -3.37072,-1.83685 -0.96578,-0.8332 -1.72324,-1.89365 -2.27241,-3.18133 -0.5681,-1.28769 -0.89002,-2.80261 -0.96577,-4.52583 l -0.85215,-17.45948 c -0.0189,-0.11362 0.0189,-0.2083 0.0757,-0.30298 0.0379,-0.0757 0.15149,-0.17043 0.28405,-0.2083 0.15149,-0.0757 0.32192,-0.11362 0.5681,-0.17043 0.22724,-0.0379 0.53023,-0.0758 0.90896,-0.0947 0.34086,-0.0189 0.64385,-0.0189 0.89002,0 0.24618,0.0379 0.43555,0.0757 0.58704,0.11361 0.13256,0.0379 0.22724,0.11362 0.30299,0.18937 0.0568,0.0947 0.0947,0.18937 0.0947,0.30298 l 0.83322,16.98607 c 0.0568,1.30662 0.28405,2.44281 0.64384,3.38963 0.3598,0.94683 0.87109,1.74216 1.496,2.34813 0.64385,0.62491 1.38238,1.07939 2.25346,1.36343 0.85215,0.28405 1.81792,0.39767 2.87838,0.34086 1.07939,-0.0568 2.04516,-0.26511 2.87837,-0.6249 0.83321,-0.3598 1.53387,-0.87108 2.08303,-1.53386 0.54917,-0.66278 0.96577,-1.47705 1.23089,-2.44281 0.26511,-0.94683 0.35979,-2.06409 0.30298,-3.3139 l -0.85215,-17.19436 c 0,-0.11362 0.0189,-0.2083 0.0757,-0.30298 0.0568,-0.0947 0.15149,-0.17043 0.30299,-0.22724 0.13255,-0.0568 0.32192,-0.11362 0.5681,-0.1515 0.22724,-0.0568 0.53022,-0.0757 0.89002,-0.0947 0.3598,-0.0189 0.64385,-0.0189 0.89002,0 0.22724,0.0189 0.43555,0.0568 0.5681,0.11362 0.13256,0.0379 0.24618,0.0947 0.30299,0.18937 0.0758,0.0757 0.11362,0.17043 0.11362,0.30298 z" /><path
         id="path370"
         style="fill:#ed1c24;fill-opacity:1;fill-rule:nonzero;stroke:none;stroke-width:18.9367"
         d="m 327.41694,374.52164 c 0.13256,1.30662 0,2.49962 -0.39767,3.579 -0.37873,1.07939 -0.96577,2.00728 -1.76111,2.80261 -0.79534,0.79533 -1.74217,1.42024 -2.87837,1.89365 -1.11727,0.47341 -2.36709,0.7764 -3.71159,0.90895 -0.9279,0.0947 -1.79898,0.0947 -2.6322,0 -0.81427,-0.0757 -1.53387,-0.2083 -2.19665,-0.37873 -0.64385,-0.17042 -1.19301,-0.35979 -1.64749,-0.56809 -0.45448,-0.18937 -0.75747,-0.37873 -0.94684,-0.53022 -0.18936,-0.17043 -0.32192,-0.37873 -0.43554,-0.62491 -0.0947,-0.26511 -0.17043,-0.6249 -0.2083,-1.06044 -0.0379,-0.32193 -0.0379,-0.58704 -0.0379,-0.79534 0.0189,-0.2083 0.0379,-0.39767 0.0757,-0.53022 0.0568,-0.13256 0.11362,-0.22724 0.18937,-0.28405 0.0947,-0.0568 0.18936,-0.0947 0.30298,-0.11362 0.20831,-0.0189 0.49236,0.0758 0.89003,0.28405 0.39767,0.22724 0.89002,0.43554 1.496,0.68171 0.60597,0.22724 1.32556,0.43554 2.15878,0.60597 0.85215,0.17043 1.79898,0.2083 2.87837,0.11362 0.79534,-0.0757 1.53387,-0.26511 2.17772,-0.54916 0.64384,-0.26511 1.19301,-0.6249 1.64749,-1.07938 0.43554,-0.43554 0.7764,-0.96576 0.9847,-1.57173 0.18937,-0.58703 0.26512,-1.26875 0.18937,-2.00727 -0.0757,-0.79534 -0.32192,-1.43918 -0.73853,-1.9694 -0.41661,-0.53022 -0.9279,-0.9847 -1.57174,-1.36343 -0.62491,-0.35979 -1.34451,-0.68171 -2.12091,-0.96576 -0.79534,-0.28405 -1.60962,-0.5681 -2.44283,-0.87108 -0.83321,-0.28405 -1.62855,-0.62491 -2.42389,-1.00364 -0.79534,-0.35979 -1.51494,-0.83321 -2.17772,-1.38236 -0.64385,-0.54916 -1.19301,-1.21194 -1.62856,-1.98834 -0.45448,-0.79533 -0.73853,-1.74216 -0.83321,-2.89729 -0.11362,-1.15513 0,-2.21557 0.34086,-3.18133 0.32192,-0.96577 0.85215,-1.78004 1.55281,-2.48069 0.70065,-0.68171 1.55281,-1.24981 2.57539,-1.66641 1.00364,-0.43554 2.1209,-0.70065 3.33285,-0.81427 0.62491,-0.0568 1.24982,-0.0568 1.89367,-0.0189 0.64384,0.0568 1.24982,0.13256 1.81792,0.26511 0.5681,0.13256 1.07939,0.28405 1.53387,0.47341 0.45448,0.17043 0.75746,0.32193 0.90896,0.45448 0.15149,0.11362 0.24617,0.22724 0.30298,0.30299 0.0568,0.0757 0.0947,0.17042 0.13256,0.28404 0.0379,0.13256 0.0758,0.26511 0.11362,0.43554 0.0379,0.17043 0.0568,0.39767 0.0947,0.68172 0.0189,0.24617 0.0189,0.49235 0.0189,0.68171 0,0.2083 -0.0189,0.37873 -0.0379,0.53023 -0.0379,0.13255 -0.0947,0.24617 -0.1515,0.32192 -0.0757,0.0568 -0.17043,0.11362 -0.26511,0.11362 -0.17043,0.0189 -0.41661,-0.0568 -0.7764,-0.22724 -0.3598,-0.17043 -0.79534,-0.3598 -1.30663,-0.5681 -0.53023,-0.2083 -1.11727,-0.37873 -1.81792,-0.53022 -0.70066,-0.13256 -1.45813,-0.17043 -2.29134,-0.0947 -0.7764,0.0757 -1.45812,0.24617 -2.00729,0.51128 -0.5681,0.26511 -1.00364,0.58703 -1.3445,0.96577 -0.34086,0.37873 -0.58704,0.8332 -0.73853,1.32555 -0.13256,0.49235 -0.18937,1.00364 -0.13256,1.53386 0.0758,0.7764 0.32193,1.43918 0.73853,1.9694 0.41661,0.53022 0.94684,0.9847 1.57175,1.36343 0.64384,0.35979 1.36344,0.70065 2.15878,0.9847 0.81427,0.28405 1.62855,0.58703 2.46176,0.87108 0.81428,0.28405 1.62856,0.6249 2.44283,0.9847 0.81428,0.37873 1.53387,0.8332 2.19666,1.36343 0.66278,0.54916 1.21194,1.21193 1.64749,1.98833 0.45448,0.7764 0.71959,1.72323 0.83321,2.84048" /><path
         id="path372"
         style="fill:#ed1c24;fill-opacity:1;fill-rule:nonzero;stroke:none;stroke-width:18.9367"
         d="m 351.72026,364.84886 c -0.22724,-1.57173 -0.58704,-3.02984 -1.06045,-4.33646 -0.49236,-1.32556 -1.1362,-2.42387 -1.93154,-3.33283 -0.79534,-0.89001 -1.78005,-1.55279 -2.95412,-1.95046 -1.17408,-0.39767 -2.55645,-0.47341 -4.16607,-0.22724 -1.60962,0.22724 -2.89731,0.71959 -3.90095,1.49599 -1.00365,0.75746 -1.76111,1.68535 -2.31028,2.8026 -0.53022,1.09832 -0.83321,2.34813 -0.92789,3.7305 -0.0947,1.38236 -0.0379,2.82154 0.17043,4.29859 0.24617,1.62854 0.60597,3.12453 1.07939,4.45008 0.47341,1.3445 1.11726,2.46175 1.9126,3.3707 0.7764,0.89002 1.76111,1.53386 2.93518,1.93153 1.15514,0.39767 2.55645,0.47341 4.18501,0.22724 1.62855,-0.24618 2.93518,-0.73853 3.95776,-1.49599 1.00364,-0.7764 1.78005,-1.72322 2.29134,-2.84048 0.53022,-1.13619 0.83321,-2.386 0.92789,-3.7873 0.0757,-1.38237 0.0189,-2.84048 -0.2083,-4.33647 m 3.88202,-0.8332 c 0.32192,2.25344 0.35979,4.31752 0.0947,6.21118 -0.26511,1.87471 -0.83321,3.54113 -1.68536,4.96137 -0.87109,1.42024 -2.04516,2.5943 -3.54116,3.50325 -1.496,0.92789 -3.29498,1.53386 -5.43482,1.85578 -2.08304,0.30299 -3.93883,0.26511 -5.56738,-0.13255 -1.60962,-0.39767 -3.01093,-1.11726 -4.18501,-2.15877 -1.17407,-1.04151 -2.13984,-2.42387 -2.87837,-4.10922 -0.75747,-1.70429 -1.28769,-3.69262 -1.62855,-5.98394 -0.32193,-2.19664 -0.3598,-4.22285 -0.0947,-6.09756 0.26512,-1.87472 0.83322,-3.5222 1.7043,-4.9235 0.89003,-1.42024 2.0641,-2.57537 3.5601,-3.50326 1.49599,-0.90895 3.29498,-1.53386 5.41588,-1.83684 2.0641,-0.30299 3.90096,-0.26511 5.51057,0.13255 1.60962,0.39767 3.01093,1.09832 4.18501,2.13983 1.19301,1.02257 2.15878,2.386 2.91624,4.05242 0.75747,1.66641 1.2877,3.63581 1.62856,5.88926" /></g><g
       id="g5248"
       style="stroke-width:1.00001"><path
         d="m 161.39348,348.11655 c 0,-6.26799 4.1282,-11.34298 9.20322,-11.34298 24.20107,0 87.71465,65.38782 96.97469,75.04545 -2.55646,1.00363 -4.6963,2.27238 -6.53316,3.63581 -9.22215,-6.98758 -47.5121,-34.36979 -85.99141,-38.19497 -5.4727,-6.38161 -13.65334,-17.85714 -13.65334,-29.14331 m 159.71187,70.46281 c 9.2979,0 15.28189,26.28389 15.28189,26.28389 -12.7065,-1.9694 -22.98912,-11.41872 -22.98912,-17.85714 0,-4.63945 3.44648,-8.42675 7.70723,-8.42675 M 120.47134,391.59481 c 0,0 18.87986,-6.41948 42.20984,-6.41948 54.46186,0 91.42623,25.96197 97.77002,30.73398 -2.61326,2.06408 -4.58268,4.33646 -6.21123,6.30586 -1.98835,2.40494 -3.48435,4.69626 -4.67736,6.93077 -4.05244,1.53386 -11.32413,3.56006 -21.36056,3.56006 -28.53756,0 -53.13629,-14.58112 -53.13629,-14.58112 0,0 20.01606,21.89062 47.90977,21.89062 10.09324,0 19.03135,-3.61687 24.54192,-6.47629 -3.44647,8.5025 -4.07138,15.86881 -14.25931,23.1215 12.91481,-2.42388 24.65554,-15.64157 29.37077,-21.85275 5.87037,-7.68823 7.19594,-13.02833 10.90753,-16.19073 3.08667,-2.61324 7.65041,-3.86305 17.53535,-3.86305 7.72616,0 14.42974,1.11725 17.68685,1.78003 -0.49235,1.02258 -0.7764,2.1777 -0.7764,3.48432 0,15.94456 17.66791,26.58688 33.40428,29.16225 0,0 -5.4727,-19.71292 -6.79826,-25.82942 -1.72324,-7.91547 -4.29863,-12.47917 -14.05101,-12.47917 -5.16971,0 -9.60089,1.81791 -11.53243,5.16967 -4.24182,-2.0262 -15.18721,-6.5331 -28.02627,-6.5331 -4.84779,0 -8.82449,0.71959 -12.15734,1.85578 -12.17628,-16.51265 -66.86538,-88.30101 -97.58066,-88.30101 -9.69557,0 -17.55429,7.27163 -17.55429,16.26647 0,13.16089 12.11947,29.48417 19.05029,37.7405 -2.13985,-0.17043 -4.27969,-0.24618 -6.41953,-0.24618 -28.06415,0 -45.84568,14.77049 -45.84568,14.77049"
         style="fill:#000000;fill-opacity:1;fill-rule:nonzero;stroke:none;stroke-width:18.9367"
         id="path452" /><path
         d="m 235.14802,469.99581 c 0.62491,0.13255 1.23088,0.26511 1.83686,0.37873 h -0.0568 c 0,0 -8.27533,14.97879 -9.84707,14.97879 -0.64385,0 1.40131,-4.07135 0.24618,-7.80185 4.31756,-4.1471 7.12018,-8.95698 7.53679,-15.05454 l -1.496,0.45448 c -7.78297,14.80836 -17.53535,14.88411 -32.79831,21.03848 -16.66427,6.70353 -38.87698,20.3757 -42.1909,41.92546 -1.62855,-5.30222 -2.76475,-11.21042 -2.76475,-17.36479 0,-30.4878 29.40865,-51.41266 55.0489,-51.41266 13.14205,0 23.38678,4.46902 23.38678,4.46902 l 0.37874,-0.39767 c 0,0 -9.63877,-16.49371 -31.47275,-16.49371 -29.84419,0 -53.98844,28.74564 -53.98844,64.27056 0,21.54976 10.92646,35.77109 20.84927,39.91819 0,0 -4.80991,-6.30586 -8.84342,-15.8688 1.11726,-21.9285 23.15954,-31.22633 41.11151,-40.14544 1.96941,-0.96576 3.91989,-1.93152 5.83249,-2.89728 -3.18136,7.00651 -9.0896,22.04211 -13.17992,44.40615 8.95704,-25.99985 16.70214,-41.7361 20.07287,-48.04197 1.89366,-1.07938 3.73052,-2.15876 5.45376,-3.29495 0.41661,6.23012 1.66643,10.64233 4.88566,10.64233 7.9534,0 16.00148,-18.80397 17.47854,-22.40191 1.26876,0.15149 2.49964,0.28405 3.73053,0.37873 -4.29863,16.55052 -2.59433,24.163 0.2083,24.163 5.28333,0 16.72108,-14.71368 16.72108,-11.00212 0,2.42388 -6.57102,22.70489 -6.57102,47.41706 0,20.52719 4.56373,33.27147 12.99055,37.11559 0,0 -9.99856,-16.28542 -9.99856,-36.396 0,-25.14771 12.1384,-36.71792 12.1384,-49.55689 0,-3.23814 -2.04516,-5.85138 -4.56373,-5.85138 -7.57467,0 -12.858,6.70353 -16.56959,6.70353 -2.38602,0 -1.32556,-7.46099 1.32557,-12.42236 19.82669,-0.26511 32.89299,-9.67657 35.9418,-18.84184 l -0.5681,-0.5681 c -4.5448,6.30586 -21.13333,17.55416 -52.26521,17.55416"
         style="fill:#000000;fill-opacity:1;fill-rule:nonzero;stroke:none;stroke-width:18.9367"
         id="path454" /><path
         d="m 319.36317,464.21259 c -7.17699,0 -15.11146,3.86305 -18.52006,3.86305 -3.65477,0 -4.71523,-2.57536 0.0947,-16.49371 0,0 -10.81284,16.5884 -10.81284,22.38297 0,1.42024 1.09832,2.55643 2.46176,2.55643 5.15078,0 10.54773,-7.49886 23.55722,-7.49886 7.29062,0 13.17992,3.54113 13.17992,3.54113 0.53023,-6.85502 -4.45011,-8.35101 -9.96069,-8.35101"
         style="fill:#000000;fill-opacity:1;fill-rule:nonzero;stroke:none;stroke-width:18.9367"
         id="path456" /><path
         d="m 319.5336,553.48505 c -21.28481,0 -39.14209,-17.27011 -39.88062,-38.55476 -0.73853,-21.30359 15.9068,-38.55477 37.19162,-38.55477 21.28481,0 39.14209,17.25118 39.88062,38.55477 0.73853,21.28465 -15.9068,38.55476 -37.19162,38.55476 m 2.31028,-79.70383 c -23.02699,0 -43.3271,18.42524 -45.35332,41.14907 -2.00729,22.72382 15.01677,41.14906 38.04376,41.14906 23.02699,0 43.3271,-18.42524 45.35333,-41.14906 2.00728,-22.72383 -15.01678,-41.14907 -38.04377,-41.14907"
         style="fill:#000000;fill-opacity:1;fill-rule:nonzero;stroke:none;stroke-width:18.9367"
         id="path458" /><path
         d="m 329.01709,515.21055 c -1.04152,3.48432 -1.68536,6.89289 -3.54116,10.09316 -1.76111,3.04878 -5.92718,1.95047 -8.95704,1.93153 -1.68537,-0.0189 -3.38967,0.0757 -5.03716,-0.3598 -0.7764,-0.2083 -1.60961,-0.54915 -2.06409,-1.23087 -0.32193,-0.39767 -2.02623,-5.43478 -2.2724,-6.13543 -0.39767,-1.13619 -0.98471,-2.84048 -1.11727,-4.01455 -0.4166,-3.90092 0.68172,-6.3248 3.37073,-9.16527 1.79898,-1.91259 4.69629,-4.77201 7.44211,-4.86669 3.18136,-0.11362 7.82084,3.12453 10.13112,5.11286 3.21923,2.82154 3.21923,4.67732 2.04516,8.63506 m 19.6752,-8.46463 c -0.83322,-1.62854 -1.2877,-3.44645 -1.45813,-5.24542 -0.0947,-1.07938 -0.70065,-7.25269 -0.60597,-8.72974 0,0.0189 0,0.0189 -0.0189,0.0379 -0.4166,2.31025 -0.85215,9.84699 -2.46176,11.34298 -1.2877,1.21193 -3.95777,1.89365 -5.62419,2.1777 -2.51858,0.43554 -5.07503,1.36343 -7.61254,0.4166 -2.38602,-0.90895 -4.18501,-3.31389 -5.98399,-4.98031 -3.08668,-2.84047 -5.45376,-5.37797 -5.79462,-9.80912 -0.17043,-2.15876 -0.37874,-4.5637 0.71959,-6.51416 1.02258,-1.81791 6.53315,-2.80261 8.23745,-4.33646 -2.8405,0.47341 -6.89295,2.42387 -9.84707,2.08301 -2.97305,-0.32192 -8.97598,-2.49962 -12.00584,-2.31025 3.50328,1.07938 7.83978,2.00727 9.27896,4.12816 1.24982,1.81791 0.96577,5.45372 1.04152,7.59355 0.17043,5.35903 -4.31756,8.29419 -8.29426,11.21042 -1.68536,1.23087 -3.38966,2.91622 -5.34014,3.9956 -2.72688,1.53386 -4.96141,-0.51128 -7.46105,-1.13619 -1.43919,-0.37873 -2.59432,-0.90895 -3.7684,-1.85578 -1.64749,-1.32555 -1.45812,-2.06408 -1.83685,-3.95773 -0.17043,-0.87108 -0.0947,-6.26799 -0.9279,-6.76034 -0.85215,2.32919 -0.43554,6.93077 -0.94683,9.35464 -0.5681,2.70793 -3.4086,7.85866 -4.73417,10.28254 0.71959,0.26511 3.82521,-4.46902 4.20394,-4.84775 2.17772,-2.12089 4.01457,-1.45812 6.57102,-0.53023 2.67007,0.96577 4.45012,2.25345 6.77933,3.82518 1.34451,1.95046 1.78005,4.43115 2.53752,6.58991 0.89002,2.57537 2.15878,5.11286 2.25346,7.8776 0.0947,2.68898 -1.79898,3.90092 -2.4807,6.21118 -0.43555,1.51492 -2.21559,3.29495 -3.65478,3.88198 -2.82157,1.193 -5.81356,-0.37873 -8.71087,0.11362 2.89731,1.81791 7.08231,1.53386 9.33578,4.29859 1.51493,1.85578 3.52222,5.62415 6.15442,6.6846 -0.0947,-2.06408 -2.15878,-3.88199 -2.8405,-5.71883 -1.00365,-2.80261 -1.30663,-4.20391 0.71959,-6.66566 1.30663,-1.57173 2.4807,-3.44645 4.20394,-4.54477 2.32921,-1.47704 5.54844,-1.38236 8.21851,-1.4013 2.80263,-0.0189 5.81356,-0.13255 8.5215,0.75746 2.49965,0.83321 3.63585,2.82154 5.34015,4.62051 1.28769,1.36343 2.99199,3.74944 2.32921,5.52947 -0.75747,1.98833 -3.50329,5.68096 -3.99564,8.01015 1.45812,0 5.15077,-6.23012 5.90824,-6.98758 2.59432,-2.65111 5.4727,-2.31025 8.61618,-4.3554 -0.71959,-0.37873 -2.87837,0.45448 -3.71158,0.54916 -1.32557,0.11362 -2.74582,0.2083 -4.03351,-0.18937 -1.98835,-0.60596 -2.74582,-2.97303 -3.7684,-4.63944 -0.96577,-1.59067 -2.74582,-4.80988 -2.23453,-6.79822 0.73853,-2.89728 1.57175,-5.7567 2.55645,-8.57824 0.75747,-2.1777 1.62856,-5.73777 3.67372,-7.02545 2.21559,-1.38237 4.80991,-2.89729 7.3853,-3.46539 2.40495,-0.53022 3.90095,0.90896 5.22652,2.72686 0.47341,0.64385 0.66278,0.9847 1.23088,1.59067 0.5681,0.58703 1.78005,2.36707 2.49964,2.61324 0.87109,-1.62854 -2.82156,-5.87032 -3.38966,-7.12013"
         style="fill:#000000;fill-opacity:1;fill-rule:nonzero;stroke:none;stroke-width:18.9367"
         id="path478" /></g><g
       id="g17976"
       style="stroke-width:1.00001"><g
         id="g16328"
         style="fill:#f5ee31;fill-opacity:1;stroke-width:1.00001"><path
           id="path388"
           style="fill:#f5ee31;fill-opacity:1;fill-rule:nonzero;stroke:none;stroke-width:18.9367"
           d="m 145.55485,238.79789 c 0,0.3598 -0.0189,0.66278 -0.0568,0.89002 -0.0379,0.24617 -0.0947,0.45448 -0.17043,0.6249 -0.0757,0.17043 -0.17043,0.28405 -0.30298,0.37873 -0.11362,0.0757 -0.24618,0.11362 -0.41661,0.11362 H 129.3072 c -0.41661,0 -0.79534,-0.13255 -1.17407,-0.4166 -0.3598,-0.26511 -0.54917,-0.75746 -0.54917,-1.45811 v -32.07847 c 0,-0.13256 0.0379,-0.26512 0.11362,-0.37873 0.0757,-0.0947 0.18937,-0.18937 0.37874,-0.24618 0.17043,-0.0568 0.4166,-0.11362 0.71959,-0.15149 0.30299,-0.0568 0.66278,-0.0757 1.09833,-0.0757 0.43554,0 0.81427,0.0189 1.11726,0.0757 0.28405,0.0379 0.53023,0.0947 0.70066,0.15149 0.17043,0.0568 0.30298,0.15149 0.37873,0.24618 0.0568,0.11361 0.0947,0.24617 0.0947,0.37873 v 29.95758 h 12.42246 c 0.17043,0 0.30299,0.0568 0.41661,0.13255 0.13255,0.0757 0.22724,0.18937 0.30298,0.34086 0.0757,0.15149 0.13256,0.35979 0.17043,0.60597 0.0379,0.24617 0.0568,0.54916 0.0568,0.90895" /><path
           id="path390"
           style="fill:#f5ee31;fill-opacity:1;fill-rule:nonzero;stroke:none;stroke-width:18.9367"
           d="m 192.50643,223.4025 c 0,-1.9694 -0.17043,-3.78731 -0.53023,-5.47266 -0.34086,-1.68535 -0.90896,-3.1624 -1.72323,-4.39327 -0.81428,-1.23087 -1.89367,-2.21557 -3.25711,-2.89729 -1.34451,-0.70065 -3.02987,-1.06044 -5.01822,-1.06044 -2.00729,0 -3.67371,0.37873 -5.03715,1.13619 -1.34451,0.73852 -2.46177,1.74216 -3.29498,2.99197 -0.85215,1.24981 -1.45813,2.70792 -1.81792,4.37433 -0.37874,1.66642 -0.54917,3.42752 -0.54917,5.26436 0,2.04514 0.17043,3.91986 0.51129,5.62415 0.32193,1.72322 0.90896,3.20027 1.7043,4.43114 0.79534,1.24981 1.87473,2.21558 3.21924,2.89729 1.3445,0.68172 3.02986,1.02257 5.07502,1.02257 2.00729,0 3.69265,-0.37873 5.07503,-1.11725 1.36344,-0.75746 2.48071,-1.7611 3.31392,-3.04878 0.83321,-1.26875 1.43919,-2.7458 1.79898,-4.43115 0.3598,-1.66641 0.53023,-3.44645 0.53023,-5.32116 m 4.86672,-0.32192 c 0,2.8026 -0.32192,5.32116 -0.9847,7.57461 -0.66279,2.25344 -1.64749,4.16603 -2.95412,5.7567 -1.30663,1.57173 -2.95412,2.78367 -4.94247,3.63581 -1.98835,0.85215 -4.29863,1.26875 -6.93083,1.26875 -2.61326,0 -4.86672,-0.39767 -6.76039,-1.17406 -1.9126,-0.7764 -3.48434,-1.89366 -4.71523,-3.37071 -1.24982,-1.49598 -2.15878,-3.33282 -2.76475,-5.52946 -0.62491,-2.19664 -0.9279,-4.7152 -0.9279,-7.57461 0,-2.72686 0.34086,-5.20754 1.00365,-7.44205 0.66278,-2.23451 1.64749,-4.12817 2.97305,-5.68096 1.30663,-1.57173 2.97306,-2.76473 4.94247,-3.61688 1.98835,-0.85214 4.29863,-1.26874 6.93082,-1.26874 2.55645,0 4.79098,0.37873 6.66571,1.13619 1.91261,0.77639 3.48435,1.89365 4.73417,3.3707 1.24982,1.47705 2.19665,3.29495 2.82156,5.45372 0.60598,2.1777 0.90896,4.65838 0.90896,7.46099" /><path
           id="path392"
           style="fill:#f5ee31;fill-opacity:1;fill-rule:nonzero;stroke:none;stroke-width:18.9367"
           d="m 228.18501,240.11019 c 0,0.1515 -0.0379,0.26511 -0.11362,0.37873 -0.0568,0.0947 -0.18937,0.18937 -0.3598,0.24618 -0.18937,0.0568 -0.41661,0.11362 -0.71959,0.17043 -0.28405,0.0379 -0.66279,0.0568 -1.11727,0.0568 -0.4166,0 -0.7764,-0.0189 -1.07939,-0.0568 -0.32192,-0.0568 -0.54916,-0.11362 -0.73853,-0.17043 -0.17043,-0.0568 -0.30298,-0.15149 -0.37873,-0.24618 -0.0568,-0.11362 -0.0947,-0.22723 -0.0947,-0.37873 v -33.25253 c 0,-0.15149 0.0379,-0.26511 0.11362,-0.37873 0.0757,-0.11362 0.2083,-0.18937 0.39767,-0.24618 0.18936,-0.0757 0.43554,-0.11362 0.71959,-0.17043 0.30299,-0.0379 0.66278,-0.0568 1.06045,-0.0568 0.45448,0 0.83322,0.0189 1.11727,0.0568 0.30298,0.0568 0.53022,0.0947 0.71959,0.17043 0.17043,0.0568 0.30299,0.13256 0.3598,0.24618 0.0757,0.11362 0.11362,0.22724 0.11362,0.37873 z" /><path
           id="path394"
           style="fill:#f5ee31;fill-opacity:1;fill-rule:nonzero;stroke:none;stroke-width:18.9367"
           d="m 272.48545,215.77108 c 0,-1.36343 -0.30299,-2.49962 -0.90896,-3.44645 -0.60597,-0.92789 -1.62855,-1.6096 -3.0488,-2.00727 -0.45448,-0.13256 -0.94684,-0.22724 -1.51494,-0.26511 -0.5681,-0.0568 -1.30663,-0.0947 -2.21559,-0.0947 h -3.88201 v 11.68383 h 4.50692 c 1.21195,0 2.25347,-0.15149 3.14349,-0.45448 0.89002,-0.28404 1.60962,-0.70065 2.21559,-1.23087 0.58704,-0.51129 1.02258,-1.13619 1.28769,-1.85578 0.28405,-0.71959 0.41661,-1.49598 0.41661,-2.32919 m 6.93082,24.33343 c 0,0.15149 -0.0189,0.26511 -0.0757,0.37873 -0.0568,0.11362 -0.17043,0.18937 -0.34086,0.26511 -0.18936,0.0757 -0.43554,0.13256 -0.75746,0.17043 -0.32193,0.0379 -0.73853,0.0568 -1.2877,0.0568 -0.45448,0 -0.83321,-0.0189 -1.1362,-0.0568 -0.30298,-0.0379 -0.53022,-0.0947 -0.70065,-0.18936 -0.18937,-0.0757 -0.32193,-0.18937 -0.41661,-0.32192 -0.11362,-0.1515 -0.18937,-0.32192 -0.26511,-0.53023 l -3.18136,-8.18057 c -0.37874,-0.92789 -0.75747,-1.78004 -1.15514,-2.55644 -0.41661,-0.77639 -0.89002,-1.43917 -1.43919,-2.00727 -0.54916,-0.56809 -1.21194,-1.00363 -1.95047,-1.30662 -0.75747,-0.30298 -1.66643,-0.47341 -2.70795,-0.47341 h -3.08667 v 14.75155 c 0,0.15149 -0.0379,0.26511 -0.11362,0.37873 -0.0758,0.11362 -0.20831,0.18937 -0.37874,0.24618 -0.17043,0.0757 -0.39767,0.13255 -0.70065,0.17043 -0.28405,0.0379 -0.66279,0.0757 -1.09833,0.0757 -0.45448,0 -0.83321,-0.0379 -1.11726,-0.0757 -0.30299,-0.0379 -0.53023,-0.0947 -0.7196,-0.17043 -0.17043,-0.0568 -0.30298,-0.13256 -0.35979,-0.24618 -0.0758,-0.11362 -0.11362,-0.22724 -0.11362,-0.37873 v -32.07847 c 0,-0.68171 0.18936,-1.17406 0.54916,-1.45811 0.3598,-0.26511 0.75747,-0.41661 1.15514,-0.41661 h 7.36636 c 0.89002,0 1.60962,0.0379 2.19665,0.0757 0.5681,0.0379 1.09833,0.0947 1.55281,0.15149 1.3445,0.22724 2.51858,0.58704 3.56009,1.09832 1.02258,0.49235 1.87473,1.13619 2.57539,1.89365 0.70066,0.7764 1.21195,1.64748 1.57174,2.63218 0.34086,1.00364 0.51129,2.08302 0.51129,3.29496 0,1.15512 -0.15149,2.19663 -0.45448,3.10559 -0.32192,0.92789 -0.7764,1.74216 -1.36344,2.44281 -0.58703,0.70065 -1.28769,1.30662 -2.10197,1.83684 -0.83321,0.51129 -1.74217,0.94683 -2.76475,1.30662 0.5681,0.24618 1.07939,0.5681 1.55281,0.94683 0.45448,0.39766 0.89002,0.85214 1.28769,1.38236 0.41661,0.53023 0.79534,1.15513 1.15514,1.85578 0.34086,0.68172 0.70065,1.47705 1.06045,2.34813 l 3.10561,7.63142 c 0.24618,0.64384 0.41661,1.09832 0.49236,1.34449 0.0568,0.26511 0.0947,0.47342 0.0947,0.60597" /><path
           id="path396"
           style="fill:#f5ee31;fill-opacity:1;fill-rule:nonzero;stroke:none;stroke-width:18.9367"
           d="m 324.28292,238.90583 c 0,0.32192 -0.0189,0.60597 -0.0568,0.85214 -0.0379,0.22724 -0.0947,0.43554 -0.18937,0.58704 -0.0947,0.17042 -0.18936,0.28404 -0.30298,0.35979 -0.11362,0.0757 -0.24618,0.0947 -0.37874,0.0947 h -16.62639 c -0.41661,0 -0.81428,-0.13255 -1.17407,-0.4166 -0.3598,-0.26511 -0.54917,-0.75746 -0.54917,-1.45811 V 208.0393 c 0,-0.70066 0.18937,-1.193 0.54917,-1.45812 0.35979,-0.28404 0.75746,-0.4166 1.17407,-0.4166 h 16.43703 c 0.13255,0 0.26511,0.0379 0.37873,0.0947 0.11362,0.0757 0.2083,0.18937 0.28405,0.3598 0.0758,0.15149 0.13256,0.35979 0.17043,0.60597 0.0379,0.22723 0.0757,0.53022 0.0757,0.89001 0,0.32192 -0.0379,0.60597 -0.0757,0.85215 -0.0379,0.22723 -0.0947,0.43554 -0.17043,0.58703 -0.0758,0.15149 -0.17043,0.26511 -0.28405,0.32192 -0.11362,0.0757 -0.24618,0.11362 -0.37873,0.11362 H 309.607 v 10.86956 h 11.62712 c 0.13255,0 0.26511,0.0379 0.37873,0.11362 0.11362,0.0947 0.22724,0.18937 0.30299,0.34086 0.0757,0.15149 0.13255,0.34086 0.17043,0.58703 0.0379,0.24618 0.0568,0.54916 0.0568,0.89002 0,0.32192 -0.0189,0.58703 -0.0568,0.83321 -0.0379,0.22723 -0.0947,0.4166 -0.17043,0.54915 -0.0758,0.1515 -0.18937,0.24618 -0.30299,0.32193 -0.11362,0.0568 -0.24618,0.0947 -0.37873,0.0947 H 309.607 v 12.38448 h 13.74802 c 0.13256,0 0.26512,0.0379 0.37874,0.11362 0.11362,0.0757 0.2083,0.17043 0.30298,0.34086 0.0947,0.13256 0.1515,0.34086 0.18937,0.58703 0.0379,0.22724 0.0568,0.53023 0.0568,0.89002" /><path
           id="path398"
           style="fill:#f5ee31;fill-opacity:1;fill-rule:nonzero;stroke:none;stroke-width:18.9367"
           d="m 372.41236,208.14155 c 0,0.34086 -0.0189,0.64385 -0.0568,0.89002 -0.0379,0.24617 -0.0947,0.43554 -0.17043,0.58703 -0.0757,0.17043 -0.17043,0.26511 -0.30299,0.34086 -0.11362,0.0757 -0.24617,0.11362 -0.37873,0.11362 h -9.75239 v 30.03333 c 0,0.15149 -0.0379,0.26511 -0.0947,0.37873 -0.0758,0.11362 -0.2083,0.18936 -0.37873,0.24617 -0.18937,0.0757 -0.41661,0.13256 -0.7196,0.17043 -0.28405,0.0379 -0.66278,0.0568 -1.09832,0.0568 -0.43555,0 -0.79534,-0.0189 -1.09833,-0.0568 -0.30299,-0.0379 -0.54916,-0.0947 -0.73853,-0.17043 -0.17043,-0.0568 -0.30299,-0.13255 -0.3598,-0.24617 -0.0757,-0.11362 -0.11362,-0.22724 -0.11362,-0.37873 v -30.03333 h -9.75238 c -0.13256,0 -0.26511,-0.0379 -0.37873,-0.11362 -0.11362,-0.0757 -0.20831,-0.17043 -0.28405,-0.34086 -0.0758,-0.15149 -0.13256,-0.34086 -0.17043,-0.58703 -0.0379,-0.24617 -0.0757,-0.54916 -0.0757,-0.89002 0,-0.34085 0.0379,-0.64384 0.0757,-0.89001 0.0379,-0.26511 0.0947,-0.47342 0.17043,-0.64384 0.0757,-0.1515 0.17043,-0.26512 0.28405,-0.34086 0.11362,-0.0757 0.24617,-0.11362 0.37873,-0.11362 h 24.10638 c 0.13256,0 0.26511,0.0379 0.37873,0.11362 0.13256,0.0757 0.22724,0.18936 0.30299,0.34086 0.0758,0.17042 0.13256,0.37873 0.17043,0.64384 0.0379,0.24617 0.0568,0.54916 0.0568,0.89001" /><path
           id="path400"
           style="fill:#f5ee31;fill-opacity:1;fill-rule:nonzero;stroke:none;stroke-width:18.9367"
           d="m 146.2271,260.50862 c 0,0.32192 -0.0189,0.60597 -0.0568,0.8332 -0.0189,0.24618 -0.0947,0.43554 -0.17043,0.58704 -0.0947,0.13255 -0.18936,0.24617 -0.30298,0.32192 -0.11362,0.0568 -0.22724,0.0947 -0.34086,0.0947 H 133.2555 v 11.22936 h 11.43774 c 0.11362,0 0.22724,0.0189 0.34086,0.0947 0.11362,0.0568 0.20831,0.15149 0.30299,0.28405 0.0758,0.13255 0.13256,0.32192 0.17043,0.54916 0.0379,0.22724 0.0568,0.53022 0.0568,0.89001 0,0.32193 -0.0189,0.58704 -0.0568,0.83321 -0.0379,0.22724 -0.0947,0.41661 -0.17043,0.54916 -0.0947,0.15149 -0.18937,0.26511 -0.30299,0.34086 -0.11362,0.0757 -0.22724,0.11362 -0.34086,0.11362 H 133.2555 v 13.74791 c 0,0.11362 -0.0189,0.22724 -0.0947,0.34086 -0.0757,0.11362 -0.18936,0.2083 -0.35979,0.26511 -0.17043,0.0568 -0.37874,0.0947 -0.66279,0.1515 -0.26511,0.0379 -0.62491,0.0568 -1.06045,0.0568 -0.41661,0 -0.75747,-0.0189 -1.06045,-0.0568 -0.28405,-0.0568 -0.51129,-0.0947 -0.68172,-0.1515 -0.17043,-0.0568 -0.28405,-0.15149 -0.3598,-0.26511 -0.0757,-0.11362 -0.0947,-0.22724 -0.0947,-0.34086 v -30.56355 c 0,-0.66277 0.17044,-1.13619 0.5113,-1.4013 0.35979,-0.26511 0.71959,-0.39767 1.11726,-0.39767 h 14.84635 c 0.11362,0 0.22724,0.0379 0.34086,0.11362 0.11362,0.0568 0.2083,0.17043 0.30298,0.32192 0.0757,0.1515 0.1515,0.3598 0.17043,0.60597 0.0379,0.24618 0.0568,0.53023 0.0568,0.85215" /><path
           id="path402"
           style="fill:#f5ee31;fill-opacity:1;fill-rule:nonzero;stroke:none;stroke-width:18.9367"
           d="m 179.47043,275.05565 c 0,-1.87471 -0.17043,-3.61687 -0.49236,-5.22648 -0.34086,-1.59066 -0.89002,-2.99197 -1.66642,-4.18497 -0.77641,-1.17406 -1.79899,-2.10195 -3.08668,-2.76473 -1.28769,-0.66278 -2.89731,-0.9847 -4.79098,-0.9847 -1.9126,0 -3.50328,0.35979 -4.79098,1.06045 -1.28769,0.71958 -2.34814,1.66641 -3.16242,2.85941 -0.79534,1.193 -1.38238,2.57537 -1.72324,4.16604 -0.35979,1.6096 -0.53022,3.27601 -0.53022,5.01818 0,1.95046 0.17043,3.73049 0.49235,5.35903 0.32192,1.64748 0.87109,3.04878 1.62855,4.22285 0.75747,1.193 1.78005,2.10195 3.06774,2.76473 1.2877,0.64384 2.89731,0.9847 4.82885,0.9847 1.93155,0 3.54116,-0.3598 4.84779,-1.07938 1.30663,-0.71959 2.36709,-1.68535 3.16243,-2.89729 0.79534,-1.21194 1.36344,-2.61324 1.7043,-4.22285 0.34086,-1.59066 0.51129,-3.29495 0.51129,-5.07499 m 4.63948,-0.30298 c 0,2.67005 -0.30299,5.07499 -0.94683,7.21482 -0.62491,2.13982 -1.55281,3.97667 -2.82157,5.47265 -1.23088,1.51492 -2.80262,2.67005 -4.69629,3.48432 -1.89367,0.79534 -4.09032,1.21194 -6.6089,1.21194 -2.4807,0 -4.63948,-0.37873 -6.43847,-1.11726 -1.81792,-0.73852 -3.31391,-1.8179 -4.50692,-3.23814 -1.17408,-1.4013 -2.0641,-3.1624 -2.6322,-5.24542 -0.58704,-2.10195 -0.87109,-4.50689 -0.87109,-7.21481 0,-2.61324 0.32193,-4.98031 0.94684,-7.1012 0.62491,-2.12089 1.57174,-3.9388 2.82156,-5.43478 1.26876,-1.47705 2.8405,-2.63218 4.73417,-3.44645 1.89366,-0.79533 4.09032,-1.193 6.6089,-1.193 2.42389,0 4.5448,0.35979 6.34378,1.07938 1.81792,0.73853 3.31392,1.79897 4.50693,3.21921 1.21194,1.4013 2.10197,3.12453 2.689,5.20754 0.58704,2.06408 0.87109,4.43115 0.87109,7.1012" /><path
           id="path404"
           style="fill:#f5ee31;fill-opacity:1;fill-rule:nonzero;stroke:none;stroke-width:18.9367"
           d="m 218.09934,275.05565 c 0,-1.87471 -0.17043,-3.61687 -0.49236,-5.22648 -0.34086,-1.59066 -0.89002,-2.99197 -1.66642,-4.18497 -0.77641,-1.17406 -1.79899,-2.10195 -3.08668,-2.76473 -1.28769,-0.66278 -2.89731,-0.9847 -4.79098,-0.9847 -1.9126,0 -3.50328,0.35979 -4.79097,1.06045 -1.30663,0.71958 -2.34815,1.66641 -3.16243,2.85941 -0.79534,1.193 -1.38238,2.57537 -1.72324,4.16604 -0.34086,1.6096 -0.53022,3.27601 -0.53022,5.01818 0,1.95046 0.17043,3.73049 0.49235,5.35903 0.32192,1.64748 0.87109,3.04878 1.62856,4.22285 0.75746,1.193 1.78004,2.10195 3.06774,2.76473 1.28769,0.64384 2.89731,0.9847 4.82885,0.9847 1.93154,0 3.54115,-0.3598 4.84778,-1.07938 1.30663,-0.71959 2.36709,-1.68535 3.16243,-2.89729 0.79534,-1.21194 1.36344,-2.61324 1.7043,-4.22285 0.34086,-1.59066 0.51129,-3.29495 0.51129,-5.07499 m 4.63948,-0.30298 c 0,2.67005 -0.30299,5.07499 -0.94683,7.21482 -0.62491,2.13982 -1.55281,3.97667 -2.80263,5.47265 -1.24982,1.51492 -2.82156,2.67005 -4.71523,3.48432 -1.89367,0.79534 -4.09032,1.21194 -6.6089,1.21194 -2.4807,0 -4.63948,-0.37873 -6.43846,-1.11726 -1.81792,-0.73852 -3.31392,-1.8179 -4.50693,-3.23814 -1.17408,-1.4013 -2.0641,-3.1624 -2.6322,-5.24542 -0.58704,-2.10195 -0.87109,-4.50689 -0.87109,-7.21481 0,-2.61324 0.32193,-4.98031 0.94684,-7.1012 0.62491,-2.12089 1.57174,-3.9388 2.82156,-5.43478 1.26876,-1.47705 2.8405,-2.63218 4.73417,-3.44645 1.89367,-0.79533 4.09032,-1.193 6.6089,-1.193 2.42389,0 4.5448,0.35979 6.34378,1.07938 1.81792,0.73853 3.31392,1.79897 4.50693,3.21921 1.21194,1.4013 2.10197,3.12453 2.689,5.20754 0.58704,2.06408 0.87109,4.43115 0.87109,7.1012" /><path
           id="path406"
           style="fill:#f5ee31;fill-opacity:1;fill-rule:nonzero;stroke:none;stroke-width:18.9367"
           d="m 253.00341,260.50862 c 0,0.32192 -0.0189,0.60597 -0.0568,0.8332 -0.0189,0.24618 -0.0757,0.43554 -0.1515,0.58704 -0.0947,0.13255 -0.17043,0.24617 -0.28405,0.32192 -0.11362,0.0568 -0.24617,0.0947 -0.37873,0.0947 h -9.27897 v 28.63202 c 0,0.13256 -0.0379,0.26512 -0.11362,0.3598 -0.0568,0.0947 -0.18937,0.18936 -0.3598,0.24617 -0.17043,0.0568 -0.39767,0.0947 -0.66278,0.1515 -0.28405,0.0379 -0.64385,0.0568 -1.06045,0.0568 -0.41661,0 -0.75747,-0.0189 -1.06046,-0.0568 -0.28405,-0.0568 -0.51129,-0.0947 -0.68172,-0.1515 -0.17043,-0.0568 -0.28405,-0.15149 -0.35979,-0.24617 -0.0568,-0.0947 -0.0947,-0.22724 -0.0947,-0.3598 v -28.63202 h -9.2979 c -0.13256,0 -0.24618,-0.0379 -0.3598,-0.0947 -0.11362,-0.0758 -0.2083,-0.18937 -0.26511,-0.32192 -0.0757,-0.1515 -0.13256,-0.34086 -0.17043,-0.58704 -0.0379,-0.22723 -0.0568,-0.51128 -0.0568,-0.8332 0,-0.32192 0.0189,-0.60597 0.0568,-0.85215 0.0379,-0.24617 0.0947,-0.45447 0.17043,-0.60597 0.0568,-0.15149 0.15149,-0.26511 0.26511,-0.32192 0.11362,-0.0757 0.22724,-0.11362 0.3598,-0.11362 h 22.97018 c 0.13256,0 0.26511,0.0379 0.37873,0.11362 0.11362,0.0568 0.18937,0.17043 0.28405,0.32192 0.0757,0.1515 0.13256,0.3598 0.1515,0.60597 0.0379,0.24618 0.0568,0.53023 0.0568,0.85215" /><path
           id="path408"
           style="fill:#f5ee31;fill-opacity:1;fill-rule:nonzero;stroke:none;stroke-width:18.9367"
           d="m 278.94854,282.42954 c 0,-0.9847 -0.1515,-1.85578 -0.47342,-2.61324 -0.30299,-0.73853 -0.7764,-1.36343 -1.36344,-1.87472 -0.60597,-0.51129 -1.36344,-0.90895 -2.2724,-1.17406 -0.90896,-0.24618 -2.04516,-0.37873 -3.42754,-0.37873 h -5.24546 v 11.62702 h 6.36273 c 1.00364,0 1.87473,-0.11362 2.63219,-0.35979 0.73853,-0.22724 1.40132,-0.58703 1.96942,-1.06045 0.5681,-0.45447 1.00364,-1.04151 1.32556,-1.74216 0.32193,-0.70065 0.49236,-1.49598 0.49236,-2.42387 m -1.98835,-15.0356 c 0,-0.79534 -0.11362,-1.51492 -0.34086,-2.15877 -0.20831,-0.66277 -0.5681,-1.193 -1.04152,-1.64747 -0.47342,-0.45448 -1.07939,-0.79534 -1.85579,-1.04151 -0.75747,-0.22724 -1.78005,-0.3598 -3.02987,-0.3598 h -4.52587 v 10.69914 h 4.98035 c 1.1362,0 2.0641,-0.15149 2.76475,-0.45448 0.68172,-0.28405 1.26876,-0.70065 1.72324,-1.193 0.45448,-0.49235 0.79534,-1.07938 1.00364,-1.7611 0.20831,-0.66277 0.32193,-1.36342 0.32193,-2.08301 m 6.60889,14.77049 c 0,1.0415 -0.13255,2.00727 -0.39767,2.87835 -0.26511,0.87108 -0.62491,1.66641 -1.11726,2.36706 -0.47342,0.70065 -1.04152,1.30662 -1.72324,1.83685 -0.66278,0.53022 -1.42025,0.96576 -2.2724,1.32555 -0.83321,0.3598 -1.74217,0.62491 -2.689,0.79534 -0.96577,0.18936 -2.0641,0.26511 -3.31392,0.26511 h -8.61619 c -0.39767,0 -0.7764,-0.13256 -1.11726,-0.37873 -0.34086,-0.26511 -0.53023,-0.73853 -0.53023,-1.40131 v -29.44629 c 0,-0.66278 0.18937,-1.13619 0.53023,-1.38237 0.34086,-0.26511 0.71959,-0.39766 1.11726,-0.39766 h 7.49892 c 1.96942,0 3.57904,0.18936 4.84779,0.54916 1.24982,0.37873 2.31028,0.92789 3.14349,1.64747 0.85215,0.70065 1.47706,1.59067 1.9126,2.61324 0.41661,1.04151 0.62491,2.21558 0.62491,3.5222 0,0.79533 -0.0947,1.53386 -0.26511,2.25344 -0.18937,0.71959 -0.47342,1.38237 -0.83321,1.9694 -0.37874,0.60597 -0.83322,1.15513 -1.38238,1.62854 -0.54916,0.47342 -1.19301,0.87108 -1.89367,1.17407 0.89003,0.17043 1.74218,0.47341 2.51858,0.92789 0.7764,0.45447 1.47706,1.02257 2.04516,1.72322 0.60597,0.70065 1.06045,1.51492 1.40131,2.44281 0.34086,0.94683 0.51129,1.9694 0.51129,3.08666" /><path
           id="path410"
           style="fill:#f5ee31;fill-opacity:1;fill-rule:nonzero;stroke:none;stroke-width:18.9367"
           d="m 304.25739,263.00824 h -0.0189 l -5.69994,16.45584 h 11.47562 z m 14.22144,27.07923 c 0.13256,0.37873 0.20831,0.68171 0.20831,0.90895 0,0.22724 -0.0568,0.39767 -0.18937,0.51129 -0.13256,0.13255 -0.3598,0.2083 -0.68172,0.22724 -0.30299,0.0379 -0.73853,0.0568 -1.24982,0.0568 -0.53023,0 -0.94683,-0.0189 -1.26876,-0.0379 -0.32192,-0.0189 -0.54916,-0.0568 -0.71959,-0.13255 -0.15149,-0.0568 -0.28405,-0.13256 -0.3598,-0.22724 -0.0757,-0.11362 -0.15149,-0.24618 -0.2083,-0.39767 l -2.8405,-8.02909 h -13.72909 l -2.70794,7.93441 c -0.0379,0.15149 -0.11362,0.28405 -0.2083,0.39767 -0.0758,0.11361 -0.18937,0.2083 -0.3598,0.28404 -0.17043,0.0757 -0.39767,0.13256 -0.68172,0.1515 -0.30299,0.0379 -0.68172,0.0568 -1.17407,0.0568 -0.49236,0 -0.89003,-0.0189 -1.21195,-0.0568 -0.30299,-0.0379 -0.53023,-0.13256 -0.66278,-0.24618 -0.11362,-0.11362 -0.18937,-0.28405 -0.17043,-0.53022 0,-0.22724 0.0757,-0.53023 0.2083,-0.89002 l 11.07795,-30.67717 c 0.0758,-0.18936 0.15149,-0.34086 0.26511,-0.47341 0.11362,-0.11362 0.28405,-0.2083 0.49236,-0.26511 0.2083,-0.0758 0.49235,-0.11362 0.81427,-0.15149 0.34086,-0.0189 0.75747,-0.0379 1.26876,-0.0379 0.53023,0 0.98471,0.0189 1.3445,0.0379 0.3598,0.0379 0.64385,0.0757 0.87109,0.15149 0.22724,0.0568 0.39767,0.15149 0.51129,0.28405 0.11362,0.13255 0.2083,0.28404 0.28405,0.47341 z" /><path
           id="path412"
           style="fill:#f5ee31;fill-opacity:1;fill-rule:nonzero;stroke:none;stroke-width:18.9367"
           d="m 345.13219,289.72957 c 0,0.34085 -0.0189,0.6249 -0.0568,0.85214 -0.0189,0.22724 -0.0757,0.43554 -0.17043,0.58703 -0.0757,0.17043 -0.15149,0.28405 -0.26511,0.3598 -0.11362,0.0757 -0.24618,0.11362 -0.39767,0.11362 H 329.642 c -0.39767,0 -0.75747,-0.13256 -1.11726,-0.39767 -0.34086,-0.26511 -0.51129,-0.71959 -0.51129,-1.38237 v -30.58248 c 0,-0.13256 0.0189,-0.24618 0.0947,-0.3598 0.0757,-0.0947 0.18937,-0.17043 0.3598,-0.22724 0.17043,-0.0757 0.39767,-0.11361 0.68172,-0.17042 0.30298,-0.0379 0.64384,-0.0568 1.06045,-0.0568 0.41661,0 0.7764,0.0189 1.06045,0.0568 0.26512,0.0568 0.49236,0.0947 0.66279,0.17042 0.17043,0.0568 0.30298,0.13256 0.35979,0.22724 0.0757,0.11362 0.0947,0.22724 0.0947,0.3598 v 28.55627 h 11.85435 c 0.15149,0 0.28405,0.0379 0.39767,0.11362 0.11362,0.0758 0.18937,0.18937 0.26511,0.34086 0.0947,0.13256 0.1515,0.34086 0.17043,0.5681 0.0379,0.24617 0.0568,0.53022 0.0568,0.87108" /><path
           id="path414"
           style="fill:#f5ee31;fill-opacity:1;fill-rule:nonzero;stroke:none;stroke-width:18.9367"
           d="m 371.12845,289.72957 c 0,0.34085 -0.0189,0.6249 -0.0568,0.85214 -0.0189,0.22724 -0.0757,0.43554 -0.17043,0.58703 -0.0757,0.17043 -0.15149,0.28405 -0.26511,0.3598 -0.11362,0.0757 -0.24618,0.11362 -0.39767,0.11362 h -14.60017 c -0.39767,0 -0.75747,-0.13256 -1.11727,-0.39767 -0.34086,-0.26511 -0.51129,-0.71959 -0.51129,-1.38237 v -30.58248 c 0,-0.13256 0.0189,-0.24618 0.0947,-0.3598 0.0757,-0.0947 0.18936,-0.17043 0.35979,-0.22724 0.17043,-0.0757 0.39767,-0.11361 0.68172,-0.17042 0.30299,-0.0379 0.64385,-0.0568 1.06046,-0.0568 0.4166,0 0.7764,0.0189 1.06045,0.0568 0.26511,0.0568 0.49235,0.0947 0.66278,0.17042 0.17043,0.0568 0.30299,0.13256 0.3598,0.22724 0.0757,0.11362 0.0947,0.22724 0.0947,0.3598 v 28.55627 h 11.85436 c 0.15149,0 0.28405,0.0379 0.39767,0.11362 0.11362,0.0758 0.18937,0.18937 0.26511,0.34086 0.0947,0.13256 0.1515,0.34086 0.17043,0.5681 0.0379,0.24617 0.0568,0.53022 0.0568,0.87108" /></g><g
         id="g17950"
         style="stroke-width:1.00001"><path
           id="path374"
           style="fill:#f5ee31;fill-opacity:1;fill-rule:nonzero;stroke:none;stroke-width:18.9367"
           d="m 126.04251,153.52672 c 0,-2.85941 -0.22724,-5.45371 -0.68172,-7.80184 -0.43555,-2.3292 -1.21195,-4.33647 -2.29134,-6.00288 -1.07939,-1.66642 -2.49964,-2.9541 -4.29862,-3.86305 -1.79899,-0.90896 -4.03351,-1.38237 -6.72252,-1.38237 -2.72688,0 -4.99928,0.51129 -6.8172,1.5528 -1.81792,1.02257 -3.29498,2.386 -4.41224,4.09029 -1.117268,1.70428 -1.912608,3.71155 -2.367088,5.98394 -0.473417,2.29132 -0.700657,4.71519 -0.700657,7.25269 0,2.97303 0.22724,5.64308 0.68172,8.01015 0.435543,2.36706 1.19301,4.39327 2.272405,6.07862 1.06045,1.68535 2.4807,2.9541 4.27968,3.84411 1.79899,0.87108 4.05245,1.32556 6.76039,1.32556 2.72688,0 4.99928,-0.51129 6.8172,-1.51492 1.81792,-1.00364 3.29498,-2.386 4.41225,-4.12816 1.11726,-1.74216 1.9126,-3.74944 2.36708,-6.07863 0.47342,-2.31025 0.70066,-4.75307 0.70066,-7.36631 m 11.60818,-0.58703 c 0,4.5069 -0.5681,8.54037 -1.68537,12.10044 -1.11726,3.56007 -2.78369,6.58991 -4.99928,9.0706 -2.21559,2.48068 -4.96141,4.3554 -8.21851,5.66202 -3.27605,1.30662 -7.04444,1.9694 -11.32413,1.9694 -4.24181,0 -7.93446,-0.5681 -11.07795,-1.66642 -3.162425,-1.11725 -5.794622,-2.8026 -7.877656,-5.07499 -2.120907,-2.27238 -3.69265,-5.15073 -4.734167,-8.65399 -1.060454,-3.50326 -1.59068,-7.65035 -1.59068,-12.44129 0,-4.39328 0.5681,-8.35101 1.685363,-11.87321 1.117264,-3.52219 2.802627,-6.51416 4.999281,-8.97591 2.21559,-2.46175 4.961407,-4.3554 8.218519,-5.68095 3.27604,-1.30663 7.06337,-1.9694 11.38093,-1.9694 4.10926,0 7.7451,0.54916 10.90752,1.64747 3.14349,1.07939 5.77569,2.76474 7.8966,5.03712 2.1209,2.27238 3.71158,5.1318 4.79097,8.59718 1.07939,3.46539 1.62856,7.53674 1.62856,12.25193" /><path
           id="path376"
           style="fill:#f5ee31;fill-opacity:1;fill-rule:nonzero;stroke:none;stroke-width:18.9367"
           d="m 173.03764,142.42992 c 0,-1.79897 -0.39767,-3.29495 -1.21195,-4.54476 -0.81427,-1.23088 -2.15878,-2.10196 -3.99563,-2.59431 -0.5681,-0.15149 -1.19301,-0.26511 -1.91261,-0.34086 -0.71959,-0.0947 -1.7043,-0.13255 -2.97305,-0.13255 h -4.96141 v 15.43327 h 5.64313 c 1.57174,0 2.93518,-0.18937 4.10925,-0.5681 1.19301,-0.37873 2.15878,-0.90895 2.95412,-1.59067 0.77641,-0.70065 1.36344,-1.51492 1.76111,-2.46175 0.39767,-0.96576 0.58704,-2.0262 0.58704,-3.20027 m 14.24037,36.90729 c 0,0.30298 -0.0568,0.56809 -0.15149,0.77639 -0.11362,0.20831 -0.37873,0.37873 -0.81428,0.53023 -0.4166,0.13255 -1.02258,0.22724 -1.83685,0.28404 -0.81428,0.0568 -1.93154,0.0947 -3.33286,0.0947 -1.17407,0 -2.10197,-0.0379 -2.80262,-0.0947 -0.70066,-0.0568 -1.26876,-0.15149 -1.66643,-0.30298 -0.39767,-0.17043 -0.70066,-0.35979 -0.87109,-0.58703 -0.15149,-0.24618 -0.30298,-0.53022 -0.4166,-0.87108 l -4.86673,-12.13831 c -0.58703,-1.38237 -1.17407,-2.59431 -1.72323,-3.67369 -0.5681,-1.06044 -1.19301,-1.95046 -1.87473,-2.67005 -0.68172,-0.70065 -1.47706,-1.24981 -2.36709,-1.6096 -0.90896,-0.3598 -1.93154,-0.54916 -3.12455,-0.54916 h -3.44647 v 20.73549 c 0,0.26511 -0.0757,0.53022 -0.26512,0.75746 -0.18936,0.2083 -0.49235,0.39767 -0.90896,0.53022 -0.4166,0.1515 -0.9847,0.26512 -1.68536,0.34086 -0.70066,0.0947 -1.59068,0.13256 -2.68901,0.13256 -1.06045,0 -1.95047,-0.0379 -2.67007,-0.13256 -0.70065,-0.0757 -1.26875,-0.18936 -1.7043,-0.34086 -0.4166,-0.13255 -0.70065,-0.32192 -0.87108,-0.53022 -0.17043,-0.22724 -0.24618,-0.49235 -0.24618,-0.75746 v -49.40539 c 0,-1.23087 0.30299,-2.12089 0.9279,-2.67005 0.64384,-0.53022 1.42025,-0.81427 2.34814,-0.81427 h 14.06995 c 1.43919,0 2.61326,0.0379 3.54116,0.0947 0.92789,0.0568 1.76111,0.11362 2.51857,0.2083 2.17772,0.30299 4.14713,0.83321 5.90824,1.59067 1.74218,0.75746 3.23817,1.74216 4.45012,2.97304 1.21195,1.21193 2.15878,2.65111 2.80263,4.31752 0.64384,1.66642 0.96577,3.57901 0.96577,5.73777 0,1.81791 -0.22724,3.48432 -0.70066,4.98031 -0.45448,1.49598 -1.1362,2.84047 -2.02622,4.01454 -0.90896,1.17406 -2.00729,2.19664 -3.33286,3.06772 -1.32556,0.87108 -2.82156,1.57173 -4.48799,2.10195 0.79534,0.39767 1.57175,0.87108 2.29134,1.43918 0.70066,0.54916 1.38238,1.23087 2.00729,2.0262 0.62491,0.79534 1.23088,1.70429 1.79898,2.7458 0.54916,1.02257 1.09833,2.1777 1.62855,3.46538 l 4.58268,10.71808 c 0.4166,1.06044 0.70065,1.83684 0.83321,2.32919 0.15149,0.49235 0.2083,0.87108 0.2083,1.15513" /><path
           id="path378"
           style="fill:#f5ee31;fill-opacity:1;fill-rule:nonzero;stroke:none;stroke-width:18.9367"
           d="m 225.2858,176.14262 c 0,0.8332 -0.0379,1.55279 -0.11362,2.12089 -0.0568,0.56809 -0.17043,1.06044 -0.30298,1.43917 -0.1515,0.37873 -0.32193,0.64384 -0.53023,0.81427 -0.2083,0.17043 -0.45448,0.24618 -0.73853,0.24618 h -24.92066 c -0.92789,0 -1.7043,-0.26511 -2.32921,-0.81427 -0.64384,-0.54916 -0.94683,-1.43918 -0.94683,-2.67005 v -49.38646 c 0,-0.28405 0.0947,-0.53022 0.26511,-0.75746 0.18937,-0.22724 0.49236,-0.4166 0.90896,-0.54916 0.41661,-0.13255 0.98471,-0.24617 1.7043,-0.34086 0.7196,-0.0757 1.59068,-0.13255 2.67007,-0.13255 1.09833,0 1.98835,0.0568 2.68901,0.13255 0.70066,0.0947 1.24982,0.20831 1.68536,0.34086 0.41661,0.13256 0.7196,0.32192 0.89003,0.54916 0.18936,0.22724 0.28405,0.47341 0.28405,0.75746 v 43.76231 h 17.09981 c 0.28405,0 0.53023,0.0568 0.73853,0.22724 0.2083,0.15149 0.37873,0.39766 0.53023,0.75746 0.13255,0.34086 0.24617,0.81427 0.30298,1.38236 0.0757,0.5681 0.11362,1.28769 0.11362,2.1209" /><path
           id="path380"
           style="fill:#f5ee31;fill-opacity:1;fill-rule:nonzero;stroke:none;stroke-width:18.9367"
           d="m 264.0397,176.43613 c 0,0.81427 -0.0379,1.49599 -0.11362,2.04515 -0.0568,0.54916 -0.17043,0.9847 -0.30299,1.32555 -0.15149,0.32192 -0.32192,0.5681 -0.53023,0.71959 -0.2083,0.17043 -0.43554,0.24618 -0.70065,0.24618 h -27.30668 c -0.9279,0 -1.7043,-0.28405 -2.34815,-0.83321 -0.62491,-0.53022 -0.94683,-1.43918 -0.94683,-2.67005 v -47.39812 c 0,-1.24981 0.32192,-2.12089 0.94683,-2.67005 0.64385,-0.54916 1.42025,-0.83321 2.34815,-0.83321 h 27.15518 c 0.24618,0 0.47342,0.0757 0.66279,0.2083 0.18936,0.1515 0.35979,0.39767 0.51129,0.73853 0.13255,0.35979 0.24617,0.79533 0.30298,1.34449 0.0758,0.54916 0.11362,1.24981 0.11362,2.08302 0,0.79533 -0.0379,1.45811 -0.11362,2.00727 -0.0568,0.53022 -0.17043,0.9847 -0.30298,1.32556 -0.1515,0.32192 -0.32193,0.56809 -0.51129,0.71959 -0.18937,0.17042 -0.41661,0.24617 -0.66279,0.24617 h -19.42902 v 13.2745 h 16.43703 c 0.24618,0 0.47342,0.0757 0.70066,0.22724 0.2083,0.15149 0.37873,0.39767 0.51129,0.71959 0.15149,0.32192 0.24617,0.75746 0.32192,1.30662 0.0757,0.54916 0.11362,1.21194 0.11362,1.98833 0,0.81428 -0.0379,1.49599 -0.11362,2.02621 -0.0758,0.53023 -0.17043,0.94683 -0.32192,1.26875 -0.13256,0.34086 -0.30299,0.5681 -0.51129,0.70065 -0.22724,0.13256 -0.45448,0.2083 -0.70066,0.2083 h -16.43703 v 15.33859 h 19.58052 c 0.26511,0 0.49235,0.0757 0.70065,0.24617 0.20831,0.15149 0.37874,0.39767 0.53023,0.71959 0.13256,0.34086 0.24618,0.7764 0.30299,1.32556 0.0757,0.54916 0.11362,1.23087 0.11362,2.04514" /><path
           id="path382"
           style="fill:#f5ee31;fill-opacity:1;fill-rule:nonzero;stroke:none;stroke-width:18.9367"
           d="m 292.33108,136.75654 h -0.0379 l -7.68829,23.12149 h 15.41445 z m 24.95853,39.89926 c 0.34086,1.00363 0.54916,1.79896 0.64385,2.386 0.0757,0.58703 -0.0379,1.02257 -0.34086,1.32555 -0.30299,0.30299 -0.85215,0.47342 -1.64749,0.54916 -0.77641,0.0757 -1.8558,0.0947 -3.21924,0.0947 -1.43918,0 -2.55645,-0.0189 -3.35179,-0.0568 -0.79534,-0.0379 -1.40131,-0.13256 -1.83686,-0.24618 -0.4166,-0.13255 -0.70065,-0.30298 -0.87108,-0.53022 -0.17043,-0.22724 -0.30299,-0.51129 -0.41661,-0.89002 l -3.65478,-10.92637 h -20.43266 l -3.44648,10.64232 c -0.11362,0.37873 -0.26511,0.71959 -0.45448,0.9847 -0.17043,0.26511 -0.47341,0.47342 -0.87108,0.62491 -0.41661,0.15149 -0.98471,0.26511 -1.72324,0.32192 -0.73853,0.0568 -1.72324,0.0757 -2.91625,0.0757 -1.28769,0 -2.31027,-0.0379 -3.02986,-0.11362 -0.73853,-0.0947 -1.23089,-0.28405 -1.51494,-0.60597 -0.28405,-0.32192 -0.37873,-0.79534 -0.30298,-1.38237 0.0947,-0.58703 0.30298,-1.36343 0.64384,-2.34813 l 16.75896,-48.25026 c 0.17043,-0.47341 0.35979,-0.87108 0.58703,-1.15513 0.22724,-0.30298 0.58704,-0.53022 1.07939,-0.68171 0.49236,-0.1515 1.17408,-0.24618 2.04516,-0.28405 0.85215,-0.0379 2.00729,-0.0757 3.44648,-0.0757 1.64749,0 2.95412,0.0379 3.93882,0.0757 0.98471,0.0379 1.74218,0.13255 2.29134,0.28405 0.54916,0.15149 0.94683,0.39766 1.17407,0.70065 0.24618,0.30298 0.45448,0.71959 0.62491,1.24981 z" /><path
           id="path384"
           style="fill:#f5ee31;fill-opacity:1;fill-rule:nonzero;stroke:none;stroke-width:18.9367"
           d="m 369.75554,176.89818 c 0,0.64384 -0.11362,1.21194 -0.34086,1.72323 -0.22724,0.51128 -0.53022,0.92789 -0.90896,1.26874 -0.37873,0.32192 -0.81427,0.5681 -1.3445,0.71959 -0.51129,0.17043 -1.04152,0.24618 -1.57174,0.24618 h -4.6963 c -0.9847,0 -1.83685,-0.11362 -2.55645,-0.30299 -0.70065,-0.18936 -1.36344,-0.54916 -1.96941,-1.06044 -0.60597,-0.53023 -1.17407,-1.23088 -1.74217,-2.10196 -0.5681,-0.89001 -1.19301,-2.02621 -1.89367,-3.42751 l -13.53972,-25.43175 c -0.7764,-1.51492 -1.57174,-3.14346 -2.38602,-4.90456 -0.81428,-1.74216 -1.55281,-3.44645 -2.19665,-5.11286 h -0.0757 c 0.11362,2.02621 0.18937,4.03348 0.24618,6.04075 0.0568,2.00727 0.0947,4.07135 0.0947,6.19224 v 28.4616 c 0,0.28405 -0.0757,0.53022 -0.24618,0.75746 -0.15149,0.22724 -0.4166,0.4166 -0.79534,0.5681 -0.37873,0.15149 -0.89002,0.26511 -1.53387,0.35979 -0.64384,0.0757 -1.47706,0.13255 -2.4807,0.13255 -0.98471,0 -1.78005,-0.0568 -2.42389,-0.13255 -0.66279,-0.0947 -1.15514,-0.2083 -1.51494,-0.35979 -0.37873,-0.1515 -0.62491,-0.34086 -0.75746,-0.5681 -0.1515,-0.22724 -0.20831,-0.47341 -0.20831,-0.75746 v -48.87517 c 0,-1.32556 0.37874,-2.31026 1.15514,-2.97303 0.75747,-0.66278 1.7043,-0.9847 2.82156,-0.9847 h 5.92718 c 1.07939,0 1.96941,0.0947 2.70794,0.26511 0.7196,0.18936 1.36344,0.49235 1.95048,0.90895 0.5681,0.4166 1.09833,1.00364 1.60962,1.74216 0.51129,0.73853 1.02258,1.66642 1.5528,2.76473 l 10.60454,19.88335 c 0.60597,1.193 1.21195,2.38601 1.81792,3.54113 0.60597,1.17407 1.19301,2.3292 1.74217,3.48432 0.5681,1.17407 1.11727,2.31026 1.64749,3.42752 0.53023,1.11725 1.04152,2.25344 1.55281,3.3707 h 0.0379 c -0.0757,-1.9694 -0.15149,-4.01455 -0.18936,-6.13544 -0.0379,-2.13982 -0.0568,-4.16603 -0.0568,-6.09756 v -25.52643 c 0,-0.26511 0.0757,-0.53023 0.24617,-0.73853 0.17043,-0.22724 0.45448,-0.43554 0.85215,-0.60597 0.37874,-0.15149 0.90896,-0.28404 1.55281,-0.34085 0.64385,-0.0757 1.45812,-0.11362 2.4807,-0.11362 0.94684,0 1.74218,0.0379 2.38602,0.11362 0.64385,0.0568 1.1362,0.18936 1.496,0.34085 0.34086,0.17043 0.60597,0.37873 0.73853,0.60597 0.13256,0.2083 0.2083,0.47342 0.2083,0.73853 z" /><path
           id="path386"
           style="fill:#f5ee31;fill-opacity:1;fill-rule:nonzero;stroke:none;stroke-width:18.9367"
           d="m 413.84958,164.45499 c 0,2.85942 -0.53023,5.35904 -1.59068,7.5178 -1.07939,2.15877 -2.51858,3.95774 -4.3365,5.41585 -1.81792,1.43917 -3.95776,2.51856 -6.38166,3.25708 -2.44283,0.71959 -5.05609,1.07938 -7.82084,1.07938 -1.87473,0 -3.63584,-0.15149 -5.24546,-0.45447 -1.60961,-0.30299 -3.02987,-0.68172 -4.26075,-1.11726 -1.23088,-0.43554 -2.25346,-0.89002 -3.08668,-1.36343 -0.83321,-0.47341 -1.42025,-0.89002 -1.78004,-1.26875 -0.37874,-0.35979 -0.62491,-0.89001 -0.77641,-1.57173 -0.17043,-0.68171 -0.24617,-1.66641 -0.24617,-2.9541 0,-0.87108 0.0379,-1.6096 0.0947,-2.19663 0.0568,-0.58703 0.15149,-1.06045 0.26511,-1.42024 0.13256,-0.3598 0.30299,-0.62491 0.51129,-0.7764 0.20831,-0.15149 0.45448,-0.24617 0.73853,-0.24617 0.37874,0 0.94684,0.24617 1.64749,0.70065 0.7196,0.47341 1.64749,0.9847 2.76476,1.53386 1.11726,0.56809 2.46177,1.07938 4.01457,1.53385 1.55281,0.47342 3.35179,0.70066 5.39695,0.70066 1.34451,0 2.55645,-0.17043 3.61691,-0.49235 1.06045,-0.32192 1.96941,-0.7764 2.70794,-1.36343 0.73853,-0.58704 1.30663,-1.30662 1.7043,-2.1777 0.39767,-0.87108 0.58704,-1.83685 0.58704,-2.89729 0,-1.24981 -0.34086,-2.29132 -1.00365,-3.18134 -0.68172,-0.89001 -1.5528,-1.66641 -2.63219,-2.34813 -1.07939,-0.70065 -2.31028,-1.34449 -3.67372,-1.93152 -1.38237,-0.60597 -2.78369,-1.24981 -4.24181,-1.93153 -1.45812,-0.66278 -2.87837,-1.42024 -4.26075,-2.29132 -1.36344,-0.85214 -2.59433,-1.87471 -3.67372,-3.06771 -1.07939,-1.17407 -1.95047,-2.59431 -2.63219,-4.22285 -0.66279,-1.6096 -1.00365,-3.56007 -1.00365,-5.83245 0,-2.61324 0.49236,-4.90456 1.45813,-6.87396 0.96577,-1.96939 2.2724,-3.61687 3.90095,-4.92349 1.64749,-1.30662 3.57903,-2.27239 5.81356,-2.91623 2.21559,-0.64384 4.58267,-0.96576 7.08231,-0.96576 1.2877,0 2.57539,0.0947 3.86308,0.28405 1.2877,0.2083 2.48071,0.47341 3.61691,0.81427 1.11726,0.32192 2.10197,0.70065 2.97305,1.13619 0.87109,0.4166 1.45813,0.75746 1.72324,1.04151 0.28405,0.28405 0.47342,0.51128 0.5681,0.71959 0.0947,0.18936 0.18937,0.45447 0.24618,0.77639 0.0757,0.32193 0.13255,0.71959 0.15149,1.21194 0.0379,0.49235 0.0568,1.09832 0.0568,1.83684 0,0.81428 -0.0379,1.49599 -0.0758,2.04515 -0.0379,0.56809 -0.11362,1.04151 -0.2083,1.4013 -0.0947,0.3598 -0.24618,0.62491 -0.41661,0.79534 -0.18936,0.17042 -0.43554,0.24617 -0.73853,0.24617 -0.30298,0 -0.79534,-0.18936 -1.47706,-0.58703 -0.66278,-0.39767 -1.49599,-0.81427 -2.4807,-1.26875 -0.96577,-0.47341 -2.10197,-0.89002 -3.38966,-1.26875 -1.2877,-0.37873 -2.70795,-0.56809 -4.24182,-0.56809 -1.21194,0 -2.2724,0.15149 -3.16242,0.43554 -0.89002,0.30298 -1.64749,0.70065 -2.25346,1.23087 -0.60598,0.51129 -1.04152,1.13619 -1.34451,1.85578 -0.28405,0.73853 -0.43554,1.51492 -0.43554,2.32919 0,1.19301 0.32192,2.23451 0.98471,3.12453 0.66278,0.87108 1.53387,1.66642 2.65113,2.34813 1.09833,0.68171 2.36708,1.34449 3.7684,1.93153 1.38237,0.60596 2.82156,1.24981 4.27968,1.91258 1.45813,0.68172 2.87838,1.43918 4.27969,2.29132 1.40131,0.85215 2.65113,1.87472 3.74946,3.06772 1.09833,1.193 1.96941,2.5943 2.65113,4.20391 0.66279,1.6096 1.00365,3.52219 1.00365,5.69989" /><path
           id="path17369"
           style="fill:#e0be05;fill-opacity:1;fill-rule:nonzero;stroke:none;stroke-width:18.9367"
           d="m 398.57227,125.43164 c 1.82772,3.22714 3.55016,6.48152 5.16992,9.76172 0.5628,0.20982 1.08571,0.43234 1.5664,0.66797 0.98471,0.45448 1.81769,0.86991 2.48047,1.26758 0.68172,0.39767 1.17554,0.58789 1.47852,0.58789 0.30299,0 0.54892,-0.0757 0.73828,-0.2461 0.17043,-0.17043 0.32132,-0.43512 0.41602,-0.79492 0.0947,-0.35979 0.17108,-0.83425 0.20898,-1.40234 0.0379,-0.54916 0.0762,-1.23065 0.0762,-2.04492 0,-0.73852 -0.0207,-1.34359 -0.0586,-1.83594 -0.0189,-0.49235 -0.0747,-0.89096 -0.15039,-1.21289 -0.0568,-0.32192 -0.1514,-0.58603 -0.2461,-0.77539 -0.0947,-0.20831 -0.28431,-0.43666 -0.56836,-0.72071 -0.26511,-0.28405 -0.85156,-0.62441 -1.72265,-1.04101 -0.87108,-0.43554 -1.85735,-0.8148 -2.97461,-1.13672 -1.1362,-0.34086 -2.32754,-0.60615 -3.61524,-0.81445 -0.93259,-0.13714 -1.86623,-0.22195 -2.79882,-0.25977 z" /></g></g></g></svg>
