<?xml version="1.0" encoding="UTF-8" standalone="no"?>
<svg
   xmlns:dc="http://purl.org/dc/elements/1.1/"
   xmlns:cc="http://creativecommons.org/ns#"
   xmlns:rdf="http://www.w3.org/1999/02/22-rdf-syntax-ns#"
   xmlns:svg="http://www.w3.org/2000/svg"
   xmlns="http://www.w3.org/2000/svg"
   xmlns:sodipodi="http://sodipodi.sourceforge.net/DTD/sodipodi-0.dtd"
   xmlns:inkscape="http://www.inkscape.org/namespaces/inkscape"
   inkscape:version="1.0 (4035a4f, 2020-05-01)"
   sodipodi:docname="Logo Vannes Olympique Club 2020.svg"
   viewBox="0 0 518.41021 700"
   id="svg162"
   height="700"
   width="518.41022"
   version="1.1">
  <metadata
     id="metadata168">
    <rdf:RDF>
      <cc:Work
         rdf:about="">
        <dc:format>image/svg+xml</dc:format>
        <dc:type
           rdf:resource="http://purl.org/dc/dcmitype/StillImage" />
        <dc:title></dc:title>
      </cc:Work>
    </rdf:RDF>
  </metadata>
  <defs
     id="defs166" />
  <sodipodi:namedview
     inkscape:current-layer="svg162"
     inkscape:window-maximized="0"
     inkscape:window-y="0"
     inkscape:window-x="0"
     inkscape:cy="245.00237"
     inkscape:cx="224.10307"
     inkscape:zoom="0.99780623"
     showgrid="false"
     id="namedview164"
     inkscape:window-height="900"
     inkscape:window-width="1440"
     inkscape:pageshadow="2"
     inkscape:pageopacity="0"
     guidetolerance="10"
     gridtolerance="10"
     objecttolerance="10"
     borderopacity="1"
     bordercolor="#666666"
     pagecolor="#ffffff" />
  <g
     transform="matrix(1.2347229,0,0,1.2347229,-108.29501,-169.75032)"
     id="g386">
    <path
       id="path10"
       style="fill:#c3a262;fill-rule:evenodd"
       d="m 482.7664,190.4804 c 30.6244,97.493 34.8614,204.5644 1.5586,301.9699 -31.3279,91.6296 -96.6572,160.8507 -179.3243,209.2063 l -2.1808,1.2756 c -3.521,2.0596 -6.3368,1.8584 -9.5139,0.0591 l -2.1865,-1.2384 C 201.6944,651.0967 134.6941,574.4143 105.4136,475.0609 99.0875,453.5953 94.5182,431.6336 91.6118,409.4474 82.0196,336.2192 90.5119,260.6633 112.6074,190.371 c 1.6142,-5.1344 1.8306,-5.3998 6.541,-8.0037 55.7534,-30.8219 116.2413,-45.2489 179.8322,-44.8799 64.1061,0.372 120.8982,14.022 177.2134,44.97 4.7392,2.6046 4.952,2.8638 6.5724,8.023 z" />
    <path
       id="path12"
       style="fill:#ffffff;fill-rule:evenodd"
       d="m 477.2532,192.2123 c 30.2882,96.4233 34.5465,202.0162 1.6037,298.3684 -30.8739,90.3014 -95.293,158.426 -176.7741,206.0877 l -4.0413,2.3639 -4.0737,-2.3076 C 205.7145,646.7324 139.7754,571.2137 110.9568,473.4272 83.9889,381.9208 89.6969,282.527 118.1204,192.1038 l 0.9758,-3.1045 2.8481,-1.5744 c 54.9315,-30.3678 114.3749,-44.5223 177.0027,-44.1587 63.2121,0.3667 118.7341,13.6293 174.4637,44.2556 l 2.8633,1.5736 z" />
    <path
       id="path14"
       style="fill:#8a8076;fill-rule:evenodd"
       d="m 477.2532,192.2123 c 1.9327,6.1528 3.7582,12.3434 5.4758,18.5659 -2.0072,-6.6478 -4.1559,-13.2708 -6.455,-19.8635 l -2.8633,-1.5736 C 417.6811,158.7148 362.1591,145.4521 298.947,145.0855 236.3192,144.7218 176.8758,158.8764 121.9443,189.2441 l -2.8481,1.5745 c -1.6187,4.4897 -3.1677,8.9773 -4.6481,13.4629 1.1789,-4.076 2.4018,-8.1361 3.6723,-12.1777 l 0.9758,-3.1045 2.8481,-1.5744 c 54.9315,-30.3678 114.3749,-44.5223 177.0027,-44.1587 63.2121,0.3667 118.7341,13.6293 174.4637,44.2556 l 2.8633,1.5736 z" />
    <path
       id="path16"
       style="fill:#0e0e0e;fill-rule:evenodd"
       d="m 125.8793,194.5427 c 56.2837,-31.1152 114.8305,-43.4813 173.0206,-43.1435 56.4017,0.3272 111.3738,10.706 170.5938,43.2505 32.7119,104.1389 31.2402,206.8042 1.6673,293.2999 C 444.2366,566.6996 387.9651,637.01 297.9764,689.6479 207.5428,638.4205 145.8064,562.9074 118.7582,471.1281 95.8796,393.4971 93.6997,296.9148 125.8793,194.5427 Z" />
  </g>
  <g
     transform="matrix(1.2347229,0,0,1.2347229,-108.29501,-169.75032)"
     id="g372">
    <path
       d="m 347.2538,479.6574 c -8.552,0.1058 -16.4585,1.632 -23.9087,4.1612 -10.2095,3.4663 -18.4998,8.4624 -28.5477,14.9783 5.1196,-5.6709 16.8425,-12.4934 25.9919,-15.8314 8.7057,-3.1764 20.4785,-4.7258 26.4645,-3.3081 z"
       style="fill:#ffffff;fill-rule:evenodd"
       id="path23" />
    <path
       d="m 344.7728,481.3003 c -7.8179,2.0308 -15.3326,5.1691 -22.5103,9.7581 -6.7428,4.3108 -12.8352,9.2288 -19.3131,16.4924 2.8749,-6.2223 10.3306,-12.8827 17.2492,-17.2603 7.389,-4.6755 19.8877,-9.2265 24.5742,-8.9902 z"
       style="fill:#ffffff;fill-rule:evenodd"
       id="path25" />
    <path
       d="m 347.7153,485.801 c -8.4804,6.1482 -11.9139,9.702 -15.5714,15.7413 -2.8449,4.6974 -4.6041,9.9698 -4.8566,16.0397 -1.3769,-6.1863 0.2279,-12.9626 3.9495,-18.2808 3.7209,-5.3159 8.6015,-9.8285 16.4785,-13.5002 z"
       style="fill:#ffffff;fill-rule:evenodd"
       id="path27" />
    <path
       d="m 352.334,489.8624 c -3.0859,5.7675 -4.9456,10.0023 -5.2722,14.6609 -0.2881,4.1101 -0.013,6.6735 3.2304,11.5785 -3.7413,-2.4811 -5.4525,-7.2371 -5.058,-11.6562 0.4651,-5.2082 3.8705,-10.8813 7.0998,-14.5832 z"
       style="fill:#ffffff;fill-rule:evenodd"
       id="path29" />
    <path
       d="m 384.1206,405.0878 c -5.5369,-6.3197 -10.5945,-11.486 -16.0041,-15.8846 -5.381,-4.3752 -11.1125,-7.9917 -17.5872,-11.228 -19.6031,-9.7992 -42.1594,-13.9664 -62.588,-13.2886 -27.6842,0.9184 -51.5119,10.138 -70.7252,23.0848 -31.0435,20.9181 -50.193,53.4893 -53.6421,88.8735 -1.0886,11.168 0.2547,22.0773 2.2813,32.5644 1.6451,8.5127 3.6079,16.752 7.0149,24.6337 3.4069,7.8817 8.5818,15.4085 13.436,22.4915 6.423,9.3715 13.6096,18.1579 21.9979,25.9718 7.4014,6.8943 15.8124,13.0347 24.4489,18.1526 22.4893,13.3275 48.4464,20.3826 73.8407,19.4918 38.3462,-1.3454 80.6961,-23.2455 101.2754,-56.6645 2.7103,-4.4011 5.745,-9.4229 7.9737,-14.9426 6.9751,-17.2727 9.8405,-38.5003 1.1481,-53.2723 -4.3185,-0.3251 -8.3164,-0.2551 -12.0168,0.1905 1.1322,1.2523 2.1585,2.5572 3.1088,3.915 3.7216,5.3183 5.3264,12.0945 3.9495,18.2809 -0.2525,-6.07 -2.0117,-11.3424 -4.8566,-16.0397 -1.3377,-2.2088 -2.6458,-4.0852 -4.1815,-5.8778 -3.7909,0.613 -7.2554,1.6402 -10.4212,3.0603 0.7907,1.8909 1.3442,3.8363 1.5124,5.7208 0.3944,4.4191 -1.3167,9.1751 -5.058,11.6561 3.2434,-4.9049 3.5185,-7.4684 3.2304,-11.5784 -0.1229,-1.7508 -0.4621,-3.4418 -1.0017,-5.1768 -2.386,1.1845 -4.5954,2.6016 -6.6405,4.2428 -12.5054,10.0361 -19.5599,27.5759 -26.7158,42.6998 -7.2837,15.3935 -15.0063,27.0794 -27.0454,34.8821 -9.7418,6.3139 -22.4021,8.7924 -34.9512,9.1466 -12.6413,0.3568 -29.8254,-1.3274 -47.5478,-9.5025 -12.5236,-5.7771 -25.2525,-15.5051 -36.8382,-28.6267 13.4101,18.9717 29.8937,31.2625 46.1526,38.5083 14.1029,6.285 28.0374,8.7746 39.6503,8.5368 17.6922,-0.3626 34.2374,-5.7519 48.3207,-17.0893 14.0832,-11.3374 23.0398,-25.0945 34.6916,-44.8936 6.0036,-10.2014 16.0699,-13.1223 21.7558,-10.5134 8.1775,3.7521 4.0525,14.5423 2.9748,17.8424 -3.8776,11.874 -12.7051,23.7067 -24.2732,34.3648 -8.7485,8.0602 -23.0717,18.484 -36.2335,24.3215 -15.6431,6.938 -33.9952,9.693 -49.6152,9.1675 -15.966,-0.5372 -32.1896,-4.4368 -47.2869,-11.7233 -23.1883,-11.1912 -43.1476,-29.2392 -57.0878,-51.3229 -11.5504,-18.2977 -19.3146,-39.2993 -19.1453,-61.2758 0.2078,-26.9833 8.0636,-52.9406 25.5272,-73.418 6.5509,-7.6811 14.4229,-14.4531 23.3142,-20.3333 18.9161,-12.5106 43.8109,-21.0348 71.46,-21.9622 15.6044,-0.5233 33.2743,2.7993 48.6088,9.6096 6.9483,3.0859 12.6396,6.224 18.0396,10.0194 6.517,4.5807 12.6107,10.1688 19.98,18.4189 -0.6303,1.1031 -1.6039,2.5384 -1.88,3.7599 6.0941,-4.7485 10.0119,-4.9095 13.5481,-4.0467 1.5023,0.3664 3.694,1.3676 5.3893,3.2316 1.9428,2.136 3.5733,5.3294 3.5985,7.7845 0.0116,1.1154 -0.3482,2.08 -0.927,2.7234 0.613,0.1451 1.3568,0.9212 1.8679,2.9009 0.845,3.273 2.956,11.0372 2.9397,17.1743 -0.01,3.682 -0.7574,7.4177 -2.1775,11.0325 -1.6181,4.1179 -4.2768,7.8033 -7.5564,11.106 -3.1972,3.2197 -6.2407,5.1498 -8.7393,9.5015 -1.662,2.8941 -3.0782,7.1797 -6.0695,10.5365 -1.8854,2.1155 -4.8298,3.767 -8.9643,3.9506 -6.3633,0.2828 -9.4308,-4.3816 -11.9992,-8.845 -1.093,-1.8998 -1.806,-3.767 -3.6362,-5.6688 -4.6776,-4.8607 -11.1062,-9.0831 -15.511,-16.3959 -2.5414,-4.2192 -3.4119,-9.195 -3.4228,-14.0507 -0.0109,-4.9146 0.8887,-10.559 2.1042,-14.7955 0.9451,-3.2953 1.1705,-5.5034 3.5052,-6.3281 -1.4169,-2.8806 0.5344,-6.3107 1.5273,-8.4655 0.9929,-2.1549 3.2177,-3.9703 4.8634,-4.8667 3.9741,-2.1649 11.1818,-0.5847 16.0667,3.6392 -2.0111,-3.1127 -6.8779,-13.3938 -17.4932,-10.9804 -5.6078,1.2747 -10.3469,7.6867 -13.3318,16.6317 -2.8012,8.3947 -4.4441,19.1258 -4.1297,28.2914 0.2196,6.4032 2.7103,12.8834 7.3368,18.5531 4.186,5.1295 9.7467,8.551 15.0652,13.8786 2.6019,2.6065 4.1023,5.491 5.6874,7.7865 2.4733,3.5814 6.2818,7.0469 13.7217,6.8057 4.9885,-0.162 9.066,-1.84 12.1835,-5.4593 3.1176,-3.6192 5.277,-9.1812 8.5647,-13.2543 4.063,-5.0331 8.9994,-7.6751 12.7366,-12.5833 2.9067,-3.8172 5.2123,-8.1241 6.2077,-14.2332 1.2607,-7.736 -0.8525,-15.306 -2.1863,-21.7674 -0.4476,-2.1679 -0.6905,-4.3211 -1.0931,-6.4002 -0.4563,-2.356 -1.0885,-4.6183 -1.9014,-6.7007 -2.5508,-6.5337 -6.8086,-11.53 -12.3547,-11.9651 -2.516,-0.1974 -5.1526,0.3069 -7.7709,2.285 z"
       style="fill:#ffffff;fill-rule:evenodd"
       id="path31" />
    <path
       d="m 328.1143,394.593 c -1.9475,0.7242 -7.4971,0.1033 -11.9966,0.0672 -11.0699,-0.0889 -23.9966,0.9361 -25.0787,8.7825 -0.4764,3.4545 1.6401,7.0502 4.897,9.7936 3.5769,3.0134 8.75,5.1864 13.6062,9.0463 7.9333,6.3055 16.2028,16.1719 15.0278,26.4431 -0.9341,8.1631 -10.2827,15.8742 -21.2662,15.6799 -10.4387,-0.1847 -21.4476,-9.7641 -21.2661,-22.4253 0.0751,-5.2367 3.7882,-9.5781 10.6331,-7.9269 4.2106,1.0156 7.64,4.1351 10.1605,8.3883 -2.166,-1.6146 -8.1589,-5.1598 -12.0286,-3.8988 -3.6554,1.1913 -4.079,6.0057 -2.8355,9.6434 2.9612,8.6614 9.9482,12.6552 16.7544,12.2246 5.8347,-0.3692 13.9017,-3.8322 13.7159,-13.0071 -0.1851,-9.1423 -9.1352,-18.3382 -21.6173,-23.7202 -7.3291,-3.1601 -15.3103,-3.9589 -23.5252,-3.5602 -16.3678,0.7947 -32.2654,8.1328 -40.7628,22.0664 -6.1581,10.0978 -8.3592,23.0295 -8.2785,34.1596 0.083,11.4393 1.9945,21.6118 4.4464,30.6004 3.6321,13.3159 9.2716,24.3935 15.44,32.9015 3.8031,5.2459 8.1043,9.9447 12.1816,13.521 5.5877,4.9009 10.7595,8.0856 13.6652,10.157 -5.3176,-1.9192 -12.6173,-6.9654 -18.1693,-11.3044 -7.9332,-6.2001 -14.7131,-13.6077 -19.801,-21.3591 -7.2895,-11.1058 -11.8646,-22.6832 -14.0546,-36.5969 -1.8019,-11.4487 -2.2525,-21.2672 0.1883,-36.1986 -7.1409,8.7772 -10.9939,23.9597 -10.2351,40.2121 0.2812,6.0224 1.1356,12.939 2.6824,20.2679 1.1288,5.3478 3.7475,11.9795 4.7952,16.5172 -5.1396,-7.9391 -9.8067,-22.762 -11.3143,-33.5838 -2.1016,-15.0856 0.2664,-29.2885 5.8175,-41.9313 4.2434,-9.6641 10.2149,-18.3118 18.2676,-25.8534 10.6251,-14.0355 25.7087,-21.6071 43.0962,-22.3757 5.0924,-0.2251 11.0461,0.0653 16.0945,1.5821 -1.787,-3.2267 -2.3587,-5.3644 -2.1802,-7.7389 0.7014,-9.3215 10.7348,-12.8688 26.6114,-12.8983 5.7116,-0.0105 11.4887,0.7895 16.3288,2.3248 z"
       style="fill:#ffffff;fill-rule:evenodd"
       id="path33" />
    <path
       d="m 283.5736,435.3085 c 3.0337,-2.1949 6.4721,-3.4701 10.2699,-3.2075 4.5834,0.317 9.693,2.4256 15.2494,6.3238 -4.3319,-5.7891 -10.1853,-9.2275 -16.1011,-9.6031 -3.7173,-0.2361 -8.5124,1.7216 -9.4182,6.4868 z"
       style="fill:#ffffff;fill-rule:evenodd"
       id="path35" />
    <path
       d="m 369.4651,479.5393 a 6.498,3.9579 0 0 1 6.498,3.9578 6.498,3.9579 0 1 1 -6.498,-3.9578 z"
       style="fill:#ffffff;fill-rule:evenodd"
       id="path37" />
    <path
       d="m 348.7786,444.332 c -0.8763,6.6984 0.6196,10.2397 3.1051,12.7745 1.491,1.5205 3.8136,2.422 6.3242,2.7026 l 1.0008,2.9536 c 1.674,-6.3017 -0.3005,-10.2902 -1.8533,-12.2873 -1.4607,-1.8788 -3.6088,-3.5048 -7.3106,-3.1897 z"
       style="fill:#ffffff;fill-rule:evenodd"
       id="path39" />
    <path
       d="m 394.6529,444.3913 c 0.8762,6.6983 -0.6196,10.2397 -3.1052,12.7745 -1.4909,1.5204 -3.8136,2.4219 -6.3242,2.7025 l -1.0008,2.9537 c -1.6739,-6.3017 0.3005,-10.2902 1.8533,-12.2873 1.4608,-1.8788 3.6088,-3.5048 7.3107,-3.1897 z"
       style="fill:#ffffff;fill-rule:evenodd"
       id="path41" />
    <path
       d="m 392.0659,479.5331 c 8.552,0.1057 16.4585,1.632 23.9087,4.1612 10.2095,3.4662 18.4998,8.4623 28.5477,14.9783 -5.1196,-5.671 -16.8425,-12.4934 -25.9919,-15.8315 -8.7057,-3.1764 -20.4785,-4.7258 -26.4645,-3.308 z"
       style="fill:#ffffff;fill-rule:evenodd"
       id="path43" />
    <path
       d="m 394.5469,481.176 c 7.8179,2.0307 15.3326,5.169 22.5103,9.7581 6.7428,4.3108 12.8352,9.2288 19.3131,16.4924 -2.8749,-6.2224 -10.3306,-12.8828 -17.2492,-17.2604 -7.389,-4.6755 -19.8877,-9.2264 -24.5742,-8.9901 z"
       style="fill:#ffffff;fill-rule:evenodd"
       id="path45" />
    <path
       d="m 391.6044,485.6766 c 5.3786,3.8997 8.7269,6.7557 11.3901,9.8639 0.6502,-0.1051 1.3095,-0.1987 1.979,-0.2794 -3.3008,-3.6505 -7.5042,-6.8507 -13.3691,-9.5845 z"
       style="fill:#ffffff;fill-rule:evenodd"
       id="path47" />
    <path
       d="m 386.9857,489.7381 c 1.926,3.5998 3.3746,6.6026 4.2705,9.4841 0.4332,-0.2149 0.872,-0.4223 1.3169,-0.6217 -1.3944,-3.3349 -3.5268,-6.5002 -5.5874,-8.8624 z"
       style="fill:#ffffff;fill-rule:evenodd"
       id="path49" />
    <path
       id="path52"
       style="fill:#dcdcdc;fill-rule:evenodd"
       d="m 384.1206,405.0878 c -5.5369,-6.3197 -10.5945,-11.486 -16.0041,-15.8846 -5.381,-4.3752 -11.1125,-7.9917 -17.5872,-11.228 -19.6031,-9.7992 -42.1594,-13.9664 -62.588,-13.2886 -27.6842,0.9184 -51.5119,10.138 -70.7252,23.0848 -31.0435,20.9181 -50.193,53.4893 -53.6421,88.8735 -0.299,3.0669 -0.4138,6.1134 -0.3821,9.1379 0.0255,-2.391 0.1464,-4.7947 0.3821,-7.2116 3.4491,-35.3842 22.5986,-67.9555 53.6421,-88.8736 19.2133,-12.9467 43.041,-22.1663 70.7252,-23.0847 20.4286,-0.6778 42.9849,3.4893 62.588,13.2885 6.4747,3.2364 12.2062,6.8529 17.5872,11.2281 5.4096,4.3986 10.4672,9.5648 16.0041,15.8845 2.6183,-1.978 5.2549,-2.4823 7.7709,-2.285 5.5461,0.4352 9.8039,5.4315 12.3547,11.9652 0.8129,2.0823 1.4451,4.3446 1.9014,6.7007 0.4026,2.0791 0.6455,4.2322 1.0931,6.4002 0.9894,4.7936 2.4072,10.1973 2.5587,15.8263 0.1762,-6.3202 -1.4567,-12.4145 -2.5587,-17.7526 -0.4476,-2.1679 -0.6905,-4.3211 -1.0931,-6.4002 -0.4563,-2.356 -1.0885,-4.6183 -1.9014,-6.7007 -2.5508,-6.5337 -6.8086,-11.53 -12.3547,-11.9651 -2.516,-0.1974 -5.1526,0.3069 -7.7709,2.285 z m 6.5734,94.4229 0.5631,-0.2938 c 0.1928,0.62 0.36,1.2135 0.4959,1.834 l -10e-4,4e-4 c 0.2556,1.1094 0.4268,2.2165 0.506,3.3477 0.077,1.0993 0.1134,2.087 0.0638,3.0394 -0.0906,-2.1465 -0.426,-4.2331 -1.0655,-6.2899 l -0.006,-0.0169 0.0131,0.0128 -0.007,0.004 c -2.386,1.1844 -4.5954,2.6015 -6.6405,4.2427 -12.5054,10.0362 -19.5599,27.576 -26.7158,42.6999 -7.2837,15.3935 -15.0063,27.0794 -27.0454,34.8821 -9.7418,6.3139 -22.4021,8.7924 -34.9512,9.1466 -12.6413,0.3568 -29.8254,-1.3274 -47.5478,-9.5025 -9.4422,-4.3558 -19.0006,-10.9582 -28.0982,-19.5668 -3.0262,-3.3834 -5.9501,-7.0392 -8.74,-10.9862 11.5857,13.1216 24.3146,22.8496 36.8382,28.6267 17.7224,8.1751 34.9065,9.8593 47.5478,9.5025 12.5491,-0.3542 25.2094,-2.8327 34.9512,-9.1466 12.0391,-7.8027 19.7617,-19.4886 27.0454,-34.8821 7.1559,-15.1239 14.2104,-32.6637 26.7158,-42.6998 1.8832,-1.5113 3.9054,-2.8332 6.077,-3.9577 z m 12.3005,-2.044 c 0.048,0.0559 0.0957,0.1122 0.1432,0.1683 1.4743,1.742 2.7424,3.5698 4.0381,5.7092 2.8447,4.6974 4.6041,9.9698 4.8566,16.0397 0.3987,-1.7916 0.5464,-3.6334 0.466,-5.4742 -0.0536,1.1943 -0.2064,2.3819 -0.466,3.548 -0.2525,-6.07 -2.0119,-11.3426 -4.8566,-16.0397 -0.9173,-1.5147 -2.1621,-3.4622 -4.1695,-5.8782 -0.8163,0.1306 -1.4338,0.2474 -2.124,0.3913 -2.9761,0.6237 -5.741,1.5172 -8.3092,2.6694 0.2291,0.5475 0.4371,1.0992 0.6229,1.6531 2.902,-1.2394 6.0511,-2.1555 9.4668,-2.7325 0.0586,-0.01 0.5719,-0.0933 0.3317,-0.0544 z m 19.3835,20.8107 c 0.1308,-8.4187 -1.4299,-16.481 -5.3871,-23.2061 -4.3185,-0.3251 -8.3164,-0.2551 -12.0168,0.1905 0.5224,0.5779 1.022,1.1667 1.5025,1.767 3.274,-0.2983 6.7741,-0.3129 10.5143,-0.0312 3.6543,6.2103 5.2649,13.561 5.3871,21.2798 z m -15.3505,17.7817 c -0.2112,3.4549 -1.4434,6.801 -1.9644,8.3964 -3.8776,11.874 -12.7051,23.7067 -24.2732,34.3648 -8.7485,8.0602 -23.0717,18.484 -36.2335,24.3215 -15.6431,6.938 -33.9952,9.693 -49.6152,9.1675 -15.966,-0.5372 -32.1896,-4.4368 -47.2869,-11.7233 -23.1883,-11.1912 -43.1476,-29.2392 -57.0878,-51.3229 -11.2638,-17.8436 -18.9253,-38.2589 -19.1417,-59.6419 l -0.004,0.2924 c -0.1693,21.9765 7.5949,42.978 19.1453,61.2758 13.9402,22.0837 33.8995,40.1316 57.0878,51.3229 15.0973,7.2865 31.3209,11.1861 47.2869,11.7233 15.62,0.5255 33.9721,-2.2295 49.6152,-9.1676 13.1618,-5.8374 27.485,-16.2612 36.2335,-24.3214 11.5681,-10.6581 20.3956,-22.4908 24.2732,-34.3648 0.6177,-1.8918 2.2354,-6.2452 1.9644,-10.3227 z M 377.6646,411.4824 c -0.5021,0.8516 -1.0072,1.7743 -1.1936,2.5992 0.486,-0.3789 0.9586,-0.7286 1.4179,-1.0507 0.1637,-0.2738 0.3213,-0.5364 0.4621,-0.783 -0.2301,-0.2576 -0.4587,-0.513 -0.6864,-0.7655 z m 21.2567,10.5228 c -0.138,0.7082 -0.4356,1.318 -0.8414,1.7692 0.241,0.0569 0.5013,0.211 0.7607,0.4978 0.1115,-0.3979 0.171,-0.8332 0.1663,-1.2949 -0.003,-0.3131 -0.0327,-0.6386 -0.0856,-0.9721 z m 3.9491,22.732 c -0.1175,3.3933 -0.8544,6.8203 -2.1604,10.1449 -1.6181,4.1179 -4.2768,7.8033 -7.5564,11.106 -3.1972,3.2197 -6.2407,5.1498 -8.7393,9.5015 -1.662,2.8941 -3.0782,7.1797 -6.0695,10.5365 -1.8854,2.1155 -4.8298,3.767 -8.9643,3.9506 -6.3633,0.2828 -9.4308,-4.3816 -11.9992,-8.845 -1.093,-1.8998 -1.806,-3.767 -3.6362,-5.6688 -4.6776,-4.8607 -11.1062,-9.0831 -15.511,-16.3959 -2.3892,-3.9664 -3.3012,-8.6019 -3.411,-13.1774 -0.008,0.3537 -0.0126,0.7056 -0.0118,1.053 0.0109,4.8557 0.8814,9.8315 3.4228,14.0507 4.4048,7.3128 10.8334,11.5352 15.511,16.3958 1.8302,1.9019 2.5432,3.7691 3.6362,5.6689 2.5684,4.4634 5.6359,9.1277 11.9992,8.845 4.1345,-0.1836 7.0789,-1.8351 8.9643,-3.9506 2.9913,-3.3568 4.4075,-7.6424 6.0695,-10.5365 2.4986,-4.3517 5.5421,-6.2818 8.7393,-9.5015 3.2796,-3.3027 5.9383,-6.9881 7.5564,-11.1061 1.4201,-3.6147 2.1677,-7.3504 2.1775,-11.0324 9e-4,-0.3414 -0.005,-0.6883 -0.0171,-1.0387 z m -62.9247,-20.6435 c 0.1481,-0.0743 0.3057,-0.141 0.475,-0.201 -0.2107,-0.428 -0.3457,-0.8689 -0.4217,-1.3154 -0.0745,0.5051 -0.0987,1.0136 -0.0533,1.5164 z m 20.7043,-11.545 c 0.7797,0.4937 1.5275,1.0453 2.2281,1.651 -2.0111,-3.1127 -6.8779,-13.3938 -17.4932,-10.9804 -5.6078,1.2747 -10.3469,7.6867 -13.3318,16.6317 -2.6692,7.9989 -4.286,18.1185 -4.1605,26.9846 0.1123,-8.3808 1.6829,-17.6332 4.1605,-25.0584 2.9849,-8.9449 7.724,-15.3569 13.3318,-16.6317 7.8271,-1.7794 12.5289,3.3419 15.2651,7.4032 z" />
    <path
       id="path54"
       style="fill:#dcdcdc;fill-rule:evenodd"
       d="m 328.1143,394.593 c -1.3437,0.4997 -4.4018,0.3582 -7.6471,0.211 -2.8216,-0.4086 -5.7604,-0.6149 -8.6817,-0.6096 -15.7835,0.0294 -25.7903,3.5363 -26.5964,12.7357 -0.0571,-0.5871 -0.0597,-1.1677 -0.015,-1.7636 0.7014,-9.3215 10.7348,-12.8688 26.6114,-12.8983 5.7116,-0.0105 11.4887,0.7895 16.3288,2.3248 z m -37.0787,10.803 c 0.3621,2.8207 2.2548,5.6119 4.9004,7.8403 3.5769,3.0134 8.75,5.1864 13.6062,9.0463 7.6702,6.0964 15.6544,15.5215 15.1134,25.4228 -0.4964,-9.1879 -7.9423,-17.7967 -15.1134,-23.4965 -4.8562,-3.8599 -10.0293,-6.0329 -13.6062,-9.0463 -3.2483,-2.7364 -5.3621,-6.3203 -4.9004,-9.7666 z m -8.9733,37.9271 c -0.4593,-6.8008 3.9393,-10.8871 10.6085,-9.2697 4.2106,1.0156 7.64,4.1351 10.1605,8.3883 -0.6081,-0.4533 -1.5169,-1.059 -2.5965,-1.6675 -2.1206,-2.3886 -4.6562,-4.0931 -7.564,-4.7945 -6.5892,-1.5896 -10.275,2.3738 -10.6085,7.3434 z m 5.3198,2.1005 c 0.0845,0.9445 0.2861,1.8878 0.5851,2.7627 2.9612,8.6614 9.9482,12.6552 16.7544,12.2246 5.5547,-0.3514 13.1329,-3.5077 13.687,-11.7263 0.0142,0.2151 0.0247,0.4304 0.0289,0.6455 0.1858,9.1749 -7.8812,12.6379 -13.7159,13.0071 -6.8062,0.4306 -13.7932,-3.5632 -16.7544,-12.2246 -0.5044,-1.476 -0.7339,-3.146 -0.5851,-4.689 z m -63.1246,31.2901 c 0.1205,11.2909 2.0168,21.3431 4.4426,30.2361 3.6321,13.3159 9.2716,24.3935 15.44,32.9015 3.8031,5.2459 8.1043,9.9447 12.1816,13.521 5.5877,4.9009 10.7595,8.0856 13.6652,10.157 -3.381,-1.2204 -7.563,-3.7055 -11.588,-6.4686 -0.6834,-0.5612 -1.3771,-1.1481 -2.0772,-1.7621 -4.0773,-3.5763 -8.3785,-8.2751 -12.1816,-13.521 -6.1684,-8.508 -11.8079,-19.5856 -15.44,-32.9015 -2.4519,-8.9887 -4.3634,-19.1611 -4.4464,-30.6004 -0.004,-0.5169 -0.002,-1.0379 0.004,-1.562 z m -7.7882,1.203 c -0.055,-5.2529 0.3324,-10.8543 1.3086,-17.4516 0.1233,-0.1582 0.247,-0.3145 0.3724,-0.4686 -1.1161,6.8281 -1.6268,12.5859 -1.681,17.9202 z m -8.6423,17.334 c 0.0118,1.0055 0.0409,2.0166 0.0882,3.0317 0.2812,6.0224 1.1356,12.939 2.6824,20.2679 1.1288,5.3478 3.7475,11.9795 4.7952,16.5172 -0.3202,-0.4946 -0.6385,-1.0167 -0.9544,-1.5622 -1.2373,-4.0844 -2.9763,-8.9328 -3.8408,-13.0287 -1.5468,-7.3289 -2.4012,-14.2455 -2.6824,-20.2679 -0.0777,-1.6658 -0.1058,-3.3205 -0.0882,-4.958 z m -4.5004,-3.6803 c -0.1398,-11.4044 2.2511,-22.183 6.5694,-32.018 4.2434,-9.6641 10.2149,-18.3118 18.2676,-25.8534 10.6251,-14.0355 25.7087,-21.6071 43.0962,-22.3757 4.7202,-0.2086 10.1806,0.0253 14.9738,1.2686 0.3024,0.6922 0.6733,1.4319 1.1207,2.2398 -5.0484,-1.5168 -11.0021,-1.8072 -16.0945,-1.5821 -17.3875,0.7686 -32.4711,8.3402 -43.0962,22.3757 -8.0527,7.5416 -14.0242,16.1893 -18.2676,25.8534 -4.0743,9.2795 -6.4333,19.3991 -6.5694,30.0917 z" />
    <path
       id="path56"
       style="fill:#dcdcdc;fill-rule:evenodd"
       d="m 283.5736,435.3085 c 0.3399,-0.2459 0.6845,-0.4796 1.0344,-0.7016 1.8315,-2.8599 5.4445,-4.0456 8.3838,-3.859 4.0544,0.2575 8.0788,1.9535 11.605,4.859 1.4635,0.803 2.963,1.7424 4.4961,2.8179 -4.3319,-5.7891 -10.1853,-9.2275 -16.1011,-9.6031 -3.7173,-0.2361 -8.5124,1.7216 -9.4182,6.4868 z" />
    <path
       id="path58"
       style="fill:#dcdcdc;fill-rule:evenodd"
       d="m 369.4651,479.5393 c 3.5882,0 6.498,1.7724 6.498,3.9578 0,0.3322 -0.0681,0.6543 -0.1946,0.9628 -0.7065,-1.7202 -3.2605,-2.9943 -6.3034,-2.9943 -3.0429,0 -5.5969,1.2741 -6.3034,2.9943 -0.1265,-0.3085 -0.1946,-0.6306 -0.1946,-0.9628 0,-2.1854 2.9098,-3.9578 6.498,-3.9578 z" />
    <path
       id="path60"
       style="fill:#dcdcdc;fill-rule:evenodd"
       d="m 348.7786,444.332 c -0.2228,1.7037 -0.292,3.2024 -0.2306,4.533 0.0339,-0.8125 0.1092,-1.6788 0.2306,-2.6067 l 1.2662,2.9537 c 3.7018,-0.3151 5.8499,1.3109 7.3106,3.1897 1.0332,1.3287 2.2521,3.5385 2.4597,6.725 0.263,-4.2393 -1.2299,-7.0696 -2.4597,-8.6513 -1.4607,-1.8788 -3.6088,-3.5048 -7.3106,-3.1897 z" />
    <path
       id="path62"
       style="fill:#dcdcdc;fill-rule:evenodd"
       d="m 394.6529,444.3913 c 0.2228,1.7037 0.2919,3.2024 0.2305,4.533 -0.0338,-0.8125 -0.1092,-1.6789 -0.2305,-2.6067 l -1.2662,2.9536 c -3.7019,-0.315 -5.8499,1.311 -7.3107,3.1897 -1.0331,1.3287 -2.252,3.5386 -2.4596,6.7251 -0.2631,-4.2393 1.2298,-7.0696 2.4596,-8.6513 1.4608,-1.8788 3.6088,-3.5048 7.3107,-3.1897 z" />
  </g>
  <g
     transform="matrix(1.2347229,0,0,1.2347229,-108.29501,-169.75032)"
     id="g350">
    <path
       d="m 118.0078,361.9849 c 17.1583,-11.8693 35.9191,-19.9201 54.6077,-26.0983 24.593,-8.13 49.882,-12.4542 75.2834,-14.4948 5.8225,-0.4679 11.7497,-0.7076 17.7055,-0.8202 v 5.0006 c -25.7488,1.2057 -51.6799,4.3063 -77.9779,11.1207 -23.6836,6.1367 -47.1062,14.6281 -68.9098,26.8279 -1.1513,0.6442 -1.9276,-0.6928 -0.7089,-1.5359 z m 212.2256,-41.1021 c 9.4899,0.238 19.0546,0.7121 28.6369,1.6723 21.9329,2.1978 43.9652,6.8425 65.4154,14.0314 18.1089,6.0691 37.7047,15.0044 52.5844,25.657 1.306,0.9351 0.5736,2.2451 -0.6978,1.5247 -21.1145,-11.9652 -40.4094,-19.2048 -60.8526,-24.9935 -28.3677,-8.0327 -56.8336,-11.7434 -85.0863,-13.1678 z"
       style="fill:#ffffff;fill-rule:evenodd"
       id="path18" />
    <path
       d="m 135.5233,353.1996 c 16.6094,-7.6163 34.0035,-13.4752 51.7006,-18.0606 18.2575,-4.7309 36.8386,-7.7869 55.6057,-9.5775 7.5784,-0.723 15.1724,-1.2401 22.7748,-1.5945 v -1.7978 c -5.8693,0.1125 -11.7317,0.3531 -17.5768,0.8227 -25.4376,2.0433 -50.6406,6.3963 -74.9083,14.4188 -12.9574,4.2836 -25.6126,9.3746 -37.596,15.7889 z M 330.2334,324 c 28.9445,1.4571 57.582,5.318 85.5236,13.2303 3.5148,0.9952 7.0159,2.0391 10.498,3.143 8.4936,2.6928 16.8521,5.7459 25.0442,9.2535 2.3139,0.9907 4.611,2.0161 6.8918,3.0752 -3.8815,-2.0464 -7.8265,-3.953 -11.7745,-5.7335 -7.3839,-3.3299 -14.961,-6.2861 -22.6409,-8.86 -21.0707,-7.0616 -42.9547,-11.7405 -65.0654,-13.9561 -9.479,-0.9499 -18.9736,-1.4208 -28.4768,-1.659 z"
       style="fill:#c3a262;fill-rule:evenodd"
       id="path20" />
    <g
       id="g342">
      <path
         id="path64"
         style="fill:#c3a262;fill-rule:evenodd"
         d="m 275.699,305.152 c 2.4342,1.9108 0,3.3444 1.3479,4.5077 0.4536,0.3914 0.8712,1.0714 0.8712,1.718 0,1.2934 -1.0477,2.3884 -2.5273,2.2807 -1.4736,-0.1074 -2.2191,-0.9257 -2.1575,-2.404 0.0202,-0.4845 0.2222,-1.2313 0.8003,-1.862 0.7996,-0.8724 1.751,-1.7825 1.6654,-4.2404 z m -0.1849,11.2803 c -1.3647,5.8486 -3.2677,11.8192 -8.2599,18.4922 1.8903,-0.452 3.1439,-1.4793 4.3765,-2.5889 -0.8835,2.5889 -1.2739,3.6368 -2.8355,6.2258 1.8822,-1.0591 3.7935,-3.1538 4.9766,-5.2395 0.3776,4.7204 0.9332,8.6346 1.8039,11.7118 1.1919,-3.4828 1.4588,-8.0853 1.7876,-11.7118 1.2046,2.1138 2.7608,3.927 5.1162,5.5477 -1.1301,-1.8904 -2.2602,-4.0855 -2.7739,-6.4073 1.2329,1.2226 2.6502,1.9997 4.0067,2.5855 -3.917,-5.4526 -6.398,-11.478 -8.1982,-18.6155 z m -10.7234,-0.6224 c 1.4261,2.6856 3.1584,0.2114 4.3602,1.5245 0.4041,0.4418 0.8497,0.8112 1.6194,0.8208 1.6011,0.0203 2.6685,-1.0556 2.5181,-2.5309 -0.2498,-2.4502 -3.0397,-2.5211 -4.4926,-1.1093 -0.8482,0.824 -1.361,1.617 -4.0051,1.2949 z m 21.3947,0.4315 c -1.9808,2.3776 -3.1582,-0.097 -4.36,1.2163 -0.4043,0.4417 -0.8497,0.8112 -1.6194,0.8208 -1.6011,0.0203 -2.6687,-1.0554 -2.518,-2.5309 0.15,-1.47 1.3614,-2.1857 2.6542,-2.1482 0.4847,0.0141 1.2247,0.2579 1.8381,0.8542 0.8488,0.8244 1.1142,1.8019 4.0051,1.7878 z" />
      <path
         id="path66"
         style="fill:#c3a262;fill-rule:evenodd"
         d="m 297.6372,305.152 c 2.4341,1.9108 0,3.3444 1.3479,4.5077 0.4536,0.3914 0.8711,1.0714 0.8711,1.718 0,1.2934 -1.0477,2.3884 -2.5273,2.2807 -1.4736,-0.1074 -2.219,-0.9257 -2.1574,-2.404 0.0201,-0.4845 0.2222,-1.2313 0.8003,-1.862 0.7996,-0.8724 1.751,-1.7825 1.6654,-4.2404 z m -0.185,11.2803 c -1.3646,5.8486 -3.2676,11.8192 -8.2599,18.4922 1.8904,-0.452 3.1439,-1.4793 4.3766,-2.5889 -0.8836,2.5889 -1.274,3.6368 -2.8355,6.2258 1.8822,-1.0591 3.7935,-3.1538 4.9766,-5.2395 0.3776,4.7204 0.9332,8.6346 1.8039,11.7118 1.1919,-3.4828 1.4588,-8.0853 1.7876,-11.7118 1.2045,2.1138 2.7607,3.927 5.1162,5.5477 -1.1301,-1.8904 -2.2602,-4.0855 -2.7739,-6.4073 1.2328,1.2226 2.6501,1.9997 4.0067,2.5855 -3.917,-5.4526 -6.3981,-11.478 -8.1983,-18.6155 z m -10.7233,-0.6224 c 1.426,2.6856 3.1584,0.2114 4.3602,1.5245 0.4041,0.4418 0.8497,0.8112 1.6193,0.8208 1.6012,0.0203 2.6686,-1.0556 2.5181,-2.5309 -0.2498,-2.4502 -3.0396,-2.5211 -4.4925,-1.1093 -0.8482,0.824 -1.361,1.617 -4.0051,1.2949 z m 21.3947,0.4315 c -1.9809,2.3776 -3.1582,-0.097 -4.36,1.2163 -0.4043,0.4417 -0.8497,0.8112 -1.6194,0.8208 -1.6011,0.0203 -2.6687,-1.0554 -2.5181,-2.5309 0.1501,-1.47 1.3615,-2.1857 2.6542,-2.1482 0.4848,0.0141 1.2247,0.2579 1.8381,0.8542 0.8489,0.8244 1.1143,1.8019 4.0052,1.7878 z" />
      <path
         id="path68"
         style="fill:#c3a262;fill-rule:evenodd"
         d="m 320.1104,305.152 c 2.4342,1.9108 0,3.3444 1.348,4.5077 0.4535,0.3914 0.8711,1.0714 0.8711,1.718 0,1.2934 -1.0477,2.3884 -2.5273,2.2807 -1.4736,-0.1074 -2.2191,-0.9257 -2.1574,-2.404 0.0201,-0.4845 0.2221,-1.2313 0.8002,-1.862 0.7996,-0.8724 1.751,-1.7825 1.6654,-4.2404 z m -0.1849,11.2803 c -1.3647,5.8486 -3.2676,11.8192 -8.2599,18.4922 1.8903,-0.452 3.1439,-1.4793 4.3765,-2.5889 -0.8835,2.5889 -1.2739,3.6368 -2.8355,6.2258 1.8822,-1.0591 3.7935,-3.1538 4.9767,-5.2395 0.3775,4.7204 0.9331,8.6346 1.8038,11.7118 1.192,-3.4828 1.4589,-8.0853 1.7876,-11.7118 1.2046,2.1138 2.7608,3.927 5.1162,5.5477 -1.1301,-1.8904 -2.2602,-4.0855 -2.7738,-6.4073 1.2328,1.2226 2.6501,1.9997 4.0066,2.5855 -3.917,-5.4526 -6.398,-11.478 -8.1982,-18.6155 z m -10.7234,-0.6224 c 1.4261,2.6856 3.1585,0.2114 4.3602,1.5245 0.4041,0.4418 0.8497,0.8112 1.6194,0.8208 1.6012,0.0203 2.6685,-1.0556 2.5181,-2.5309 -0.2498,-2.4502 -3.0397,-2.5211 -4.4925,-1.1093 -0.8482,0.824 -1.3611,1.617 -4.0052,1.2949 z m 21.3947,0.4315 c -1.9808,2.3776 -3.1582,-0.097 -4.36,1.2163 -0.4043,0.4417 -0.8497,0.8112 -1.6193,0.8208 -1.6012,0.0203 -2.6688,-1.0554 -2.5181,-2.5309 0.15,-1.47 1.3614,-2.1857 2.6542,-2.1482 0.4848,0.0141 1.2247,0.2579 1.8381,0.8542 0.8488,0.8244 1.1142,1.8019 4.0051,1.7878 z" />
    </g>
  </g>
  <g
     transform="matrix(1.2347229,0,0,1.2347229,-108.29501,-169.75032)"
     id="g308">
    <path
       id="path100"
       style="fill:#919191;fill-rule:evenodd"
       d="m 171.8987,198.1382 11.6058,69.1797 c 5.9081,-2.4174 11.9235,-4.5049 17.832,-6.5296 l 8.6173,-75.9954 -13.2207,4.4069 -4.2247,61.1791 -0.3802,0.2114 -7.643,-57.073 z" />
    <path
       id="path102"
       style="fill:#919191;fill-rule:evenodd"
       d="m 215.2892,256.8221 -1.6318,-62.0596 c -0.2506,-9.5297 7.9067,-12.7289 16.8198,-14.7893 8.9733,-2.0744 18.7147,-2.0228 18.8489,7.9369 l 0.827,61.3729 c -4.1894,0.6584 -8.3787,1.4238 -12.5679,2.2962 l -0.2851,-17.053 c -2.767,0.5328 -7.5065,1.5886 -10.1502,2.3739 l 0.4264,16.8057 c -4.2139,0.9319 -8.1914,1.9706 -12.2871,3.1163 z m 21.8968,-29.3803 -0.6307,-37.8691 c -0.042,-2.5436 -2.4716,-2.9477 -4.9328,-2.4849 -2.7901,0.5246 -5.6718,2.1409 -5.5932,5.2536 l 0.9466,37.4451 c 4.143,-1.0489 7.9159,-1.7946 10.2101,-2.3447 z" />
    <path
       id="path104"
       style="fill:#919191;fill-rule:evenodd"
       d="m 259.9703,248.1418 c 3.713,-0.5365 7.426,-0.9302 11.139,-1.1814 l -0.6076,-45.3344 0.4338,0.0446 13.0182,44.4628 c 4.6299,-0.4183 9.2599,-0.5805 13.8898,-0.4949 l -0.1849,-72.5299 c -3.7807,-0.0244 -7.5613,0.165 -11.342,0.2474 l 0.2303,46.1949 -0.4443,-0.0336 -12.3941,-45.4525 c -4.8512,0.3299 -9.7029,0.8027 -14.5541,1.4178 z" />
    <path
       id="path106"
       style="fill:#919191;fill-rule:evenodd"
       d="m 308.1943,245.666 c 3.7126,0.0246 7.423,0.1922 11.131,0.5022 l 0.121,-45.4262 0.4321,0.1101 12.2734,46.4306 c 4.6254,0.2816 9.2467,0.8192 13.8641,1.6046 l 0.9789,-72.5579 c -3.7711,-0.5959 -7.5456,-0.9779 -11.3184,-1.467 l -0.5113,46.2298 -0.4427,-0.1008 -11.635,-47.3259 c -4.8447,-0.4034 -9.6922,-0.664 -14.5415,-0.7821 z" />
    <path
       id="path108"
       style="fill:#919191;fill-rule:evenodd"
       d="m 357.5097,177.7261 -1.3573,72.4383 c 8.4512,1.513 16.6043,3.3237 24.3982,5.2806 l 0.1398,-7.1981 c -3.7235,-1.0119 -7.8751,-1.9168 -11.8126,-2.6075 l 0.3538,-39.9037 c 3.9536,0.8229 7.9073,1.7616 11.8616,2.8703 l 0.1072,-7.2053 c -3.9129,-1.0421 -7.826,-1.9415 -11.7385,-2.6979 l 0.1235,-11.2287 c 4.1233,0.8818 8.2474,1.9333 12.3716,3.1011 l 0.107,-7.4033 c -8.1852,-2.0207 -16.3697,-3.8181 -24.5543,-5.4458 z" />
    <path
       id="path110"
       style="fill:#919191;fill-rule:evenodd"
       d="m 411.7448,215.2607 12.0978,4.9312 0.1233,-14.4239 c 0.033,-3.8552 -2.6619,-7.2319 -6.1166,-9.7284 -3.2455,-2.3451 -7.1477,-3.8855 -10.5264,-5.1887 -3.1923,-1.2314 -7.4843,-2.6958 -10.8963,-2.5389 -4.7956,0.2203 -6.5909,3.2173 -6.809,7.4727 l -0.6637,12.942 c -0.2444,4.7712 2.0594,8.3376 5.6709,11.4652 l 13.6843,11.8514 c 2.0725,1.7946 2.8665,5.1371 2.7122,7.8737 l -0.8629,15.287 c -0.1306,2.3111 -2.8717,1.7099 -5.4304,0.683 -1.1291,-0.4529 -2.2172,-1.0835 -3.0174,-1.8022 -1.2493,-1.1217 -1.2992,-2.0427 -1.2581,-3.5614 l 0.4597,-17.017 -11.835,-3.8217 -0.3699,14.9171 c -0.1528,6.1709 -0.6059,11.1666 8.3832,15.5335 4.5053,2.1884 10.5312,4.0591 16.1499,5.5477 3.4774,0.9214 5.2692,0.8096 7.4605,-0.8624 1.6174,-1.2341 1.8224,-3.9202 1.9721,-7.2715 l 0.7998,-17.9112 c 0.1404,-3.1443 -1.5627,-6.2255 -3.7856,-8.7735 -1.4721,-1.6874 -3.1741,-3.2355 -4.7209,-4.6316 l -10.1091,-9.1229 c -1.9778,-1.785 -3.4469,-4.1184 -3.3286,-6.7805 l 0.4932,-11.0954 c 0.117,-2.6345 2.6094,-2.0059 5.035,-1.1223 2.8297,1.0305 5.2926,2.1694 5.1485,5.742 z" />
    <path
       id="path112"
       style="fill:#ffffff;fill-rule:evenodd"
       d="m 171.8987,200.1715 11.6058,69.1797 c 5.9081,-2.4175 11.9235,-4.5049 17.832,-6.5296 l 8.6173,-75.9954 -13.2207,4.4069 -4.2247,61.1791 -0.3802,0.2114 -7.643,-57.073 z" />
    <path
       id="path114"
       style="fill:#ffffff;fill-rule:evenodd"
       d="m 215.2892,258.6413 -1.6318,-62.0595 c -0.2506,-9.5298 7.9067,-12.7289 16.8198,-14.7894 8.9733,-2.0744 18.7147,-2.0228 18.8489,7.9369 l 0.827,61.373 c -4.1894,0.6584 -8.3787,1.4237 -12.5679,2.2961 l -0.2851,-17.0529 c -2.767,0.5327 -7.5065,1.5885 -10.1502,2.3738 l 0.4264,16.8057 c -4.2139,0.9319 -8.1914,1.9706 -12.2871,3.1163 z m 21.8968,-29.3802 -0.6307,-37.8692 c -0.042,-2.5435 -2.4716,-2.9476 -4.9328,-2.4849 -2.7901,0.5246 -5.6718,2.141 -5.5932,5.2536 l 0.9466,37.4452 c 4.143,-1.049 7.9159,-1.7947 10.2101,-2.3447 z" />
    <path
       id="path116"
       style="fill:#ffffff;fill-rule:evenodd"
       d="m 259.9703,249.7471 c 3.713,-0.5366 7.426,-0.9302 11.139,-1.1815 l -0.6076,-45.3343 0.4338,0.0445 13.0182,44.4628 c 4.6299,-0.4182 9.2599,-0.5805 13.8898,-0.4948 l -0.1849,-72.53 c -3.7807,-0.0244 -7.5613,0.165 -11.342,0.2474 l 0.2303,46.195 -0.4443,-0.0336 -12.3941,-45.4525 c -4.8512,0.3298 -9.7029,0.8026 -14.5541,1.4177 z" />
    <path
       id="path118"
       style="fill:#ffffff;fill-rule:evenodd"
       d="m 308.1943,247.2712 c 3.7126,0.0246 7.423,0.1923 11.131,0.5022 l 0.121,-45.4261 0.4321,0.1101 12.2734,46.4305 c 4.6254,0.2816 9.2467,0.8192 13.8641,1.6046 l 0.9789,-72.5579 c -3.7711,-0.5959 -7.5456,-0.9779 -11.3184,-1.4669 l -0.5113,46.2297 -0.4427,-0.1007 -11.635,-47.3259 c -4.8447,-0.4035 -9.6922,-0.664 -14.5415,-0.7822 z" />
    <path
       id="path120"
       style="fill:#ffffff;fill-rule:evenodd"
       d="m 357.5097,179.4383 -1.3573,72.4384 c 8.4512,1.513 16.6043,3.3237 24.3982,5.2805 l 0.1398,-7.198 c -3.7235,-1.012 -7.8751,-1.9169 -11.8126,-2.6076 l 0.3538,-39.9037 c 3.9536,0.823 7.9073,1.7617 11.8616,2.8704 l 0.1072,-7.2054 c -3.9129,-1.0421 -7.826,-1.9415 -11.7385,-2.6978 l 0.1235,-11.2287 c 4.1233,0.8818 8.2474,1.9333 12.3716,3.101 l 0.107,-7.4033 c -8.1852,-2.0207 -16.3697,-3.8181 -24.5543,-5.4458 z" />
    <path
       id="path122"
       style="fill:#ffffff;fill-rule:evenodd"
       d="m 411.7448,216.7589 12.0978,4.9313 0.1233,-14.424 c 0.033,-3.8551 -2.6619,-7.2319 -6.1166,-9.7284 -3.2455,-2.3451 -7.1477,-3.8855 -10.5264,-5.1887 -3.1923,-1.2313 -7.4843,-2.6957 -10.8963,-2.5388 -4.7956,0.2202 -6.5909,3.2173 -6.809,7.4726 l -0.6637,12.9421 c -0.2444,4.7711 2.0594,8.3375 5.6709,11.4652 l 13.6843,11.8513 c 2.0725,1.7946 2.8665,5.1372 2.7122,7.8738 l -0.8629,15.2869 c -0.1306,2.3111 -2.8717,1.7099 -5.4304,0.683 -1.1291,-0.4529 -2.2172,-1.0834 -3.0174,-1.8022 -1.2493,-1.1217 -1.2992,-2.0427 -1.2581,-3.5614 l 0.4597,-17.017 -11.835,-3.8217 -0.3699,14.9171 c -0.1528,6.1709 -0.6059,11.1666 8.3832,15.5335 4.5053,2.1885 10.5312,4.0591 16.1499,5.5477 3.4774,0.9214 5.2692,0.8096 7.4605,-0.8624 1.6174,-1.2341 1.8224,-3.9202 1.9721,-7.2715 l 0.7998,-17.9111 c 0.1404,-3.1444 -1.5627,-6.2256 -3.7856,-8.7736 -1.4721,-1.6874 -3.1741,-3.2355 -4.7209,-4.6316 l -10.1091,-9.1229 c -1.9778,-1.785 -3.4469,-4.1184 -3.3286,-6.7805 l 0.4932,-11.0953 c 0.117,-2.6346 2.6094,-2.0059 5.035,-1.1224 2.8297,1.0305 5.2926,2.1694 5.1485,5.742 z" />
    <path
       d="m 278.9253,256.4131 -3.5701,0.1222 v 0.9631 l 3.5701,-0.1222 z"
       style="fill:#999999;fill-rule:evenodd"
       id="path140" />
  </g>
  <g
     transform="matrix(1.2347229,0,0,1.2347229,-108.29501,-169.75032)"
     id="g337">
    <path
       d="m 186.4738,302.8023 v -24.3732 l 5.5387,-2.1317 v 24.5872 z m 8.9754,-23.7202 c 0,-1.7702 -0.1687,-3.1028 -0.6948,-3.9998 -0.5261,-0.897 -1.2587,-1.4203 -2.2045,-1.5735 -0.9458,-0.1599 -2.0481,-0.007 -3.3068,0.445 -1.2589,0.4398 -2.3612,1.0748 -3.307,1.9046 -0.9454,0.8298 -1.5718,1.8794 -2.0975,3.1486 -0.5254,1.2692 -0.8015,2.788 -0.8015,4.549 v 16.7826 c 0,1.7557 0.2091,2.7 0.8015,3.5532 1.769,2.5474 6.7672,0.9479 8.7113,-0.7573 0.9447,-0.8287 1.5727,-1.4518 2.0975,-2.7205 0.525,-1.2688 0.8018,-2.7871 0.8018,-4.5493 z"
       style="fill:#ffffff;fill-rule:evenodd"
       id="path71" />
    <path
       d="m 288.5716,283.1397 v -24.3732 l 5.6075,-0.1974 v 24.5873 z m 9.087,-21.0136 c 0,-2.142 -0.2499,-4.7981 -2.9354,-6.1579 -0.9569,-0.4844 -2.0735,-0.7225 -3.3478,-0.7099 -1.2746,2e-4 -2.3928,0.2512 -3.3482,0.7497 -2.1534,1.1235 -2.935,3.3247 -2.935,6.0431 v 18.7088 c 0,4.0968 2.8449,5.4365 6.3092,5.5363 4.2736,0.1228 6.2572,-1.9139 6.2572,-6.3174 z"
       style="fill:#ffffff;fill-rule:evenodd"
       id="path73" />
    <path
       d="m 353.6585,286.6056 v -24.3733 l 6.0356,0.5942 v 5.8443 l 3.4795,0.3624 v -2.193 c 0,-4.4989 -2.4343,-7.0998 -6.4973,-7.6133 -4.1124,-0.5196 -6.4973,1.4188 -6.4973,5.8334 v 18.7089 c 0,4.0964 3.0602,5.8379 6.5232,6.392 4.2731,0.6839 6.4714,-1.0648 6.4714,-5.4682 v -2.3651 l -3.4795,-0.3623 v 5.4481 z"
       style="fill:#ffffff;fill-rule:evenodd"
       id="path75" />
    <path
       d="m 212.0124,294.7304 -6.0466,1.865 v -27.6196 l -3.5701,1.1098 v 30.438 l 9.6167,-2.9749 z"
       style="fill:#ffffff;fill-rule:evenodd"
       id="path77" />
    <path
       d="m 378.8953,291.277 -6.0466,-0.9559 v -27.6197 l -3.57,-0.5558 v 30.438 l 9.6166,1.5118 z"
       style="fill:#ffffff;fill-rule:evenodd"
       id="path79" />
    <path
       d="m 223.5289,282.7179 v 12.5527 l 3.5324,-0.8548 v -12.5527 l 6.4723,-19.6691 -3.7577,0.9092 -4.4808,16.0312 -4.5877,-14.0146 -3.6508,0.9095 z"
       style="fill:#ffffff;fill-rule:evenodd"
       id="path81" />
    <path
       d="m 234.7099,292.4325 3.5701,-0.5224 v -20.8182 l 3.7772,14.375 1.2777,-0.1871 3.8845,-15.7935 v 20.8181 l 3.5698,-0.5222 v -30.438 l -3.4572,0.5058 -4.5289,16.5643 -4.6359,-14.9257 -3.4573,0.506 z"
       style="fill:#ffffff;fill-rule:evenodd"
       id="path83" />
    <path
       d="m 257.0107,288.9999 3.57,-0.4794 v -10.9867 l 2.8562,-0.4017 c 2.7026,-0.3801 4.6409,-1.1714 5.8054,-3.8677 0.4934,-1.1421 0.7329,-3.5489 0.7329,-5.2828 v -3.833 c 0.006,-1.7482 -0.238,-3.1247 -0.7329,-4.1415 -0.4948,-1.0109 -1.2775,-1.6887 -2.355,-2.0389 -1.0834,-0.3491 -2.4926,-0.4043 -4.2399,-0.1631 l -5.6367,0.7568 z m 3.57,-14.4984 v -13.5632 l 5.6365,-0.7568 v 13.5631 z"
       style="fill:#ffffff;fill-rule:evenodd"
       id="path85" />
    <path
       d="m 278.9253,256.4131 -3.5701,0.1222 v 30.438 l 3.5701,-0.1222 z"
       style="fill:#ffffff;fill-rule:evenodd"
       id="path87" />
    <path
       d="m 305.0056,255.472 v 23.486 c 0,4.3707 1.4764,7.099 6.5157,7.099 5.0482,0 6.5909,-2.6934 6.5909,-7.099 v -23.486 h -3.6075 v 27.6196 h -5.8916 V 255.472 Z"
       style="fill:#ffffff;fill-rule:evenodd"
       id="path89" />
    <path
       d="m 384.2809,265.0751 v 23.4861 c 0,4.3707 1.4764,7.4382 6.5158,8.5964 5.0481,1.1602 6.5909,-1.1786 6.5909,-5.5842 v -23.486 l -3.6075,-0.8291 v 27.6196 l -5.8917,-1.3541 v -27.6196 z"
       style="fill:#ffffff;fill-rule:evenodd"
       id="path91" />
    <path
       d="m 324.7673,286.5341 9.9402,0.8827 v -2.8183 l -6.3702,-0.5658 v -10.9956 l 6.2525,0.5553 v -2.6679 l -6.2525,-0.5553 v -11.1377 l 6.4772,0.5752 v -2.8184 l -10.0472,-0.8922 z"
       style="fill:#ffffff;fill-rule:evenodd"
       id="path93" />
    <path
       d="m 403.7819,270.2624 v 30.4379 l 5.8247,1.8326 c 4.5713,1.4382 6.8408,-1.3183 6.8188,-4.8561 l -0.036,-5.7379 c -0.0182,-2.9399 -1.26,-4.682 -3.4155,-6.6499 2.2846,-0.7501 3.1005,-1.545 3.0733,-4.6405 -0.024,-2.7268 -1.4088,-5.4171 -3.3763,-6.9519 -1.0591,-0.8261 -2.6705,-1.4778 -4.1916,-1.9564 z m 3.249,28.7426 v -13.8851 c 2.5652,0.6448 5.0118,2.3283 5.7436,4.0208 v 11.6377 z m 5.5533,-23.324 0.01,6.0856 c 10e-4,0.8015 -1.3383,1.7578 -2.474,1.527 l -3.0891,-0.6275 v -8.4624 z"
       style="fill:#ffffff;fill-rule:evenodd"
       id="path95" />
    <path
       d="m 291.1272,277.5112 9.5629,5.4826 v 3.0718 l -9.5629,-5.4827 z"
       style="fill:#ffffff;fill-rule:evenodd"
       id="path97" />
    <path
       d="m 192.0125,300.8846 -5.5387,1.9177 v 0.9632 l 5.5387,-1.9177 z m 3.4367,-21.8025 c 0,-1.7702 -0.1687,-3.1028 -0.6948,-3.9998 -0.5261,-0.897 -1.2587,-1.4203 -2.2045,-1.5735 -0.9458,-0.1599 -2.0481,-0.007 -3.3068,0.445 -1.2589,0.4398 -2.3612,1.0748 -3.307,1.9046 -0.9454,0.8298 -1.5718,1.8794 -2.0975,3.1486 -0.5254,1.2692 -0.8015,2.788 -0.8015,4.549 v 0.9632 c 0,-1.7611 0.2761,-3.2798 0.8015,-4.549 0.5257,-1.2692 1.1521,-2.3188 2.0975,-3.1486 0.9458,-0.8298 2.0481,-1.4649 3.307,-1.9047 1.2587,-0.4523 2.361,-0.6049 3.3068,-0.445 0.9458,0.1533 1.6784,0.6766 2.2045,1.5736 0.5261,0.897 0.6948,2.2295 0.6948,3.9998 z"
       style="fill:#999999;fill-rule:evenodd"
       id="path124" />
    <path
       d="m 297.6586,263.0893 v -0.9631 c 0,-2.142 -0.2498,-4.7982 -2.9353,-6.1579 -0.9569,-0.4846 -2.0735,-0.7226 -3.348,-0.7099 -1.2746,0 -2.3927,0.251 -3.3481,0.7497 -2.1534,1.1235 -2.935,3.3246 -2.935,6.043 v 0.9631 c 0,-2.7184 0.7816,-4.9195 2.935,-6.043 0.9554,-0.4986 2.0735,-0.7497 3.3481,-0.7497 1.2745,-0.0126 2.3911,0.2254 3.348,0.7099 2.6855,1.3598 2.9353,4.0159 2.9353,6.1579 z m -3.4795,20.2065 -0.2443,-0.14 -5.3631,-0.0161 v 0.9632 l 5.6074,0.0167 z"
       style="fill:#999999;fill-rule:evenodd"
       id="path126" />
    <path
       d="m 363.1736,267.8034 v -0.9632 c 0,-4.4989 -2.4343,-7.0998 -6.4973,-7.6133 -4.1124,-0.5196 -6.4973,1.4188 -6.4973,5.8334 v 0.9632 c 0,-4.4146 2.3849,-6.3531 6.4973,-5.8334 4.063,0.5134 6.4973,3.1143 6.4973,7.6133 z m 0,15.4877 v -0.9632 l -3.4795,-0.3623 v 0.9631 z m -3.4795,4.1226 -6.0356,-0.8081 v 0.9631 l 6.0356,0.8082 z"
       style="fill:#999999;fill-rule:evenodd"
       id="path128" />
    <path
       d="m 212.0124,294.7304 -6.0466,1.865 v 0.9632 l 6.0466,-1.8651 z m -6.0466,-24.7914 v -0.9632 l -3.5701,1.1098 v 0.9631 z"
       style="fill:#999999;fill-rule:evenodd"
       id="path130" />
    <path
       d="m 378.8953,291.277 -6.0466,-0.9559 v 0.9632 l 6.0466,0.9558 z m -6.0466,-27.6124 v -0.9631 l -3.57,-0.5558 v 0.9631 z"
       style="fill:#999999;fill-rule:evenodd"
       id="path132" />
    <path
       d="m 233.1892,263.2404 0.3444,-1.0464 -3.7577,0.9092 -4.4808,16.0312 -4.5877,-14.0146 -3.6508,0.9095 0.3406,0.8783 3.3102,-0.8246 4.5877,14.0145 4.4808,-16.0311 z"
       style="fill:#999999;fill-rule:evenodd"
       id="path134" />
    <path
       d="m 250.7892,260.3073 v -0.9631 l -3.4572,0.5058 -4.5289,16.5643 -4.6359,-14.9257 -3.4573,0.506 v 0.9631 l 3.4573,-0.506 4.6359,14.9257 4.5289,-16.5643 z"
       style="fill:#999999;fill-rule:evenodd"
       id="path136" />
    <path
       d="m 269.9752,265.1117 v -0.9631 c 0.006,-1.7482 -0.238,-3.1247 -0.7329,-4.1415 -0.4948,-1.0109 -1.2775,-1.6887 -2.355,-2.0389 -1.0834,-0.3491 -2.4926,-0.4043 -4.2399,-0.1631 l -5.6367,0.7568 v 0.9632 l 5.6367,-0.7568 c 1.7473,-0.2413 3.1565,-0.186 4.2399,0.163 1.0775,0.3502 1.8602,1.028 2.355,2.0389 0.4949,1.0169 0.7391,2.3933 0.7329,4.1415 z m -3.758,8.6329 -5.6365,0.7569 v 0.9631 l 5.6365,-0.7568 z"
       style="fill:#999999;fill-rule:evenodd"
       id="path138" />
    <path
       d="m 305.0056,255.472 v 0.9631 h 3.6075 v -0.9631 z m 13.1066,0.9631 v -0.9631 h -3.6075 v 0.9631 z m -3.6075,26.6565 h -5.8916 v 0.9631 h 5.8916 z"
       style="fill:#999999;fill-rule:evenodd"
       id="path142" />
    <path
       d="m 384.2809,265.0751 v 0.9631 l 3.6075,0.8292 v -0.9631 z m 13.1067,3.9754 v -0.9631 l -3.6075,-0.8292 v 0.9632 z m -3.6075,25.8273 -5.8917,-1.3539 v 0.9631 l 5.8917,1.354 z"
       style="fill:#999999;fill-rule:evenodd"
       id="path144" />
    <path
       d="m 334.7075,285.5615 v -0.9631 l -6.3702,-0.5657 v 0.9631 z m -0.1177,-13.6738 v -0.9631 l -6.2525,-0.5554 v 0.9631 z m 0.2247,-13.9362 v -0.9631 l -10.0472,-0.8923 v 0.9631 z"
       style="fill:#999999;fill-rule:evenodd"
       id="path146" />
    <path
       d="m 403.7819,270.2624 v 0.9631 l 4.6974,1.4779 c 1.5211,0.4786 3.1325,1.1303 4.1916,1.9562 1.8935,1.4773 3.2468,4.0242 3.3675,6.6442 0.008,-0.2066 0.0107,-0.4242 0.009,-0.6554 -0.024,-2.7267 -1.4088,-5.4169 -3.3763,-6.9519 -1.0591,-0.826 -2.6705,-1.4777 -4.1916,-1.9563 z m 12.6394,27.7127 c 0.003,-0.0989 0.005,-0.1982 0.004,-0.2984 l -0.036,-5.7377 c -0.016,-2.5887 -0.9813,-4.2492 -2.6833,-5.9524 -0.2256,0.0914 -0.4687,0.1791 -0.7322,0.2656 2.1555,1.9678 3.3973,3.71 3.4155,6.6499 z m -3.6468,2.8034 -5.7436,-1.7735 v 0.9631 l 5.7436,1.7735 z m -0.182,-18.9717 c -0.0426,0.7929 -1.3559,1.7137 -2.4725,1.4868 l -3.0891,-0.6275 v 0.9631 l 3.0891,0.6276 c 1.1357,0.2307 2.4753,-0.7256 2.474,-1.5271 z"
       style="fill:#999999;fill-rule:evenodd"
       id="path148" />
    <path
       d="m 291.1272,277.5112 3.0519,1.7497 v 0.9631 l -3.0519,-1.7497 z m 6.5273,3.7421 3.0356,1.7405 v 0.9631 l -3.0915,-1.7724 c 0.03,-0.2968 0.0486,-0.6074 0.0559,-0.9312 z"
       style="fill:#999999;fill-rule:evenodd"
       id="path150" />
  </g>
  <g
     transform="matrix(1.2347229,0,0,1.2347229,-108.29501,-169.75032)"
     id="g378">
    <path
       id="path153"
       style="fill:#c3a262;fill-rule:evenodd"
       d="m 284.607,640.4995 -0.8069,20.5224 -3.2835,-0.1291 0.734,-18.6677 -1.2815,-0.0504 0.0873,-1.8736 z" />
    <path
       id="path155"
       style="fill:#c3a262;fill-rule:evenodd"
       d="m 300.2553,650.2588 c 0.0132,0.7629 0.2892,0.8594 1.0267,0.8466 0.7747,-0.0134 0.9833,-0.091 0.9697,-0.8811 l -0.1092,-6.3083 c -0.0136,-0.7851 -0.2234,-0.8858 -0.9999,-0.8723 -0.7787,0.0135 -1.0102,0.1108 -0.9965,0.9069 z m 2.0372,2.3272 c -0.0838,0.3067 -0.5012,0.8105 -1.6266,0.8116 l -1.2365,10e-4 c -1.8978,0.002 -2.4789,-1.9616 -2.5068,-3.5743 l -0.0831,-4.8007 c -0.0623,-3.6044 0.7778,-4.116 4.211,-4.1754 3.4849,-0.0603 4.3699,0.35 4.4335,4.0259 l 0.2168,12.5309 c 0.0639,3.6919 -0.8277,4.1209 -4.3186,4.1813 -3.4378,0.0595 -4.2637,-0.4404 -4.3258,-4.0318 l -0.0329,-1.8998 3.3241,-0.0576 0.0543,3.1336 c 0.0134,0.776 0.2707,0.885 1.0272,0.8719 0.7768,-0.0134 0.9827,-0.1212 0.9691,-0.9064 z" />
    <path
       id="path157"
       style="fill:#c3a262;fill-rule:evenodd"
       d="m 289.69,650.1237 c -0.008,0.763 0.2649,0.8672 1.0026,0.8751 0.7747,0.008 0.9854,-0.0634 0.9939,-0.8536 l 0.068,-6.3088 c 0.008,-0.7853 -0.1984,-0.8917 -0.975,-0.9001 -0.7788,-0.008 -1.013,0.0824 -1.0215,0.8786 z m 1.9711,2.3834 c -0.0924,0.3043 -0.5239,0.7962 -1.6488,0.7656 l -1.2361,-0.0336 c -1.897,-0.0517 -2.4228,-2.0304 -2.4054,-3.6433 l 0.0518,-4.8011 c 0.0388,-3.6047 0.8929,-4.0925 4.3264,-4.0555 3.4853,0.0376 4.3585,0.4725 4.3188,4.1487 l -0.1351,12.5321 c -0.0398,3.6923 -0.9431,4.0961 -4.4343,4.0584 -3.4381,-0.037 -4.2497,-0.5599 -4.2109,-4.1516 l 0.0204,-1.9 3.3245,0.0358 -0.0338,3.1339 c -0.008,0.776 0.2458,0.8922 1.0023,0.9003 0.7769,0.008 0.9858,-0.0936 0.9943,-0.8788 z" />
    <path
       id="path159"
       style="fill:#c3a262;fill-rule:evenodd"
       d="m 310.6941,648.2756 c 0.0239,0.7545 0.3196,0.8546 1.0597,0.8311 0.7774,-0.0247 1.0296,-0.1082 1.0046,-0.8966 l -0.1503,-4.7386 c -0.0243,-0.7671 -0.2983,-0.8805 -1.0601,-0.8563 -0.7941,0.0252 -1.0294,0.1262 -1.0042,0.9218 z m 0.1098,3.4649 0.2076,6.5463 c 0.0242,0.7607 0.3053,0.8803 1.0606,0.8563 0.8125,-0.0257 1.1375,-0.0829 1.1108,-0.9252 l -0.2076,-6.5462 c -0.0258,-0.8121 -0.4027,-0.8391 -1.166,-0.8149 -0.7868,0.025 -1.0307,0.0854 -1.0054,0.8837 z m -1.784,-1.6205 c -0.6172,-0.0987 -1.0704,-0.3627 -1.3596,-0.8047 -0.2843,-0.4381 -0.4436,-1.1247 -0.4729,-2.0516 l -0.0792,-2.4944 c -0.117,-3.6902 0.758,-4.128 4.3214,-4.241 3.5034,-0.1111 4.3849,0.3644 4.4989,3.9613 l 0.0791,2.4943 c 0.0289,0.9101 -0.087,1.5971 -0.343,2.0521 -0.2604,0.4597 -0.7002,0.7603 -1.3188,0.9151 0.6476,0.1775 1.1111,0.4834 1.3906,0.9174 0.2753,0.4383 0.4304,1.1337 0.4606,2.0858 l 0.1288,4.0618 c 0.1173,3.6992 -0.7801,4.1328 -4.3488,4.2459 -3.5043,0.1112 -4.3576,-0.3748 -4.4715,-3.9662 l -0.1288,-4.0618 c -0.0307,-0.969 0.0752,-1.681 0.322,-2.1359 0.2424,-0.4505 0.6856,-0.7768 1.3212,-0.9781 z" />
  </g>
</svg>
