<?xml version="1.0" encoding="UTF-8" standalone="no"?>
<!-- Created with Inkscape (http://www.inkscape.org/) -->

<svg
   xmlns:dc="http://purl.org/dc/elements/1.1/"
   xmlns:cc="http://creativecommons.org/ns#"
   xmlns:rdf="http://www.w3.org/1999/02/22-rdf-syntax-ns#"
   xmlns:svg="http://www.w3.org/2000/svg"
   xmlns="http://www.w3.org/2000/svg"
   xmlns:sodipodi="http://sodipodi.sourceforge.net/DTD/sodipodi-0.dtd"
   xmlns:inkscape="http://www.inkscape.org/namespaces/inkscape"
   width="65.113121mm"
   height="79.375mm"
   viewBox="0 0 65.113121 79.375"
   version="1.1"
   id="svg179908"
   inkscape:version="0.92.4 (5da689c313, 2019-01-14)"
   sodipodi:docname="Havre FC logo.svg">
  <defs
     id="defs179902" />
  <sodipodi:namedview
     id="base"
     pagecolor="#ffffff"
     bordercolor="#666666"
     borderopacity="1.0"
     inkscape:pageopacity="0.0"
     inkscape:pageshadow="2"
     inkscape:zoom="1.4"
     inkscape:cx="84.476984"
     inkscape:cy="152.85716"
     inkscape:document-units="mm"
     inkscape:current-layer="layer1"
     showgrid="false"
     inkscape:window-width="1366"
     inkscape:window-height="705"
     inkscape:window-x="-8"
     inkscape:window-y="-8"
     inkscape:window-maximized="1" />
  <metadata
     id="metadata179905">
    <rdf:RDF>
      <cc:Work
         rdf:about="">
        <dc:format>image/svg+xml</dc:format>
        <dc:type
           rdf:resource="http://purl.org/dc/dcmitype/StillImage" />
        <dc:title></dc:title>
      </cc:Work>
    </rdf:RDF>
  </metadata>
  <g
     inkscape:label="Layer 1"
     inkscape:groupmode="layer"
     id="layer1"
     transform="translate(-70.252965,-109.90179)">
    <path
       inkscape:connector-curvature="0"
       style="fill:#193260;stroke-width:1.14118338"
       d="m 102.82547,109.90179 c 0,0 -16.567728,7.21453 -31.667865,9.37024 0.0502,0.0216 -2.900889,24.72832 1.595372,36.07397 4.17445,10.37219 16.112369,27.16244 30.072493,33.93079 13.98516,-6.76951 25.87289,-23.55973 30.05077,-33.92169 4.45974,-11.36045 1.55885,-36.0625 1.60336,-36.09791 -15.10701,-2.14656 -31.65413,-9.3554 -31.65413,-9.3554 z"
       id="path179849" />
    <path
       inkscape:connector-curvature="0"
       style="fill:#ba965c;stroke-width:1.14118338"
       d="m 102.82318,112.29256 c 0,0 -15.5669,6.77865 -29.759799,8.80651 0.04792,0.0173 -2.725146,23.2368 1.500656,33.89886 3.921104,9.75028 15.142362,25.53057 28.259143,31.88921 13.14415,-6.35981 24.31288,-22.13781 28.24085,-31.87437 4.19043,-10.67807 1.46414,-33.89429 1.50748,-33.92625 -14.19745,-2.01989 -29.74833,-8.79396 -29.74833,-8.79396 z"
       id="path179851" />
    <path
       inkscape:connector-curvature="0"
       style="fill:#193260;stroke-width:1.14118338"
       d="m 131.93934,121.69019 c -13.89623,-1.97538 -29.11504,-8.60794 -29.11504,-8.60794 0,0 -15.239359,6.63597 -29.128704,8.62165 0.03321,0.0129 -1.418491,12.47315 -0.511249,23.17745 -0.0034,-0.002 13.091657,-4.19616 29.641123,-4.19616 16.54712,0 29.58974,4.19387 29.58857,4.20073 0.90498,-10.71003 -0.50325,-23.17059 -0.4747,-23.19573 z m -29.12647,19.55079 c 0,0 0,12.42178 -0.001,44.80971 12.84059,-6.20578 23.80169,-21.65284 27.64176,-31.18741 0.98253,-2.47639 1.57481,-5.85202 1.91033,-9.26414 -16.04504,-4.7576 -29.55097,-4.35816 -29.55097,-4.35816 z"
       id="path179853" />
    <path
       inkscape:connector-curvature="0"
       style="fill:#79bce7;stroke-width:1.14118338"
       d="m 102.82547,141.24098 c 0,0 -13.50479,-0.40156 -29.552113,4.35704 0.33664,3.41212 0.930067,6.78775 1.912625,9.26526 3.837801,9.53457 14.80115,24.97934 27.639488,31.18741 z"
       id="path179855" />
    <path
       style="fill:#ffffff;stroke-width:1.14118338"
       inkscape:connector-curvature="0"
       id="path179857"
       d="m 96.070795,177.77711 v -4.05806 l -1.148027,0.99853 v -1.32262 l 1.148027,-0.99629 h 1.238172 v 5.37499 h -1.238172 z m 4.471125,0.0436 c -0.98939,0 -1.805349,-0.53522 -1.805349,-1.65245 0,-0.67216 0.401553,-0.99055 0.604831,-1.15717 -0.189347,-0.15743 -0.551176,-0.48273 -0.551176,-1.06245 0,-1.02248 0.830796,-1.59423 1.751694,-1.59423 0.92323,0 1.75174,0.57288 1.75174,1.59423 0,0.57972 -0.36188,0.90498 -0.55118,1.06245 0.20531,0.16649 0.60367,0.48501 0.60367,1.15717 -10e-4,1.11835 -0.8148,1.65245 -1.80423,1.65245 z m 0,-2.25042 c -0.30925,0 -0.567134,0.25922 -0.567134,0.56942 0,0.31054 0.257924,0.56834 0.567134,0.56834 0.30925,0 0.56606,-0.25577 0.56606,-0.56834 0,-0.31141 -0.25577,-0.56942 -0.56606,-0.56942 z m 0,-2.09752 c -0.28769,0 -0.51352,0.22816 -0.51352,0.51581 0,0.28552 0.22471,0.5124 0.51352,0.5124 0.28553,0 0.51356,-0.22688 0.51356,-0.5124 0,-0.28769 -0.22816,-0.51581 -0.51356,-0.51581 z m 5.01096,4.30455 h -1.36144 l 1.67755,-4.26121 h -1.14691 v 0.84792 h -1.1777 v -1.9617 h 3.68488 v 1.11607 z m 2.33142,0 v -1.11835 l 1.94802,-2.11577 c 0.19755,-0.20746 0.27389,-0.34677 0.27389,-0.57399 0,-0.29674 -0.16649,-0.49985 -0.48389,-0.49985 -0.22687,0 -0.49869,0.10826 -0.49869,0.52495 h -1.24045 c 0,-1.05905 0.80112,-1.63873 1.73573,-1.63873 0.99625,0 1.72435,0.61164 1.72435,1.62389 0,0.5683 -0.23507,0.86729 -0.66647,1.32034 l -1.28613,1.35916 h 1.9526 v 1.11835 z" />
    <path
       style="fill:#ffffff;stroke-width:1.14118338"
       inkscape:connector-curvature="0"
       id="path179861"
       d="m 82.495261,122.66133 h 3.049244 v 7.57977 h 6.340393 v -7.57977 h 3.049257 v 14.81143 h -3.049257 v -4.50765 h -6.340393 v 4.50765 h -3.049244 z m 21.391499,-0.13026 h 0.26137 l 6.77404,14.94269 h -3.20328 l -0.69385,-1.67756 h -6.0129 l -0.69726,1.67756 h -2.940828 z m 2.04727,10.71685 -1.06815,-2.56994 c -0.43481,-1.04645 -0.89355,-2.65896 -0.89355,-2.65896 0,0 -0.43705,1.61251 -0.87186,2.65896 l -1.06703,2.56994 z m 5.61919,-3.1793 c 0,-4.3799 3.37792,-7.57977 7.62424,-7.57977 2.68066,0 4.59668,0.95859 5.92616,3.02644 l -2.33142,1.65698 c -0.69614,-1.13203 -1.89553,-1.93885 -3.59586,-1.93885 -2.67837,0 -4.48717,2.06897 -4.48717,4.83632 0,2.76623 1.80652,4.87971 4.48717,4.87971 1.91719,0 2.98534,-0.91408 3.81381,-2.17852 l 2.37369,1.63416 c -1.28385,2.00392 -3.33229,3.2672 -6.1875,3.2672 -4.2452,-0.002 -7.62312,-3.22381 -7.62312,-7.60367 z" />
    <path
       style="fill:#ffffff;stroke-width:1.14118338"
       inkscape:connector-curvature="0"
       id="path179865"
       d="m 106.78648,151.82429 c 0.97231,-0.77029 2.02902,-1.50977 3.32999,-1.57369 -1.02022,-0.74976 -3.19189,-0.55118 -4.35475,-0.25577 0.27733,-0.3058 0.96316,-0.52608 1.68208,-0.70067 -2.41928,-0.34678 -4.09912,0.88212 -4.60466,1.43791 -0.50783,0.55458 -0.98711,1.03847 -2.18081,1.20393 1.97654,1.7369 5.11249,0.69385 6.12815,-0.11171 z m -10.489763,-3.64038 c 1.120639,0.0626 2.178521,0.34117 2.178521,0.34117 0,0 0.125513,-1.11723 0.631098,-1.99935 l 0.0086,-0.30235 -0.183739,0.16088 -0.180289,0.18719 -0.01294,-0.21566 0.0785,-0.6904 0.06168,-0.34936 -0.172525,0.0923 c -0.386888,0.20099 -0.86845,0.53293 -1.15372,0.994 l -0.137158,0.14277 -0.01294,-0.21566 c -0.0043,-0.16433 -0.07074,-1.39107 -0.05133,-1.61247 l 0.01725,-0.2122 -0.148372,0.0388 c -0.804486,0.2122 -1.039552,1.6844 -1.218719,2.14772 -0.189347,-0.45991 -0.605996,-1.83386 -1.411646,-2.03701 l -0.151822,-0.0388 0.02588,0.2122 c 0.02157,0.22385 0.13112,1.3523 0.130257,1.51663 l -0.0086,0.21695 -0.141471,-0.14147 c -0.291137,-0.45762 -0.795385,-0.78059 -1.189131,-0.98029 l -0.172094,-0.0854 0.02588,0.25663 0.150528,0.77028 -0.0043,0.21437 -0.185034,-0.18374 -0.188052,-0.15873 0.01725,0.30365 c 0.415355,0.90265 0.478154,1.88863 0.478154,1.88863 0,0 1.849861,-0.32176 2.920294,-0.26137 z" />
    <path
       style="fill:#ffffff;stroke-width:1.14118338"
       inkscape:connector-curvature="0"
       id="path179867"
       d="m 107.6595,164.77559 c 0.10179,-0.38343 0.21565,-0.85249 0.42355,-1.22449 0,0 -8.45504,0.50097 -7.78974,3.0367 0,0.001 -0.1915,-2.23675 7.36636,-1.81221 z m 9.04158,-6.19323 0.28294,-0.33642 c -0.48385,-0.43934 -0.95631,-0.72577 -1.30209,-0.94376 l 0.20099,-0.53064 c -0.8182,-0.32176 -1.5463,-0.43593 -2.04727,-0.5375 l 0.0845,-0.76572 c -0.92094,-0.0923 -1.70946,-0.0129 -2.29605,0.0444 l -0.0431,-0.87074 c -1.24503,0.11646 -2.22873,0.46789 -2.8769,0.6311 l -0.12207,-0.9221 c -1.1526,0.20875 -2.0838,0.59456 -2.77308,0.86159 -0.0707,-0.35282 -0.16304,-0.86159 -0.16304,-0.91637 -1.17654,0.28424 -2.12944,0.72465 -2.85978,1.0556 l -0.13026,-0.73949 c -1.32033,0.32392 -2.39534,0.81937 -3.212419,1.18913 l -0.05952,-0.45076 c -1.219926,0.24886 -2.414708,0.90951 -3.625534,1.83385 -3.28773,2.39306 -5.364694,0.54665 -5.566682,-2.1089 -0.219107,-2.87579 2.564223,-3.08346 3.16336,-2.68407 0.707527,0.46789 0.843348,0.86388 1.4493,0.97688 0.603709,0.10956 2.972784,0.11646 3.69972,-0.59573 l 0.02588,-0.13025 c 0,0 -0.2989,-0.11171 -1.167436,-0.26353 -0.189347,-0.0302 -1.218806,-0.58771 -1.218806,-0.58771 0.965452,-0.0755 1.790512,0.0776 2.433039,-0.10395 0.726893,-0.20185 1.078413,-0.58313 0.742895,-0.79426 -0.629934,-0.38905 -2.644124,-1.13431 -3.210137,-1.2336 -1.813371,-0.31055 -4.886565,0.25102 -6.405479,1.39909 -1.636459,1.24732 -2.530002,4.0352 -1.558857,6.97033 1.041902,3.15652 4.371883,4.49627 7.084457,4.79642 l 1.103515,0.12422 c 0,0 0.190641,0.14276 0.137158,0.405 -0.06513,0.24973 -1.391072,2.19905 -1.715161,2.28351 l -0.250162,0.0535 c -0.736036,0.17597 -1.222213,0.46103 -1.448135,0.64705 -0.224714,0.18374 -0.628812,0.68812 -0.628812,0.68812 0,0 1.008799,-0.30235 1.27699,-0.29674 0.2135,0.009 -0.08799,1.09666 -0.08799,1.09666 0,0 1.618159,-1.05672 1.912616,-1.02821 0.247574,0.0302 0.140177,0.69044 0.140177,0.69044 0,0 1.207376,-0.49872 1.225621,-0.73836 0.02157,-0.27734 -0.203149,-0.53177 -0.538625,-0.73034 0.316153,-1.74717 2.75027,-2.51517 2.708045,-2.62929 -0.422256,-1.08639 -0.280785,-1.67639 -0.217813,-2.01419 l 0.09489,-0.0914 c -0.08109,0.93349 1.412805,1.97994 2.031315,2.06897 1.16286,0.072 1.60336,0.0811 2.51175,-0.11861 1.00539,-0.21566 2.12146,-0.6151 3.22955,-1.04874 0.19754,-0.11861 0.47129,-0.21911 0.74177,-0.31616 0.3334,0.45306 0.82165,0.85815 1.54061,1.14915 l -0.9746,2.63843 c -0.90494,0.17124 -1.4025,0.45418 -1.6741,0.69157 -0.27388,0.24326 -0.63222,0.68924 -0.63222,0.68924 0,0 1.02592,-0.29329 1.2804,-0.26353 0.23722,0 -0.0914,1.06362 -0.0914,1.06362 0,0 1.66729,-1.05219 1.9149,-1.02821 0.24628,0.0345 0.13587,0.69269 0.13587,0.69269 0,0 1.21307,-0.5432 1.2336,-0.7372 0.0259,-0.27949 -0.2204,-0.74635 -0.89011,-1.0305 0.14622,-1.73569 2.46155,-3.09601 2.35881,-3.22497 -1.67181,-2.09519 -0.89924,-3.3733 -0.89924,-3.3733 l 0.0172,-0.0388 c 0.0513,0.14276 0.0824,1.29864 0.93349,1.69692 1.75631,-0.17469 3.42584,0.0673 3.34367,1.22449 -0.10739,1.51206 -1.50864,1.40251 -3.60841,1.39224 0,0 -0.90041,0.86729 -1.01453,1.45159 1.86357,0.0129 4.24291,1.12521 6.15786,-0.52496 1.73457,-1.49381 1.649,-4.07858 0.10955,-5.75837 z m -22.271303,-8.17084 c 0.191503,-0.0259 1.146862,0.17813 1.146862,0.17813 0.05003,0.38128 -0.252318,0.51012 -0.252318,0.51012 0,0 -0.375674,0.25102 -0.739487,-0.24758 -0.21695,-0.29674 -0.155273,-0.4405 -0.155273,-0.4405 z" />
  </g>
</svg>
