<?xml version="1.0" encoding="UTF-8"?>
<svg id="Calque_2" data-name="Calque 2" xmlns="http://www.w3.org/2000/svg" xmlns:xlink="http://www.w3.org/1999/xlink" viewBox="0 0 2502.27 2502.32">
  <defs>
    <style>
      .cls-1 {
        fill: url(#_Безымянный_градиент_5);
      }

      .cls-2 {
        fill: url(#_Безымянный_градиент_6);
      }

      .cls-3 {
        fill: url(#_Безымянный_градиент_7);
      }

      .cls-4 {
        fill: url(#_Безымянный_градиент_7-3);
      }

      .cls-5 {
        fill: url(#_Безымянный_градиент_7-4);
      }

      .cls-6 {
        fill: url(#_Безымянный_градиент_7-2);
      }

      .cls-7 {
        fill: url(#_Безымянный_градиент_7-6);
      }

      .cls-8 {
        fill: url(#_Безымянный_градиент_7-5);
      }

      .cls-9 {
        fill: url(#_Безымянный_градиент_7-7);
      }

      .cls-10 {
        fill: url(#_Безымянный_градиент_7-8);
      }

      .cls-11 {
        fill: url(#_Безымянный_градиент_5-2);
      }

      .cls-12 {
        fill: #fff;
      }
    </style>
    <linearGradient id="_Безымянный_градиент_7" data-name="Безымянный градиент 7" x1="613.85" y1="1511.03" x2="618.62" y2="1511.03" gradientUnits="userSpaceOnUse">
      <stop offset=".1" stop-color="#000"/>
      <stop offset=".14" stop-color="#262626"/>
      <stop offset=".22" stop-color="#676767"/>
      <stop offset=".29" stop-color="#9d9d9d"/>
      <stop offset=".35" stop-color="#c7c7c7"/>
      <stop offset=".41" stop-color="#e5e5e5"/>
      <stop offset=".46" stop-color="#f8f8f8"/>
      <stop offset=".49" stop-color="#fff"/>
      <stop offset=".54" stop-color="#dbdbdb"/>
      <stop offset=".65" stop-color="#8e8e8e"/>
      <stop offset=".75" stop-color="#515151"/>
      <stop offset=".84" stop-color="#252525"/>
      <stop offset=".9" stop-color="#0a0a0a"/>
      <stop offset=".94" stop-color="#000"/>
    </linearGradient>
    <linearGradient id="_Безымянный_градиент_7-2" data-name="Безымянный градиент 7" x1="618.62" y1="1522.4" x2="623.6" y2="1522.4" xlink:href="#_Безымянный_градиент_7"/>
    <linearGradient id="_Безымянный_градиент_7-3" data-name="Безымянный градиент 7" x1="634.17" y1="1561.35" x2="645.49" y2="1561.35" xlink:href="#_Безымянный_градиент_7"/>
    <linearGradient id="_Безымянный_градиент_7-4" data-name="Безымянный градиент 7" x1="588.94" y1="1839.55" x2="1900.83" y2="1839.55" xlink:href="#_Безымянный_градиент_7"/>
    <linearGradient id="_Безымянный_градиент_7-5" data-name="Безымянный градиент 7" x1="1900.83" y1="1707.88" x2="1909.44" y2="1707.88" xlink:href="#_Безымянный_градиент_7"/>
    <linearGradient id="_Безымянный_градиент_7-6" data-name="Безымянный градиент 7" x1="1909.44" y1="1694.74" x2="1918.86" y2="1694.74" xlink:href="#_Безымянный_градиент_7"/>
    <linearGradient id="_Безымянный_градиент_7-7" data-name="Безымянный градиент 7" x1="1921.93" y1="1673.47" x2="1933.91" y2="1673.47" xlink:href="#_Безымянный_градиент_7"/>
    <linearGradient id="_Безымянный_градиент_7-8" data-name="Безымянный градиент 7" x1="1937.78" y1="1650.98" x2="1945.35" y2="1650.98" xlink:href="#_Безымянный_градиент_7"/>
    <linearGradient id="_Безымянный_градиент_6" data-name="Безымянный градиент 6" x1="701.81" y1="599.75" x2="1795.05" y2="599.75" gradientUnits="userSpaceOnUse">
      <stop offset=".07" stop-color="#000"/>
      <stop offset=".1" stop-color="#050505"/>
      <stop offset=".16" stop-color="#161616"/>
      <stop offset=".21" stop-color="#313131"/>
      <stop offset=".27" stop-color="#565656"/>
      <stop offset=".34" stop-color="#878787"/>
      <stop offset=".41" stop-color="#c1c1c1"/>
      <stop offset=".47" stop-color="#fff"/>
      <stop offset=".48" stop-color="#f6f6f6"/>
      <stop offset=".57" stop-color="#acacac"/>
      <stop offset=".65" stop-color="#6f6f6f"/>
      <stop offset=".73" stop-color="#3f3f3f"/>
      <stop offset=".79" stop-color="#1c1c1c"/>
      <stop offset=".85" stop-color="#070707"/>
      <stop offset=".88" stop-color="#000"/>
    </linearGradient>
    <linearGradient id="_Безымянный_градиент_5" data-name="Безымянный градиент 5" x1="878.77" y1="1636.82" x2="878.77" y2="925.41" gradientUnits="userSpaceOnUse">
      <stop offset=".47" stop-color="#fff"/>
      <stop offset=".49" stop-color="#f3f3f3"/>
      <stop offset=".61" stop-color="#9e9e9e"/>
      <stop offset=".72" stop-color="#5a5a5a"/>
      <stop offset=".81" stop-color="#292929"/>
      <stop offset=".88" stop-color="#0b0b0b"/>
      <stop offset=".92" stop-color="#000"/>
    </linearGradient>
    <linearGradient id="_Безымянный_градиент_5-2" data-name="Безымянный градиент 5" x1="1623.07" y1="1637.65" x2="1623.07" y2="920.23" xlink:href="#_Безымянный_градиент_5"/>
  </defs>
  <g id="_Слой_2" data-name="Слой 2">
    <g>
      <path class="cls-12" d="M1254.95,0c-336.01,0-651.5,130.2-888.34,366.59C130.2,602.56,0,916.26,0,1249.89s129.83,648.17,365.57,884.5c236.67,237.26,552.52,367.93,889.38,367.93,687.77,0,1247.32-561.84,1247.32-1252.43S1942.72,0,1254.95,0ZM1835.16,1609.72h0c1.37-2.24,2.73-4.47,4.07-6.71,0-.01.01-.01.01-.01,1.34-2.24,2.67-4.49,3.99-6.75,3.51-6.03,6.94-12.12,10.28-18.27,3.08-5.67,6.08-11.39,9-17.15.97-1.92,1.94-3.85,2.9-5.78.91-1.85,1.82-3.71,2.72-5.57.08-.18.17-.35.25-.51,2.77-5.74,5.46-11.52,8.07-17.35.88-1.97,1.76-3.95,2.62-5.93,3.46-7.93,6.78-15.93,9.94-24.01.8-2.02,1.58-4.04,2.35-6.07.74-1.95,1.47-3.9,2.2-5.85.16-.43.31-.86.47-1.28.62-1.7,1.24-3.4,1.85-5.1.74-2.05,1.47-4.1,2.17-6.15.72-2.06,1.43-4.12,2.12-6.18.69-2.03,1.37-4.07,2.03-6.11,0-.03.02-.07.03-.1.68-2.07,1.34-4.15,2-6.23.66-2.08,1.3-4.17,1.94-6.26.64-2.09,1.27-4.18,1.89-6.28.61-2.1,1.22-4.2,1.82-6.31,1.2-4.21,2.36-8.44,3.47-12.69,1.12-4.25,2.2-8.51,3.22-12.78.52-2.14,1.03-4.28,1.53-6.43.49-2.14.98-4.29,1.46-6.45.48-2.15.94-4.31,1.4-6.47.45-2.16.9-4.32,1.34-6.49s.86-4.34,1.27-6.52c.41-2.13.81-4.26,1.2-6.4,0-.05.01-.09.02-.13.37-2.07.73-4.13,1.09-6.2.04-.23.08-.47.12-.7.72-4.26,1.41-8.53,2.05-12.82.35-2.36.69-4.73,1.02-7.1.56-4.02,1.09-8.06,1.58-12.11.05-.46.11-.92.16-1.38.51-4.22.97-8.45,1.4-12.69v-.06c.11-1.12.22-2.23.32-3.35.17-1.67.32-3.35.46-5.03.15-1.68.29-3.36.42-5.04.18-2.25.35-4.5.51-6.75.16-2.26.3-4.51.44-6.77.01-.16.02-.32.03-.47.12-2.11.23-4.21.34-6.32.23-4.53.41-9.07.54-13.62.07-2.28.13-4.56.17-6.84.05-2.1.08-4.21.1-6.31,0-.3.01-.59.01-.89,0-.25.01-.49.01-.74,0-.68.01-1.37.01-2.05v-.84c.01-.96.01-1.93.01-2.89,0-1.26,0-2.52-.01-3.78,0-.73-.01-1.45-.02-2.18,0-.97-.01-1.93-.03-2.89-.01-1.48-.04-2.95-.07-4.42-.02-1.03-.04-2.05-.06-3.08-.02-.84-.04-1.68-.07-2.52-.11-4.34-.27-8.68-.47-13-.04-.99-.09-1.98-.14-2.97-.36-7.16-.83-14.3-1.41-21.41-.07-.84-.14-1.68-.21-2.51-.07-.88-.15-1.75-.23-2.63-.12-1.45-.26-2.9-.4-4.34-.13-1.44-.27-2.88-.42-4.32-.29-2.88-.6-5.76-.93-8.63-.17-1.44-.34-2.87-.51-4.3-.41-3.38-.84-6.76-1.3-10.13-.32-2.33-.65-4.67-.99-7-.42-2.86-.85-5.73-1.31-8.59-.21-1.32-.43-2.64-.65-3.96-1.17-7.14-2.47-14.24-3.87-21.31-.23-1.16-.46-2.32-.69-3.47-.19-.89-.37-1.79-.56-2.69-.24-1.15-.48-2.29-.72-3.44-1.4-6.56-2.89-13.08-4.48-19.57-.33-1.38-.67-2.76-1.02-4.13-.99-3.94-2.01-7.87-3.07-11.79-.31-1.16-.63-2.33-.95-3.49-.27-.96-.53-1.92-.8-2.88-1.03-3.69-2.1-7.37-3.19-11.04-.69-2.31-1.39-4.61-2.11-6.91-.35-1.15-.71-2.3-1.08-3.45-.29-.92-.58-1.84-.88-2.77-.44-1.36-.88-2.73-1.33-4.1-.37-1.14-.75-2.28-1.13-3.42-.6-1.82-1.21-3.63-1.84-5.44-.55-1.6-1.1-3.19-1.66-4.78-1.14-3.26-2.31-6.51-3.5-9.75-.11-.27-.21-.55-.31-.82-2.43-6.6-4.97-13.16-7.62-19.66-.89-2.21-1.79-4.42-2.72-6.62-1.38-3.3-2.79-6.6-4.22-9.88-1.43-3.28-2.88-6.54-4.37-9.8-.98-2.17-1.98-4.33-2.99-6.49-4.16-8.89-8.5-17.69-13.03-26.38-.75-1.45-1.51-2.89-2.28-4.33-4.58-8.65-9.35-17.19-14.3-25.62-.83-1.41-1.66-2.81-2.49-4.21-1.66-2.8-3.35-5.59-5.06-8.36-1.24-2.02-2.49-4.03-3.75-6.03-1.89-3-3.8-5.99-5.74-8.97-1.94-2.97-3.89-5.93-5.88-8.87-.99-1.47-1.99-2.94-2.99-4.4-2-2.93-4.03-5.84-6.08-8.73-1.03-1.45-2.06-2.89-3.09-4.33-1.03-1.43-2.06-2.85-3.1-4.27-1.57-2.16-3.16-4.3-4.77-6.44-1.76-2.37-3.55-4.72-5.36-7.06-.9-1.17-1.8-2.34-2.71-3.5s-1.82-2.33-2.73-3.48c-.92-1.16-1.84-2.32-2.76-3.47l-108.31,94.61-85.77,74.93-346.89,303.02-336.67-297.1-85.75-75.67-111.03-97.99c-.06.08-.12.15-.18.23-1.37,1.76-2.73,3.53-4.08,5.31-.09.12-.18.23-.27.35-1.32,1.74-2.64,3.49-3.94,5.24-1.4,1.87-2.78,3.75-4.16,5.63-1.37,1.88-2.74,3.77-4.09,5.67t-.02.02c-1.35,1.89-2.69,3.79-4.03,5.7-1.03,1.47-2.06,2.94-3.07,4.42-.36.52-.71,1.04-1.07,1.56-1.2,1.75-2.39,3.5-3.57,5.26-.06.11-.14.21-.21.32-1.3,1.94-2.59,3.89-3.87,5.85-1.25,1.9-2.49,3.81-3.72,5.73-.06.09-.12.18-.18.27-1.23,1.93-2.46,3.87-3.68,5.81-2.49,3.97-4.93,7.96-7.34,11.98-1.21,2.01-2.4,4.03-3.59,6.05-1.19,2.02-2.36,4.06-3.53,6.09-1.16,2.04-2.32,4.08-3.46,6.13-2.23,3.99-4.42,7.99-6.57,12.03-.06.11-.12.23-.18.34-1.11,2.07-2.2,4.15-3.28,6.24-1.09,2.09-2.16,4.19-3.23,6.29-.94,1.86-1.87,3.72-2.8,5.59-.26.51-.51,1.03-.76,1.54-.91,1.84-1.81,3.69-2.7,5.54-.06.13-.12.26-.19.39-.95,1.99-1.9,3.99-2.84,6-.98,2.08-1.94,4.16-2.9,6.25-.1.23-.21.46-.31.69-.9,1.98-1.8,3.96-2.68,5.95,0,0,0,.01-.01.02-.9,2.04-1.8,4.08-2.68,6.13-.86,1.97-1.7,3.95-2.54,5.93-.34.81-.68,1.63-1.02,2.44-1.35,3.24-2.68,6.49-3.98,9.75-.36.9-.73,1.81-1.08,2.72-.06.13-.11.27-.16.41-.71,1.8-1.42,3.61-2.11,5.42-.68,1.78-1.36,3.56-2.03,5.35-.07.18-.14.37-.21.55-.46,1.23-.91,2.45-1.36,3.68-.52,1.4-1.03,2.8-1.53,4.2-.67,1.85-1.33,3.71-1.98,5.57-1.2,3.43-2.37,6.87-3.52,10.31-.44,1.33-.88,2.65-1.32,3.98v.02c-.44,1.34-.87,2.67-1.29,4.01-.43,1.34-.85,2.68-1.27,4.02-.42,1.34-.84,2.68-1.25,4.03-.41,1.34-.82,2.69-1.22,4.04-.41,1.35-.81,2.7-1.2,4.05-.38,1.28-.75,2.56-1.12,3.84-.02.08-.04.15-.06.22-.39,1.36-.77,2.72-1.15,4.08-.44,1.57-.87,3.14-1.3,4.71-.32,1.15-.63,2.31-.93,3.46-.53,1.97-1.04,3.94-1.55,5.91-.51,1.99-1.01,3.99-1.51,5.99-2.89,11.69-5.49,23.49-7.78,35.4-.23,1.19-.46,2.38-.68,3.57-.28,1.48-.55,2.96-.82,4.44-.38,2.11-.75,4.21-1.11,6.32-.12.69-.23,1.38-.35,2.07-.17,1.01-.34,2.02-.5,3.03-.33,1.98-.64,3.97-.95,5.96-.17,1.12-.34,2.25-.51,3.38-.76,5.05-1.46,10.12-2.1,15.2-.13.99-.25,1.99-.37,2.98-.6,4.87-1.15,9.75-1.64,14.65-.13,1.22-.25,2.45-.36,3.67-.08.84-.16,1.68-.24,2.51-.1,1.04-.19,2.08-.28,3.12-.07.79-.14,1.59-.2,2.38-.09,1.01-.17,2.03-.25,3.05-.12,1.46-.23,2.92-.34,4.39-.08,1.07-.16,2.15-.23,3.23-.08,1.16-.16,2.32-.23,3.49-.07,1.1-.14,2.2-.2,3.3-.16,2.61-.3,5.23-.42,7.85-.06,1.24-.12,2.48-.17,3.72-.11,2.49-.2,4.98-.28,7.47-.04,1.22-.08,2.43-.11,3.65-.03,1.28-.06,2.56-.09,3.84-.02,1.05-.04,2.11-.06,3.16-.03,1.94-.06,3.89-.07,5.84-.01.76-.02,1.51-.02,2.27,0,1.25,0,2.5,0,3.76,0,1.93,0,3.86.03,5.78,0,.99.01,1.98.03,2.96.04,3.31.11,6.61.21,9.9.01.75.04,1.5.07,2.25.04,1.41.09,2.82.14,4.22.08,2.12.17,4.24.27,6.35.06,1.27.13,2.54.2,3.81.1,2.1.23,4.19.36,6.27.12,1.95.25,3.89.4,5.83.04.76.1,1.52.16,2.28.07,1.02.15,2.04.24,3.05.16,2.03.33,4.06.52,6.08.1,1.2.21,2.4.33,3.6.09,1,.18,2,.29,2.99.3,3.09.63,6.18.99,9.25.11,1.09.24,2.18.37,3.26.17,1.44.34,2.87.53,4.29.17,1.4.35,2.79.54,4.18.36,2.79.74,5.57,1.15,8.35.2,1.39.41,2.78.62,4.16.21,1.39.42,2.78.64,4.16.34,2.15.69,4.31,1.05,6.45.18,1.06.36,2.12.55,3.18.33,1.93.67,3.85,1.02,5.77.2,1.13.41,2.27.63,3.4.27,1.45.55,2.91.84,4.36,1.17,6.06,2.43,12.1,3.78,18.11.29,1.31.59,2.63.9,3.94.5,2.22,1.03,4.44,1.57,6.66.16.69.32,1.38.5,2.07.27,1.15.56,2.29.85,3.43.67,2.7,1.36,5.39,2.07,8.07.28,1.07.57,2.15.86,3.22.78,2.95,1.59,5.88,2.43,8.81.37,1.31.75,2.62,1.12,3.93.78,2.68,1.57,5.36,2.39,8.02.4,1.32.81,2.65,1.22,3.97.64,2.1,1.3,4.19,1.98,6.27.41,1.28.82,2.55,1.24,3.82,0,.03,0,.05.02.06.43,1.32.87,2.65,1.32,3.97.17.55.35,1.09.55,1.64.29.9.6,1.79.91,2.69.24.71.48,1.43.74,2.14.28.83.57,1.67.86,2.5.51,1.47,1.03,2.93,1.57,4.4.46,1.29.93,2.59,1.41,3.88.47,1.3.95,2.59,1.43,3.88.95,2.59,1.93,5.16,2.93,7.73.49,1.29.99,2.57,1.5,3.84.49,1.28,1,2.56,1.52,3.84.51,1.28,1.03,2.55,1.55,3.82,1.54,3.82,3.14,7.63,4.77,11.42,1.62,3.79,3.28,7.56,4.98,11.31.56,1.25,1.13,2.5,1.7,3.75.56,1.25,1.14,2.5,1.73,3.74.58,1.24,1.16,2.49,1.75,3.73,1.17,2.48,2.36,4.95,3.56,7.42.59,1.21,1.19,2.43,1.78,3.64.01.03.03.06.05.09,3.64,7.36,7.41,14.65,11.32,21.86,1.29,2.41,2.61,4.82,3.95,7.21.67,1.19,1.34,2.39,2.01,3.58.67,1.19,1.35,2.38,2.03,3.57.66,1.19,1.35,2.38,2.05,3.56.53.92,1.07,1.85,1.61,2.77.3.53.61,1.06.93,1.58,1.22,2.09,2.46,4.17,3.73,6.25.7,1.17,1.41,2.34,2.13,3.51,1.43,2.33,2.87,4.65,4.32,6.97.73,1.16,1.46,2.31,2.2,3.47.73,1.15,1.47,2.3,2.21,3.45.73,1.15,1.48,2.3,2.23,3.44.75,1.15,1.5,2.29,2.26,3.43.96,1.45,1.92,2.9,2.9,4.35.89,1.34,1.8,2.68,2.71,4.01l-93.82,63.62c-2.48-3.68-4.93-7.38-7.34-11.1-.87-1.33-1.73-2.67-2.59-4.01-1.58-2.43-3.13-4.88-4.65-7.33-2.7-4.29-5.35-8.62-7.96-12.97-.79-1.32-1.57-2.63-2.36-3.95-.05-.08-.1-.16-.14-.25-1.62-2.71-3.21-5.44-4.78-8.18-.79-1.38-1.58-2.76-2.37-4.15-1.58-2.77-3.14-5.56-4.68-8.36-.61-1.11-1.22-2.21-1.83-3.32-.27-.49-.54-.99-.81-1.49-.65-1.2-1.3-2.41-1.95-3.61-1.54-2.87-3.06-5.75-4.56-8.64-1.46-2.78-2.89-5.58-4.3-8.38-.49-.96-.97-1.93-1.45-2.89-.41-.8-.81-1.61-1.21-2.42-.54-1.09-1.08-2.19-1.62-3.29-1.42-2.87-2.81-5.76-4.18-8.66-.69-1.45-1.38-2.9-2.06-4.35-1.36-2.91-2.7-5.82-4.02-8.75-.67-1.46-1.32-2.92-1.98-4.39-.66-1.46-1.31-2.93-1.95-4.41-.52-1.19-1.04-2.38-1.55-3.57-.24-.52-.47-1.05-.69-1.59-.5-1.16-.99-2.32-1.48-3.48-.67-1.54-1.32-3.1-1.97-4.66-.61-1.49-1.23-2.98-1.84-4.47-.58-1.41-1.15-2.83-1.73-4.24-.64-1.57-1.26-3.14-1.88-4.72-1.18-3-2.35-6.01-3.5-9.02-.59-1.51-1.16-3.02-1.71-4.53-.86-2.31-1.72-4.63-2.56-6.95-.61-1.66-1.21-3.33-1.8-5,0-.04-.03-.07-.04-.1-.93-2.64-1.86-5.27-2.77-7.92-.45-1.34-.91-2.68-1.37-4.02-.83-2.45-1.64-4.91-2.45-7.38-1.59-4.88-3.14-9.77-4.64-14.69s-2.95-9.86-4.36-14.82c-1.2-4.24-2.37-8.49-3.51-12.75-1.1-4.18-2.17-8.37-3.22-12.58-.47-1.88-.93-3.77-1.38-5.65-.89-3.71-1.75-7.42-2.59-11.14-.01-.07-.03-.14-.05-.2-12.17-54.27-18.78-110.63-19.17-168.46-.02-.75-.03-1.51-.03-2.26-.02-1.05-.02-2.1-.02-3.16,0-2.21.01-4.42.03-6.63.01-1.38.02-2.75.04-4.13.02-1.79.05-3.58.09-5.36.03-1.79.07-3.58.12-5.36.04-1.68.09-3.36.14-5.03.05-1.41.09-2.83.15-4.23.05-1.56.12-3.12.18-4.68.01-.2.02-.41.03-.61.04-1.03.09-2.05.14-3.08.05-1.12.11-2.25.16-3.37.07-1.38.15-2.75.23-4.12.07-1.29.14-2.59.23-3.88.05-1.01.12-2.02.18-3.02.11-1.76.23-3.5.36-5.25.12-1.76.25-3.51.39-5.26.09-1.19.18-2.37.28-3.55.09-1.15.19-2.3.29-3.45.02-.26.04-.52.06-.77.13-1.49.27-2.98.4-4.47.01-.05.01-.1.02-.15.15-1.64.31-3.29.47-4.93.5-5.08,1.05-10.14,1.64-15.19.19-1.61.38-3.21.58-4.81.68-5.53,1.42-11.04,2.21-16.53.4-2.76.81-5.51,1.23-8.26.51-3.29,1.04-6.57,1.59-9.85.19-1.16.39-2.32.59-3.48.48-2.83.98-5.66,1.5-8.47.27-1.51.55-3.02.84-4.53.19-1.04.39-2.07.59-3.1.31-1.63.63-3.25.95-4.87.27-1.38.55-2.77.84-4.15.21-1.08.43-2.16.67-3.23.27-1.35.55-2.69.85-4.03.94-4.43,1.92-8.85,2.94-13.25.31-1.37.63-2.74.96-4.11.69-2.94,1.4-5.87,2.13-8.79.41-1.67.83-3.34,1.26-5,.42-1.67.85-3.33,1.29-4.99.43-1.66.87-3.32,1.32-4.97,2.58-9.6,5.33-19.14,8.25-28.59.42-1.37.84-2.72,1.27-4.08,1.56-4.98,3.17-9.94,4.83-14.88.48-1.42.96-2.84,1.45-4.26.52-1.54,1.05-3.07,1.59-4.6.34-1,.69-2,1.05-2.99.48-1.37.96-2.73,1.45-4.08,1.22-3.41,2.47-6.81,3.74-10.2.46-1.23.92-2.46,1.39-3.69,3.11-8.19,6.35-16.32,9.72-24.38,1.16-2.77,2.33-5.54,3.52-8.29,1.43-3.32,2.88-6.63,4.36-9.93.69-1.54,1.38-3.08,2.08-4.61.56-1.24,1.13-2.48,1.7-3.72.45-.99.91-1.98,1.37-2.96,1.17-2.52,2.36-5.04,3.56-7.55.65-1.35,1.3-2.7,1.96-4.05.73-1.52,1.47-3.03,2.21-4.53.43-.88.87-1.76,1.31-2.64.5-1.02,1.01-2.03,1.52-3.04.56-1.11,1.12-2.22,1.68-3.33,2.35-4.62,4.74-9.21,7.17-13.78.73-1.35,1.45-2.7,2.18-4.05,2.39-4.42,4.82-8.82,7.29-13.19.68-1.21,1.37-2.42,2.06-3.62,6.94-12.14,14.18-24.07,21.71-35.78.74-1.15,1.48-2.29,2.23-3.44.91-1.39,1.82-2.79,2.74-4.18.58-.89,1.17-1.78,1.77-2.67.72-1.09,1.45-2.18,2.17-3.26,2.89-4.3,5.82-8.56,8.78-12.79.85-1.21,1.7-2.41,2.56-3.62,1.15-1.63,2.3-3.24,3.47-4.85.69-.97,1.39-1.93,2.09-2.89,3.73-5.14,7.53-10.24,11.39-15.28,1.92-2.52,3.86-5.03,5.82-7.53,4.03-5.16,8.14-10.26,12.3-15.32,1.88-2.29,3.78-4.56,5.7-6.83,1.01-1.21,2.04-2.42,3.07-3.62,1.03-1.21,2.06-2.41,3.1-3.61,2.12-2.47,4.27-4.93,6.44-7.37,3.66-4.14,7.37-8.24,11.11-12.3,3.51-3.81,7.07-7.58,10.65-11.31t0-.01c1.8-1.87,3.6-3.73,5.41-5.57h0c1.82-1.86,3.63-3.7,5.46-5.53,1.46-1.46,2.93-2.92,4.4-4.38,2.95-2.91,5.93-5.79,8.92-8.65l84.67,74.72,457.67,403.93,463.66-405.02,87.24-76.21c3.87,3.57,7.7,7.19,11.49,10.84,3.16,3.04,6.3,6.11,9.4,9.21.89.88,1.77,1.76,2.65,2.65,7.17,7.21,14.19,14.55,21.06,22.03,1.17,1.28,2.34,2.56,3.5,3.84,2.35,2.6,4.69,5.21,7.01,7.83,1.16,1.31,2.31,2.63,3.46,3.95,1.57,1.8,3.13,3.61,4.69,5.42,1.25,1.46,2.5,2.93,3.74,4.41,1.95,2.29,3.87,4.6,5.78,6.92,1.41,1.71,2.82,3.44,4.21,5.17.87,1.08,1.74,2.16,2.61,3.24,1.8,2.25,3.58,4.5,5.35,6.76.8,1.02,1.59,2.04,2.38,3.06,1.7,2.19,3.39,4.4,5.07,6.61,8.75,11.55,17.18,23.34,25.29,35.36.9,1.32,1.79,2.65,2.67,3.98.53.8,1.06,1.59,1.58,2.39.56.84,1.12,1.69,1.67,2.54,3.44,5.24,6.81,10.53,10.11,15.86.7,1.11,1.39,2.23,2.08,3.35,4.45,7.25,8.79,14.58,13.01,21.98.57.99,1.13,1.99,1.69,2.98,1.58,2.79,3.14,5.6,4.68,8.41.77,1.4,1.54,2.81,2.3,4.22,1.53,2.83,3.04,5.66,4.53,8.5.75,1.43,1.49,2.85,2.23,4.28.74,1.42,1.47,2.85,2.2,4.28.65,1.28,1.3,2.56,1.95,3.85.8,1.59,1.59,3.18,2.38,4.77.71,1.44,1.42,2.89,2.12,4.33,1.44,2.95,2.86,5.91,4.25,8.87,1.06,2.24,2.1,4.48,3.14,6.74.38.81.75,1.62,1.12,2.44.58,1.27,1.16,2.55,1.73,3.83.66,1.47,1.32,2.94,1.97,4.42.69,1.55,1.38,3.1,2.05,4.66,1.67,3.86,3.32,7.74,4.94,11.63.84,2,1.66,4,2.47,6.01.61,1.5,1.21,3,1.81,4.5.6,1.5,1.2,3.01,1.79,4.51,3.17,8.07,6.2,16.2,9.11,24.4.89,2.52,1.77,5.04,2.64,7.57.05.14.1.29.15.43.48,1.4.95,2.79,1.42,4.19.52,1.54,1.03,3.08,1.54,4.63.58,1.73,1.15,3.46,1.7,5.2.44,1.37.88,2.73,1.31,4.1.49,1.55.98,3.11,1.46,4.67.48,1.55.96,3.11,1.43,4.68.48,1.56.95,3.12,1.41,4.69,1.43,4.82,2.82,9.66,4.15,14.52.41,1.45.8,2.91,1.19,4.36.36,1.34.72,2.67,1.07,4.01,1.75,6.58,3.41,13.2,4.98,19.85.34,1.42.67,2.85,1,4.27,1.53,6.59,2.98,13.22,4.34,19.87.33,1.62.66,3.24.98,4.86s.64,3.24.95,4.87c.21,1.07.41,2.14.61,3.22.23,1.22.46,2.44.69,3.67.19,1.06.39,2.12.57,3.19.26,1.41.51,2.82.75,4.24,1.36,7.78,2.6,15.61,3.73,23.47.17,1.16.33,2.32.49,3.48.2,1.43.4,2.87.59,4.31.17,1.22.33,2.44.48,3.66.19,1.43.37,2.86.54,4.29.06.42.11.84.16,1.26.18,1.47.36,2.94.53,4.42.15,1.23.29,2.46.42,3.7.15,1.29.29,2.59.43,3.89.12,1.09.24,2.19.35,3.28.11,1.1.23,2.21.34,3.32.04.45.08.89.13,1.34.31,3.17.6,6.35.87,9.53.27,3.07.51,6.14.74,9.21.07.88.13,1.75.19,2.63.08,1.1.16,2.2.23,3.3.09,1.23.17,2.46.24,3.7.08,1.19.15,2.38.22,3.58.09,1.43.17,2.86.24,4.29.32,5.93.57,11.87.76,17.83.05,1.48.09,2.96.13,4.44.04,1.21.07,2.42.09,3.63.01.52.03,1.05.03,1.57.03,1.24.05,2.47.07,3.7.03,1.49.05,2.98.06,4.46.02,1.27.03,2.53.03,3.8.01,1.71.02,3.43.02,5.14,0,.9,0,1.81-.01,2.71,0,.45,0,.91-.01,1.36l-.03,1.35c-.18,26.75-1.71,53.2-4.52,79.29-.23,2.18-.47,4.35-.73,6.53-.5,4.24-1.02,8.48-1.59,12.7-.29,2.25-.6,4.5-.92,6.74,0,.08-.02.17-.04.25-.3,2.1-.61,4.2-.92,6.3-.07.5-.15,1-.23,1.49-.2,1.34-.41,2.68-.62,4.01-.02.17-.05.34-.08.5-.29,1.86-.59,3.71-.9,5.56-.33,1.98-.67,3.96-1.01,5.94-.01.05-.01.1-.03.15-.45,2.6-.91,5.2-1.4,7.8-.62,3.41-1.28,6.81-1.95,10.21-.68,3.41-1.38,6.82-2.1,10.22-.72,3.4-1.46,6.79-2.23,10.18-1.45,6.37-2.96,12.71-4.56,19.03-.79,3.16-1.61,6.31-2.45,9.45-.83,3.14-1.68,6.28-2.56,9.41-.88,3.12-1.77,6.25-2.68,9.36-.46,1.56-.92,3.11-1.38,4.66-1.23,4.1-2.49,8.19-3.78,12.26-.17.56-.35,1.11-.53,1.66-.48,1.49-.96,2.98-1.44,4.46-.21.67-.43,1.34-.66,2-.55,1.69-1.11,3.38-1.68,5.07-.8,2.38-1.61,4.75-2.44,7.11-.36,1.04-.72,2.08-1.09,3.11-.32.94-.65,1.87-.99,2.8-.35.99-.71,1.99-1.07,2.98-.18.5-.36,1-.54,1.49-.58,1.6-1.17,3.2-1.76,4.8-1.6,4.32-3.24,8.62-4.92,12.9-.39,1.01-.78,2.02-1.19,3.03-1.82,4.61-3.68,9.2-5.59,13.77-.78,1.85-1.56,3.7-2.34,5.54-.18.42-.36.85-.55,1.27-.83,1.95-1.68,3.9-2.53,5.85-.09.21-.18.41-.27.62-.87,1.96-1.74,3.92-2.62,5.88-1.13,2.54-2.28,5.07-3.45,7.59-1.05,2.28-2.12,4.56-3.2,6.84-.24.52-.49,1.04-.74,1.56-.83,1.75-1.67,3.5-2.52,5.25-1.1,2.26-2.2,4.52-3.32,6.77-.87,1.74-1.74,3.48-2.62,5.22-.38.76-.77,1.51-1.16,2.27-1.01,1.99-2.03,3.97-3.06,5.95-1.16,2.23-2.33,4.45-3.51,6.66-2.36,4.44-4.77,8.84-7.21,13.23-1.22,2.19-2.45,4.37-3.69,6.55-2.49,4.36-5.01,8.69-7.57,13-1.28,2.15-2.57,4.3-3.87,6.44-3.91,6.42-7.9,12.78-11.98,19.09-1.02,1.57-2.04,3.15-3.07,4.72-3.09,4.7-6.23,9.37-9.42,14.01-2.83,4.12-5.7,8.21-8.61,12.28l-91.65-65.12c9.1-12.75,17.77-25.82,25.98-39.18Z"/>
      <path d="M1254.95,47.77C585.6,47.77,47.76,587.4,47.76,1249.89s535.27,1204.66,1207.19,1204.66,1199.55-542.16,1199.55-1204.66S1917.45,47.77,1254.95,47.77ZM453.87,1248.16c.01-1.38.02-2.75.04-4.13.02-1.79.05-3.58.09-5.36.03-1.79.07-3.58.12-5.36.04-1.68.09-3.36.14-5.03.05-1.41.09-2.83.15-4.23.05-1.56.12-3.12.18-4.68.01-.2.02-.41.03-.61.04-1.03.09-2.05.14-3.08.05-1.12.11-2.25.16-3.37.07-1.38.15-2.75.23-4.12.07-1.29.14-2.59.23-3.88.05-1.01.12-2.02.18-3.02.11-1.76.23-3.5.36-5.25.12-1.76.25-3.51.39-5.26.09-1.19.18-2.37.28-3.55.09-1.15.19-2.3.29-3.45.02-.26.04-.52.06-.77.13-1.49.27-2.98.4-4.47.01-.05.01-.1.02-.15.15-1.64.31-3.29.47-4.93.5-5.08,1.05-10.14,1.64-15.19.19-1.61.38-3.21.58-4.81.68-5.53,1.42-11.04,2.21-16.53.4-2.76.81-5.51,1.23-8.26.51-3.29,1.04-6.57,1.59-9.85.19-1.16.39-2.32.59-3.48.48-2.83.98-5.66,1.5-8.47.27-1.51.55-3.02.84-4.53.19-1.04.39-2.07.59-3.1.31-1.63.63-3.25.95-4.87.27-1.38.55-2.77.84-4.15.21-1.08.43-2.16.67-3.23.27-1.35.55-2.69.85-4.03.94-4.43,1.92-8.85,2.94-13.25.31-1.37.63-2.74.96-4.11.69-2.94,1.4-5.87,2.13-8.79.41-1.67.83-3.34,1.26-5,.42-1.67.85-3.33,1.29-4.99.43-1.66.87-3.32,1.32-4.97,2.58-9.6,5.33-19.14,8.25-28.59.42-1.37.84-2.72,1.27-4.08,1.56-4.98,3.17-9.94,4.83-14.88.48-1.42.96-2.84,1.45-4.26.52-1.54,1.05-3.07,1.59-4.6.34-1,.69-2,1.05-2.99.48-1.37.96-2.73,1.45-4.08,1.22-3.41,2.47-6.81,3.74-10.2.46-1.23.92-2.46,1.39-3.69,3.11-8.19,6.35-16.32,9.72-24.38,1.16-2.77,2.33-5.54,3.52-8.29,1.43-3.32,2.88-6.63,4.36-9.93.69-1.54,1.38-3.08,2.08-4.61.56-1.24,1.13-2.48,1.7-3.72.45-.99.91-1.98,1.37-2.96,1.17-2.52,2.36-5.04,3.56-7.55.65-1.35,1.3-2.7,1.96-4.05.73-1.52,1.47-3.03,2.21-4.53.43-.88.87-1.76,1.31-2.64.5-1.02,1.01-2.03,1.52-3.04.56-1.11,1.12-2.22,1.68-3.33,2.35-4.62,4.74-9.21,7.17-13.78.73-1.35,1.45-2.7,2.18-4.05,2.39-4.42,4.82-8.82,7.29-13.19.68-1.21,1.37-2.42,2.06-3.62,6.94-12.14,14.18-24.07,21.71-35.78.74-1.15,1.48-2.29,2.23-3.44.91-1.39,1.82-2.79,2.74-4.18.58-.89,1.17-1.78,1.77-2.67.72-1.09,1.45-2.18,2.17-3.26,2.89-4.3,5.82-8.56,8.78-12.79.85-1.21,1.7-2.41,2.56-3.62,1.15-1.63,2.3-3.24,3.47-4.85.69-.97,1.39-1.93,2.09-2.89,3.73-5.14,7.53-10.24,11.39-15.28,1.92-2.52,3.86-5.03,5.82-7.53,4.03-5.16,8.14-10.26,12.3-15.32,1.88-2.29,3.78-4.56,5.7-6.83,1.01-1.21,2.04-2.42,3.07-3.62,1.03-1.21,2.06-2.41,3.1-3.61,2.12-2.47,4.27-4.93,6.44-7.37,3.66-4.14,7.37-8.24,11.11-12.3,3.51-3.81,7.07-7.58,10.65-11.31t0-.01c1.8-1.87,3.6-3.73,5.41-5.57h0c1.82-1.86,3.63-3.7,5.46-5.53,1.46-1.46,2.93-2.92,4.4-4.38,2.95-2.91,5.93-5.79,8.92-8.65l84.67,74.72,457.67,403.93,463.66-405.02,87.24-76.21c3.87,3.57,7.7,7.19,11.49,10.84,3.16,3.04,6.3,6.11,9.4,9.21.89.88,1.77,1.76,2.65,2.65,7.17,7.21,14.19,14.55,21.06,22.03,1.17,1.28,2.34,2.56,3.5,3.84,2.35,2.6,4.69,5.21,7.01,7.83,1.16,1.31,2.31,2.63,3.46,3.95,1.57,1.8,3.13,3.61,4.69,5.42,1.25,1.46,2.5,2.93,3.74,4.41,1.95,2.29,3.87,4.6,5.78,6.92,1.41,1.71,2.82,3.44,4.21,5.17.87,1.08,1.74,2.16,2.61,3.24,1.8,2.25,3.58,4.5,5.35,6.76.8,1.02,1.59,2.04,2.38,3.06,1.7,2.19,3.39,4.4,5.07,6.61,8.75,11.55,17.18,23.34,25.29,35.36.9,1.32,1.79,2.65,2.67,3.98.53.8,1.06,1.59,1.58,2.39.56.84,1.12,1.69,1.67,2.54,3.44,5.24,6.81,10.53,10.11,15.86.7,1.11,1.39,2.23,2.08,3.35,4.45,7.25,8.79,14.58,13.01,21.98.57.99,1.13,1.99,1.69,2.98,1.58,2.79,3.14,5.6,4.68,8.41.77,1.4,1.54,2.81,2.3,4.22,1.53,2.83,3.04,5.66,4.53,8.5.75,1.43,1.49,2.85,2.23,4.28.74,1.42,1.47,2.85,2.2,4.28.65,1.28,1.3,2.56,1.95,3.85.8,1.59,1.59,3.18,2.38,4.77.71,1.44,1.42,2.89,2.12,4.33,1.44,2.95,2.86,5.91,4.25,8.87,1.06,2.24,2.1,4.48,3.14,6.74.38.81.75,1.62,1.12,2.44.58,1.27,1.16,2.55,1.73,3.83.66,1.47,1.32,2.94,1.97,4.42.69,1.55,1.38,3.1,2.05,4.66,1.67,3.86,3.32,7.74,4.94,11.63.84,2,1.66,4,2.47,6.01.61,1.5,1.21,3,1.81,4.5.6,1.5,1.2,3.01,1.79,4.51,3.17,8.07,6.2,16.2,9.11,24.4.89,2.52,1.77,5.04,2.64,7.57.05.14.1.29.15.43.48,1.4.95,2.79,1.42,4.19.52,1.54,1.03,3.08,1.54,4.63.58,1.73,1.15,3.46,1.7,5.2.44,1.37.88,2.73,1.31,4.1.49,1.55.98,3.11,1.46,4.67.48,1.55.96,3.11,1.43,4.68.48,1.56.95,3.12,1.41,4.69,1.43,4.82,2.82,9.66,4.15,14.52.41,1.45.8,2.91,1.19,4.36.36,1.34.72,2.67,1.07,4.01,1.75,6.58,3.41,13.2,4.98,19.85.34,1.42.67,2.85,1,4.27,1.53,6.59,2.98,13.22,4.34,19.87.33,1.62.66,3.24.98,4.86s.64,3.24.95,4.87c.21,1.07.41,2.14.61,3.22.23,1.22.46,2.44.69,3.67.19,1.06.39,2.12.57,3.19.26,1.41.51,2.82.75,4.24,1.36,7.78,2.6,15.61,3.73,23.47.17,1.16.33,2.32.49,3.48.2,1.43.4,2.87.59,4.31.17,1.22.33,2.44.48,3.66.19,1.43.37,2.86.54,4.29.06.42.11.84.16,1.26.18,1.47.36,2.94.53,4.42.15,1.23.29,2.46.42,3.7.15,1.29.29,2.59.43,3.89.12,1.09.24,2.19.35,3.28.11,1.1.23,2.21.34,3.32.04.45.08.89.13,1.34.31,3.17.6,6.35.87,9.53.27,3.07.51,6.14.74,9.21.07.88.13,1.75.19,2.63.08,1.1.16,2.2.23,3.3.09,1.23.17,2.46.24,3.7.08,1.19.15,2.38.22,3.58.09,1.43.17,2.86.24,4.29.32,5.93.57,11.87.76,17.83.05,1.48.09,2.96.13,4.44.04,1.21.07,2.42.09,3.63.01.52.03,1.05.03,1.57.03,1.24.05,2.47.07,3.7.03,1.49.05,2.98.06,4.46.02,1.27.03,2.53.03,3.8.01,1.71.02,3.43.02,5.14,0,.9,0,1.81-.01,2.71,0,.45,0,.91-.01,1.36l-.03,1.35c-.18,26.75-1.71,53.2-4.52,79.29-.23,2.18-.47,4.35-.73,6.53-.5,4.24-1.02,8.48-1.59,12.7-.29,2.25-.6,4.5-.92,6.74,0,.08-.02.17-.04.25-.3,2.1-.61,4.2-.92,6.3-.07.5-.15,1-.23,1.49-.2,1.34-.41,2.68-.62,4.01-.02.17-.05.34-.08.5-.29,1.86-.59,3.71-.9,5.56-.33,1.98-.67,3.96-1.01,5.94-.01.05-.01.1-.03.15-.45,2.6-.91,5.2-1.4,7.8-.62,3.41-1.28,6.81-1.95,10.21-.68,3.41-1.38,6.82-2.1,10.22-.72,3.4-1.46,6.79-2.23,10.18-1.45,6.37-2.96,12.71-4.56,19.03-.79,3.16-1.61,6.31-2.45,9.45-.83,3.14-1.68,6.28-2.56,9.41-.88,3.12-1.77,6.25-2.68,9.36-.46,1.56-.92,3.11-1.38,4.66-1.23,4.1-2.49,8.19-3.78,12.26-.17.56-.35,1.11-.53,1.66-.48,1.49-.96,2.98-1.44,4.46-.21.67-.43,1.34-.66,2-.55,1.69-1.11,3.38-1.68,5.07-.8,2.38-1.61,4.75-2.44,7.11-.36,1.04-.72,2.08-1.09,3.11-.32.94-.65,1.87-.99,2.8-.35.99-.71,1.99-1.07,2.98-.18.5-.36,1-.54,1.49-.58,1.6-1.17,3.2-1.76,4.8-1.6,4.32-3.24,8.62-4.92,12.9-.39,1.01-.78,2.02-1.19,3.03-1.82,4.61-3.68,9.2-5.59,13.77-.78,1.85-1.56,3.7-2.34,5.54-.18.42-.36.85-.55,1.27-.83,1.95-1.68,3.9-2.53,5.85-.09.21-.18.41-.27.62-.87,1.96-1.74,3.92-2.62,5.88-1.13,2.54-2.28,5.07-3.45,7.59-1.05,2.28-2.12,4.56-3.2,6.84-.24.52-.49,1.04-.74,1.56-.83,1.75-1.67,3.5-2.52,5.25-1.1,2.26-2.2,4.52-3.32,6.77-.87,1.74-1.74,3.48-2.62,5.22-.38.76-.77,1.51-1.16,2.27-1.01,1.99-2.03,3.97-3.06,5.95-1.16,2.23-2.33,4.45-3.51,6.66-2.36,4.44-4.77,8.84-7.21,13.23-1.22,2.19-2.45,4.37-3.69,6.55-2.49,4.36-5.01,8.69-7.57,13-1.28,2.15-2.57,4.3-3.87,6.44-3.91,6.42-7.9,12.78-11.98,19.09-1.02,1.57-2.04,3.15-3.07,4.72-3.09,4.7-6.23,9.37-9.42,14.01-2.83,4.12-5.7,8.21-8.61,12.28l-91.65-65.12c9.1-12.75,17.77-25.82,25.98-39.18h0c1.37-2.24,2.73-4.47,4.07-6.71,0-.01.01-.01.01-.01,1.34-2.24,2.67-4.49,3.99-6.75,3.51-6.03,6.94-12.12,10.28-18.27,3.08-5.67,6.08-11.39,9-17.15.97-1.92,1.94-3.85,2.9-5.78.91-1.85,1.82-3.71,2.72-5.57.08-.18.17-.35.25-.51,2.77-5.74,5.46-11.52,8.07-17.35.88-1.97,1.76-3.95,2.62-5.93,3.46-7.93,6.78-15.93,9.94-24.01.8-2.02,1.58-4.04,2.35-6.07.74-1.95,1.47-3.9,2.2-5.85.16-.43.31-.86.47-1.28.62-1.7,1.24-3.4,1.85-5.1.74-2.05,1.47-4.1,2.17-6.15.72-2.06,1.43-4.12,2.12-6.18.69-2.03,1.37-4.07,2.03-6.11,0-.03.02-.07.03-.1.68-2.07,1.34-4.15,2-6.23.66-2.08,1.3-4.17,1.94-6.26.64-2.09,1.27-4.18,1.89-6.28.61-2.1,1.22-4.2,1.82-6.31,1.2-4.21,2.36-8.44,3.47-12.69,1.12-4.25,2.2-8.51,3.22-12.78.52-2.14,1.03-4.28,1.53-6.43.49-2.14.98-4.29,1.46-6.45.48-2.15.94-4.31,1.4-6.47.45-2.16.9-4.32,1.34-6.49s.86-4.34,1.27-6.52c.41-2.13.81-4.26,1.2-6.4,0-.05.01-.09.02-.13.37-2.07.73-4.13,1.09-6.2.04-.23.08-.47.12-.7.72-4.26,1.41-8.53,2.05-12.82.35-2.36.69-4.73,1.02-7.1.56-4.02,1.09-8.06,1.58-12.11.05-.46.11-.92.16-1.38.51-4.22.97-8.45,1.4-12.69v-.06c.11-1.12.22-2.23.32-3.35.17-1.67.32-3.35.46-5.03.15-1.68.29-3.36.42-5.04.18-2.25.35-4.5.51-6.75.16-2.26.3-4.51.44-6.77.01-.16.02-.32.03-.47.12-2.11.23-4.21.34-6.32.23-4.53.41-9.07.54-13.62.07-2.28.13-4.56.17-6.84.05-2.1.08-4.21.1-6.31,0-.3.01-.59.01-.89,0-.25.01-.49.01-.74,0-.68.01-1.37.01-2.05v-.84c.01-.96.01-1.93.01-2.89,0-1.26,0-2.52-.01-3.78,0-.73-.01-1.45-.02-2.18,0-.97-.01-1.93-.03-2.89-.01-1.48-.04-2.95-.07-4.42-.02-1.03-.04-2.05-.06-3.08-.02-.84-.04-1.68-.07-2.52-.11-4.34-.27-8.68-.47-13-.04-.99-.09-1.98-.14-2.97-.36-7.16-.83-14.3-1.41-21.41-.07-.84-.14-1.68-.21-2.51-.07-.88-.15-1.75-.23-2.63-.12-1.45-.26-2.9-.4-4.34-.13-1.44-.27-2.88-.42-4.32-.29-2.88-.6-5.76-.93-8.63-.17-1.44-.34-2.87-.51-4.3-.41-3.38-.84-6.76-1.3-10.13-.32-2.33-.65-4.67-.99-7-.42-2.86-.85-5.73-1.31-8.59-.21-1.32-.43-2.64-.65-3.96-1.17-7.14-2.47-14.24-3.87-21.31-.23-1.16-.46-2.32-.69-3.47-.19-.89-.37-1.79-.56-2.69-.24-1.15-.48-2.29-.72-3.44-1.4-6.56-2.89-13.08-4.48-19.57-.33-1.38-.67-2.76-1.02-4.13-.99-3.94-2.01-7.87-3.07-11.79-.31-1.16-.63-2.33-.95-3.49-.27-.96-.53-1.92-.8-2.88-1.03-3.69-2.1-7.37-3.19-11.04-.69-2.31-1.39-4.61-2.11-6.91-.35-1.15-.71-2.3-1.08-3.45-.29-.92-.58-1.84-.88-2.77-.44-1.36-.88-2.73-1.33-4.1-.37-1.14-.75-2.28-1.13-3.42-.6-1.82-1.21-3.63-1.84-5.44-.55-1.6-1.1-3.19-1.66-4.78-1.14-3.26-2.31-6.51-3.5-9.75-.11-.27-.21-.55-.31-.82-2.43-6.6-4.97-13.16-7.62-19.66-.89-2.21-1.79-4.42-2.72-6.62-1.38-3.3-2.79-6.6-4.22-9.88-1.43-3.28-2.88-6.54-4.37-9.8-.98-2.17-1.98-4.33-2.99-6.49-4.16-8.89-8.5-17.69-13.03-26.38-.75-1.45-1.51-2.89-2.28-4.33-4.58-8.65-9.35-17.19-14.3-25.62-.83-1.41-1.66-2.81-2.49-4.21-1.66-2.8-3.35-5.59-5.06-8.36-1.24-2.02-2.49-4.03-3.75-6.03-1.89-3-3.8-5.99-5.74-8.97-1.94-2.97-3.89-5.93-5.88-8.87-.99-1.47-1.99-2.94-2.99-4.4-2-2.93-4.03-5.84-6.08-8.73-1.03-1.45-2.06-2.89-3.09-4.33-1.03-1.43-2.06-2.85-3.1-4.27-1.57-2.16-3.16-4.3-4.77-6.44-1.76-2.37-3.55-4.72-5.36-7.06-.9-1.17-1.8-2.34-2.71-3.5s-1.82-2.33-2.73-3.48c-.92-1.16-1.84-2.32-2.76-3.47l-108.31,94.61-85.77,74.93-346.89,303.02-336.67-297.1-85.75-75.67-111.03-97.99c-.06.08-.12.15-.18.23-1.37,1.76-2.73,3.53-4.08,5.31-.09.12-.18.23-.27.35-1.32,1.74-2.64,3.49-3.94,5.24-1.4,1.87-2.78,3.75-4.16,5.63-1.37,1.88-2.74,3.77-4.09,5.67t-.02.02c-1.35,1.89-2.69,3.79-4.03,5.7-1.03,1.47-2.06,2.94-3.07,4.42-.36.52-.71,1.04-1.07,1.56-1.2,1.75-2.39,3.5-3.57,5.26-.06.11-.14.21-.21.32-1.3,1.94-2.59,3.89-3.87,5.85-1.25,1.9-2.49,3.81-3.72,5.73-.06.09-.12.18-.18.27-1.23,1.93-2.46,3.87-3.68,5.81-2.49,3.97-4.93,7.96-7.34,11.98-1.21,2.01-2.4,4.03-3.59,6.05-1.19,2.02-2.36,4.06-3.53,6.09-1.16,2.04-2.32,4.08-3.46,6.13-2.23,3.99-4.42,7.99-6.57,12.03-.06.11-.12.23-.18.34-1.11,2.07-2.2,4.15-3.28,6.24-1.09,2.09-2.16,4.19-3.23,6.29-.94,1.86-1.87,3.72-2.8,5.59-.26.51-.51,1.03-.76,1.54-.91,1.84-1.81,3.69-2.7,5.54-.06.13-.12.26-.19.39-.95,1.99-1.9,3.99-2.84,6-.98,2.08-1.94,4.16-2.9,6.25-.1.23-.21.46-.31.69-.9,1.98-1.8,3.96-2.68,5.95,0,0,0,.01-.01.02-.9,2.04-1.8,4.08-2.68,6.13-.86,1.97-1.7,3.95-2.54,5.93-.34.81-.68,1.63-1.02,2.44-1.35,3.24-2.68,6.49-3.98,9.75-.36.9-.73,1.81-1.08,2.72-.06.13-.11.27-.16.41-.71,1.8-1.42,3.61-2.11,5.42-.68,1.78-1.36,3.56-2.03,5.35-.07.18-.14.37-.21.55-.46,1.23-.91,2.45-1.36,3.68-.52,1.4-1.03,2.8-1.53,4.2-.67,1.85-1.33,3.71-1.98,5.57-1.2,3.43-2.37,6.87-3.52,10.31-.44,1.33-.88,2.65-1.32,3.98v.02c-.44,1.34-.87,2.67-1.29,4.01-.43,1.34-.85,2.68-1.27,4.02-.42,1.34-.84,2.68-1.25,4.03-.41,1.34-.82,2.69-1.22,4.04-.41,1.35-.81,2.7-1.2,4.05-.38,1.28-.75,2.56-1.12,3.84-.02.08-.04.15-.06.22-.39,1.36-.77,2.72-1.15,4.08-.44,1.57-.87,3.14-1.3,4.71-.32,1.15-.63,2.31-.93,3.46-.53,1.97-1.04,3.94-1.55,5.91-.51,1.99-1.01,3.99-1.51,5.99-2.89,11.69-5.49,23.49-7.78,35.4-.23,1.19-.46,2.38-.68,3.57-.28,1.48-.55,2.96-.82,4.44-.38,2.11-.75,4.21-1.11,6.32-.12.69-.23,1.38-.35,2.07-.17,1.01-.34,2.02-.5,3.03-.33,1.98-.64,3.97-.95,5.96-.17,1.12-.34,2.25-.51,3.38-.76,5.05-1.46,10.12-2.1,15.2-.13.99-.25,1.99-.37,2.98-.6,4.87-1.15,9.75-1.64,14.65-.13,1.22-.25,2.45-.36,3.67-.08.84-.16,1.68-.24,2.51-.1,1.04-.19,2.08-.28,3.12-.07.79-.14,1.59-.2,2.38-.09,1.01-.17,2.03-.25,3.05-.12,1.46-.23,2.92-.34,4.39-.08,1.07-.16,2.15-.23,3.23-.08,1.16-.16,2.32-.23,3.49-.07,1.1-.14,2.2-.2,3.3-.16,2.61-.3,5.23-.42,7.85-.06,1.24-.12,2.48-.17,3.72-.11,2.49-.2,4.98-.28,7.47-.04,1.22-.08,2.43-.11,3.65-.03,1.28-.06,2.56-.09,3.84-.02,1.05-.04,2.11-.06,3.16-.03,1.94-.06,3.89-.07,5.84-.01.76-.02,1.51-.02,2.27,0,1.25,0,2.5,0,3.76,0,1.93,0,3.86.03,5.78,0,.99.01,1.98.03,2.96.04,3.31.11,6.61.21,9.9.01.75.04,1.5.07,2.25.04,1.41.09,2.82.14,4.22.08,2.12.17,4.24.27,6.35.06,1.27.13,2.54.2,3.81.1,2.1.23,4.19.36,6.27.12,1.95.25,3.89.4,5.83.04.76.1,1.52.16,2.28.07,1.02.15,2.04.24,3.05.16,2.03.33,4.06.52,6.08.1,1.2.21,2.4.33,3.6.09,1,.18,2,.29,2.99.3,3.09.63,6.18.99,9.25.11,1.09.24,2.18.37,3.26.17,1.44.34,2.87.53,4.29.17,1.4.35,2.79.54,4.18.36,2.79.74,5.57,1.15,8.35.2,1.39.41,2.78.62,4.16.21,1.39.42,2.78.64,4.16.34,2.15.69,4.31,1.05,6.45.18,1.06.36,2.12.55,3.18.33,1.93.67,3.85,1.02,5.77.2,1.13.41,2.27.63,3.4.27,1.45.55,2.91.84,4.36,1.17,6.06,2.43,12.1,3.78,18.11.29,1.31.59,2.63.9,3.94.5,2.22,1.03,4.44,1.57,6.66.16.69.32,1.38.5,2.07.27,1.15.56,2.29.85,3.43.67,2.7,1.36,5.39,2.07,8.07.28,1.07.57,2.15.86,3.22.78,2.95,1.59,5.88,2.43,8.81.37,1.31.75,2.62,1.12,3.93.78,2.68,1.57,5.36,2.39,8.02.4,1.32.81,2.65,1.22,3.97.64,2.1,1.3,4.19,1.98,6.27.41,1.28.82,2.55,1.24,3.82,0,.03,0,.05.02.06.43,1.32.87,2.65,1.32,3.97.17.55.35,1.09.55,1.64.29.9.6,1.79.91,2.69.24.71.48,1.43.74,2.14.28.83.57,1.67.86,2.5.51,1.47,1.03,2.93,1.57,4.4.46,1.29.93,2.59,1.41,3.88.47,1.3.95,2.59,1.43,3.88.95,2.59,1.93,5.16,2.93,7.73.49,1.29.99,2.57,1.5,3.84.49,1.28,1,2.56,1.52,3.84.51,1.28,1.03,2.55,1.55,3.82,1.54,3.82,3.14,7.63,4.77,11.42,1.62,3.79,3.28,7.56,4.98,11.31.56,1.25,1.13,2.5,1.7,3.75.56,1.25,1.14,2.5,1.73,3.74.58,1.24,1.16,2.49,1.75,3.73,1.17,2.48,2.36,4.95,3.56,7.42.59,1.21,1.19,2.43,1.78,3.64.01.03.03.06.05.09,3.64,7.36,7.41,14.65,11.32,21.86,1.29,2.41,2.61,4.82,3.95,7.21.67,1.19,1.34,2.39,2.01,3.58.67,1.19,1.35,2.38,2.03,3.57.66,1.19,1.35,2.38,2.05,3.56.53.92,1.07,1.85,1.61,2.77.3.53.61,1.06.93,1.58,1.22,2.09,2.46,4.17,3.73,6.25.7,1.17,1.41,2.34,2.13,3.51,1.43,2.33,2.87,4.65,4.32,6.97.73,1.16,1.46,2.31,2.2,3.47.73,1.15,1.47,2.3,2.21,3.45.73,1.15,1.48,2.3,2.23,3.44.75,1.15,1.5,2.29,2.26,3.43.96,1.45,1.92,2.9,2.9,4.35.89,1.34,1.8,2.68,2.71,4.01l-93.82,63.62c-2.48-3.68-4.93-7.38-7.34-11.1-.87-1.33-1.73-2.67-2.59-4.01-1.58-2.43-3.13-4.88-4.65-7.33-2.7-4.29-5.35-8.62-7.96-12.97-.79-1.32-1.57-2.63-2.36-3.95-.05-.08-.1-.16-.14-.25-1.62-2.71-3.21-5.44-4.78-8.18-.79-1.38-1.58-2.76-2.37-4.15-1.58-2.77-3.14-5.56-4.68-8.36-.61-1.11-1.22-2.21-1.83-3.32-.27-.49-.54-.99-.81-1.49-.65-1.2-1.3-2.41-1.95-3.61-1.54-2.87-3.06-5.75-4.56-8.64-1.46-2.78-2.89-5.58-4.3-8.38-.49-.96-.97-1.93-1.45-2.89-.41-.8-.81-1.61-1.21-2.42-.54-1.09-1.08-2.19-1.62-3.29-1.42-2.87-2.81-5.76-4.18-8.66-.69-1.45-1.38-2.9-2.06-4.35-1.36-2.91-2.7-5.82-4.02-8.75-.67-1.46-1.32-2.92-1.98-4.39-.66-1.46-1.31-2.93-1.95-4.41-.52-1.19-1.04-2.38-1.55-3.57-.24-.52-.47-1.05-.69-1.59-.5-1.16-.99-2.32-1.48-3.48-.67-1.54-1.32-3.1-1.97-4.66-.61-1.49-1.23-2.98-1.84-4.47-.58-1.41-1.15-2.83-1.73-4.24-.64-1.57-1.26-3.14-1.88-4.72-1.18-3-2.35-6.01-3.5-9.02-.59-1.51-1.16-3.02-1.71-4.53-.86-2.31-1.72-4.63-2.56-6.95-.61-1.66-1.21-3.33-1.8-5,0-.04-.03-.07-.04-.1-.93-2.64-1.86-5.27-2.77-7.92-.45-1.34-.91-2.68-1.37-4.02-.83-2.45-1.64-4.91-2.45-7.38-1.59-4.88-3.14-9.77-4.64-14.69s-2.95-9.86-4.36-14.82c-1.2-4.24-2.37-8.49-3.51-12.75-1.1-4.18-2.17-8.37-3.22-12.58-.47-1.88-.93-3.77-1.38-5.65-.89-3.71-1.75-7.42-2.59-11.14-.01-.07-.03-.14-.05-.2-12.17-54.27-18.78-110.63-19.17-168.46-.02-.75-.03-1.51-.03-2.26-.02-1.05-.02-2.1-.02-3.16,0-2.21.01-4.42.03-6.63Z"/>
      <path class="cls-3" d="M618.62,1516.74c-1.63-3.79-3.23-7.6-4.77-11.42,1.56,3.82,3.15,7.63,4.77,11.42Z"/>
      <path class="cls-6" d="M623.6,1528.05c-1.7-3.75-3.36-7.52-4.98-11.31,1.63,3.79,3.29,7.56,4.98,11.31Z"/>
      <path class="cls-4" d="M645.49,1572.28c-3.91-7.21-7.68-14.5-11.32-21.86,3.65,7.36,7.42,14.65,11.32,21.86Z"/>
      <path class="cls-5" d="M1809.18,1648.9l91.65,65.12c-144.83,202.49-382.25,335.66-649.53,335.66s-518.95-139.96-662.36-352.63l93.82-63.62c-.91-1.33-1.82-2.67-2.71-4.01,123.42,183.46,333.64,307.07,571.25,307.07s433.88-113.82,557.88-287.59Z"/>
      <path class="cls-8" d="M1900.83,1714.02c2.91-4.07,5.78-8.16,8.61-12.28-2.82,4.12-5.69,8.22-8.61,12.28Z"/>
      <path class="cls-7" d="M1909.44,1701.74c3.19-4.64,6.33-9.31,9.42-14.01-3.08,4.71-6.22,9.37-9.42,14.01Z"/>
      <path class="cls-9" d="M1921.93,1683.01c4.08-6.31,8.07-12.67,11.98-19.09-3.9,6.43-7.89,12.79-11.98,19.09Z"/>
      <path class="cls-10" d="M1945.35,1644.48c-2.48,4.36-5,8.69-7.57,13,2.56-4.31,5.08-8.64,7.57-13Z"/>
      <path class="cls-2" d="M1795.05,667.44l-87.24,76.21c-122.84-110.6-286.33-178.29-467.59-178.29s-333.76,68.13-453.74,179.38l-84.67-74.72c139.48-133.31,327.45-215.27,536.63-215.27,220.89,0,414.23,80.9,556.61,212.69Z"/>
      <g>
        <path class="cls-1" d="M1020.73,1543.62l-64.51,93.2c-132.77-93.94-219.41-249.35-219.41-424.09,0-106.64,31.08-205.44,84.92-287.32l85.75,75.67c-37.79,61.41-59.49,134.07-59.49,212.13,0,136.17,68.51,257.25,172.74,330.41Z"/>
        <path class="cls-11" d="M1765.8,1212.73c0,174.26-87.52,330.69-221.41,424.92l-64.06-93.41c105.09-73.39,174.29-195.25,174.29-331.03,0-80.57-22.98-155.41-63.58-218.05l85.77-74.93c56.76,82.88,88.99,183.6,88.99,292.5Z"/>
      </g>
      <path class="cls-12" d="M2048.77,1254.79c0,.9,0,1.81-.01,2.71,0,.45,0,.91-.01,1.36l-.03,1.35c-.18,26.75-1.71,53.2-4.52,79.29-.23,2.18-.47,4.35-.73,6.53-.5,4.24-1.02,8.48-1.59,12.7-.29,2.25-.6,4.5-.92,6.74,0,.08-.02.17-.04.25-.3,2.1-.61,4.2-.92,6.3-.07.5-.15,1-.23,1.49-.2,1.34-.41,2.68-.62,4.01-.02.17-.05.34-.08.5-.29,1.86-.59,3.71-.9,5.56-.33,1.98-.67,3.96-1.01,5.94-.01.05-.01.1-.03.15-.45,2.6-.91,5.2-1.4,7.8-.62,3.41-1.28,6.81-1.95,10.21-.68,3.41-1.38,6.82-2.1,10.22-.72,3.4-1.46,6.79-2.23,10.18-1.45,6.37-2.96,12.71-4.56,19.03-.79,3.16-1.61,6.31-2.45,9.45-.84,3.14-1.69,6.28-2.56,9.41-.88,3.12-1.77,6.25-2.68,9.36-.46,1.56-.92,3.11-1.38,4.66-1.23,4.1-2.49,8.19-3.78,12.26-.17.56-.35,1.11-.53,1.66-.48,1.49-.96,2.98-1.44,4.46-.21.67-.43,1.34-.66,2-.55,1.69-1.11,3.38-1.68,5.07-.8,2.38-1.61,4.75-2.44,7.11-.36,1.04-.72,2.08-1.09,3.11-.32.94-.65,1.87-.99,2.8-.35.99-.71,1.99-1.07,2.98-.18.5-.36,1-.54,1.49-.58,1.6-1.17,3.2-1.76,4.8-1.6,4.32-3.24,8.62-4.92,12.9-.39,1.01-.78,2.02-1.19,3.03-1.82,4.61-3.68,9.2-5.59,13.77-.78,1.85-1.56,3.7-2.34,5.54-.18.42-.36.85-.55,1.27-.83,1.95-1.68,3.9-2.53,5.85-.09.21-.18.41-.27.62-.87,1.96-1.74,3.92-2.62,5.88-1.13,2.54-2.28,5.07-3.45,7.59-1.05,2.28-2.12,4.56-3.2,6.84-.24.52-.49,1.04-.74,1.56-.83,1.75-1.67,3.5-2.52,5.25-1.1,2.26-2.2,4.52-3.32,6.77-.87,1.74-1.74,3.48-2.62,5.22-.38.76-.77,1.51-1.16,2.27-1.01,1.99-2.03,3.97-3.06,5.95-1.16,2.23-2.33,4.45-3.51,6.66-2.36,4.44-4.77,8.84-7.21,13.23-1.22,2.19-2.45,4.37-3.69,6.55-2.49,4.36-5.01,8.69-7.57,13-1.28,2.15-2.57,4.3-3.87,6.44-3.91,6.42-7.9,12.78-11.98,19.09-1.02,1.57-2.04,3.15-3.07,4.72-3.09,4.7-6.23,9.37-9.42,14.01-2.83,4.12-5.7,8.21-8.61,12.28l-91.65-65.12c9.1-12.75,17.77-25.82,25.98-39.18h0c1.37-2.24,2.73-4.47,4.07-6.71,0-.01.01-.01.01-.01,1.34-2.24,2.67-4.49,3.99-6.75,3.51-6.03,6.94-12.12,10.28-18.27,3.08-5.67,6.08-11.39,9-17.15.98-1.92,1.95-3.85,2.9-5.78.92-1.85,1.83-3.71,2.72-5.57.08-.18.17-.35.25-.51,2.77-5.74,5.46-11.52,8.07-17.35.88-1.97,1.76-3.95,2.62-5.93,3.46-7.93,6.78-15.93,9.94-24.01.8-2.02,1.58-4.04,2.35-6.07.75-1.95,1.48-3.89,2.2-5.85.16-.43.31-.86.47-1.28.63-1.69,1.25-3.4,1.85-5.1.74-2.05,1.47-4.1,2.17-6.15.72-2.06,1.43-4.12,2.12-6.18.69-2.03,1.37-4.07,2.03-6.11,0-.03.02-.07.03-.1.68-2.07,1.34-4.15,2-6.23.66-2.08,1.3-4.17,1.94-6.26.65-2.09,1.27-4.18,1.89-6.28s1.23-4.2,1.82-6.31c1.2-4.21,2.36-8.44,3.47-12.69,1.12-4.25,2.2-8.51,3.22-12.78.53-2.14,1.04-4.29,1.53-6.43.5-2.15.99-4.3,1.46-6.45.48-2.15.94-4.31,1.4-6.47.46-2.16.91-4.32,1.34-6.49.44-2.17.86-4.34,1.27-6.52.42-2.13.81-4.27,1.2-6.4,0-.05.01-.09.02-.13.37-2.07.73-4.13,1.09-6.2.04-.23.08-.47.12-.7.72-4.26,1.41-8.53,2.05-12.82.35-2.36.69-4.73,1.02-7.1.56-4.02,1.09-8.06,1.58-12.11.05-.46.11-.92.16-1.38.51-4.22.97-8.45,1.4-12.69v-.06c.11-1.12.22-2.23.32-3.35.17-1.67.32-3.35.46-5.03.15-1.68.29-3.36.42-5.04.19-2.25.36-4.49.51-6.75.16-2.26.3-4.51.44-6.77.01-.16.02-.32.03-.47.12-2.1.24-4.21.34-6.32.23-4.53.41-9.07.54-13.62.07-2.28.13-4.56.17-6.84.05-2.1.08-4.21.1-6.31,0-.3.01-.59.01-.89,0-.25.01-.49.01-.74,0-.68.01-1.37.01-2.05v-.84c.01-.96.01-1.93.01-2.89,0-1.26,0-2.52-.01-3.78,0-.73-.01-1.45-.02-2.18,0-.97-.01-1.93-.03-2.89-.01-1.48-.04-2.95-.07-4.42-.02-1.03-.04-2.05-.06-3.08-.02-.84-.04-1.68-.07-2.52-.11-4.34-.27-8.68-.47-13-.04-.99-.09-1.98-.14-2.97-.36-7.16-.83-14.3-1.41-21.41-.07-.84-.14-1.68-.21-2.51-.07-.88-.15-1.75-.23-2.63-.12-1.45-.26-2.9-.4-4.34-.13-1.44-.27-2.88-.42-4.32-.29-2.88-.6-5.76-.93-8.63-.17-1.44-.34-2.87-.51-4.3-.41-3.38-.84-6.76-1.3-10.13-.32-2.33-.65-4.67-.99-7-.42-2.86-.85-5.73-1.31-8.59-.21-1.32-.43-2.64-.65-3.96-1.17-7.14-2.47-14.24-3.87-21.31-.23-1.16-.46-2.32-.69-3.47-.19-.89-.37-1.79-.56-2.69-.24-1.15-.48-2.29-.72-3.44-1.4-6.56-2.89-13.08-4.48-19.57-.33-1.38-.67-2.76-1.02-4.13-.99-3.94-2.01-7.87-3.07-11.79-.31-1.16-.63-2.33-.95-3.49-.27-.96-.53-1.92-.8-2.88-1.03-3.69-2.1-7.37-3.19-11.04-.69-2.31-1.39-4.61-2.11-6.91-.35-1.15-.71-2.3-1.08-3.45-.29-.92-.58-1.84-.88-2.77-.44-1.36-.88-2.73-1.33-4.1-.37-1.14-.75-2.28-1.13-3.42-.6-1.82-1.21-3.63-1.84-5.44-.55-1.6-1.1-3.19-1.66-4.78-1.14-3.26-2.31-6.51-3.5-9.75-.11-.27-.21-.55-.31-.82-2.43-6.6-4.97-13.16-7.62-19.66-.89-2.21-1.79-4.42-2.72-6.62-1.38-3.3-2.79-6.6-4.22-9.88-1.43-3.28-2.88-6.54-4.37-9.8-.98-2.17-1.98-4.33-2.99-6.49-4.16-8.89-8.5-17.69-13.03-26.38-.75-1.45-1.51-2.89-2.28-4.33-4.58-8.65-9.35-17.19-14.3-25.62-.83-1.41-1.66-2.81-2.49-4.21-1.66-2.8-3.35-5.59-5.06-8.36-1.23-2.02-2.48-4.03-3.75-6.03-1.89-3-3.8-5.99-5.74-8.97-1.94-2.97-3.89-5.93-5.88-8.87-.99-1.47-1.99-2.94-2.99-4.4-2-2.93-4.03-5.84-6.08-8.73-1.03-1.45-2.06-2.89-3.09-4.33-1.03-1.43-2.06-2.85-3.1-4.27-1.57-2.16-3.16-4.3-4.77-6.44-1.76-2.37-3.55-4.72-5.36-7.06-.9-1.17-1.8-2.34-2.71-3.5s-1.82-2.33-2.73-3.48c-.92-1.16-1.84-2.32-2.76-3.47l-108.31,94.61-85.77,74.93-346.89,303.02-336.67-297.1-85.75-75.67-111.03-97.99c-.06.08-.12.15-.18.23-1.37,1.77-2.73,3.53-4.08,5.31-.09.12-.18.23-.27.35-1.32,1.74-2.64,3.49-3.94,5.24-1.4,1.87-2.78,3.75-4.16,5.63s-2.74,3.77-4.09,5.67t-.02.02c-1.36,1.9-2.7,3.79-4.03,5.7-1.03,1.47-2.06,2.94-3.07,4.42-.36.52-.71,1.04-1.07,1.56-1.2,1.75-2.39,3.5-3.57,5.26-.06.11-.14.21-.21.32-1.3,1.94-2.6,3.89-3.87,5.85-1.26,1.9-2.5,3.81-3.72,5.73-.06.09-.12.18-.18.27-1.24,1.93-2.47,3.87-3.68,5.81-2.49,3.97-4.93,7.96-7.34,11.98-1.21,2.01-2.41,4.03-3.59,6.05-1.19,2.02-2.36,4.06-3.53,6.09-1.16,2.04-2.32,4.08-3.46,6.13-2.23,3.99-4.42,7.99-6.57,12.03-.06.11-.12.23-.18.34-1.11,2.07-2.2,4.15-3.28,6.24-1.09,2.09-2.17,4.19-3.23,6.29-.94,1.86-1.88,3.72-2.8,5.59-.26.51-.51,1.03-.76,1.54-.91,1.84-1.81,3.69-2.7,5.54-.06.13-.12.26-.19.39-.96,2-1.91,3.99-2.84,6-.98,2.08-1.94,4.16-2.9,6.25-.1.23-.21.46-.31.69-.9,1.98-1.8,3.96-2.68,5.95,0,0,0,.01-.01.02-.9,2.04-1.8,4.08-2.68,6.13-.86,1.97-1.7,3.95-2.54,5.93-.34.81-.68,1.63-1.02,2.44-1.35,3.24-2.68,6.49-3.98,9.75-.36.9-.73,1.81-1.08,2.72-.06.13-.11.27-.16.41-.72,1.8-1.42,3.61-2.11,5.42-.69,1.78-1.37,3.56-2.03,5.35-.07.18-.14.37-.21.55-.46,1.23-.91,2.45-1.36,3.68-.52,1.4-1.03,2.8-1.53,4.2-.67,1.85-1.33,3.71-1.98,5.57-1.2,3.43-2.37,6.87-3.52,10.31-.44,1.33-.88,2.65-1.32,3.98v.02c-.44,1.34-.87,2.67-1.29,4.01-.43,1.34-.85,2.68-1.27,4.02-.42,1.34-.84,2.68-1.25,4.03-.41,1.34-.82,2.69-1.22,4.04-.41,1.35-.81,2.7-1.2,4.05-.38,1.28-.75,2.56-1.12,3.84-.02.08-.04.15-.06.22-.39,1.36-.77,2.72-1.15,4.08-.44,1.57-.87,3.14-1.3,4.71-.32,1.15-.63,2.31-.93,3.46-.53,1.97-1.04,3.94-1.55,5.91-.51,1.99-1.01,3.99-1.51,5.99-2.89,11.69-5.49,23.49-7.78,35.4-.23,1.19-.46,2.38-.68,3.57-.28,1.48-.55,2.96-.82,4.44-.38,2.11-.75,4.21-1.11,6.32-.12.69-.23,1.38-.35,2.07-.17,1.01-.34,2.02-.5,3.03-.33,1.98-.64,3.97-.95,5.96-.17,1.12-.34,2.25-.51,3.38-.76,5.05-1.46,10.12-2.1,15.2-.13.99-.25,1.99-.37,2.98-.6,4.87-1.15,9.75-1.64,14.65-.13,1.22-.25,2.45-.36,3.67-.08.84-.16,1.68-.24,2.51-.1,1.04-.19,2.08-.28,3.12-.07.79-.14,1.59-.2,2.38-.09,1.01-.17,2.03-.25,3.05-.12,1.46-.23,2.92-.34,4.39-.08,1.07-.16,2.15-.23,3.23-.08,1.16-.16,2.32-.23,3.49-.07,1.1-.14,2.2-.2,3.3-.16,2.61-.3,5.23-.42,7.85-.06,1.24-.12,2.48-.17,3.72-.11,2.49-.2,4.98-.28,7.47-.04,1.22-.08,2.43-.11,3.65-.03,1.28-.06,2.56-.09,3.84-.02,1.05-.04,2.11-.06,3.16-.03,1.94-.06,3.89-.07,5.84-.01.76-.02,1.51-.02,2.27,0,1.25,0,2.5,0,3.76,0,1.93,0,3.86.03,5.78,0,.99.01,1.98.03,2.96.04,3.31.11,6.61.21,9.9.01.75.04,1.5.07,2.25.03,1.41.08,2.82.14,4.22.08,2.12.17,4.24.27,6.35.06,1.27.12,2.54.2,3.81.1,2.1.23,4.19.36,6.27.12,1.95.25,3.89.4,5.83.04.76.1,1.52.16,2.28.07,1.02.15,2.04.24,3.05.16,2.03.33,4.06.52,6.08.1,1.2.21,2.4.33,3.6.09,1,.18,2,.29,2.99.3,3.09.63,6.18.99,9.25.11,1.09.24,2.18.37,3.26.17,1.44.34,2.87.53,4.29.17,1.4.35,2.79.54,4.18.36,2.79.74,5.57,1.15,8.35.2,1.39.4,2.78.62,4.16.2,1.39.42,2.78.64,4.16.34,2.15.69,4.31,1.05,6.45.18,1.06.36,2.12.55,3.18.32,1.93.67,3.85,1.02,5.77.2,1.13.41,2.27.63,3.4.27,1.45.55,2.91.84,4.36,1.17,6.06,2.43,12.1,3.78,18.11.29,1.31.59,2.63.9,3.94.5,2.22,1.03,4.44,1.57,6.66.16.69.32,1.38.5,2.07.27,1.15.56,2.29.85,3.43.67,2.7,1.36,5.39,2.07,8.07.28,1.08.56,2.15.86,3.22.78,2.95,1.59,5.88,2.43,8.81.36,1.31.74,2.62,1.12,3.93.78,2.68,1.57,5.36,2.39,8.02.39,1.33.8,2.65,1.22,3.97.64,2.1,1.3,4.19,1.98,6.27.4,1.28.82,2.55,1.24,3.82,0,.03,0,.05.02.06.43,1.32.87,2.65,1.32,3.97.17.55.35,1.09.55,1.64.29.9.6,1.79.91,2.69.24.71.48,1.43.74,2.14.28.83.57,1.67.86,2.5.51,1.47,1.03,2.93,1.57,4.4.46,1.29.92,2.59,1.41,3.88.46,1.3.94,2.59,1.43,3.88.95,2.59,1.93,5.16,2.93,7.73.49,1.29.99,2.57,1.5,3.84.49,1.28,1,2.56,1.52,3.84.5,1.28,1.02,2.55,1.55,3.82,1.54,3.82,3.14,7.63,4.77,11.42,1.62,3.79,3.28,7.56,4.98,11.31.55,1.25,1.12,2.5,1.7,3.75.56,1.25,1.14,2.5,1.73,3.74.57,1.25,1.15,2.49,1.75,3.73,1.16,2.49,2.35,4.96,3.56,7.42.58,1.22,1.18,2.43,1.78,3.64.01.03.03.06.05.09,3.64,7.36,7.41,14.65,11.32,21.86,1.29,2.41,2.61,4.82,3.95,7.21.66,1.2,1.32,2.39,2.01,3.58.66,1.19,1.33,2.38,2.03,3.57.66,1.19,1.35,2.38,2.05,3.56.52.93,1.06,1.85,1.61,2.77.3.53.61,1.06.93,1.58,1.22,2.09,2.46,4.17,3.73,6.25.69,1.17,1.41,2.34,2.13,3.51,1.42,2.33,2.86,4.66,4.32,6.97.72,1.16,1.46,2.32,2.2,3.47.72,1.16,1.46,2.31,2.21,3.45.73,1.15,1.48,2.3,2.23,3.44.74,1.15,1.49,2.29,2.26,3.43.96,1.45,1.92,2.9,2.9,4.35.89,1.34,1.8,2.68,2.71,4.01l-93.82,63.62c-2.48-3.68-4.93-7.38-7.34-11.1-.87-1.33-1.73-2.67-2.59-4.01-1.57-2.43-3.12-4.88-4.65-7.33-2.7-4.29-5.35-8.62-7.96-12.97-.79-1.32-1.57-2.63-2.36-3.95-.05-.08-.1-.16-.14-.25-1.61-2.72-3.2-5.44-4.78-8.18-.79-1.38-1.58-2.76-2.37-4.15-1.58-2.77-3.14-5.56-4.68-8.36-.61-1.11-1.22-2.21-1.83-3.32-.27-.49-.54-.99-.81-1.49-.65-1.2-1.3-2.41-1.95-3.61-1.54-2.87-3.06-5.75-4.56-8.64-1.45-2.79-2.88-5.58-4.3-8.38-.49-.96-.97-1.93-1.45-2.89-.41-.8-.81-1.61-1.21-2.42-.54-1.09-1.08-2.19-1.62-3.29-1.42-2.87-2.81-5.76-4.18-8.66-.69-1.45-1.38-2.9-2.06-4.35-1.36-2.91-2.7-5.82-4.02-8.75-.67-1.46-1.32-2.92-1.98-4.39-.66-1.46-1.31-2.93-1.95-4.41-.52-1.19-1.04-2.38-1.55-3.57-.24-.52-.47-1.05-.69-1.59-.5-1.16-.99-2.32-1.48-3.48-.67-1.54-1.32-3.1-1.97-4.66-.61-1.49-1.23-2.98-1.84-4.47-.58-1.41-1.15-2.83-1.73-4.24-.64-1.57-1.26-3.14-1.88-4.72-1.18-3-2.35-6.01-3.5-9.02-.59-1.51-1.16-3.02-1.71-4.53-.86-2.31-1.72-4.63-2.56-6.95-.61-1.66-1.21-3.33-1.8-5,0-.04-.03-.07-.04-.1-.93-2.64-1.86-5.27-2.77-7.92-.45-1.34-.91-2.68-1.37-4.02-.83-2.45-1.64-4.91-2.45-7.38-1.59-4.88-3.14-9.77-4.64-14.69s-2.95-9.86-4.36-14.82c-1.2-4.24-2.37-8.49-3.51-12.75-1.1-4.18-2.17-8.37-3.22-12.58-.47-1.88-.93-3.77-1.38-5.65-.89-3.71-1.75-7.42-2.59-11.14-.01-.07-.03-.14-.05-.2-12.17-54.27-18.78-110.63-19.17-168.46-.02-.75-.03-1.51-.03-2.26-.02-1.05-.02-2.1-.02-3.16,0-2.21.01-4.42.03-6.63.01-1.38.02-2.75.04-4.13.02-1.79.05-3.58.09-5.36.03-1.79.07-3.58.12-5.36.04-1.68.09-3.36.14-5.03.05-1.41.09-2.83.15-4.23.05-1.56.12-3.12.18-4.68.01-.2.02-.41.03-.61.04-1.03.09-2.05.14-3.08.05-1.12.11-2.25.16-3.37.07-1.38.15-2.75.23-4.12.07-1.29.14-2.59.23-3.88.05-1.01.12-2.02.18-3.02.11-1.76.23-3.5.36-5.25.12-1.76.25-3.51.39-5.26.09-1.19.18-2.37.28-3.55.09-1.15.19-2.3.29-3.45.02-.26.04-.52.06-.77.13-1.49.27-2.98.4-4.47.01-.05.01-.1.02-.15.15-1.64.31-3.29.47-4.93.5-5.08,1.05-10.14,1.64-15.19.19-1.61.38-3.21.58-4.81.68-5.53,1.42-11.04,2.21-16.53.4-2.76.81-5.51,1.23-8.26.51-3.29,1.04-6.57,1.59-9.85.19-1.16.39-2.32.59-3.48.48-2.83.98-5.66,1.5-8.47.27-1.51.55-3.02.84-4.53.19-1.04.39-2.07.59-3.1.31-1.63.63-3.25.95-4.87.27-1.38.55-2.77.84-4.15.21-1.08.43-2.16.67-3.23.27-1.35.55-2.69.85-4.03.94-4.43,1.92-8.85,2.94-13.25.31-1.37.63-2.74.96-4.11.69-2.94,1.4-5.87,2.13-8.79.41-1.67.83-3.34,1.26-5,.42-1.67.85-3.33,1.29-4.99.43-1.66.87-3.32,1.32-4.97,2.58-9.6,5.33-19.14,8.25-28.59.42-1.37.84-2.72,1.27-4.08,1.56-4.98,3.17-9.94,4.83-14.88.48-1.42.96-2.84,1.45-4.26.52-1.54,1.05-3.07,1.59-4.6.34-1,.69-2,1.05-2.99.48-1.37.96-2.73,1.45-4.08,1.22-3.41,2.47-6.81,3.74-10.2.46-1.23.92-2.46,1.39-3.69,3.11-8.19,6.35-16.32,9.72-24.38,1.16-2.77,2.33-5.54,3.52-8.29,1.43-3.32,2.88-6.63,4.36-9.93.69-1.54,1.38-3.08,2.08-4.61.56-1.24,1.13-2.48,1.7-3.72.45-.99.91-1.98,1.37-2.96,1.17-2.52,2.36-5.04,3.56-7.55.65-1.35,1.3-2.7,1.96-4.05.73-1.52,1.47-3.03,2.21-4.53.43-.88.87-1.76,1.31-2.64.5-1.02,1.01-2.03,1.52-3.04.56-1.11,1.12-2.22,1.68-3.33,2.35-4.62,4.74-9.21,7.17-13.78.73-1.35,1.45-2.7,2.18-4.05,2.39-4.42,4.82-8.82,7.29-13.19.68-1.21,1.37-2.42,2.06-3.62,6.94-12.14,14.18-24.07,21.71-35.78.74-1.15,1.48-2.29,2.23-3.44.91-1.39,1.82-2.79,2.74-4.18.58-.89,1.17-1.78,1.77-2.67.72-1.09,1.45-2.18,2.17-3.26,2.89-4.3,5.82-8.56,8.78-12.79.85-1.21,1.7-2.41,2.56-3.62,1.15-1.63,2.3-3.24,3.47-4.85.69-.97,1.39-1.93,2.09-2.89,3.73-5.14,7.53-10.24,11.39-15.28,1.92-2.52,3.86-5.03,5.82-7.53,4.03-5.16,8.14-10.26,12.3-15.32,1.89-2.29,3.79-4.56,5.7-6.83,1.01-1.21,2.04-2.42,3.07-3.62,1.03-1.21,2.06-2.41,3.1-3.61,2.12-2.47,4.27-4.93,6.44-7.37,3.66-4.14,7.37-8.24,11.11-12.3,3.51-3.81,7.07-7.58,10.65-11.31t0-.01c1.8-1.87,3.6-3.73,5.41-5.57h0c1.82-1.86,3.63-3.7,5.46-5.53,1.46-1.46,2.93-2.92,4.4-4.38,2.95-2.91,5.93-5.79,8.92-8.65l84.67,74.72,457.67,403.93,463.66-405.02,87.24-76.21c3.87,3.57,7.7,7.19,11.49,10.84,3.16,3.04,6.3,6.11,9.4,9.21.89.88,1.77,1.76,2.65,2.65,7.17,7.21,14.19,14.55,21.06,22.03,1.17,1.28,2.34,2.56,3.5,3.84,2.35,2.6,4.69,5.21,7.01,7.83,1.16,1.31,2.31,2.63,3.46,3.95,1.57,1.8,3.13,3.61,4.69,5.42,1.25,1.46,2.5,2.93,3.74,4.41,1.95,2.29,3.87,4.6,5.78,6.92,1.41,1.71,2.82,3.44,4.21,5.17.87,1.08,1.74,2.16,2.61,3.24,1.8,2.25,3.58,4.5,5.35,6.76.8,1.02,1.59,2.04,2.38,3.06,1.7,2.19,3.39,4.4,5.07,6.61,8.75,11.55,17.18,23.34,25.29,35.36.9,1.32,1.79,2.65,2.67,3.98.53.8,1.06,1.59,1.58,2.39.56.84,1.12,1.69,1.67,2.54,3.44,5.24,6.81,10.53,10.11,15.86.7,1.11,1.39,2.23,2.08,3.35,4.45,7.25,8.79,14.58,13.01,21.98.57.99,1.13,1.99,1.69,2.98,1.58,2.79,3.14,5.6,4.68,8.41.77,1.4,1.54,2.81,2.3,4.22,1.53,2.83,3.04,5.66,4.53,8.5.75,1.43,1.49,2.85,2.23,4.28.74,1.42,1.47,2.85,2.2,4.28.65,1.28,1.3,2.56,1.95,3.85.8,1.59,1.59,3.18,2.38,4.77.71,1.44,1.42,2.89,2.12,4.33,1.44,2.95,2.86,5.91,4.25,8.87,1.06,2.24,2.1,4.48,3.14,6.74.38.81.75,1.62,1.12,2.44.58,1.27,1.16,2.55,1.73,3.83.66,1.47,1.32,2.94,1.97,4.42.69,1.55,1.38,3.1,2.05,4.66,1.67,3.86,3.32,7.74,4.94,11.63.84,2,1.66,4,2.47,6.01.61,1.5,1.21,3,1.81,4.5.6,1.5,1.2,3.01,1.79,4.51,3.17,8.07,6.2,16.2,9.11,24.4.89,2.52,1.77,5.04,2.64,7.57.05.14.1.29.15.43.48,1.4.95,2.79,1.42,4.19.52,1.54,1.03,3.08,1.54,4.63.58,1.73,1.15,3.46,1.7,5.2.44,1.37.88,2.73,1.31,4.1.49,1.55.98,3.11,1.46,4.67.48,1.55.96,3.11,1.43,4.68.48,1.56.95,3.12,1.41,4.69,1.43,4.82,2.82,9.66,4.15,14.52.41,1.45.8,2.91,1.19,4.36.36,1.34.72,2.67,1.07,4.01,1.75,6.58,3.41,13.2,4.98,19.85.34,1.42.67,2.85,1,4.27,1.53,6.59,2.98,13.22,4.34,19.87.33,1.62.66,3.24.98,4.86s.64,3.24.95,4.87c.21,1.07.41,2.14.61,3.22.23,1.22.46,2.44.69,3.67.19,1.06.39,2.12.57,3.19.26,1.41.51,2.82.75,4.24,1.36,7.78,2.6,15.61,3.73,23.47.17,1.16.33,2.32.49,3.48.2,1.43.4,2.87.59,4.31.17,1.22.33,2.44.48,3.66.19,1.43.37,2.86.54,4.29.06.42.11.84.16,1.26.18,1.47.36,2.94.53,4.42.15,1.23.29,2.46.42,3.7.15,1.29.29,2.59.43,3.89.12,1.09.24,2.19.35,3.28.11,1.1.23,2.21.34,3.32.04.45.08.89.13,1.34.31,3.17.6,6.35.87,9.53.27,3.07.51,6.14.74,9.21.07.88.13,1.75.19,2.63.08,1.1.16,2.2.23,3.3.09,1.23.17,2.46.24,3.7.08,1.19.15,2.38.22,3.58.09,1.43.17,2.86.24,4.29.32,5.93.57,11.87.76,17.83.05,1.48.09,2.96.13,4.44.04,1.21.07,2.42.09,3.63.01.52.03,1.05.03,1.57.03,1.24.05,2.47.07,3.7.03,1.49.05,2.98.06,4.46.02,1.27.03,2.53.03,3.8.01,1.71.02,3.43.02,5.14Z"/>
      <path class="cls-12" d="M453.89,1260.21c.39,57.83,7,114.19,19.17,168.46-12.36-54.97-18.97-112.09-19.2-170.72,0,.75.01,1.51.03,2.26Z"/>
      <path class="cls-12" d="M475.7,1440.01c-.89-3.7-1.76-7.42-2.59-11.14.84,3.72,1.7,7.43,2.59,11.14Z"/>
      <path class="cls-12" d="M480.3,1458.24c-1.11-4.18-2.19-8.37-3.22-12.58,1.05,4.21,2.12,8.4,3.22,12.58Z"/>
      <path class="cls-12" d="M528.1,1589.7c-1.36-2.91-2.71-5.82-4.02-8.75,1.32,2.93,2.66,5.84,4.02,8.75Z"/>
      <path class="cls-12" d="M677.62,694.16c-3.58,3.73-7.14,7.5-10.65,11.31,3.51-3.81,7.05-7.58,10.65-11.31Z"/>
      <path class="cls-12" d="M701.81,670.02c-2.99,2.86-5.97,5.74-8.92,8.65,2.95-2.92,5.92-5.8,8.91-8.66h.01Z"/>
      <path class="cls-12" d="M1824.59,880.17c-1.94-2.97-3.9-5.93-5.88-8.87,1.99,2.94,3.94,5.9,5.88,8.87Z"/>
      <path class="cls-12" d="M1855.93,933.36c-4.59-8.65-9.36-17.19-14.3-25.62,4.95,8.43,9.72,16.97,14.3,25.62Z"/>
      <path class="cls-12" d="M1878.6,980.36c-1.43-3.28-2.89-6.54-4.37-9.8,1.49,3.26,2.94,6.52,4.37,9.8Z"/>
      <path class="cls-12" d="M1893.16,1016.52c-2.44-6.6-4.98-13.15-7.62-19.66,2.65,6.5,5.19,13.06,7.62,19.66Z"/>
      <path class="cls-12" d="M1987.14,943.05c-1.62-3.89-3.27-7.77-4.94-11.63,1.68,3.86,3.33,7.74,4.94,11.63Z"/>
      <path class="cls-12" d="M1809.17,1648.89c9.1-12.74,17.76-25.81,25.99-39.17-8.21,13.36-16.88,26.43-25.98,39.18h-.01Z"/>
      <path class="cls-12" d="M1909.88,1439.76c1.19-4.21,2.35-8.44,3.47-12.69-1.11,4.25-2.27,8.48-3.47,12.69Z"/>
      <path class="cls-12" d="M1913.35,1427.07c1.11-4.24,2.19-8.5,3.22-12.78-1.02,4.27-2.1,8.53-3.22,12.78Z"/>
      <path class="cls-12" d="M1926,1368.5c.72-4.26,1.4-8.53,2.05-12.82-.64,4.29-1.33,8.56-2.05,12.82Z"/>
      <path class="cls-12" d="M2012.04,1492.25c1.29-4.07,2.55-8.16,3.78-12.26-1.22,4.1-2.48,8.19-3.78,12.26Z"/>
      <path class="cls-12" d="M2024.89,1447.11c1.6-6.32,3.11-12.66,4.56-19.03-1.43,6.37-2.95,12.72-4.56,19.03Z"/>
      <path class="cls-12" d="M2041.88,1358.73c.57-4.22,1.09-8.46,1.59-12.7-.49,4.24-1.02,8.47-1.59,12.7Z"/>
      <path class="cls-12" d="M2048.75,1258.86c-.14,27.2-1.67,54.11-4.55,80.64,2.81-26.09,4.34-52.54,4.52-79.29l.03-1.35Z"/>
      <g>
        <polygon class="cls-12" points="993.54 382.2 955.14 397.35 908.16 277.81 899.98 360.83 866.95 373.79 803.85 320.1 850.41 438.64 811.9 453.82 740.38 273.21 785.04 255.66 869.21 329.93 878.63 218.9 923.39 201.31 993.54 382.2"/>
        <path class="cls-12" d="M1136.55,331.09s-7.31-45.43-12.86-72.03c-5.58-26.57-22.3-31.28-38.59-33.44-16.31-2.14-81.03,10.73-81.03,10.73v34.29s40.72-8.57,61.3-12.42c20.58-3.86,19.29,23.15,19.29,23.15-50.16-7.28-74.16,12.86-80.6,24-6.43,11.16-4.73,49.75,16.28,61.74,21.02,12.01,67.32-.85,95.62-6.43,28.3-5.56,20.58-29.58,20.58-29.58ZM1094.95,334.53s-19.73,5.14-32.59,6.43c-8.93.87-14.51-1.47-17.57-8.46-1.34-3.11-2.42-10.37-.98-13.84,4.73-11.37,15.13-13.3,34.86-13.71,19.71-.44,16.28,29.58,16.28,29.58Z"/>
        <path class="cls-12" d="M1644.03,412.3s17.7-42.47,26.98-68.01c9.24-25.53-2.5-38.34-15.21-48.75-12.74-10.4-74.55-33.53-74.55-33.53l-18.05,29.16s39.13,14.15,58.66,21.7c19.53,7.55,4.22,29.84,4.22,29.84-38.82-32.59-69.83-28.1-81.16-22.02-11.34,6.11-30.21,39.81-18.65,61.07,11.55,21.28,57.69,34.71,84.69,44.86,26.98,10.17,33.07-14.32,33.07-14.32ZM1606.85,393.34s-19.48-6.01-31.1-11.69c-8.05-3.95-11.56-8.88-10.48-16.44.5-3.35,3.4-10.09,6.45-12.28,10.01-7.18,19.86-3.35,36.85,6.69,16.98,10-1.73,33.72-1.73,33.72Z"/>
        <path class="cls-12" d="M1294.32,257.57v93.66l-42.09.77v-94.9c0-9.16-7.43-16.59-16.57-16.59h-16.98c-8.98,0-16.23,7.36-16.13,16.34l1.26,96.06-42.42.8-1.7-101.54c-.41-25.31,18.21-46.05,55.59-46.05h27.58c34.42,0,51.45,18.01,51.45,51.45Z"/>
        <polygon class="cls-12" points="1359.91 359.82 1317.15 355 1331.94 213.83 1374.38 217.05 1359.91 359.82"/>
        <rect class="cls-12" x="1332.43" y="156.26" width="48.89" height="40.84" rx="20.42" ry="20.42" transform="translate(25.55 -139.39) rotate(5.94)"/>
        <path class="cls-12" d="M1376.96,359.82l13.18-32.16s38.91,12.54,56.27,14.15c17.36,1.61,20.58,2.57,23.47-7.72,2.03-7.2-5.09-9.84-9.54-10.77-4.01-.84-7.99-1.75-11.91-2.94-14.02-4.26-40.85-13.57-46.72-23.91-8.29-14.59-9.33-46.95,18.33-63.67,0,0,16.72-10.61,61.1,2.25,0,0,32.8,8.36,46.63,9.65l-14.15,32.48-57.56-13.51s-12.54-6.11-16.4,3.54c-3.86,9.65,7.07,12.7,7.07,12.7l27.01,8.53s38.59,7.72,37.94,36.98c-.64,29.26-12.54,49.84-36.34,51.77-23.8,1.93-98.4-17.36-98.4-17.36Z"/>
      </g>
      <g>
        <polygon class="cls-12" points="498.78 1934.05 549.58 1988.06 581.42 1967.81 525.47 1908.65 557.3 1878.42 616.29 1941.33 647.34 1919.58 553.44 1819.9 413.24 1955.59 442.83 1987.75 498.78 1934.05"/>
        <path class="cls-12" d="M560.01,2036.28l58.08-73.48,33.5,25.49-58.84,74.45c-5.68,7.18-4.46,17.63,2.71,23.29l13.32,10.53c7.04,5.57,17.3,4.29,22.78-2.81l58.57-76.14,33.78,25.68-61.63,80.71c-15.37,20.11-42.84,24.83-72.17,1.66l-21.64-17.1c-27-21.34-29.2-46.03-8.46-72.27Z"/>
        <path class="cls-12" d="M761.39,2024.41l39.02,17.15-19.51,33.87,43.52,25.3-22.29,26.58-37.3-22.72-29.58,53.59s-9,11.15,5.14,19.29c14.15,8.15,29.15,17.58,29.15,17.58l-22.29,25.3s-39.87-20.58-51.45-33.87c-11.58-13.29-7.72-29.58-1.71-40.73,6-11.15,67.31-121.34,67.31-121.34Z"/>
        <path class="cls-12" d="M1871.84,1986.46c-28.56,13.63-38.04,37.94-38.04,37.94l-38.06-50.38-34.65,24.71s53.08,70.53,90.66,118.78c32.56,48.26,80.04,11.96,80.04,11.96,0,0,60.96-37.94,40.19-78.36-22.75-44.33-53.87-65.25-53.87-65.25,0,0-17.05-13.37-46.27.62ZM1905.42,2028.71l26.85,36.68c5.98,8.14,4.2,19.58-3.94,25.56l-13.23,9.68c-8.51,6.24-20.45,4.4-26.66-4.1l-27.38-37.39c-6.17-8.43-4.35-20.27,4.08-26.43l11.52-8.42c9.17-6.74,22.03-4.74,28.77,4.43Z"/>
        <path class="cls-12" d="M1110.23,2216.85s-1.57-21.89-31.85-33.44c-27.99-10.68-62.54-9.96-62.54-9.96.49.08-37.84-6.48-50.14,81.75-.82,5.45-.82,11.04-.26,16.54,4.66,46.12,46.46,49.62,46.46,49.62,0,0,67.84,20.5,84.63-21.71,18.47-46.28,13.69-82.81,13.69-82.81ZM1070.49,2235.27l-9.98,44.35c-2.21,9.85-12.01,16.03-21.87,13.84l-15.97-3.63c-10.29-2.32-16.75-12.53-14.46-22.79l10.19-45.2c2.32-10.19,12.43-16.62,22.61-14.3l13.92,3.14c11.11,2.47,18.06,13.48,15.56,24.59Z"/>
        <polygon class="cls-12" points="1173.41 2341.25 1130.84 2338.69 1151.19 2136.89 1192.27 2141.45 1173.41 2341.25"/>
        <polygon class="cls-12" points="1402.93 2337.43 1326.09 2260.95 1334.22 2345.63 1288.76 2348.41 1271.29 2155.22 1315.49 2150.59 1323.28 2231.67 1382.89 2145.36 1431.17 2140.79 1363.23 2239.11 1460.37 2331.64 1402.93 2337.43"/>
        <path class="cls-12" d="M1470.11,2280.5l-24.66-91.88,41.41-10.14,24.08,91.79c2.32,8.86,11.4,14.16,20.23,11.85l16.42-4.31c8.68-2.28,13.83-11.23,11.46-19.89l-25.59-92.59,40.83-11.53,25.72,98.07c6.82,24.38-4.25,48.87-40.41,58.36l-26.67,7c-33.29,8.73-54.33-4.36-62.82-36.71Z"/>
        <polygon class="cls-12" points="1687.56 2261.62 1648.46 2278.65 1575.06 2089.57 1613.74 2075.01 1687.56 2261.62"/>
        <path class="cls-12" d="M928.9,2141.46c-26.4-17.44-52.12-13.03-52.12-13.03l23.55-58.59-39.03-16.95s-33.07,81.85-55.02,138.92c-24.56,52.79,31.02,74.74,31.02,74.74,0,0,63.94,32.67,87.86-5.97,26.26-42.35,28.13-79.8,28.13-79.8,0,0,2.66-21.51-24.39-39.33ZM910.01,2192.02l-17.59,41.92c-3.89,9.32-14.61,13.69-23.93,9.8l-15.11-6.35c-9.73-4.07-14.31-15.25-10.24-24.96l17.92-42.74c4.04-9.63,15.12-14.18,24.75-10.13l13.16,5.53c10.5,4.38,15.42,16.43,11.04,26.94Z"/>
        <g>
          <path class="cls-12" d="M1703.57,2205.36l-44.18-84.48,37.87-18.72,43.85,84.16c4.23,8.12,14.26,11.28,22.36,7.06l15.06-7.84c7.96-4.15,11-14.02,6.76-21.94l-45.5-84.61,37.25-20.31,47,88.26c12.06,22.26,6.55,50.26-26.6,67.53l-24.46,12.74c-30.53,15.9-53.95,7.8-69.4-21.86Z"/>
          <rect class="cls-12" x="1653.86" y="2051.53" width="43.6" height="36.41" rx="18.21" ry="18.21" transform="translate(-723.58 914.17) rotate(-25.29)"/>
          <rect class="cls-12" x="1703.67" y="2026.02" width="43.6" height="36.41" rx="18.21" ry="18.21" transform="translate(-707.9 933.01) rotate(-25.29)"/>
        </g>
        <g>
          <path class="cls-12" d="M1992.85,2013.33l-69.56-65.77,28.62-30.55,70.26,66.12c6.64,6.31,17.15,6.03,23.44-.59l11.69-12.31c6.18-6.51,5.84-16.84-.74-22.94l-70.53-65.22,28.63-31.31,74.02,69.48c18.64,17.13,22.43,42.29-3.31,69.39l-18.99,20c-23.7,24.96-49.28,26.74-73.53,3.71Z"/>
          <rect class="cls-12" x="1900.85" y="1875.11" width="43.6" height="36.41" rx="18.21" ry="18.21" transform="translate(-775.71 1902.75) rotate(-44.76)"/>
          <rect class="cls-12" x="1939.31" y="1834.45" width="43.6" height="36.41" rx="18.21" ry="18.21" transform="translate(-735.93 1918.04) rotate(-44.76)"/>
        </g>
      </g>
      <g>
        <path class="cls-12" d="M1092.81,1717.4l-15.22-12.43s17.74-24.44,42.61-19.29,28.81,20.42,28.78,28.35c-.02,5.75,1.07,16.46-14.79,29.96-15.86,13.51-27.44,22.08-27.44,22.08h42.26v18.22h-71.42v-16.51l39.87-34.03c2.92-2.49,5.45-5.45,7.21-8.86,2.48-4.8,4.08-11.38-.99-16.92-9.22-10.08-22.72-3.64-30.87,9.43Z"/>
        <path class="cls-12" d="M1208.65,1684.83c-24.08,0-43.6,22.74-43.6,50.81s19.53,50.81,43.6,50.81,43.58-22.77,43.58-50.81-19.53-50.81-43.58-50.81ZM1208.68,1768.64c-12.61,0-22.84-14.53-22.84-32.46s10.24-32.44,22.84-32.44,22.82,14.53,22.82,32.44-10.21,32.46-22.82,32.46Z"/>
        <polygon class="cls-12" points="1263.23 1696.18 1286.81 1686.53 1306.11 1686.53 1306.11 1784.29 1285.31 1784.29 1285.96 1706.04 1267.95 1712.26 1263.23 1696.18"/>
        <path class="cls-12" d="M1394.64,1697.69c-11.8-15.6-28.91-14.73-39.9-11.98-7.58,1.9-14.61,5.79-19.66,11.75-9.42,11.11-8.58,23.38-6.21,31.74,2.14,7.56,6.77,14.31,13.52,18.32,18.21,10.83,38.96-3.11,38.96-3.11,2.16,11.58-8.36,19.94-8.36,19.94-16.72,10.93-31.28-5.56-31.28-5.56l-12.45,16.72c29.58,23.36,58.76,4.5,65.39-5.38,6.64-9.85,18.65-47.8,0-72.44ZM1365.5,1734.32c-10.19,0-18.44-7.36-18.44-16.39s8.26-16.39,18.44-16.39,18.42,7.33,18.42,16.39-8.26,16.39-18.42,16.39Z"/>
      </g>
    </g>
  </g>
</svg>