<?xml version="1.0" encoding="UTF-8" standalone="no"?>
<!-- Created with Inkscape (http://www.inkscape.org/) -->

<svg
   width="211.66667mm"
   height="211.66667mm"
   viewBox="0 0 211.66667 211.66667"
   version="1.1"
   id="svg5"
   xml:space="preserve"
   inkscape:version="1.2 (dc2aeda, 2022-05-15)"
   sodipodi:docname="Logo FC Libourne - 2022.svg"
   xmlns:inkscape="http://www.inkscape.org/namespaces/inkscape"
   xmlns:sodipodi="http://sodipodi.sourceforge.net/DTD/sodipodi-0.dtd"
   xmlns="http://www.w3.org/2000/svg"
   xmlns:svg="http://www.w3.org/2000/svg"><sodipodi:namedview
     id="namedview7"
     pagecolor="#ffffff"
     bordercolor="#666666"
     borderopacity="1.0"
     inkscape:showpageshadow="2"
     inkscape:pageopacity="0.0"
     inkscape:pagecheckerboard="0"
     inkscape:deskcolor="#d1d1d1"
     inkscape:document-units="mm"
     showgrid="false"
     inkscape:lockguides="false"
     inkscape:zoom="0.30182175"
     inkscape:cx="477.10279"
     inkscape:cy="940.95273"
     inkscape:window-width="1920"
     inkscape:window-height="1080"
     inkscape:window-x="0"
     inkscape:window-y="0"
     inkscape:window-maximized="0"
     inkscape:current-layer="layer1" /><defs
     id="defs2" /><g
     inkscape:label="Calque 1"
     inkscape:groupmode="layer"
     id="layer1"
     transform="translate(143.96311,342.8021)"><circle
       style="fill:#113595;fill-opacity:1;stroke:#000000;stroke-width:0.0529165;stroke-linecap:round;stroke-linejoin:round;stroke-opacity:0"
       id="circle420"
       cx="-38.129772"
       cy="-236.96877"
       r="105.80688" /><g
       id="g13737"
       transform="matrix(0.39402895,0,0,0.39402895,-87.22144,-207.71211)"
       style="stroke-width:2.53788"><path
         id="circle416"
         style="fill:#ffffff;stroke:#000000;stroke-width:0.134296;stroke-linecap:round;stroke-linejoin:round;stroke-opacity:0"
         d="M 124.58897,-318.96324 A 244.71312,244.71312 0 0 0 -120.12425,-74.250015 244.71312,244.71312 0 0 0 124.58897,170.46321 244.71312,244.71312 0 0 0 369.3022,-74.250015 244.71312,244.71312 0 0 0 124.58897,-318.96324 Z m 0,9.78958 A 234.92354,234.92354 0 0 1 359.51262,-74.250015 234.92354,234.92354 0 0 1 124.58897,160.67363 234.92354,234.92354 0 0 1 -110.33467,-74.250015 234.92354,234.92354 0 0 1 124.58897,-309.17366 Z" /><path
         id="circle402"
         style="fill:#ffffff;stroke:#000000;stroke-width:0.134296;stroke-linecap:round;stroke-linejoin:round;stroke-opacity:0"
         d="m 124.58897,-213.12991 c -76.70127,-6e-5 -138.879948,62.17862 -138.87989,138.879895 0.009,64.9906025 45.087871,121.283914 108.505005,135.498189 C 92.459364,57.960262 91.102994,54.394795 90.567796,50.258147 34.439511,34.923703 -4.493072,-16.064712 -4.5013367,-74.250015 -4.5013947,-145.54465 53.294337,-203.34038 124.58897,-203.34033 c 71.29464,-6e-5 129.09038,57.79568 129.09032,129.090315 -1.3e-4,58.1928 -38.93543,109.191277 -95.0712,124.526766 -0.53787,4.137086 -1.89732,7.702607 -3.65456,10.99106 63.42841,-14.211724 108.51445,-70.5167729 108.51534,-135.517826 6e-5,-76.701275 -62.17863,-138.879955 -138.8799,-138.879895 z"
         sodipodi:nodetypes="ccccccscccc" /><g
         id="g2540"
         style="fill:#ffffff;stroke-width:2.53788"><path
           id="path586"
           style="fill:#ffffff;stroke:none;stroke-width:0.126894;stroke-linecap:butt;stroke-linejoin:miter;stroke-dasharray:none;stroke-opacity:1"
           d="m 143.62554,-180.07198 c -10.08158,0.0614 -20.60012,3.66159 -27.43243,11.21947 -8.89457,9.83912 -17.276856,19.93409 -23.025473,31.1459 -7.641485,12.81527 -14.094402,28.66528 -19.593119,36.79931 -10.129771,14.984565 -16.682358,26.641299 -21.291724,37.79459 -9.882227,23.912048 -8.948761,56.0447075 -2.006596,77.308459 4.148358,12.706358 10.544643,27.111071 18.086235,31.968075 -4.74666,-18.80587 -8.286075,-42.1916524 -4.115511,-63.848816 8.674952,6.446306 16.700558,10.2955341 24.805204,14.4606158 C 78.582195,-22.011457 76.752884,-48.744777 80.586493,-69.946918 c 3.962869,-21.91703 14.015212,-44.020812 30.935067,-63.088142 8.39587,-11.79646 18.82472,-6.61417 27.42364,-2.71146 11.51333,5.22544 17.41938,5.91867 24.87962,1.95492 2.30911,-6.13701 5.22038,-10.78888 10.60349,-15.2368 7.97722,-6.59133 26.93238,-1.51653 28.24169,-6.15673 2.06112,-7.30463 -19.47209,-9.65002 -33.3065,-13.55627 -4.76866,-7.45115 -15.00595,-11.39591 -25.73796,-11.33058 z m 5.87303,12.44317 a 6.7204165,6.7204165 0 0 1 6.72052,6.72052 6.7204165,6.7204165 0 0 1 -6.72052,6.72052 6.7204165,6.7204165 0 0 1 -6.72001,-6.72052 6.7204165,6.7204165 0 0 1 6.72001,-6.72052 z" /><path
           style="fill:#ffffff;stroke:none;stroke-width:0.253788;stroke-linecap:butt;stroke-linejoin:miter;stroke-dasharray:none;stroke-opacity:1"
           d="m 180.64301,46.386308 c 4.74667,-18.805908 9.50983,-43.0812555 4.78308,-64.18229 -9.00868,5.667678 -17.81298,9.6279866 -25.91765,13.7930767 11.47107,-20.2331667 11.96911,-44.2044327 8.68805,-65.4991247 -2.62971,-17.067322 -11.74806,-29.298473 -13.82117,-39.33696 -2.12296,-10.27989 -0.57518,-17.39311 7.91398,-16.0758 0.0776,12.59282 3.1583,19.57237 9.69349,26.899727 10.68597,11.98127 18.01686,23.860256 22.62624,35.013569 9.88225,23.912096 10.61745,55.9332457 3.67527,77.19704 -4.14837,12.706384 -10.09968,27.333748 -17.64129,32.190762 z"
           id="path1275"
           sodipodi:nodetypes="cccsscsssc" /></g><g
         id="g2239"
         style="fill:#ffffff;stroke:none;stroke-width:2.53788"><path
           style="fill:#ffffff;stroke:none;stroke-width:0.126894;stroke-linecap:butt;stroke-linejoin:miter;stroke-dasharray:none;stroke-opacity:1"
           d="m 125.70075,19.609013 -9.29798,8.135726 2.55694,12.784719 12.47477,4.726464 10.77016,-8.988055 -4.02913,-12.629726 z"
           id="path2072"
           sodipodi:nodetypes="ccccccc" /><path
           style="fill:#ffffff;stroke:none;stroke-width:0.671481px;stroke-linecap:butt;stroke-linejoin:miter;stroke-opacity:1"
           d="m 118.57229,41.226794 12.31982,4.648994 3.71917,12.784693 -8.98803,7.748322 -13.09464,-4.261564 -3.33177,-11.854921 z"
           id="path2074" /><path
           style="fill:#ffffff;stroke:none;stroke-width:0.126894;stroke-linecap:butt;stroke-linejoin:miter;stroke-dasharray:none;stroke-opacity:1"
           d="m 124.77095,19.22161 -8.98805,7.980759 -11.69995,1.549638 -0.69734,-6.586061 8.91055,-8.058229 6.66355,-2.014564 3.56422,1.704631 z"
           id="path2076"
           sodipodi:nodetypes="cccccccc" /><path
           style="fill:#ffffff;stroke:none;stroke-width:0.126894;stroke-linecap:butt;stroke-linejoin:miter;stroke-dasharray:none;stroke-opacity:1"
           d="m 102.53329,22.747084 0.85232,6.469823 -4.106608,13.249619 -4.02912,3.486732 -2.401975,-3.021833 c 0.230752,-5.867794 1.948684,-12.184531 7.515863,-19.796926 z"
           id="path2078"
           sodipodi:nodetypes="ccccccc" /><path
           style="fill:#ffffff;stroke:none;stroke-width:0.126894;stroke-linecap:butt;stroke-linejoin:miter;stroke-dasharray:none;stroke-opacity:1"
           d="m 99.511451,43.086391 8.833079,7.283424 3.33177,11.893656 -5.42382,4.339034 -4.99766,-0.4649 c -1.882838,-2.125103 -3.436751,-4.513346 -4.80395,-7.05096 -0.310247,-3.744109 -0.696482,-7.44049 -0.813572,-12.590992 z"
           id="path2096"
           sodipodi:nodetypes="cccccccc" /><path
           style="fill:#ffffff;stroke:none;stroke-width:0.126894;stroke-linecap:butt;stroke-linejoin:miter;stroke-dasharray:none;stroke-opacity:1"
           d="m 102.30084,67.106139 3.75793,0.116232 8.25195,7.399628 c -3.20672,-1.285539 -5.6655,-1.42578 -12.00988,-7.51586 z"
           id="path2098"
           sodipodi:nodetypes="cccc" /><path
           style="fill:#ffffff;stroke:none;stroke-width:0.126894;stroke-linecap:butt;stroke-linejoin:miter;stroke-dasharray:none;stroke-opacity:1"
           d="m 116.94515,75.358096 10.15027,-0.58113 13.79202,-3.293031 c -1.91901,1.900521 -6.41047,3.708062 -10.59912,4.578671 -3.48793,0.724962 -8.51968,0.758407 -13.34317,-0.70451 z"
           id="path2118"
           sodipodi:nodetypes="cccsc" /><path
           style="fill:#ffffff;stroke:none;stroke-width:0.126894;stroke-linecap:butt;stroke-linejoin:miter;stroke-dasharray:none;stroke-opacity:1"
           d="m 146.62117,57.885675 0.89106,5.191363 c 0,0 -6.93473,7.825793 -7.05096,7.670826 -0.11623,-0.154966 -13.59828,3.254296 -13.59828,3.254296 l -0.69734,-7.012226 9.25923,-8.019521 z"
           id="path2120" /><path
           style="fill:#ffffff;stroke:none;stroke-width:0.126894;stroke-linecap:butt;stroke-linejoin:miter;stroke-dasharray:none;stroke-opacity:1"
           d="m 147.35727,57.653212 0.9298,5.268859 1.16223,1.355937 c 4.43601,-6.392278 7.89094,-13.498069 6.70229,-23.981013 l -1.35596,0.0775 -3.60296,3.486732 z"
           id="path2122"
           sodipodi:nodetypes="ccccccc" /><path
           style="fill:#ffffff;stroke:none;stroke-width:0.126894;stroke-linecap:butt;stroke-linejoin:miter;stroke-dasharray:none;stroke-opacity:1"
           d="m 139.10531,23.560644 3.79666,12.436052 7.86456,7.360893 3.25427,-3.29303 0.42616,-7.43839 c -1.70919,-3.620056 -3.32767,-7.285467 -6.23739,-10.305256 l -5.3076,-2.479437 z"
           id="path2195"
           sodipodi:nodetypes="cccccccc" /><path
           style="fill:#ffffff;stroke:none;stroke-width:0.126894;stroke-linecap:butt;stroke-linejoin:miter;stroke-dasharray:none;stroke-opacity:1"
           d="m 121.09049,11.899452 1.70463,1.084765 4.649,-1.1235 c -2.04287,-0.137103 -4.01648,-0.412714 -6.35363,0.03874 z"
           id="path2197"
           sodipodi:nodetypes="cccc" /><path
           style="fill:#ffffff;stroke:none;stroke-width:0.126894;stroke-linecap:butt;stroke-linejoin:miter;stroke-dasharray:none;stroke-opacity:1"
           d="m 141.77847,16.858352 1.51093,2.247027 3.06057,1.472168 c -1.34087,-1.331214 -2.63097,-2.68781 -4.5715,-3.719195 z"
           id="path2199"
           sodipodi:nodetypes="cccc" /></g></g><g
       id="g13717"
       transform="matrix(0.39402895,0,0,0.39402895,-87.22144,-207.71211)"
       style="stroke-width:2.53788"><g
         id="g2534"
         style="fill:#ffffff;stroke-width:2.53788"><path
           d="m -72.654378,-44.990395 v -30.239457 l -5.106663,3.754899 v -5.407045 l 5.106663,-3.7549 h 5.106663 v 35.646503 z"
           style="font-weight:bold;font-size:150px;line-height:1.25;font-family:'DIN Condensed';-inkscape-font-specification:'DIN Condensed,  Bold';white-space:pre;fill:#ffffff;stroke-width:0.671481"
           id="path2516" /><path
           d="m -58.235577,-44.990395 5.807578,-14.969532 -0.100131,-0.100131 q -0.250326,0.200261 -0.801045,0.350457 -0.500653,0.100131 -1.351764,0.100131 -1.351764,0 -2.503266,-0.650849 -1.151503,-0.65085 -1.802352,-1.652156 -0.350457,-0.500653 -0.550719,-1.051372 -0.200261,-0.600784 -0.300392,-1.50196 -0.150196,-0.901176 -0.200261,-2.25294 -0.05007,-1.401829 -0.05007,-3.504573 0,-1.752286 0.05007,-2.853723 0.05006,-1.151503 0.200261,-1.952548 0.100131,-0.75097 0.300392,-1.301689 0.250327,-0.550718 0.600784,-1.151502 1.001307,-1.652156 2.653463,-2.553332 1.702221,-0.901176 3.804965,-0.901176 2.102743,0 3.754899,0.951242 1.652156,0.901175 2.653462,2.503266 0.350458,0.600784 0.600784,1.151502 0.250327,0.550719 0.400523,1.301689 0.100131,0.801045 0.150196,1.952548 0.05006,1.101437 0.05006,2.853723 0,1.652156 -0.05006,2.753593 -0.05007,1.051372 -0.150196,1.802352 -0.150196,0.801045 -0.350457,1.451895 -0.150196,0.600784 -0.400523,1.301698 l -6.708754,17.923387 z m 3.254246,-21.678286 q 0,1.151502 0.75098,1.852417 0.75098,0.700914 1.752287,0.700914 1.001306,0 1.752286,-0.700914 0.75098,-0.700915 0.75098,-1.852417 v -6.608624 q 0,-1.151502 -0.75098,-1.852417 -0.75098,-0.700904 -1.752286,-0.700904 -1.001307,0 -1.752287,0.700904 -0.75098,0.700915 -0.75098,1.852417 z"
           style="font-weight:bold;font-size:150px;line-height:1.25;font-family:'DIN Condensed';-inkscape-font-specification:'DIN Condensed,  Bold';white-space:pre;fill:#ffffff;stroke-width:0.671481"
           id="path2518" /><path
           d="m 300.93742,-65.617309 q 2.30301,0 3.15412,-0.550719 0.90117,-0.550719 0.90117,-2.553332 v -4.60601 q 0,-1.101437 -0.70091,-1.802352 -0.65085,-0.700904 -1.80235,-0.700904 -1.35177,0 -1.95255,0.8511 -0.55072,0.851111 -0.55072,1.652156 v 2.903789 h -5.10666 v -2.953854 q 0,-1.552025 0.60078,-2.953845 0.60079,-1.401829 1.65216,-2.403135 1.05137,-1.001307 2.4532,-1.602091 1.40183,-0.600784 3.00392,-0.600784 2.10274,0 3.45451,0.851111 1.40182,0.801045 2.10274,1.652156 0.50065,0.600784 0.85111,1.201568 0.40052,0.600784 0.65085,1.451894 0.45059,1.652146 0.45059,4.906392 0,1.852417 -0.10013,3.00392 -0.0501,1.151502 -0.35046,1.902482 -0.35046,0.801045 -1.00131,1.351764 -0.60078,0.550719 -1.70222,1.201568 1.20157,0.75098 1.80235,1.401829 0.65085,0.650849 0.95124,1.50196 0.3004,0.901176 0.35046,2.152809 0.0501,1.201568 0.0501,3.10405 0,1.752287 -0.10013,2.903789 -0.0501,1.151503 -0.20027,1.902483 -0.15019,0.801045 -0.40052,1.351764 -0.25032,0.550718 -0.65085,1.151502 -0.95124,1.401829 -2.4532,2.353071 -1.45189,0.901175 -3.85503,0.901175 -1.20157,0 -2.55333,-0.400522 -1.35176,-0.400523 -2.4532,-1.301699 -1.10144,-0.901176 -1.85242,-2.35307 -0.70091,-1.451895 -0.70091,-3.554638 v -2.903789 h 5.10666 v 2.653462 q 0,1.201568 0.65085,2.002613 0.70091,0.75098 1.85242,0.75098 1.1515,0 1.80235,-0.75098 0.70091,-0.801045 0.70091,-2.102744 v -5.106663 q 0,-2.102744 -0.80104,-2.753593 -0.45059,-0.400523 -1.25163,-0.500653 -0.75098,-0.100131 -2.00262,-0.100131 z"
           style="font-weight:bold;font-size:150px;line-height:1.25;font-family:'DIN Condensed';-inkscape-font-specification:'DIN Condensed,  Bold';white-space:pre;fill:#ffffff;stroke-width:0.671481"
           id="path2521" /><path
           d="m 328.72367,-80.636898 v 4.806272 h -10.1132 v 9.612533 q 0.70091,-0.700915 1.80235,-1.151503 1.10144,-0.500653 2.4532,-0.500653 2.6034,0 4.20549,1.60209 1.65216,1.552025 1.65216,4.706141 v 9.21202 q 0,1.802352 -0.65085,3.204181 -0.60079,1.401829 -1.65216,2.403136 -1.05137,1.001307 -2.4532,1.552025 -1.35176,0.500653 -2.85372,0.500653 -1.50196,0 -2.90379,-0.500653 -1.35177,-0.550718 -2.40314,-1.552025 -1.05137,-1.001307 -1.70222,-2.403136 -0.60078,-1.401829 -0.60078,-3.204181 v -1.501959 h 5.10666 v 1.301698 q 0,1.301699 0.70091,2.052678 0.75098,0.700915 1.90249,0.700915 1.1515,0 1.75228,-0.700915 0.65085,-0.700914 0.65085,-1.952547 v -8.36091 q 0,-1.051372 -0.70091,-1.802352 -0.65085,-0.75098 -1.70222,-0.75098 -0.65085,0 -1.10144,0.250327 -0.45059,0.200261 -0.75098,0.500653 -0.30039,0.300392 -0.45059,0.650849 -0.25033,0.450588 -0.30039,0.550719 h -4.50588 v -19.225076 z"
           style="font-weight:bold;font-size:150px;line-height:1.25;font-family:'DIN Condensed';-inkscape-font-specification:'DIN Condensed,  Bold';white-space:pre;fill:#ffffff;stroke-width:0.671481"
           id="path2523" /></g><g
         id="g10351"
         style="fill:#ffffff;stroke-width:2.53788"
         transform="translate(-549.9998)"><rect
           style="fill:#ffffff;fill-opacity:1;stroke:none;stroke-width:0.126894;stroke-linecap:round;stroke-linejoin:round;stroke-dasharray:none;stroke-opacity:0"
           id="rect3825"
           width="14.758021"
           height="52.430439"
           x="480.32031"
           y="259.59485"
           transform="rotate(-50.365396)" /><path
           id="rect3881"
           style="fill:#ffffff;fill-opacity:1;stroke:none;stroke-width:0.126894;stroke-linecap:round;stroke-linejoin:round;stroke-dasharray:none;stroke-opacity:0"
           d="m 380.01895,347.95517 -14.75806,1.6e-4 -1e-4,52.43047 36.23121,-4.8e-4 1.8e-4,-10.50667 -21.47338,-1.4e-4 z"
           transform="rotate(-61.966319)"
           sodipodi:nodetypes="ccccccc" /><path
           id="rect4398"
           style="fill:#ffffff;stroke:none;stroke-width:0.126894;stroke-linecap:round;stroke-linejoin:round"
           d="m 674.51071,-111.75453 c -2.88021,-0.7406 -6.0907,-1.13925 -9.63033,-1.13925 -18.87809,0 -28.9056,11.33896 -28.9056,25.42329 l -3.2e-4,3.944369 c 0,14.084321 12.5544,25.422628 28.64878,25.422628 16.09439,0 28.64888,-11.338466 28.64888,-25.422787 l -1.8e-4,-3.944501 c 0,-11.443514 -6.28031,-21.074459 -18.76123,-24.283749 z m -6.55098,9.97569 c 5.86642,1.61843 9.49328,7.421326 9.49307,14.329871 l 1.3e-4,3.710355 c -2.5e-4,8.187906 -3.76809,14.860597 -12.97476,14.780097 -7.18749,-0.06284 -12.97451,-6.591478 -12.97426,-14.779384 l 3.6e-4,-3.710223 c 3e-4,-9.705166 5.7871,-14.740016 12.97476,-14.780096 1.23116,-0.007 2.39433,0.14967 3.4807,0.44938 z"
           transform="matrix(0.96674123,-0.25575651,0.25581566,0.96672558,0,0)" /><path
           id="path4487"
           style="fill:#ffffff;fill-opacity:1;stroke:none;stroke-width:0.126894;stroke-linecap:round;stroke-linejoin:round;stroke-dasharray:none;stroke-opacity:1"
           d="m 647.1087,-319.62298 1.2e-4,35.3154 c -0.0184,9.10015 7.19736,18.04566 24.35936,18.29189 14.94033,0.21436 24.95588,-5.2997 24.91835,-20.10796 l -0.008,-33.23005 -14.36976,-2.5e-4 -0.51258,33.80402 c -0.068,7.43159 -6.60032,8.26956 -9.81262,8.2448 -3.79059,-0.0292 -9.95146,-2.21528 -10.02952,-7.88896 l 0.15214,-34.44466 z"
           transform="rotate(2.7982122)"
           sodipodi:nodetypes="ccsccccsccc" /><path
           id="rect4586"
           style="fill:#ffffff;fill-opacity:1;stroke:none;stroke-width:0.126894;stroke-linecap:round;stroke-linejoin:round;stroke-dasharray:none;stroke-opacity:0"
           d="m -249.73352,835.84696 1.5e-4,-52.4308 -39.63886,3.4e-4 2.8e-4,10.44317 24.88061,5e-5 -1.7e-4,10.73777 -22.8315,-2.2e-4 5e-5,10.39965 22.8315,2.2e-4 -7e-5,10.40613 -24.88061,-5e-5 10e-6,10.44363 z"
           transform="rotate(-119.6182)"
           sodipodi:nodetypes="ccccccccccccc" /><path
           id="rect5360"
           style="fill:#ffffff;fill-opacity:1;stroke:none;stroke-width:0.126894;stroke-linecap:round;stroke-linejoin:round;stroke-dasharray:none;stroke-opacity:1"
           d="m 424.81858,-720.02435 2.5e-4,52.39902 13.70651,-0.13103 2.8e-4,-37.66932 16.82063,37.4799 20.3947,1.9e-4 -1.8e-4,-52.21024 -13.21793,1e-5 8e-5,39.20634 -15.22352,-33.92168 c -1.74816,-4.26189 -3.01453,-5.33109 -6.92728,-5.28463 z"
           transform="rotate(42.138274)"
           sodipodi:nodetypes="cccccccccccc" /><path
           id="rect3879"
           style="fill:#ffffff;fill-opacity:1;stroke:none;stroke-width:0.126894;stroke-linecap:round;stroke-linejoin:round;stroke-dasharray:none;stroke-opacity:0"
           d="m 604.4022,131.32677 c -2.5315,-1.80836 -6.25273,-2.96056 -11.79789,-3.00298 l -13.54788,-0.16737 -14.75799,2e-5 -1.7e-4,52.43055 14.758,-2e-5 16.59986,0.047 c 11.89693,0.0724 16.15928,-7.71588 15.90666,-13.74284 -0.21736,-5.18552 -1.41686,-10.91196 -8.80762,-12.82967 6.12534,-3.85207 7.78658,-9.70991 6.59111,-14.7164 -0.73457,-3.07629 -2.07504,-5.96878 -4.94408,-8.01827 z m -12.58278,7.82547 c 1.24756,0.93516 1.92144,2.44213 1.83704,4.81185 -0.22093,6.20363 -6.68966,6.23451 -14.60006,5.59396 l -1.1e-4,-11.49051 c 5.55053,-0.37616 10.28905,-0.76983 12.76313,1.0847 z m 1.97344,20.38333 c 1.32426,0.99265 2.03921,2.59209 1.94963,5.1075 -0.24546,6.89234 -7.7598,6.60537 -16.68636,5.83734 l 4.1e-4,-12.01866 c 6.39988,-0.4117 11.93547,-1.02565 14.73632,1.07382 z"
           transform="rotate(-36.422029)" /><path
           id="rect9311"
           style="fill:#ffffff;fill-opacity:1;stroke:none;stroke-width:0.126894;stroke-linecap:round;stroke-linejoin:round;stroke-dasharray:none;stroke-opacity:0"
           d="m 573.69723,-537.52755 2.9e-4,52.43063 14.75801,-1.1e-4 -3e-4,-16.01198 7.43486,0.0544 9.84858,15.98133 17.25827,-1.2e-4 -13.51093,-19.17211 c 5.99319,-2.54148 11.93412,-7.24331 11.31498,-17.49319 -0.55647,-9.2124 -7.68537,-15.2369 -17.51709,-15.5611 l -14.82866,-0.22785 z m 14.75818,10.4109 c 8.5966,-0.529 17.19757,-0.7968 16.53573,7.86872 -0.50316,6.58806 -5.96081,8.06789 -16.53579,7.50269 z"
           transform="rotate(22.314098)" /></g><g
         id="g13569"
         style="fill:#ffffff;stroke:none;stroke-width:2.53788"
         transform="translate(-550.00025)"><path
           d="m 533.66526,31.11507 -8.42454,-12.650329 -9.67403,6.21434 7.92506,12.054732 -3.04733,1.987191 -7.92506,-12.054732 -10.01244,6.623366 -2.31307,-3.815666 25.78114,-16.812088 10.7376,16.465995 z"
           style="font-weight:normal;font-size:42.3333px;line-height:1.25;font-family:'.Apple Color Emoji UI';-inkscape-font-specification:'.Apple Color Emoji UI, Normal';letter-spacing:6.61458px;white-space:pre;fill:#ffffff;stroke:none;stroke-width:0.507577"
           id="path12698"
           sodipodi:nodetypes="ccccccccccc" /><path
           id="path12700"
           style="font-weight:normal;font-size:42.3333px;line-height:1.25;font-family:'.Apple Color Emoji UI';-inkscape-font-specification:'.Apple Color Emoji UI, Normal';letter-spacing:6.61458px;white-space:pre;fill:#ffffff;stroke:none;stroke-width:0.507577"
           d="m 538.65259,37.382964 c -2.43839,-0.0342 -4.89297,0.588558 -7.02903,1.783354 -3.75294,2.117951 -6.94734,5.366297 -8.78964,9.280054 -1.87711,3.975527 -1.53758,8.799391 0.72295,12.547037 2.29938,3.809561 5.78158,7.067892 10.01489,8.578805 4.44675,1.629923 9.48906,0.430066 13.20075,-2.351794 4.30802,-3.193204 7.94769,-8.04418 7.95869,-13.612606 -0.008,-1.511934 -0.30001,-3.016491 -0.81753,-4.435388 -1.71832,-4.580448 -5.39332,-8.33891 -9.75909,-10.477914 -1.71882,-0.861067 -3.60547,-1.28495 -5.50199,-1.311548 z m 0.65991,4.581633 c 1.26163,-0.02014 2.52313,0.210509 3.7083,0.74414 3.34978,1.55311 6.2178,4.606956 6.93394,8.302853 0.7583,3.947027 -1.41021,7.775064 -4.17959,10.424687 -0.65522,0.650949 -1.34901,1.264389 -2.08876,1.817976 -2.87346,2.300829 -6.9797,3.254828 -10.42158,1.696021 -3.76241,-1.743933 -6.93802,-5.470426 -7.02852,-9.756511 -0.0866,-4.440153 3.06315,-8.147019 6.37791,-10.731644 1.88079,-1.506188 4.28973,-2.459081 6.6983,-2.497522 z" /><path
           d="m 611.78177,90.579279 -9.85468,-4.642723 -11.64968,24.513034 -4.23894,-2.14419 11.64968,-24.513027 -9.93216,-4.720205 1.56157,-3.285829 24.02579,11.507111 z"
           style="font-weight:normal;font-size:42.3333px;line-height:1.25;font-family:'.Apple Color Emoji UI';-inkscape-font-specification:'.Apple Color Emoji UI, Normal';letter-spacing:6.61458px;white-space:pre;fill:#ffffff;stroke:none;stroke-width:0.507577"
           id="path12704"
           sodipodi:nodetypes="ccccccccc" /><path
           d="m 630.39341,122.53972 c -4.28971,1.10414 -8.31501,-0.94378 -12.44056,-1.98249 -2.47805,-0.66689 -4.95609,-1.33377 -7.43413,-2.00066 2.66983,-9.90602 5.33965,-19.812034 8.00948,-29.718051 4.4767,1.245657 9.00387,2.320396 13.43088,3.735918 2.97448,1.00127 5.9444,2.459077 6.79648,5.31821 1.59102,5.338673 -1.82377,9.769783 -5.78865,10.352763 5.37997,2.94687 5.47079,12.26585 -2.5735,14.29431 z m 0.97285,-26.0753 -9.38227,-2.724251 -2.47736,9.075221 8.34735,2.21178 c 1.81889,0.48194 4.97236,-0.42642 5.69668,-3.13243 0.74336,-2.777132 -0.10692,-4.668503 -2.1844,-5.43032 z m -7.11955,11.50485 c -1.916,-0.51562 -3.832,-1.03123 -5.748,-1.54685 l -2.54176,9.52286 c 3.56542,0.89126 7.06955,2.11544 10.73479,2.52837 2.4527,0.27964 4.30036,-1.1199 5.01011,-3.52362 1.09785,-4.52989 -3.38083,-5.78278 -7.45514,-6.98076 z"
           style="font-weight:normal;font-size:42.3333px;line-height:1.25;font-family:'.Apple Color Emoji UI';-inkscape-font-specification:'.Apple Color Emoji UI, Normal';letter-spacing:6.61458px;white-space:pre;fill:#ffffff;stroke:none;stroke-width:0.507577"
           id="path12706"
           sodipodi:nodetypes="cccccscccccssccccccc" /><path
           d="m 675.85905,128.91637 -5.01947,-0.28233 -2.73588,-7.8281 -16.62921,-1.08236 -3.56572,7.16291 -5.33464,-0.26933 14.0728,-26.742979 c 0.99185,-1.831518 1.48064,-2.808203 3.06919,-2.716719 l 5.31443,0.306054 z m -9.02592,-12.13894 -5.52645,-15.87283 -7.79407,15.06247 z"
           style="font-weight:normal;font-size:42.3333px;line-height:1.25;font-family:'.Apple Color Emoji UI';-inkscape-font-specification:'.Apple Color Emoji UI, Normal';letter-spacing:6.61458px;white-space:pre;fill:#ffffff;stroke:none;stroke-width:0.507579"
           id="path12708"
           sodipodi:nodetypes="cccccccccccccc" /><path
           d="m 705.53178,126.43888 -19.3902,1.77935 -2.81258,-30.649678 4.45916,-0.428793 2.42535,26.698151 14.98582,-1.29577 z"
           style="font-weight:normal;font-size:42.3333px;line-height:1.25;font-family:'.Apple Color Emoji UI';-inkscape-font-specification:'.Apple Color Emoji UI, Normal';letter-spacing:6.61458px;white-space:pre;fill:#ffffff;stroke:none;stroke-width:0.507577"
           id="path12710"
           sodipodi:nodetypes="ccccccc" /><path
           id="path12714"
           style="font-weight:normal;font-size:42.3333px;line-height:1.25;font-family:'.Apple Color Emoji UI';-inkscape-font-specification:'.Apple Color Emoji UI, Normal';letter-spacing:6.61458px;white-space:pre;fill:#ffffff;stroke:none;stroke-width:0.507577"
           d="m 765.16279,73.736818 c -5.49333,0.743805 -10.84771,2.991854 -14.75258,6.969083 -3.22219,3.242484 -4.6762,8.074147 -3.75998,12.553756 1.03518,5.031906 3.85655,10.047113 8.55762,12.457633 4.39943,2.27797 9.66195,1.60168 14.09423,-0.2067 3.61475,-1.35714 6.77141,-3.64448 9.53327,-6.313311 l -2.01384,-3.749642 c -1.08744,1.447761 -2.38756,2.685275 -3.90002,3.813204 -3.72197,2.732339 -8.65031,4.662499 -13.2364,3.118159 -4.19793,-1.4093 -6.67747,-5.461711 -7.87962,-9.546707 -1.15833,-3.936069 0.83095,-8.509831 3.94343,-11.271663 3.42282,-3.011467 7.30919,-3.918146 11.42773,-4.07417 z"
           sodipodi:nodetypes="cccccccccsccc" /><path
           d="m 821.61316,47.577338 c 2.7917,2.653858 5.28129,6.358471 4.59523,10.397228 -0.67112,4.501751 -3.99775,8.073108 -7.45742,10.765458 -3.14848,2.449599 -7.6783,3.344837 -11.30553,1.417941 -3.41652,-1.80578 -5.88677,-4.851125 -8.69138,-7.429663 l -9.03792,-8.770723 3.23589,-3.327124 c 4.81978,4.646384 9.57789,9.358535 14.43887,13.960981 2.10855,2.074616 5.06343,2.718356 7.83154,1.323394 2.68653,-1.386839 4.97643,-3.726385 6.13239,-6.535494 1.11481,-2.84679 0.0568,-5.469617 -1.99643,-7.488031 -4.69851,-4.638577 -9.47053,-9.20372 -14.19812,-13.813244 l 3.23589,-3.327117 c 4.40566,4.275465 8.81133,8.550929 13.21699,12.826394 z"
           style="font-weight:normal;font-size:42.3333px;line-height:1.25;font-family:'.Apple Color Emoji UI';-inkscape-font-specification:'.Apple Color Emoji UI, Normal';letter-spacing:6.61458px;white-space:pre;fill:#ffffff;stroke:none;stroke-width:0.507577"
           id="path12718"
           sodipodi:nodetypes="cccccccccccccc" /><path
           id="path12864"
           style="font-weight:normal;font-size:42.3333px;line-height:1.25;font-family:'.Apple Color Emoji UI';-inkscape-font-specification:'.Apple Color Emoji UI, Normal';letter-spacing:6.61458px;white-space:pre;fill:#ffffff;stroke:none;stroke-width:0.507577"
           d="m 565.69562,62.265653 c -2.43407,0.149107 -4.83492,0.954531 -6.87517,2.306443 -3.5832,2.393944 -6.5245,5.873121 -8.06753,9.914237 -1.5731,4.105327 -0.87209,8.890045 1.66364,12.457252 2.57911,3.626027 6.29628,6.613511 10.63115,7.802081 4.55665,1.291206 9.49455,-0.284116 12.98673,-3.336992 4.05592,-3.507864 7.32082,-8.618596 6.91341,-14.172109 -0.12158,-1.507059 -0.52581,-2.985423 -1.14848,-4.361425 -2.05762,-4.438393 -6.00462,-7.910108 -10.51877,-9.715041 -1.77866,-0.729489 -3.69182,-1.010419 -5.58498,-0.894446 z m 1.00229,4.5191 c 1.25655,-0.114877 2.53181,0.02034 3.75373,0.463411 3.457,1.297032 6.54637,4.126756 7.53818,7.758398 1.05272,3.878895 -0.82204,7.859043 -3.38451,10.709256 -0.60446,0.698339 -1.2502,1.362173 -1.94626,1.969777 -2.69247,2.510224 -6.71542,3.770051 -10.26469,2.474258 -3.88281,-1.456312 -7.32944,-4.933671 -7.74172,-9.20084 -0.41987,-4.421103 2.44236,-8.354142 5.55356,-11.180517 1.7623,-1.643245 4.09284,-2.774442 6.49171,-2.993743 z" /><path
           d="m 734.12389,119.9703 -18.88801,4.73171 -7.47932,-29.855867 4.34067,-1.107517 6.49071,26.010464 14.60989,-3.57846 z"
           style="font-weight:normal;font-size:42.3333px;line-height:1.25;font-family:'.Apple Color Emoji UI';-inkscape-font-specification:'.Apple Color Emoji UI, Normal';letter-spacing:6.61458px;white-space:pre;fill:#ffffff;stroke:none;stroke-width:0.507577"
           id="path13176"
           sodipodi:nodetypes="ccccccc" /><path
           d="m 804.18462,81.910989 -15.49433,11.79288 -18.64076,-24.491534 3.55284,-2.728621 16.21661,21.347014 12.017,-9.046879 z"
           style="font-weight:normal;font-size:42.3333px;line-height:1.25;font-family:'.Apple Color Emoji UI';-inkscape-font-specification:'.Apple Color Emoji UI, Normal';letter-spacing:6.61458px;white-space:pre;fill:#ffffff;stroke:none;stroke-width:0.507577"
           id="path13367"
           sodipodi:nodetypes="ccccccc" /><path
           d="m 848.65637,27.538771 c -0.24355,4.422828 -3.41196,7.641245 -5.64862,11.260148 -1.38443,2.160742 -2.76886,4.321476 -4.1533,6.482209 -8.63639,-5.538049 -17.27277,-11.076088 -25.90916,-16.614136 2.54003,-3.891115 4.93237,-7.88198 7.61931,-11.674404 1.85318,-2.532941 4.14018,-4.923599 7.12315,-4.872 5.56987,0.09636 8.76214,4.690369 8.11993,8.646087 4.43464,-4.238165 13.34553,-1.509112 12.84869,6.772096 z m -24.5627,-8.805754 -5.43168,8.120676 7.90257,5.103558 4.63047,-7.288961 c 1.00897,-1.588269 1.09585,-4.86881 -1.26484,-6.376869 -2.42274,-1.547699 -4.48262,-1.308616 -5.83652,0.441596 z m 8.81606,10.262877 c -1.07042,1.670664 -2.14083,3.341331 -3.21125,5.011996 l 8.30983,5.300198 c 1.92686,-3.129502 4.15256,-6.099989 5.6536,-9.469168 1.00763,-2.25358 0.23175,-4.437743 -1.84518,-5.840581 -3.98648,-2.415198 -6.534,1.475619 -8.907,4.997555 z"
           style="font-weight:normal;font-size:42.3333px;line-height:1.25;font-family:'.Apple Color Emoji UI';-inkscape-font-specification:'.Apple Color Emoji UI, Normal';letter-spacing:6.61458px;white-space:pre;fill:#ffffff;stroke:none;stroke-width:0.507577"
           id="path13493"
           sodipodi:nodetypes="cccccscccccssccccccc" /></g></g></g></svg>
