<?xml version="1.0" encoding="UTF-8"?>
<svg id="Calque_2" data-name="Calque 2" xmlns="http://www.w3.org/2000/svg" viewBox="0 0 5464.4 6900.91">
  <defs>
    <style>
      .cls-1 {
        fill: #1f438f;
      }

      .cls-2 {
        fill: #fff;
      }

      .cls-3 {
        fill: #004ea2;
      }

      .cls-4 {
        fill: #1c4f9c;
      }
    </style>
  </defs>
  <g id="Calque_1-2" data-name="Calque 1">
    <g>
      <path class="cls-3" d="M2586.59,6743.72l-.94-1.05c-94.78-105.74-224.44-206.44-385.4-299.31-142.85-82.42-313.68-160.49-507.75-232.03-361.13-133.14-729-218.36-997.61-280.58l-1.91-.44c-68.42-15.74-134.33-31-188.62-44.66-107.64-26.86-200.4-66.87-275.72-118.9-68.07-47.03-122.36-103.92-161.37-169.11C1.22,5487.26-1.77,5385.56.49,5343.87V0h5463.55v5345.38c1.97,42.04-1.65,145.49-69.15,256.02-39.27,64.3-93.56,120.44-161.36,166.85-74.84,51.22-166.79,90.72-273.31,117.38-49.08,12.35-104.2,25.23-188.69,44.67l-2.21.51c-269.51,62.41-638.62,147.87-1000.55,281.57-194.46,71.83-365.51,150.24-508.4,233.05-160.93,93.27-290.34,194.42-384.65,300.65l-1.33,1.5-142.38,153.32-145.42-157.19Z"/>
      <path class="cls-2" d="M2653.13,6683.12l-.47-.53c-101.14-112.84-238.22-219.55-407.43-317.19-147.26-84.97-322.75-165.22-521.6-238.52-366.44-135.1-737.51-221.05-1008.45-283.82l-1.99-.46c-68.04-15.65-133.53-30.81-187.01-44.27-97.1-24.23-180-59.77-246.38-105.63-57.42-39.67-102.94-87.2-135.3-141.28-55.16-92.18-55.92-175.36-54.01-204.9V90h5283.55v5257.68c1.64,29.36.41,114.52-55.96,206.82-32.6,53.38-78.15,100.31-135.39,139.49-66,45.17-148.21,80.28-244.33,104.35h0c-48.35,12.17-103.07,24.96-187.13,44.3l-2.21.51c-271.85,62.95-644.17,149.16-1011.44,284.83-199.28,73.61-375.02,154.23-522.34,239.61-169.26,98.09-306.13,205.34-406.83,318.77l-.67.76-75.61,81.41-79-85.4Z"/>
      <path class="cls-3" d="M4916.39,5711.05c-50,12.58-108.49,26.19-185.36,43.87-534.64,123.8-1530.11,353.71-1989.93,871.68l-8.84,9.52-12.58-13.6c-461.52-514.91-1453.25-744.14-1986.18-867.6-72.44-16.66-134-30.95-185.36-43.87-377.85-94.21-370.03-334.32-367.65-361.19V180h5103.54v5170.54c2.38,31.63,6.12,266.98-367.65,360.51Z"/>
      <path class="cls-1" d="M2011.95,3070.54l-984.59-459.81,504.36,795.83-504.36,795.84,984.59-459.82c-48.3-102.03-74.83-215.96-74.83-336.02s26.53-233.99,74.83-336.02ZM1405.89,3776.93l209.84-370.37-209.84-370.37,378.19,370.37-378.19,370.37Z"/>
      <path class="cls-1" d="M3382.21,3406.57c0,98.29-21.76,191.48-61.22,275.14-64.28,138.08-176.17,249.63-314.25,313.57-83.32,39.45-176.51,61.22-274.8,61.22s-191.48-21.77-274.8-61.22c-69.04-31.97-131.62-76.18-184.67-129.24-53.06-53.06-97.27-115.63-129.24-184.67-39.45-83.32-61.22-176.51-61.22-274.8s21.77-191.48,61.22-274.8c64.28-138.08,175.83-249.63,313.91-313.91,83.67-39.45,176.85-61.22,275.14-61.22s191.14,21.77,274.46,60.88c138.08,64.28,249.97,175.83,314.25,314.25,39.45,83.32,61.22,176.51,61.22,274.8Z"/>
      <path class="cls-1" d="M3527.77,5111.15l-795.84-504.03-795.83,504.03,459.81-984.59c102.03,47.96,215.96,74.82,336.02,74.82s233.99-26.53,336.02-74.82l459.82,984.59Z"/>
      <path class="cls-1" d="M3932.49,3406.57l504.37,795.84-984.59-459.48c47.96-102.03,74.82-216.3,74.82-336.36s-26.53-234.33-74.48-336.36l984.25-459.48-504.37,795.84Z"/>
      <path class="cls-1" d="M3527.77,1701.98l-459.48,983.91c-102.03-47.95-215.96-74.48-336.02-74.48s-234.33,26.87-336.7,74.82l-459.47-984.25,795.83,504.37,795.84-504.37Z"/>
      <path class="cls-2" d="M4355.94,581.53v142.84c54.42,3.74,96.93-13.94,96.93-74.48s-44.89-70.74-96.93-68.36ZM4355.94,581.53v142.84c54.42,3.74,96.93-13.94,96.93-74.48s-44.89-70.74-96.93-68.36ZM3904.96,581.53v142.84c54.42,3.74,96.59-13.94,96.59-74.48s-44.55-70.74-96.59-68.36ZM4355.94,581.53v142.84c54.42,3.74,96.93-13.94,96.93-74.48s-44.89-70.74-96.93-68.36ZM4355.94,581.53v142.84c54.42,3.74,96.93-13.94,96.93-74.48s-44.89-70.74-96.93-68.36ZM3904.96,581.53v142.84c54.42,3.74,96.59-13.94,96.59-74.48s-44.55-70.74-96.59-68.36ZM3904.96,581.53v142.84c54.42,3.74,96.59-13.94,96.59-74.48s-44.55-70.74-96.59-68.36ZM4355.94,581.53v142.84c54.42,3.74,96.93-13.94,96.93-74.48s-44.89-70.74-96.93-68.36ZM4355.94,581.53v142.84c54.42,3.74,96.93-13.94,96.93-74.48s-44.89-70.74-96.93-68.36ZM3904.96,581.53v142.84c54.42,3.74,96.59-13.94,96.59-74.48s-44.55-70.74-96.59-68.36ZM2028.29,667.24l-67.68,125.16h135.36l-67.68-125.16ZM3904.96,581.53v142.84c54.42,3.74,96.59-13.94,96.59-74.48s-44.55-70.74-96.59-68.36ZM4355.94,581.53v142.84c54.42,3.74,96.93-13.94,96.93-74.48s-44.89-70.74-96.93-68.36ZM4355.94,581.53v142.84c54.42,3.74,96.93-13.94,96.93-74.48s-44.89-70.74-96.93-68.36ZM3904.96,581.53v142.84c54.42,3.74,96.59-13.94,96.59-74.48s-44.55-70.74-96.59-68.36ZM2028.29,667.24l-67.68,125.16h135.36l-67.68-125.16ZM2028.29,667.24l-67.68,125.16h135.36l-67.68-125.16ZM3904.96,581.53v142.84c54.42,3.74,96.59-13.94,96.59-74.48s-44.55-70.74-96.59-68.36ZM4355.94,581.53v142.84c54.42,3.74,96.93-13.94,96.93-74.48s-44.89-70.74-96.93-68.36ZM4355.94,581.53v142.84c54.42,3.74,96.93-13.94,96.93-74.48s-44.89-70.74-96.93-68.36ZM3904.96,581.53v142.84c54.42,3.74,96.59-13.94,96.59-74.48s-44.55-70.74-96.59-68.36ZM2028.29,667.24l-67.68,125.16h135.36l-67.68-125.16ZM270,270v903.31h4924.44V270H270ZM827.4,996.12l-52.04-109.17h-194.2l-51.35,109.17-122.78-25.85,272.42-508.45h1.36l275.48,508.45-128.9,25.85ZM1070.23,994.75l-87.07-85.7,87.07-85.71,87.07,85.71-87.07,85.7ZM1461,804.98c0,115.29-62.58,191.14-180.93,191.14-15.65,1.02-31.63-1.02-46.93-5.1l-30.61-126.52c17.69,6.12,36.39,9.18,55.1,8.84,63.26,0,76.86-32.65,76.86-93.87v-305.75l126.52-11.9v343.16ZM1640.92,994.75l-86.73-85.7,87.07-85.71,87.07,85.71-87.41,85.7ZM2176.57,996.12l-52.38-109.17h-194.2l-51.36,109.17-122.78-25.85,272.42-508.45h1.36l275.48,508.45-128.56,25.85ZM2775.49,807.02c0,119.04-93.19,189.1-221.07,189.1-119.04,0-202.36-55.78-202.36-180.25v-342.14l126.52-11.9v318.67c0,54.42,15.64,99.65,78.9,99.65,81.62,0,91.49-57.48,91.49-127.2v-279.22l126.52-11.9v345.2ZM3184.97,996.12l-109.17-172.77-114.95,172.77-121.08-44.89,162.91-231.95-153.39-220.38,125.16-37.07,104.07,157.81,102.71-157.81,120.74,41.49-151,213.58,162.91,237.39-128.9,41.83ZM3676.41,984.21h-295.55v-510.49h288.74l22.45,107.81h-184.67v88.43h131.62v108.15h-131.62v98.29h200.32l-31.29,107.81ZM4055.29,995.77l-148.96-240.79h-1.36v223.11l-126.52,11.9V473.72h143.52c119.04,0,206.1,41.49,206.1,157.81,1.36,55.78-31.29,106.79-82.31,129.24l137.74,194.2-128.22,40.81ZM4506.6,995.77l-148.96-241.13h-1.36v223.45l-126.52,11.56-.34-515.93h143.86c119.04,0,206.1,41.49,206.1,157.81,1.02,55.78-31.63,106.79-82.64,129.24l137.74,194.2-127.88,40.81ZM4987.84,984.21h-295.21v-510.49h288.74l22.11,107.81h-184.33v88.43h131.62v108.15h-131.62v98.29h199.98l-31.29,107.81ZM4355.94,581.53v142.84c54.42,3.74,96.93-13.94,96.93-74.48s-44.89-70.74-96.93-68.36ZM3904.96,581.53v142.84c54.42,3.74,96.59-13.94,96.59-74.48s-44.55-70.74-96.59-68.36ZM1960.61,792.39h135.36l-67.68-125.16-67.68,125.16ZM611.77,792.39h135.36l-67.68-125.16-67.68,125.16ZM2028.29,667.24l-67.68,125.16h135.36l-67.68-125.16ZM3904.96,581.53v142.84c54.42,3.74,96.59-13.94,96.59-74.48s-44.55-70.74-96.59-68.36ZM4355.94,581.53v142.84c54.42,3.74,96.93-13.94,96.93-74.48s-44.89-70.74-96.93-68.36ZM4355.94,581.53v142.84c54.42,3.74,96.93-13.94,96.93-74.48s-44.89-70.74-96.93-68.36ZM3904.96,581.53v142.84c54.42,3.74,96.59-13.94,96.59-74.48s-44.55-70.74-96.59-68.36ZM2028.29,667.24l-67.68,125.16h135.36l-67.68-125.16ZM2028.29,667.24l-67.68,125.16h135.36l-67.68-125.16ZM3904.96,581.53v142.84c54.42,3.74,96.59-13.94,96.59-74.48s-44.55-70.74-96.59-68.36ZM4355.94,581.53v142.84c54.42,3.74,96.93-13.94,96.93-74.48s-44.89-70.74-96.93-68.36ZM4355.94,581.53v142.84c54.42,3.74,96.93-13.94,96.93-74.48s-44.89-70.74-96.93-68.36ZM3904.96,581.53v142.84c54.42,3.74,96.59-13.94,96.59-74.48s-44.55-70.74-96.59-68.36ZM2028.29,667.24l-67.68,125.16h135.36l-67.68-125.16ZM3904.96,581.53v142.84c54.42,3.74,96.59-13.94,96.59-74.48s-44.55-70.74-96.59-68.36ZM4355.94,581.53v142.84c54.42,3.74,96.93-13.94,96.93-74.48s-44.89-70.74-96.93-68.36ZM4355.94,581.53v142.84c54.42,3.74,96.93-13.94,96.93-74.48s-44.89-70.74-96.93-68.36ZM3904.96,581.53v142.84c54.42,3.74,96.59-13.94,96.59-74.48s-44.55-70.74-96.59-68.36ZM3904.96,581.53v142.84c54.42,3.74,96.59-13.94,96.59-74.48s-44.55-70.74-96.59-68.36ZM4355.94,581.53v142.84c54.42,3.74,96.93-13.94,96.93-74.48s-44.89-70.74-96.93-68.36ZM4355.94,581.53v142.84c54.42,3.74,96.93-13.94,96.93-74.48s-44.89-70.74-96.93-68.36ZM3904.96,581.53v142.84c54.42,3.74,96.59-13.94,96.59-74.48s-44.55-70.74-96.59-68.36Z"/>
      <path class="cls-2" d="M2011.95,3070.54l-984.59-459.81,504.36,795.83-504.36,795.84,984.59-459.82c-48.3-102.03-74.83-215.96-74.83-336.02s26.53-233.99,74.83-336.02ZM1405.89,3776.93l209.84-370.37-209.84-370.37,378.19,370.37-378.19,370.37Z"/>
      <path class="cls-2" d="M2731.94,3406.57l-73.46,34.35-10.2,4.76-72.1,33.67-278.2,129.92-26.53,12.24-4.42,2.04-32.99,15.65h-.34l-9.86,4.76h-.34l-11.56,5.44-8.16,3.74-17.01,8.16-43.53,20.07c-39.45-83.32-61.22-176.51-61.22-274.8s21.77-191.48,61.22-274.8l43.53,20.07,17.01,8.16,8.16,3.74,25.85,12.24,6.12,2.72,30.61,14.28,31.29,14.63,22.11,10.2,4.42,2.04,25.17,11.9,217.32,101.35,30.95,14.62,4.76,2.04,20.75,9.86,100.67,46.93Z"/>
      <g id="Groupe_317" data-name="Groupe 317">
        <path class="cls-2" d="M3527.77,1701.98l-459.48,983.91c-102.03-47.95-215.96-74.48-336.02-74.48s-234.33,26.87-336.7,74.82l-459.47-984.25,795.83,504.37,795.84-504.37Z"/>
        <path id="Tracé_11369" data-name="Tracé 11369" class="cls-4" d="M2732.09,2290.33l370.37-210.11-370.37,378.12-370.3-378.12,370.3,210.11Z"/>
      </g>
      <g id="Groupe_318" data-name="Groupe 318">
        <path class="cls-2" d="M3932.49,3406.57l504.37,795.84-984.59-459.48c47.96-102.03,74.82-216.3,74.82-336.36s-26.53-234.33-74.48-336.36l984.25-459.48-504.37,795.84Z"/>
        <path id="Tracé_11371" data-name="Tracé 11371" class="cls-4" d="M3848.34,3406.57l210.08-370.44-378.12,370.44,378.19,370.3-210.15-370.3Z"/>
      </g>
      <g id="Groupe_319" data-name="Groupe 319">
        <path class="cls-2" d="M3527.77,5111.15l-795.84-504.03-795.83,504.03,459.81-984.59c102.03,47.96,215.96,74.82,336.02,74.82s233.99-26.53,336.02-74.82l459.82,984.59Z"/>
        <path id="Tracé_11373" data-name="Tracé 11373" class="cls-4" d="M2732.09,4522.84l370.37,210.05-370.37-378.09-370.3,378.05,370.3-210.01Z"/>
      </g>
      <path class="cls-4" d="M3382.21,3406.57c0,98.29-21.76,191.48-61.22,275.14-64.28,138.08-176.17,249.63-314.25,313.57-83.32,39.45-176.51,61.22-274.8,61.22s-191.48-21.77-274.8-61.22c-69.04-31.97-131.62-76.18-184.67-129.24-53.06-53.06-97.27-115.63-129.24-184.67-39.45-83.32-61.22-176.51-61.22-274.8s21.77-191.48,61.22-274.8c64.28-138.08,175.83-249.63,313.91-313.91,83.67-39.45,176.85-61.22,275.14-61.22s191.14,21.77,274.46,60.88c138.08,64.28,249.97,175.83,314.25,314.25,39.45,83.32,61.22,176.51,61.22,274.8Z"/>
      <path class="cls-2" d="M3382.21,3406.57c0,98.29-21.76,191.48-61.22,275.14-64.28,138.08-176.17,249.63-314.25,313.57-83.32,39.45-176.51,61.22-274.8,61.22s-191.48-21.77-274.8-61.22c-69.04-31.97-131.62-76.18-184.67-129.24-53.06-53.06-97.27-115.63-129.24-184.67-39.45-83.32-61.22-176.51-61.22-274.8s21.77-191.48,61.22-274.8c64.28-138.08,175.83-249.63,313.91-313.91,83.67-39.45,176.85-61.22,275.14-61.22s191.14,21.77,274.46,60.88c138.08,64.28,249.97,175.83,314.25,314.25,39.45,83.32,61.22,176.51,61.22,274.8Z"/>
      <path id="Tracé_11376" data-name="Tracé 11376" class="cls-3" d="M2732.09,3989.63c322.04-.02,583.09-261.1,583.07-583.14-.02-322.04-261.1-583.09-583.14-583.07-322.04.02-583.09,261.1-583.07,583.14.04,322.03,261.11,583.07,583.14,583.07Z"/>
      <path id="Tracé_11377" data-name="Tracé 11377" class="cls-2" d="M2403.79,2918.01l-31.49,112.95-94.62,13.16,26.36-44.72,99.75-81.39Z"/>
      <path id="Tracé_11378" data-name="Tracé 11378" class="cls-2" d="M2377.57,3204.31l-165.43,225.83,120.7,252.15,244.33-68.26-2.62-309.87-196.99-99.85Z"/>
      <path id="Tracé_11379" data-name="Tracé 11379" class="cls-2" d="M2514.05,3700.78l55.16,181.27,162.87-55.23,152.4,47.27,81.39-165.36-107.68-39.52v-162.84h-225.93v157.53l-118.22,36.87Z"/>
      <path id="Tracé_11380" data-name="Tracé 11380" class="cls-2" d="M2732.09,3406.6h-99.82l-2.62-139.44-104.99-55.03,112.88-162.94,128.66,47.27,126.18-39.38,102.37,175.97-118.22,52.55v120.84l-144.44.17Z"/>
      <path id="Tracé_11381" data-name="Tracé 11381" class="cls-2" d="M2923.81,3327.73v296.7l220.72,68.33,123.42-204.81-120.87-252.15-223.28,91.93Z"/>
      <path id="Tracé_11382" data-name="Tracé 11382" class="cls-2" d="M3315.16,3293.51l15.78,147.16-49.89-73.56,34.11-73.6Z"/>
      <path id="Tracé_11383" data-name="Tracé 11383" class="cls-2" d="M3165.52,3002.02l2.55,78.84,70.94,13.13-73.5-91.96Z"/>
      <path id="Tracé_11384" data-name="Tracé 11384" class="cls-2" d="M3089.33,2970.49l-28.94-7.82v31.49l-76.15,34.01,102.44,160.26,81.39-26.22,55.16,94.48,34.01-83.97-136.55-60.5-31.36-141.72Z"/>
      <path id="Tracé_11385" data-name="Tracé 11385" class="cls-2" d="M2193.68,3217.47l26.32,110.26-78.9,99.85,5.27-141.82,47.31-68.29Z"/>
      <path id="Tracé_11386" data-name="Tracé 11386" class="cls-2" d="M2164.7,3440.64l47.27,102.44-39.45,57.82-28.87-118.08,21.05-42.17Z"/>
      <path id="Tracé_11387" data-name="Tracé 11387" class="cls-2" d="M2251.43,3642.87l55.16,97.2,123.42-18.33,60.44,186.44-20.98,18.26-105.06-65.54-102.44-99.82-41.9-68.46,31.36-49.76Z"/>
      <path id="Tracé_11388" data-name="Tracé 11388" class="cls-2" d="M2537.76,3952.8l202.22-73.56,176,73.56-78.77,31.56-197.05,2.72-102.4-34.28Z"/>
      <path id="Tracé_11389" data-name="Tracé 11389" class="cls-2" d="M2598.16,2841.83l-52.51,105.06,225.83,92,210.15-76.22-34.01-97.17-128.66-47.34-110.33-2.55-110.47,26.22Z"/>
      <path id="Tracé_11390" data-name="Tracé 11390" class="cls-2" d="M2965.81,3910.66l89.31-170.7,105.06,26.22,65.67-97.17,18.33,23.6-60.37,91.83-62.99,68.33-89.34,65.71-36.76,13.16-28.91-20.98Z"/>
      <path id="Tracé_11391" data-name="Tracé 11391" class="cls-2" d="M2248.78,3104.42l36.83,126.18,81.39-94.55,84.04,34.01,102.51-147.09-76.15-47.27,13.09-42.07-39.45-10.44-44.65,152.26-157.6,28.98Z"/>
      <path id="Tracé_11392" data-name="Tracé 11392" class="cls-2" d="M2206.23,3615.28l-3.91-2.62,36.12-54.01-57.82-126.11,63.22-92.13-36.63-161.89,4.59-1.02,37.07,163.89-.58.85-62.31,90.77,57.82,126.08-37.58,56.19Z"/>
      <path id="Tracé_11393" data-name="Tracé 11393" class="cls-2" d="M2513.68,3945.8l-4.39-1.67,7.58-20.2-78.02-228.44-112.54,26.26-67.48-111.62-45.1,52.68-3.4-3.06,49.31-57.65,69.07,114.27,113.36-26.46,79.79,234.06-8.2,21.84Z"/>
      <path id="Tracé_11394" data-name="Tracé 11394" class="cls-2" d="M2554.56,3908.49l-.68-2.28-68.9-225.35,118.76-44.82,2.69-153.05h277.69v171.55l113.9,45.1-104.48,206.44-1.97-.71-151.65-54.96-185.36,58.09ZM2490.72,3683.68l66.93,218.89,182.4-57.31,151.17,54.79,100.3-198.14-112.23-44.21v-170.05h-268.37l-2.69,151.75-117.51,44.28Z"/>
      <path id="Tracé_11395" data-name="Tracé 11395" class="cls-2" d="M2958.97,3946.65l-30.2-30.13.85-1.53,111.18-203.75,105.16,23.5,156-246.88-54.99-107.44,52.92-127.13,4.35,1.8-52.07,125.09,55.2,107.88-159.2,251.95-104.95-23.43-108.63,199.09,27.72,27.65-3.33,3.33Z"/>
      <path id="Tracé_11396" data-name="Tracé 11396" class="cls-2" d="M3228.61,3325.21l-64.25-125.84-86.62,31.43-133.66-216.58,79.38-37.07-10.81-35.17,84.51-2.65v4.69l-78.22,2.45,10.2,33.16-78.22,36.59,128.86,208.82,86.93-31.56.95,1.84,60.81,119.04,55.74-119.04,4.25,2.01-59.86,127.88Z"/>
      <path id="Tracé_11397" data-name="Tracé 11397" class="cls-2" d="M3248.71,3146.11l-114.21-45.17-18.6-122.23,4.66-.71,18.2,119.55,111.69,44.21-1.73,4.35Z"/>
      <path id="Tracé_11398" data-name="Tracé 11398" class="cls-2" d="M2251.77,3075.31l-.61-4.66,135.05-18.2,41.59-135.16,4.49,1.39-42.51,138.05-138.01,18.57Z"/>
      <path id="Tracé_11399" data-name="Tracé 11399" class="cls-2" d="M2276.8,3287.8l-59.04-169.54,4.46-1.53,56.25,161.58,93.05-113.66,89.11,34.01,126.18-185.39-83.36-46.93,13.03-49.45-71.25-17.75,1.12-4.56,75.88,18.91-13.3,50.54,84.62,47.61-131.14,192.7-89.41-34.21-96.18,117.68Z"/>
      <path id="Tracé_11400" data-name="Tracé 11400" class="cls-2" d="M2891.94,3445.65h-282.93l-5.31-161.21-116.65-68.97,144.37-200.66,134.88,55.61,145.46-42.31,128.39,213.92-140.29,66.12-7.92,137.5ZM2613.57,3440.95h273.95l7.86-135.77,138.15-65.1-123.86-206.37-143.52,41.76-132.98-54.82-139.2,193.38,114.44,67.68v1.29l5.17,157.94Z"/>
      <path id="Tracé_11401" data-name="Tracé 11401" class="cls-3" d="M2732.09,2804.8c-332.35,0-601.77,269.42-601.77,601.77s269.42,601.77,601.77,601.77,601.77-269.42,601.77-601.77c.04-332.31-269.32-601.74-601.64-601.77h-.14ZM2732.09,3980.42c-316.97,0-573.92-256.95-573.92-573.92s256.95-573.92,573.92-573.92,573.92,256.95,573.92,573.92v.07c-.09,316.89-257.02,573.73-573.92,573.71v.14Z"/>
    </g>
  </g>
</svg>