<?xml version="1.0" encoding="UTF-8"?><svg id="Calque_2" xmlns="http://www.w3.org/2000/svg" viewBox="0 0 12324.12 12324.12"><defs><style>.cls-1{fill:#e5620b;}.cls-2{fill:#fff;}.cls-3{fill:#fefefe;}.cls-4{fill:#252951;}.cls-5{fill:#242850;}.cls-6{fill:#22264f;}.cls-7{fill:#20244d;}.cls-8{fill:#23274f;}</style></defs><g id="Calque_1-2"><path class="cls-2" d="m6162.06,12176.3c-811.85,0-1599.5-159.04-2341.05-472.69-716.19-302.93-1359.37-736.55-1911.66-1288.84-552.28-552.29-985.91-1195.46-1288.84-1911.65-313.65-741.56-472.69-1529.21-472.69-2341.06s159.04-1599.5,472.69-2341.06c302.93-716.19,736.55-1359.36,1288.84-1911.65,552.29-552.29,1195.47-985.92,1911.66-1288.84,741.55-313.65,1529.2-472.69,2341.05-472.69s1599.5,159.04,2341.06,472.69c716.19,302.93,1359.36,736.55,1911.65,1288.84,552.29,552.29,985.92,1195.46,1288.85,1911.65,313.65,741.56,472.69,1529.21,472.69,2341.06s-159.04,1599.5-472.69,2341.06c-302.93,716.19-736.55,1359.36-1288.85,1911.65-552.29,552.29-1195.46,985.92-1911.65,1288.84-741.56,313.65-1529.21,472.69-2341.06,472.69Z"/><path class="cls-7" d="m6162.06,295.64c3239.94,0,5866.42,2626.48,5866.42,5866.41s-2626.48,5866.42-5866.42,5866.42S295.64,9401.99,295.64,6162.06,2922.12,295.64,6162.06,295.64m0-295.64c-831.74,0-1638.76,162.96-2398.64,484.36-365.19,154.46-717.39,345.63-1046.83,568.19-326.23,220.39-632.99,473.49-911.76,752.27-278.77,278.77-531.87,585.53-752.27,911.76-222.56,329.43-413.73,681.64-568.19,1046.83C162.97,4523.29,0,5330.31,0,6162.06s162.97,1638.76,484.36,2398.64c154.46,365.19,345.63,717.4,568.19,1046.83,220.39,326.23,473.5,632.99,752.27,911.76,278.77,278.77,585.53,531.87,911.76,752.27,329.43,222.56,681.64,413.73,1046.83,568.19,759.88,321.4,1566.9,484.37,2398.64,484.37s1638.76-162.96,2398.64-484.37c365.19-154.46,717.4-345.63,1046.83-568.19,326.23-220.4,632.99-473.5,911.76-752.27,278.77-278.77,531.87-585.53,752.27-911.76,222.56-329.43,413.73-681.64,568.19-1046.83,321.4-759.88,484.36-1566.9,484.36-2398.64s-162.97-1638.76-484.36-2398.64c-154.47-365.19-345.63-717.4-568.19-1046.83-220.39-326.23-473.5-632.99-752.27-911.76-278.77-278.77-585.53-531.87-911.76-752.27-329.44-222.56-681.64-413.73-1046.83-568.19C7800.82,162.96,6993.8,0,6162.06,0h0Z"/><path class="cls-7" d="m7010.94,9826.8c-109.02-18.94-218.77-34.46-326.9-57.54-215.83-46.06-416.72-127.65-588.34-270.14-245.21-203.58-366.38-467.72-375.44-784.53-6.43-224.89,38.36-441.91,108.33-654,368.01-1115.44,736.35-2230.77,1106.19-3345.6,65.87-198.57,132.23-397.52,211.24-591.05,83.24-203.89,207.82-382.87,378.03-526.49,189.9-160.25,413.27-239.63,657.75-252.91,336.62-18.29,666.47,25.14,977.91,159.45,313.84,135.35,532.31,362.25,621.75,699.21,58.77,221.39,50.21,445.61-8.15,663.61-67.86,253.45-149.89,503.33-232.05,752.69-352.61,1070.24-706.2,2140.17-1063.3,3208.92-44.25,132.45-111.65,257.16-170.13,390.71-18.87,19.79-34.89,35.79-53.14,48.64-303.03,213.4-632,375.37-983.87,490.38-85.03,27.79-173.18,46.02-259.9,68.64m1706.35-5134.71c9.17-33.84,21.67-67.17,26.9-101.61,17.68-116.53-13.54-216.03-114.76-283.64-185.84-124.14-410.79-45.01-480.77,166.11-386.82,1166.95-774.06,2333.77-1160.96,3500.7-62.31,187.94-126.36,375.38-184.37,564.65-33.77,110.18-20.33,215.87,68.82,299.58,163.33,153.37,428.33,93.04,507.99-115.32,19.54-51.11,34.94-103.81,52.18-155.79,427.75-1289.38,855.49-2578.77,1284.97-3874.67Z"/><path class="cls-7" d="m4772.96,2876.36c152.29,25.71,304.47,52.06,456.89,77.01,460.27,75.37,920.62,150.23,1380.96,225.18,69.26,11.28,138.62,21.93,214.3,33.89-97.51,289.73-194,576.44-292.44,868.93-537.72-87.42-1074.87-174.75-1614.38-262.47-146.28,439.5-291.2,874.92-439.2,1319.62,45.4-19.19,83.77-33.99,120.94-51.36,173.3-81.02,355.08-125.05,546.67-122.24,134.11,1.97,266.35,21.6,394.38,62.25,310.72,98.63,479.41,347.4,464.85,676.89-8.38,189.57-67.47,366.53-125.38,544.36-218.38,670.63-436.04,1341.5-653.97,2012.28-59.36,182.69-136.55,356.85-245.12,516.23-206.51,303.15-490.33,478.6-856.78,511.45-369.21,33.1-728.76-14.85-1066.37-170.46-327.23-150.83-534.52-405.38-597.66-765.67-37.8-215.69-17.61-430.92,41.99-639.06,74.21-259.18,162.66-514.29,245.52-770.98,33.63-104.19,68.74-207.9,104.16-314.8,357.67,58.14,713.68,116.02,1074.66,174.7-4.88,16.05-8.84,30.33-13.53,44.35-124.4,371.78-250.36,743.05-371.79,1115.79-19.08,58.58-29.59,125.03-23.39,185.73,13.79,134.97,111.89,216.99,262.24,235.79,161.34,20.18,277.57-50.45,328.94-205.59,164.29-496.19,326.98-992.92,490.28-1489.44,62.77-190.84,121.41-383.17,189.55-572.07,59.88-166.03-26.69-321.53-221.67-342.56-159.32-17.18-266.96,41.84-340.35,185.37-9.99,19.54-18.23,31.29-43.52,27.07-318.7-53.16-637.55-105.38-956.36-157.88-1.33-.22-2.57-1.04-9.32-3.88,4.26-13.03,8.7-26.82,13.26-40.57,275.96-832.08,551.92-1664.16,827.83-2496.25,1.77-5.32,2.74-10.91,5.12-21.87,10.53-13.71,19.34-22.88,29.59-29.97,199.43-138.04,412.49-251.24,634.94-347.17,13.94-6.01,29.41-8.49,44.16-12.62Z"/><path class="cls-1" d="m4775.24,2874.07c-17.04,6.41-32.5,8.89-46.45,14.9-222.45,95.93-435.51,209.13-634.94,347.17-10.25,7.1-19.07,16.27-30.3,26.55-99.33,75.36-201.66,143.16-293.74,222.82-655.45,567.09-1067.39,1276.42-1226.44,2129.09-82.84,444.14-78.09,889.55,2.98,1334.22,4.49,24.6,1.61,52.96-6.03,76.97-54.57,171.43-111.25,342.19-167.3,513.15-1.54,4.7-3.43,9.28-6.04,16.31-472.54-1291.07-251.41-3253.42,1389.07-4487.93,1571.32-1182.46,3652.05-982.13,4960.01,141.18-31.89-4.33-55.61-7.38-79.27-10.78-162.05-23.3-324.55-31.58-488.06-17.82-17.7,1.49-39.02-4.41-54.21-13.96-448.41-281.82-934.76-460.08-1459.55-529.73-517.15-68.64-1027.24-31.12-1527.34,120.09-111.5,33.71-220.17,76.75-332.43,117.78Z"/><path class="cls-1" d="m7007.93,9828.48c89.73-24.31,177.88-42.53,262.91-70.33,351.88-115.01,680.84-276.98,983.87-490.38,18.25-12.85,34.27-28.85,53.11-45.66,72.09-55.64,145.55-105.37,212.24-162.94,627.59-541.76,1036.15-1216.03,1212.33-2027.08,104.87-482.81,108.1-968.24,14.66-1453.99-4.22-21.92-1.74-47.24,4.81-68.78,54.01-177.43,109.71-354.36,165.04-531.39,1.58-5.05,4.74-9.6,7.93-15.9,540.71,1497.77,133.71,3547.01-1634.41,4680.53-1594.71,1022.35-3468.3,676.26-4531.92-176.11,59.31,0,123.49,3.53,187.14-.79,109.21-7.41,218.03-20.5,327.17-29.24,17.88-1.43,39,2.92,54.51,11.79,338.47,193.46,697.92,331.79,1079.89,409.8,528.7,107.97,1056.22,99.94,1581.93-22,5.42-1.26,10.52-3.88,18.78-7.54Z"/><path class="cls-6" d="m1722.17,8681.95c123.13-58.02,246.26-116.04,369.38-174.08,17.62-8.31,35.19-16.73,55.76-26.52,27.09,56.29,53.01,110.16,80.45,167.18-236.44,114.06-470.23,226.85-708.61,341.85-34.27-71.3-68.03-141.52-102.34-212.9,117.53-130.74,233.89-260.18,358.85-399.18-52.31,2.58-93.16,4.22-133.96,6.68-122.11,7.37-244.3,13.83-366.23,23.51-29.35,2.33-42.39-6.53-53.64-32.18-25.86-58.98-54.87-116.58-84.83-179.4,235.94-113.84,470.62-227.08,708.49-341.85,27.06,56.1,53.05,109.99,80.68,167.26-142.79,69.14-283.34,137.2-423.88,205.25.76,3.09,1.51,6.19,2.27,9.28,165.61-12,331.21-24.01,500.78-36.3,16.78,34.32,33.82,69.18,52.43,107.24-112.46,121.24-225.16,242.74-340.4,368.11-1.82,6.04-1.11,8.2-.4,10.37,1.73-1.44,3.47-2.88,5.2-4.32Z"/><path class="cls-6" d="m1122.55,7017.6c-94.61,7.55-185.28,14.76-278.67,22.19-4.2-49.05-10.36-94.97-10.76-140.94-.13-14.62,11.7-33.5,23.81-43.42,121.82-99.86,244.87-198.22,367.47-297.14,10.39-8.38,20.02-17.71,36.5-32.37-156.97,12.5-304.82,24.28-456.27,36.34-4.85-64.57-9.42-125.57-14.26-189.94,262.61-20.97,521.27-41.63,783.42-62.57,4.08,52.29,9.54,99.59,10.23,146.97.17,11.79-12.84,26.5-23.54,35.32-119.36,98.46-239.47,196-359.33,293.85-10.65,8.7-21,17.77-29.24,36.4,145.27-11.51,290.54-23.02,440.6-34.91,5.13,63.89,10.02,124.82,15.23,189.79-168.61,13.48-334.94,26.78-505.2,40.42Z"/><path class="cls-6" d="m10437.82,8139.78c202.31,104.61,401.74,207.92,608.3,314.91-68.06,123.6-129.33,248.25-203.29,364.85-57.79,91.11-154.43,115.08-239.23,77.51-78.22-34.65-105.87-91.61-99.96-209.27-5.69,4.18-10.61,6.55-13.86,10.35-58.61,68.71-125.95,91.13-201.8,66.89-85.67-27.37-143.14-94.51-146.05-181.28-1.38-41.14,1.32-86.87,17.94-123.34,56.37-123.69,119.78-244.17,182.27-369.44,33.72,17.26,63.27,32.38,95.68,48.81m-44.34,197.06c-23.13,44.75-50.27,87.94-68.41,134.63-24.15,62.14,10.7,117.82,73.08,123.43,42.2,3.79,73.68-17.6,94.29-52.32,23.41-39.44,43.38-80.93,66.34-124.35-55.06-28.54-107.16-55.56-165.3-81.39m372.77,320.65c17.84-34.39,35.68-68.78,54.46-104.98-52.06-26.82-100.45-51.75-151.4-78-18.09,33.95-36.37,65.39-51.94,98.12-25.51,53.61-14.3,101.48,27.54,126.18,43.13,25.46,78.44,14.71,121.35-41.32Z"/><path class="cls-6" d="m5488.69,1610.01c-16.48-216.94-32.63-429.95-49.14-647.7,93.03-7.27,185.07-15.51,277.27-21.2,44.69-2.76,90.19-5.14,134.43-.03,109.1,12.61,185.05,79.91,209.97,179.69,29.59,118.48-1.46,213.02-92.27,281.18-4.44,3.33-8.61,7.01-15.12,12.34,59.5,92.14,118.82,184,182.93,283.27-69.15,5.47-132.57,11.44-196.12,14.41-8.54.4-20.11-12.76-26.32-22.23-37.02-56.44-72.85-113.65-109.12-170.58q-44.87-70.45-135.7-51.27c6.19,85.66,12.44,172.07,19.06,263.8-62.88,4.82-123.78,9.5-189.01,14.5-3.68-46.27-7.1-89.26-10.85-136.17m169.67-511.33c-5.6,4.84-16.31,10-16.02,14.46,4.26,66.51,9.97,132.92,15.44,200.58,41.38-3.2,77.62-5.74,113.79-8.99,8.23-.74,16.31-3.71,24.34-6.07,56.59-16.66,80.03-48.85,76.04-104.22-4.39-60.86-32.87-93.87-92.92-99.08-37.36-3.24-75.4,1.32-120.67,3.33Z"/><path class="cls-6" d="m3516.76,2509.4c.52,13.63,3.39,30.56-2.71,34.92-44.48,31.77-90.76,61.01-141.27,94.21-144.9-217.67-288.66-433.64-433.93-651.86,9.05-7.26,16.95-14.6,25.79-20.52,86.47-57.95,171.46-118.31,260-172.91,208.52-128.59,373.02,9.97,409.15,167.88,13.1,57.25.11,111.04-29.35,165.09,99.38,52.18,197.13,103.49,300.77,157.9-57.36,38.31-110.3,74.79-164.82,108.71-7.25,4.51-23.82-1.56-33.95-6.81-64.87-33.67-130.84-65.73-193.01-103.93-38.23-23.49-68.24-23.84-100.1,6.51-7.94,7.57-17.98,12.94-29.57,21.1,44.25,66.51,87.73,131.85,133.01,199.72m-296.28-443.48c26.06,39,52.11,78,81.81,122.44,45.5-37.37,88.45-66.96,124.11-103.63,31.84-32.74,27.58-73.3-1.25-115.5-25.92-37.94-66.77-58.87-104.64-42.56-48.86,21.04-94,50.7-141.4,77.02,16.25,24.54,27.08,40.89,41.37,62.24Z"/><path class="cls-6" d="m10662.35,4545.95c-13.43-3.36-26.59-7.18-37.18-3.54-72.76,25.02-144.99,51.6-221.48,79.16-21.71-60.22-42.44-117.73-64.42-178.69,246.85-89.32,490.83-177.61,739.24-267.5,22.58,61.76,45.57,121.7,66.39,182.37,22.3,64.98,48.99,129.39,62.3,196.32,22.55,113.41-21.8,207.68-111.71,260.56-109.14,64.2-208.11,58.67-305.18-16.95-2.12-1.65-5.01-2.32-11.32-5.14-72.33,81.52-145.48,163.96-222.16,250.38-23.5-63.64-46.39-122.29-65.91-182.05-3.01-9.2,6.99-25.67,15.22-35.03,49.22-55.98,97.88-112.68,150.48-165.38,28.03-28.08,34.7-53.94,15.91-87.83-4.04-7.28-5.87-15.77-10.18-26.69m323.47-133.79c-61.6,22.31-123.19,44.62-190.25,68.91,21.01,48.24,36.98,94.77,60.83,136.84,23.57,41.58,60.19,52.05,105.34,40.51,46.69-11.94,85.44-43.73,79.59-85.42-7.8-55.69-32.43-109.03-55.51-160.85Z"/><path class="cls-6" d="m1689.35,7727.97c-127.19,148.49-288.03,198.09-471.66,158.45-154.37-33.33-235.38-146.02-264.29-295.53-29.08-150.38,15.6-278.62,143.99-364.87,123.64-83.06,262.58-116.92,409.31-70.44,228.05,72.24,320.52,362.91,182.65,572.39m-444.28-365.19c-24.94,15.46-52.29,28.1-74.34,46.94-50.32,43.01-66.56,98.44-50.3,163.22,15.93,63.48,51.59,110.96,116.8,125.24,109.54,24,209.34-4.11,295.29-74.01,51.46-41.84,64.78-100.2,47.71-164.09-17.27-64.61-56.14-108.99-123.36-124.53-71.56-16.54-139.06.67-211.79,27.21Z"/><path class="cls-6" d="m10871.57,3892.65c-37.17,184.07-164.47,276.55-326.29,328.57-176.37,56.7-340.09-16.11-430.22-182.26-87.77-161.79-57.37-340.06,83.8-456.82,110.89-91.72,236.22-149.37,385.1-117.64,182.46,38.88,306.43,223.81,287.61,428.14m-214.62-190.86c-38.87-44.97-88.5-64.76-146.67-55.7-98.1,15.28-180.54,60.66-240.23,141-40.97,55.15-39.39,115.54-6.84,174.34,33.22,60.01,83.71,93.99,154.43,89.61,80.39-4.98,147.69-42.13,207.77-92.37,88.26-73.82,98.83-155.68,31.53-256.88Z"/><path class="cls-6" d="m4660.4,1584.88c42.32,107.22,83.68,211.34,126.29,318.58-59.4,23.47-116.37,45.98-177.31,70.06-39.08-97.74-77.41-193.59-117.17-293.04-96.11,38.07-189.39,75.03-286.48,113.5,38.97,98.89,76.84,194.97,115.7,293.57-58.91,23.8-115.67,46.74-176.15,71.18-97-244.27-193.17-486.48-290.52-731.63,59.8-24.15,116.69-47.12,176.26-71.18,39.34,98.37,77.76,194.43,117.24,293.15,96.75-38.4,190.31-75.52,286.51-113.71-38.73-98.02-76.25-192.96-115.86-293.19,59.02-23.38,116.63-46.2,177.15-70.18,55.36,138.85,109.37,274.33,164.33,412.91Z"/><path class="cls-8" d="m3861.91,10643.33c-117.05,65.34-285.72-4.78-331.14-138.83-45.78-135.12,48.13-302.14,189.07-337.15,225.87-56.12,444.23,150.06,395.99,376.51-27.7,130.03-91.3,242.35-192.9,329.09-165.83,141.57-415.07,85.4-498.88-110.09-27.83-64.93-27.59-129.74-.47-198.95,56.61,30.23,109.58,58.51,163.53,87.32-10.79,57.63,12.73,97.56,62.31,121.81,51.49,25.19,100.31,14.87,140.01-23.61,28.92-28.03,51.8-62.28,79.69-97.52-.86-5.37-4.04-6.98-7.21-8.58m-27.36-78.1c75.2-15.37,116.82-66.88,111.69-138.25-4.17-58.01-54.79-106.06-114.23-108.45-67.24-2.71-123.86,49.69-127.63,118.11-4.06,73.54,41.37,121.18,130.18,128.59Z"/><path class="cls-6" d="m7283.46,11345.24c-149.72-139.17-194.9-312.99-168.02-504.83,18.85-134.5,112.51-209.55,241.01-240.2,132.12-31.52,244.92,4.95,324.25,115.51,92.93,129.51,130.33,277.18,103.6,435.34-38.01,224.9-302.99,327.51-500.84,194.17m126.95-130.81c72.66,64.65,175.52,29.1,187.21-79.12,12.86-119.11-17.09-231.55-86.96-330.48-28.27-40.02-67.67-64.68-119.62-52.97-53.01,11.95-82.23,49.7-87.85,101-14.52,132.5,18.78,252.59,107.23,361.57Z"/><path class="cls-6" d="m6595.96,942.1c30.49,2.92,57.44,9.51,83.55,7.09,44.76-4.13,58.47,16.73,68.03,57.18,55.86,236.37,114.71,472.04,172.45,707.97,3.3,13.47,5.75,27.14,9.47,44.94-64.08-5.24-125.25-9.36-186.11-16.27-8.12-.92-18.52-14.93-21.2-24.71-10.03-36.5-19.84-73.43-24.78-110.85-3.85-29.2-19.11-36.38-44.58-38.21-67.29-4.82-134.55-10.33-201.65-17.23-23.42-2.41-37.25,3.72-42.99,27.4-2.61,10.77-8.51,20.73-12.81,31.11q-42.82,103.39-155.03,90.97c-27.87-3.07-55.81-5.52-87.44-8.62,4.29-12.37,7.16-22.84,11.45-32.68,99.71-229.3,200.35-458.2,298.5-688.17,13.52-31.69,29.31-43.24,62.11-37.06,22.01,4.15,44.72,4.62,71.03,7.12m57.11,470.73c-19.42-88.12-38.83-176.23-58.25-264.35-3.08-.31-6.16-.62-9.24-.92-35.17,85.66-70.33,171.31-109.11,265.75,63.38,2.5,119.78,4.72,176.59-.48Z"/><path class="cls-6" d="m11259.56,7799.3c-153.84-50.68-304.49-100.42-455.35-149.55-53.23-17.34-101.57-6.02-138.3,35.68-39.46,44.79-55.3,97.66-33.01,156.45,16.14,42.58,49.27,66.5,91.65,80.35,142.8,46.67,285.39,93.96,428.04,141.08,10.48,3.46,20.78,7.47,34.39,12.38-19.64,59.97-38.69,118.12-58.94,179.99-108.74-35.55-215.04-70.34-321.36-105.03-46.72-15.24-93.46-30.43-140.28-45.38-154.92-49.48-228.02-157.39-212.06-319.71,9.59-97.53,45.34-185.29,115.21-256.39,66.07-67.24,149.15-99.12,238.52-74.15,176.58,49.33,350.18,109.29,527.36,165.61-18.7,58.32-35.28,111.7-53.42,164.56-2.25,6.55-12.7,10.27-22.46,14.12Z"/><path class="cls-6" d="m9732.97,2625c-4.51-13.88-11.34-27.39-7.86-37.23,25.3-71.46-51.15-175.84-126.66-171.07-39.66,2.51-71.31,42.22-57.24,80.29,13.41,36.29,34.09,70.53,55.5,103.08,40.26,61.2,81.82,120.91,94.33,195.69,23.99,143.37-111.99,279.54-253.42,245.92-154.9-36.82-259.34-138.24-313.71-285.53-33.23-90.02-.13-170.39,65.64-242.67,44.72,41.15,87.63,80.64,130.04,119.66-45.35,96.01-10.52,182.88,87.21,222.18,31.2,12.55,60.5,12.01,85.71-13.26,23.56-23.62,22.01-51.98,8.16-77.94-21.75-40.76-47.83-79.19-71.07-119.19-22.51-38.75-48.95-76.27-64.62-117.74-55.87-147.92,43.06-285.54,201.83-284.77,177.43.87,357.23,186.16,339.07,355.22-4.83,44.99-29.49,87.86-48.38,141.08-48.02-43.92-85.04-77.78-124.51-113.71Z"/><path class="cls-6" d="m7550.41,1484.88c30.95-118.44,61.13-233.5,92.1-351.6,63.29,16.6,122.49,32.12,184.4,48.36-46.6,175.88-88.69,349.05-139.13,519.76-30.06,101.72-107.44,161.22-211.86,176.33-127.01,18.38-244.05-11.52-342.21-96.62-74.65-64.73-107.56-150.18-85.27-246.58,40.14-173.54,87.37-345.43,132.47-521.27,62.22,16.14,121.48,31.52,184.89,47.97-19.3,75.15-38,148.17-56.82,221.17-22.43,87.02-46.11,173.74-67.1,261.11-17.98,74.83,22.19,139.97,97.14,162.66,75.98,23,149.69-10.85,174.56-83.62,14.95-43.76,24.22-89.46,36.81-137.67Z"/><path class="cls-6" d="m2906.48,2627.23c-28.18,25.49-54.19,48.95-82.9,74.84,35.97,39.83,70.42,77.98,107.36,118.89,88.96-79.96,176.3-158.46,265.93-239.03,35.11,38.5,69.06,75.74,105.15,115.31-135.46,121.88-270.1,243.03-408.61,367.65-175.67-195.02-350.21-388.79-527.47-585.57,136.67-122.94,271.15-243.89,408.37-367.32,35.06,38.49,68.75,75.49,104.51,114.74-89.68,80.77-177.1,159.52-266.54,240.08,36.83,40.72,71.47,79.01,107.4,118.74,83.07-74.33,163.58-146.36,245.66-219.81,34.69,38.55,67.4,74.89,103.04,114.49-54.18,49.17-106.95,97.06-161.9,146.99Z"/><path class="cls-8" d="m5287.65,1630.02c30.61-6.47,57.77-12.19,88.17-18.6,11.04,49.83,21.57,97.32,33.11,149.4-179.16,40.67-355.16,80.62-534.8,121.4-57.46-255.47-114.38-508.53-172.75-768.01,176.93-39.9,352.69-79.54,534.22-120.47,11.73,49.29,23.26,97.72,35.89,150.77-117.17,26.79-232.68,53.19-349.92,80,12.04,52.52,23.25,101.45,35.48,154.81,107.63-23.77,212.42-46.92,321.46-71.01,11.57,49.99,22.5,97.23,34.79,150.31-107.29,24.79-212.95,49.21-321.69,74.34,12,53.43,23.23,103.39,35.15,156.45,88-20.05,172.72-39.35,260.89-59.39Z"/><path class="cls-6" d="m1303.75,4394.91c-7.85,19.88-14.37,36.83-22.45,57.85,48.79,19.47,96.39,38.46,148.81,59.38,40.55-102.75,80.36-203.65,121.07-306.8,49.07,19,94.43,36.57,143.97,55.75-39.54,101.7-78.47,201.83-119.27,306.79,49.2,19.67,98.01,39.18,149.31,59.69,43.83-111.66,86.77-221.02,130.83-333.27,49.45,19.3,95.96,37.46,144.32,56.33-67.34,170.91-133.59,339.06-201.33,510.99-244.36-96.17-485.56-191.1-731.67-287.95,66.45-169.52,132.22-337.33,200.01-510.29,48.4,18.84,94.62,36.83,144.37,56.19-36.34,92.83-71.49,182.62-107.98,275.34Z"/><path class="cls-6" d="m10908.7,6494.99c23.89,14.92,45.52,27.65,70.49,42.35v184.61c-59.11-3.34-107.26-25.55-150.68-59.53-112.03-87.66-159.51-243.95-116.85-393.14,42.19-147.55,143.24-232.76,292.59-257.35,126.97-20.9,250.98-9.25,358.99,69.09,124.12,90.03,156.93,218.48,137.87,362.81-16.22,122.84-77.53,216.07-197.42,262.08-29.77,11.42-61.82,16.88-95.78,25.86v-192.14c94.43-29.73,130.87-73.2,131.71-154.49.85-81.73-46.18-144.19-130.67-170.72-73.03-22.93-147.14-24.08-219.98-.35-124.22,40.47-163.63,175.76-80.27,280.92Z"/><path class="cls-6" d="m884.01,5343.71c-4.39-10.24-7.93-20-5.97-28.49,24.33-105.38,47.69-211.04,74.85-315.7,31.42-121.08,119.02-196.66,240.38-201.98,105.57-4.62,217.21,43.27,265.21,146.41,31.1,66.83,30.33,136.03,14.53,206.25-9.19,40.83-18.25,81.68-28.42,127.21,79.15,19.08,156.2,37.66,236.76,57.09-14.93,63.07-28.99,122.47-43.81,185.05-252.88-58.91-501.51-116.83-753.54-175.82m267.13-338.61c-70.24,41.97-66.64,116.34-85.7,184.86,79.01,18.65,153.34,36.19,230.98,54.51,7.93-32.47,15.73-61.92,22.28-91.66,24.07-109.26-52.45-180.16-167.56-147.72Z"/><path class="cls-6" d="m9986.44,2822.97c51.69-41.39,101.09-80.82,155.17-123.99,79.26,102.7,165,200.19,234.88,307.96,78.57,121.17,44.14,256.17-72.97,346.29-111.24,85.6-246.05,78.47-347.33-22.4-43.51-43.34-80.66-93.06-121.74-141.09-62.51,49.95-123.84,98.96-189.45,151.39-39.41-49.18-78.41-97.83-119.5-149.11,153.99-123.25,306.33-245.17,460.95-369.05m185.71,162.89c-10.6-12.83-21.19-25.67-33.35-40.39-62.72,50.16-123.39,98.69-185.76,148.58,25.86,31.59,47.46,60.96,72.13,87.46,47.94,51.49,106.71,55.19,161.26,12.43,52.99-41.54,61.88-95.53,24.61-156.03-10.24-16.62-23.16-31.6-38.9-52.05Z"/><path class="cls-6" d="m8741.72,9991.22c18.16-10.86,33.65-20.14,52.45-31.42,88.1,143.84,175.06,285.82,263.85,430.79,27.44-16.42,52.32-31.31,80.92-48.43,26.08,42.79,51.22,84.03,77.83,127.7-26.63,17.11-51.11,32.84-78.36,50.34,21.15,35.53,41.76,70.16,65.58,110.19-50.53,31.36-100.9,62.62-153.77,95.44-23.69-37.55-45.9-72.76-69.52-110.2-107.82,65.78-213.2,130.08-321.32,196.04-41.77-64.87-85.71-122.16-79.95-209.35,10.45-158.27,7.38-317.46,8.49-476.28.21-29.62,7.94-48.87,35.86-63.33,39.81-20.61,76.96-46.36,117.92-71.48m98.17,533.12c21.22-12.96,42.43-25.91,66.38-40.54-53.31-87.33-104.42-171.06-155.52-254.79-3.22,1.08-6.44,2.16-9.66,3.23v352.27c34.23-20.69,63.98-38.67,98.8-60.16Z"/><path class="cls-6" d="m5062.57,10678.26c20.67-29.41,43.74-31.82,74.92-23.08,61.85,17.32,125.1,29.66,191.57,44.93-38.07,165.02-75.48,327.22-113.48,491.94,30.38,7.81,58.37,15,90.09,23.16-10.67,47.99-20.89,93.98-32.14,144.57-29.86-6.4-57.94-12.42-90.51-19.41-10.54,41.21-20.8,81.28-31.98,124.98-58.84-13.22-115.52-25.95-175.67-39.47,9.27-42.44,17.83-81.67,27.84-127.5-122.5-28.79-244.57-57.48-364.99-85.78,5.39-92.81,38.91-164.47,107.78-225.98,109-97.35,210.02-203.64,316.57-308.36m39.03,215.58c1.75-10.73,3.5-21.47,4.97-30.49-82.85,83.81-163.93,165.82-245.13,247.95,56.28,13.02,116.77,27.01,180.58,41.77,20.04-86.83,39.16-169.64,59.58-259.23Z"/><path class="cls-8" d="m7876.53,10714.66c-19.8,8.18-36.49,15.26-57.14,24.01-35.06-78.51-34.09-153.61,8.1-226.28,62.87-108.3,236.4-182.33,358.95-155.23,134.73,29.79,209.75,154.09,167.39,294.74-28.19,93.6-71.98,182.5-108.92,273.45-6.71,16.51-14.01,32.79-24.97,58.33,102.71-43.89,197.16-84.25,295.09-126.09,20.19,46.39,39.55,90.87,61.24,140.7-178.06,76.6-354.04,152.31-534.71,230.04-17.48-39.29-35.95-76.64-50.19-115.53-3.87-10.56,2.81-26.83,8.39-38.73,56.04-119.53,114.07-238.14,168.62-358.34,13.56-29.89,22.89-64.52,23.15-97.06.55-69.88-53.29-114.99-118.12-105.75-72.06,10.26-110.7,65-95.5,135.09,1.42,6.56,1.93,13.31,3.07,21.42-34.77,15.14-68.06,29.63-104.45,45.22Z"/><path class="cls-8" d="m6891.98,10772.52c101.98,81.83,128.36,199.6,59.22,309.51-48.28,76.75-111.37,144.22-168.4,215.39-17.33,21.62-36.49,41.77-63.88,72.88,113.61-12.3,215.31-23.32,320.71-34.73,6.09,50.11,11.93,98.26,18.42,151.65-193.38,21.47-384.02,42.63-579.66,64.35-4.65-43.58-10.77-84.96-12.37-126.51-.44-11.34,11.04-24.74,19.94-34.59,85.76-94.99,172.69-188.93,257.92-284.38,19.44-21.78,36.82-46.7,49.52-72.9,20.42-42.14,18.88-85.47-13.36-122.23-32.28-36.81-74.55-42.49-119.66-29.46-47.66,13.77-71,47.58-74.64,96.11-.41,5.51-.65,11.04-1.26,21.55-56.28,6.48-112.81,12.99-174.53,20.09-10.61-86.89,10.94-159.37,75.68-217.03,99.7-88.79,280.48-102.56,406.35-29.7Z"/><path class="cls-8" d="m10823.34,5450.2c-61.09,12.01-118.76,22.87-179.78,34.37-12.03-61.56-23.47-120.13-35.85-183.5,206.8-40.54,411.22-80.62,619.66-121.48-14.88-78.32-29.19-153.62-44.37-233.53,48.74-9.82,96.26-19.38,150.49-30.3,42.71,217.08,85.08,432.41,128.36,652.39-50.54,10.1-99.21,19.82-151.84,30.34-15.75-78.39-31.08-154.69-46.96-233.72-147.38,28.47-291.83,56.38-439.7,85.44Z"/><path class="cls-6" d="m8793.79,2095.16c-66.68,109.14-131.7,215.68-198.44,325.02-54.26-32.77-105.55-63.75-160.71-97.07,109.43-179.59,218-357.75,328.46-539.02-68.68-42.23-135.18-83.13-203.65-125.24,26.9-44.22,52.22-85.86,80.14-131.76,189.91,115.35,377.67,229.4,568.41,345.27-27.48,45.16-53.32,87.64-80.35,132.06-68.47-41.36-133.19-80.47-203.22-122.77-43.23,70.68-86.11,140.79-130.65,213.52Z"/><path class="cls-8" d="m954.44,6056.88c-3.18,47.3-6.18,90.67-9.55,139.59-52.05-4.08-101.45-7.96-154.95-12.15,17.19-221.99,34.08-440.09,51.27-662.15,50.27,3.6,98.6,7.05,153.84,11-5.9,78.78-11.69,156.27-17.82,238.15,208.8,16.37,416.5,32.65,629.22,49.33-4.61,62.09-9.02,121.55-13.82,186.3-210.58-16.21-418.42-32.22-628.52-48.4-3.37,33.57-6.42,63.98-9.66,98.31Z"/><path class="cls-8" d="m4283.88,10897.32c88.55-82.29,174.94-162.52,267.53-248.5-118.58-44.44-231.79-86.87-347.84-130.37,17.28-47.48,33.89-93.15,52.46-144.19,177.23,65.69,352.76,130.75,533.04,197.56-30.23,69.62-43.18,141.61-105.71,196.3-149.08,130.4-292.15,267.7-436.4,403.54-22.51,21.2-40.75,26.48-69.65,13.55-44.53-19.92-91.33-34.78-144.18-54.39,85.51-79.61,167.05-155.52,250.76-233.5Z"/><path class="cls-6" d="m2074.79,3890.26c28.85-51.44,56.36-100.1,85.29-151.28,46.42,26.11,89.83,50.52,135.02,75.93-84.81,151.53-167.62,299.5-252.78,451.65-229.32-128.16-456.7-255.24-687.26-384.1,31.26-55.93,61.09-109.3,92.98-166.36,183.44,102.42,364.64,203.58,551.26,307.77,25-44.12,49.57-87.47,75.48-133.61Z"/><path class="cls-8" d="m10826.86,6822.24c213.55,36,423.44,71.74,635.93,107.92-10.9,63.8-20.98,122.85-32,187.4-207.4-35.21-412.66-70.06-622.15-105.63-19.06,108.7-37.39,213.22-56.54,322.42-50.83-8.62-99.7-16.91-152.25-25.82,29.14-171.02,57.78-339.09,86.9-509.95,48.41,8.3,92.44,15.85,140.13,23.66Z"/><path class="cls-6" d="m8197.57,2158.76c-10.67,7-22.57,16.76-29.2,13.97-151.39-63.63-302.21-128.63-456.7-194.91,102.95-241.47,204.75-480.23,308.55-723.7,58.25,25.18,115.24,49.81,175.35,75.79-82.82,194.18-164.2,385-247.28,579.79,99.71,43.15,197.16,85.33,299.37,129.57-16.74,39.86-32.8,78.13-50.09,119.49Z"/><path class="cls-6" d="m2326.88,3502.03c65.95-85.56,129.16-169.69,194.35-256.43,41.09,30.77,80.24,60.08,123.57,92.53-102.71,138.24-204.52,275.26-308.84,415.66-210.51-156.72-418.75-311.75-631.37-470.04,37.5-50.44,73.95-99.47,112.28-151.02,11.53,7.56,21.96,13.68,31.61,20.83,149.18,110.62,298.24,221.41,447.44,332.01,8.93,6.62,18.8,11.96,30.97,16.46Z"/><path class="cls-6" d="m3291.85,10395.26c-57.8,81.25-114,159.94-171.36,240.23-51.95-36.95-101.01-71.84-154.54-109.92,116.29-164.51,231.71-327.8,352.14-498.17-71.04-5.58-135.64-10.65-209.24-16.43,32.19-44.72,60.51-85.28,90.58-124.51,4.45-5.8,17.23-7.53,26.03-7.24,30.86,1.03,62.2,8.45,92.4,5,106.32-12.12,179.7,48.95,257.89,111.57-93.98,132.12-188.15,264.5-283.91,399.46Z"/><path class="cls-1" d="m9556.26,9321.39c41.73-13.94,79.87-27.4,119.87-41.51,30.46,101.55,98.68,180.05,183.07,252.21,63.45-91.29,103.27-187.68,107.48-294.02,46.26,3.93,90.82,7.71,137.71,11.69,15.29,40.19,31.94,83.96,49.15,129.2-102.21,32.72-181.68,99.42-253.17,184.47,91.98,60.38,186.27,103.25,293.98,105.91-3.87,47.02-7.6,92.24-11.42,138.59-39.12,14.8-81.76,30.93-128.69,48.68-30.54-101.23-99.3-180.11-183.5-252.8-64.06,90.88-101.83,186.99-108.18,293.86-47.36-4.13-91.49-7.98-137.2-11.97-14.9-39.33-31.08-82.04-48.72-128.6,102.19-32.82,181.95-100.57,252.51-184.52-91.64-61.07-186.93-102.28-286.73-106.95,0-45.09-.36-86.68.45-128.24.1-5.23,6.38-10.33,13.38-15.99Z"/><path class="cls-1" d="m2739.73,9442.41c-6.71,10.68-13.84,23.03-22.2,23.92-99.09,10.52-186.4,50.07-268.34,104.24,42.26,68.78,112.06,121.46,249.08,188.83-15.89,41.66-31.73,83.21-48.18,126.33-42.91,3.88-89.68,8.12-139.88,12.66,1.19-106.73-43.72-200.24-104.39-294.82-84.78,71.38-153.24,149.98-184.18,253.63-45.38-17.26-87.98-33.46-129.9-49.4-3.62-43.96-7.38-89.51-11.4-138.26,106.21-2.39,201.14-44.81,294.73-105.94-71.03-84.47-150.51-152.18-254.08-184.44,17.43-44.67,34.14-87.47,50.62-129.71,42.79-3.35,87.22-6.84,131.1-10.28,12.01,49.47,20.18,101.99,37.96,151.02,17.49,48.22,44.75,92.89,70.45,144.62,88.99-73.74,155.94-153.72,188.14-255.44,45.39,17.03,88.24,33.11,130.15,48.84,3,35.7,6.15,73.12,10.3,114.2Z"/><path class="cls-6" d="m2805.11,3167.74c-35.03,38.47-67.99,74.75-103.75,114.11-194.16-175.84-386.68-350.18-583.06-528.04,43-47.39,84.91-93.59,128.4-141.52,194.96,176.61,387.52,351.03,582.78,527.9-8.22,9.35-15.26,17.35-24.37,27.55Z"/><path class="cls-5" d="m5989.33,11161.96c23.3.89,42.68,1.74,62.08,2.59v144.59c-123.61-6.49-242.14-12.72-365.24-19.18,2.09-47.01,4.13-92.71,6.49-145.89,98.17,5.99,195.46,11.92,296.67,17.9Z"/><path class="cls-4" d="m4909.62,904.49q16.32-95.46,106.09-115.14c22.98-5.04,45.94-10.21,75.59-16.81-24.81,64.56-46.87,123.92-71.01,182.41-3.26,7.9-16.37,13.93-26.07,16.57-30.98,8.43-62.51,14.84-100.92,23.67,5.49-31.55,10.34-59.43,16.33-90.7Z"/><path class="cls-3" d="m1721.01,8680.75c-.57,2.64-2.31,4.08-4.04,5.52-.71-2.16-1.42-4.33-.79-7.81,1.34-1.32,3.67,1.09,4.83,2.29Z"/><path class="cls-3" d="m3863.25,10645.02c1.83-.08,5,1.52,6.24,3.98-2.92-.19-3.91-1.24-6.24-3.98Z"/></g></svg>